<?xml version="1.0" encoding="UTF-8"?>
<svg xmlns="http://www.w3.org/2000/svg" xmlns:xlink="http://www.w3.org/1999/xlink" version="1.2" >
<font id="Stavian Italic">
<font-face  font-family="Stavian" units-per-em="1000" ascent="1000" descent="-250" font-style="italic" font-weight="400" font-stretch="normal" slope="-10" cap-height="700" x-height="499" underline-position="-75" underline-thickness="50" />
<missing-glyph  horiz-adv-x="491" d="M60 712 L469 712 L469 0 L60 0 L60 712 Z M402 66 L402 646 L128 646 L128 66 L402 66 Z " />
<glyph glyph-name="null" d="" />
<glyph glyph-name="nonmarkingreturn" unicode="&#xd;" horiz-adv-x="260" d="" />
<glyph glyph-name="space" unicode="&#x20;" horiz-adv-x="260" d="" />
<glyph glyph-name="A" unicode="A" horiz-adv-x="647" d="M472 194 L164 194 L58 0 L-22 0 L370 700 L404 700 Q437 700 445 660 L528 256 L529 256 L529 254 L581 0 L509 0 L472 194 Z M198 256 L459 256 L391 604 L390 604 L198 256 Z " />
<glyph glyph-name="Aacute" unicode="&#xc1;" horiz-adv-x="647" d="M472 194 L164 194 L58 0 L-22 0 L370 700 L404 700 Q437 700 445 660 L528 256 L529 256 L529 254 L581 0 L509 0 L472 194 Z M198 256 L459 256 L391 604 L390 604 L198 256 Z M495 933 L579 933 L453 781 L385 781 L495 933 Z " />
<glyph glyph-name="Abreve" unicode="&#x102;" horiz-adv-x="647" d="M472 194 L164 194 L58 0 L-22 0 L370 700 L404 700 Q437 700 445 660 L528 256 L529 256 L529 254 L581 0 L509 0 L472 194 Z M198 256 L459 256 L391 604 L390 604 L198 256 Z M416 773 Q359 773 326 803.5 Q293 834 293 886 Q293 898 294 904 L295 912 L353 912 L352 904 Q351 899 351 891 Q351 860 369.5 841.5 Q388 823 419 823 L431 823 Q470 823 496.5 845 Q523 867 527 904 L528 912 L585 912 L584 904 Q577 845 534 809 Q491 773 428 773 L416 773 Z " />
<glyph glyph-name="uni1EAE" unicode="&#x1eae;" horiz-adv-x="647" d="M472 194 L164 194 L58 0 L-22 0 L370 700 L404 700 Q437 700 445 660 L528 256 L529 256 L529 254 L581 0 L509 0 L472 194 Z M198 256 L459 256 L391 604 L390 604 L198 256 Z M501 1078 L573 1078 L477 962 L417 962 L501 1078 Z M416 773 Q359 773 326 803.5 Q293 834 293 886 Q293 898 294 904 L295 912 L353 912 L352 904 Q351 899 351 891 Q351 860 369.5 841.5 Q388 823 419 823 L431 823 Q470 823 496.5 845 Q523 867 527 904 L528 912 L585 912 L584 904 Q577 845 534 809 Q491 773 428 773 L416 773 Z " />
<glyph glyph-name="uni1EB6" unicode="&#x1eb6;" horiz-adv-x="647" d="M472 194 L164 194 L58 0 L-22 0 L370 700 L404 700 Q437 700 445 660 L528 256 L529 256 L529 254 L581 0 L509 0 L472 194 Z M198 256 L459 256 L391 604 L390 604 L198 256 Z M254 -171 Q233 -171 220.5 -159.5 Q208 -148 208 -128 Q208 -99 226 -81 Q244 -63 273 -63 Q293 -63 305.5 -75 Q318 -87 318 -106 Q318 -135 300.5 -153 Q283 -171 254 -171 Z M416 773 Q359 773 326 803.5 Q293 834 293 886 Q293 898 294 904 L295 912 L353 912 L352 904 Q351 899 351 891 Q351 860 369.5 841.5 Q388 823 419 823 L431 823 Q470 823 496.5 845 Q523 867 527 904 L528 912 L585 912 L584 904 Q577 845 534 809 Q491 773 428 773 L416 773 Z " />
<glyph glyph-name="uni1EB0" unicode="&#x1eb0;" horiz-adv-x="647" d="M472 194 L164 194 L58 0 L-22 0 L370 700 L404 700 Q437 700 445 660 L528 256 L529 256 L529 254 L581 0 L509 0 L472 194 Z M198 256 L459 256 L391 604 L390 604 L198 256 Z M368 1078 L436 1078 L480 962 L424 962 L368 1078 Z M416 773 Q359 773 326 803.5 Q293 834 293 886 Q293 898 294 904 L295 912 L353 912 L352 904 Q351 899 351 891 Q351 860 369.5 841.5 Q388 823 419 823 L431 823 Q470 823 496.5 845 Q523 867 527 904 L528 912 L585 912 L584 904 Q577 845 534 809 Q491 773 428 773 L416 773 Z " />
<glyph glyph-name="uni1EB2" unicode="&#x1eb2;" horiz-adv-x="647" d="M472 194 L164 194 L58 0 L-22 0 L370 700 L404 700 Q437 700 445 660 L528 256 L529 256 L529 254 L581 0 L509 0 L472 194 Z M198 256 L459 256 L391 604 L390 604 L198 256 Z M420 950 Q424 966 436.5 977.5 Q449 989 469 1001 Q485 1011 493.5 1018 Q502 1025 503 1034 L504 1043 Q507 1070 479 1070 L463 1070 Q428 1070 422 1036 L374 1036 Q386 1114 465 1114 L481 1114 Q555 1114 555 1056 Q555 1048 554 1043 L553 1034 Q551 1015 538 1002 Q525 989 502 976 Q491 970 482 963.5 Q473 957 472 950 L470 942 L418 942 L420 950 Z M416 773 Q359 773 326 803.5 Q293 834 293 886 Q293 898 294 904 L295 912 L353 912 L352 904 Q351 899 351 891 Q351 860 369.5 841.5 Q388 823 419 823 L431 823 Q470 823 496.5 845 Q523 867 527 904 L528 912 L585 912 L584 904 Q577 845 534 809 Q491 773 428 773 L416 773 Z " />
<glyph glyph-name="uni1EB4" unicode="&#x1eb4;" horiz-adv-x="647" d="M472 194 L164 194 L58 0 L-22 0 L370 700 L404 700 Q437 700 445 660 L528 256 L529 256 L529 254 L581 0 L509 0 L472 194 Z M198 256 L459 256 L391 604 L390 604 L198 256 Z M509 954 Q489 954 476.5 962.5 Q464 971 446 989 Q436 1001 428 1007 Q420 1013 410 1013 L401 1013 Q387 1013 376.5 1001 Q366 989 361 968 L312 968 Q320 1010 344 1033.5 Q368 1057 403 1057 L412 1057 Q433 1057 448 1047 Q463 1037 478 1020 Q489 1008 495.5 1003 Q502 998 510 998 L519 998 Q533 998 543 1010 Q553 1022 557 1043 L606 1043 Q598 1001 575 977.5 Q552 954 518 954 L509 954 Z M416 773 Q359 773 326 803.5 Q293 834 293 886 Q293 898 294 904 L295 912 L353 912 L352 904 Q351 899 351 891 Q351 860 369.5 841.5 Q388 823 419 823 L431 823 Q470 823 496.5 845 Q523 867 527 904 L528 912 L585 912 L584 904 Q577 845 534 809 Q491 773 428 773 L416 773 Z " />
<glyph glyph-name="uni01CD" unicode="&#x1cd;" horiz-adv-x="647" d="M472 194 L164 194 L58 0 L-22 0 L370 700 L404 700 Q437 700 445 660 L528 256 L529 256 L529 254 L581 0 L509 0 L472 194 Z M198 256 L459 256 L391 604 L390 604 L198 256 Z M294 943 L359 943 L423 831 L527 943 L598 943 L444 781 L389 781 L294 943 Z " />
<glyph glyph-name="Acircumflex" unicode="&#xc2;" horiz-adv-x="647" d="M472 194 L164 194 L58 0 L-22 0 L370 700 L404 700 Q437 700 445 660 L528 256 L529 256 L529 254 L581 0 L509 0 L472 194 Z M198 256 L459 256 L391 604 L390 604 L198 256 Z M418 943 L473 943 L569 781 L504 781 L440 893 L336 781 L265 781 L418 943 Z " />
<glyph glyph-name="uni1EA4" unicode="&#x1ea4;" horiz-adv-x="647" d="M472 194 L164 194 L58 0 L-22 0 L370 700 L404 700 Q437 700 445 660 L528 256 L529 256 L529 254 L581 0 L509 0 L472 194 Z M198 256 L459 256 L391 604 L390 604 L198 256 Z M636 1049 L706 1049 L610 933 L552 933 L636 1049 Z M418 943 L473 943 L569 781 L504 781 L440 893 L336 781 L265 781 L418 943 Z " />
<glyph glyph-name="uni1EAC" unicode="&#x1eac;" horiz-adv-x="647" d="M472 194 L164 194 L58 0 L-22 0 L370 700 L404 700 Q437 700 445 660 L528 256 L529 256 L529 254 L581 0 L509 0 L472 194 Z M198 256 L459 256 L391 604 L390 604 L198 256 Z M254 -171 Q233 -171 220.5 -159.5 Q208 -148 208 -128 Q208 -99 226 -81 Q244 -63 273 -63 Q293 -63 305.5 -75 Q318 -87 318 -106 Q318 -135 300.5 -153 Q283 -171 254 -171 Z M418 943 L473 943 L569 781 L504 781 L440 893 L336 781 L265 781 L418 943 Z " />
<glyph glyph-name="uni1EA6" unicode="&#x1ea6;" horiz-adv-x="647" d="M472 194 L164 194 L58 0 L-22 0 L370 700 L404 700 Q437 700 445 660 L528 256 L529 256 L529 254 L581 0 L509 0 L472 194 Z M198 256 L459 256 L391 604 L390 604 L198 256 Z M524 1049 L592 1049 L636 933 L580 933 L524 1049 Z M418 943 L473 943 L569 781 L504 781 L440 893 L336 781 L265 781 L418 943 Z " />
<glyph glyph-name="uni1EA8" unicode="&#x1ea8;" horiz-adv-x="647" d="M472 194 L164 194 L58 0 L-22 0 L370 700 L404 700 Q437 700 445 660 L528 256 L529 256 L529 254 L581 0 L509 0 L472 194 Z M198 256 L459 256 L391 604 L390 604 L198 256 Z M555 931 Q559 947 571.5 958.5 Q584 970 604 982 Q620 992 628.5 999 Q637 1006 638 1015 L639 1024 Q642 1051 614 1051 L598 1051 Q563 1051 557 1017 L509 1017 Q521 1095 600 1095 L616 1095 Q690 1095 690 1036 L689 1024 L688 1015 Q686 996 673 983 Q660 970 637 957 Q626 951 617 944.5 Q608 938 607 931 L605 923 L553 923 L555 931 Z M418 943 L473 943 L569 781 L504 781 L440 893 L336 781 L265 781 L418 943 Z " />
<glyph glyph-name="uni1EAA" unicode="&#x1eaa;" horiz-adv-x="647" d="M472 194 L164 194 L58 0 L-22 0 L370 700 L404 700 Q437 700 445 660 L528 256 L529 256 L529 254 L581 0 L509 0 L472 194 Z M198 256 L459 256 L391 604 L390 604 L198 256 Z M513 978 Q493 978 480.5 986.5 Q468 995 450 1013 Q440 1025 432 1031 Q424 1037 414 1037 L405 1037 Q391 1037 380.5 1025 Q370 1013 365 992 L316 992 Q324 1034 348 1057.5 Q372 1081 407 1081 L416 1081 Q437 1081 452 1071 Q467 1061 482 1044 Q493 1032 499.5 1027 Q506 1022 514 1022 L523 1022 Q537 1022 547 1034 Q557 1046 561 1067 L610 1067 Q602 1025 579 1001.5 Q556 978 522 978 L513 978 Z M418 943 L473 943 L569 781 L504 781 L440 893 L336 781 L265 781 L418 943 Z " />
<glyph glyph-name="Adieresis" unicode="&#xc4;" horiz-adv-x="647" d="M472 194 L164 194 L58 0 L-22 0 L370 700 L404 700 Q437 700 445 660 L528 256 L529 256 L529 254 L581 0 L509 0 L472 194 Z M198 256 L459 256 L391 604 L390 604 L198 256 Z M317 781 Q298 781 287 792 Q276 803 276 820 Q276 846 292.5 862.5 Q309 879 335 879 Q354 879 365 868 Q376 857 376 840 Q376 814 359.5 797.5 Q343 781 317 781 Z M516 781 Q497 781 486 792 Q475 803 475 820 Q475 846 491.5 862.5 Q508 879 534 879 Q553 879 564 868 Q575 857 575 840 Q575 814 558.5 797.5 Q542 781 516 781 Z " />
<glyph glyph-name="uni1EA0" unicode="&#x1ea0;" horiz-adv-x="647" d="M472 194 L164 194 L58 0 L-22 0 L370 700 L404 700 Q437 700 445 660 L528 256 L529 256 L529 254 L581 0 L509 0 L472 194 Z M198 256 L459 256 L391 604 L390 604 L198 256 Z M254 -171 Q233 -171 220.5 -159.5 Q208 -148 208 -128 Q208 -99 226 -81 Q244 -63 273 -63 Q293 -63 305.5 -75 Q318 -87 318 -106 Q318 -135 300.5 -153 Q283 -171 254 -171 Z " />
<glyph glyph-name="Agrave" unicode="&#xc0;" horiz-adv-x="647" d="M472 194 L164 194 L58 0 L-22 0 L370 700 L404 700 Q437 700 445 660 L528 256 L529 256 L529 254 L581 0 L509 0 L472 194 Z M198 256 L459 256 L391 604 L390 604 L198 256 Z M314 933 L394 933 L450 781 L386 781 L314 933 Z " />
<glyph glyph-name="uni1EA2" unicode="&#x1ea2;" horiz-adv-x="647" d="M472 194 L164 194 L58 0 L-22 0 L370 700 L404 700 Q437 700 445 660 L528 256 L529 256 L529 254 L581 0 L509 0 L472 194 Z M198 256 L459 256 L391 604 L390 604 L198 256 Z M383 783 Q387 804 401.5 818 Q416 832 442 847 Q461 859 471 867 Q481 875 483 886 L485 897 Q486 900 486 905 Q486 930 454 930 L434 930 Q393 930 385 888 L327 888 Q342 982 437 982 L457 982 Q547 982 547 917 Q547 911 545 897 L543 886 Q539 863 523.5 848 Q508 833 481 816 Q464 805 455 798 Q446 791 445 783 L442 767 L380 767 L383 783 Z " />
<glyph glyph-name="Amacron" unicode="&#x100;" horiz-adv-x="647" d="M472 194 L164 194 L58 0 L-22 0 L370 700 L404 700 Q437 700 445 660 L528 256 L529 256 L529 254 L581 0 L509 0 L472 194 Z M198 256 L459 256 L391 604 L390 604 L198 256 Z M301 843 L556 843 L547 791 L292 791 L301 843 Z " />
<glyph glyph-name="Aogonek" unicode="&#x104;" horiz-adv-x="647" d="M472 194 L164 194 L58 0 L-22 0 L370 700 L404 700 Q437 700 445 660 L528 256 L529 256 L529 254 L581 0 L509 0 L472 194 Z M198 256 L459 256 L391 604 L390 604 L198 256 Z M524 -209 Q480 -209 455 -189 Q430 -169 430 -134 Q430 -120 432 -113 L434 -103 Q440 -73 461.5 -43.5 Q483 -14 513 0 L581 0 Q548 -16 525.5 -42.5 Q503 -69 497 -99 L495 -109 Q494 -112 494 -119 Q494 -135 504.5 -145 Q515 -155 535 -155 L545 -155 Q558 -155 574 -149.5 Q590 -144 604 -135 L594 -191 Q582 -199 566 -204 Q550 -209 534 -209 L524 -209 Z " />
<glyph glyph-name="Aring" unicode="&#xc5;" horiz-adv-x="647" d="M472 194 L164 194 L58 0 L-22 0 L370 700 L404 700 Q437 700 445 660 L528 256 L529 256 L529 254 L581 0 L509 0 L472 194 Z M198 256 L459 256 L391 604 L390 604 L198 256 Z M413 743 Q372 743 346.5 766.5 Q321 790 321 829 Q321 883 355 916 Q389 949 445 949 Q486 949 511.5 925.5 Q537 902 537 863 Q537 809 503 776 Q469 743 413 743 Z M419 791 Q449 791 467.5 809.5 Q486 828 486 858 Q486 877 473 889 Q460 901 439 901 Q409 901 390.5 882.5 Q372 864 372 834 Q372 815 385 803 Q398 791 419 791 Z " />
<glyph glyph-name="Aringacute" unicode="&#x1fa;" horiz-adv-x="647" d="M472 194 L164 194 L58 0 L-22 0 L370 700 L404 700 Q437 700 445 660 L528 256 L529 256 L529 254 L581 0 L509 0 L472 194 Z M198 256 L459 256 L391 604 L390 604 L198 256 Z M413 743 Q372 743 346.5 766.5 Q321 790 321 829 Q321 883 355 916 Q389 949 445 949 Q486 949 511.5 925.5 Q537 902 537 863 Q537 809 503 776 Q469 743 413 743 Z M419 791 Q449 791 467.5 809.5 Q486 828 486 858 Q486 877 473 889 Q460 901 439 901 Q409 901 390.5 882.5 Q372 864 372 834 Q372 815 385 803 Q398 791 419 791 Z M532 1142 L616 1142 L490 990 L422 990 L532 1142 Z " />
<glyph glyph-name="Atilde" unicode="&#xc3;" horiz-adv-x="647" d="M472 194 L164 194 L58 0 L-22 0 L370 700 L404 700 Q437 700 445 660 L528 256 L529 256 L529 254 L581 0 L509 0 L472 194 Z M198 256 L459 256 L391 604 L390 604 L198 256 Z M482 773 Q460 773 444.5 783.5 Q429 794 412 813 Q399 827 390.5 833.5 Q382 840 371 840 L361 840 Q344 840 331.5 826.5 Q319 813 314 789 L258 789 Q269 837 297 863.5 Q325 890 365 890 L375 890 Q399 890 415 879 Q431 868 449 848 Q461 835 468.5 829 Q476 823 485 823 L495 823 Q510 823 522 836.5 Q534 850 540 874 L596 874 Q585 826 558 799.5 Q531 773 492 773 L482 773 Z " />
<glyph glyph-name="AE" unicode="&#xc6;" horiz-adv-x="926" d="M470 700 L955 700 L944 636 L560 636 L517 390 L861 390 L849 326 L505 326 L459 64 L843 64 L832 0 L440 0 Q414 0 400 13 Q386 26 386 50 Q386 60 387 66 L409 194 L181 194 L41 0 L-36 0 L470 700 Z M420 256 L482 608 L481 608 L226 256 L420 256 Z " />
<glyph glyph-name="AEacute" unicode="&#x1fc;" horiz-adv-x="926" d="M470 700 L955 700 L944 636 L560 636 L517 390 L861 390 L849 326 L505 326 L459 64 L843 64 L832 0 L440 0 Q414 0 400 13 Q386 26 386 50 Q386 60 387 66 L409 194 L181 194 L41 0 L-36 0 L470 700 Z M420 256 L482 608 L481 608 L226 256 L420 256 Z M716 933 L800 933 L674 781 L606 781 L716 933 Z " />
<glyph glyph-name="B" unicode="B" horiz-adv-x="662" d="M101 0 Q76 0 61 14 Q46 28 46 51 Q46 60 47 65 L159 700 L451 700 Q533 700 580.5 665.5 Q628 631 628 572 Q628 554 626 545 L616 492 Q609 455 586 421.5 Q563 388 530 368 L530 367 Q570 355 593 325.5 Q616 296 616 255 Q616 238 614 229 L605 181 Q589 96 532.5 48 Q476 0 391 0 L101 0 Z M419 384 Q465 384 499 413.5 Q533 443 542 492 L552 545 Q553 550 553 560 Q553 594 525 614 Q497 634 449 634 L221 634 L177 384 L419 384 Z M382 66 Q442 66 481 96.5 Q520 127 531 181 L540 229 Q542 241 542 246 Q542 280 516.5 301 Q491 322 447 322 L166 322 L121 66 L382 66 Z " />
<glyph glyph-name="C" unicode="C" horiz-adv-x="660" d="M252 -8 Q160 -8 107 45 Q54 98 54 188 Q54 221 59 246 L96 454 Q117 574 187 641 Q257 708 361 708 L467 708 Q557 708 609 660 Q661 612 661 531 Q661 505 657 484 L585 484 Q588 504 588 520 Q588 576 555.5 609 Q523 642 466 642 L360 642 Q286 642 236 592.5 Q186 543 170 454 L133 246 Q129 223 129 198 Q129 133 162 95.5 Q195 58 253 58 L361 58 Q428 58 478.5 106 Q529 154 543 232 L615 232 Q602 161 566 106.5 Q530 52 476.5 22 Q423 -8 360 -8 L252 -8 Z " />
<glyph glyph-name="Cacute" unicode="&#x106;" horiz-adv-x="660" d="M252 -8 Q160 -8 107 45 Q54 98 54 188 Q54 221 59 246 L96 454 Q117 574 187 641 Q257 708 361 708 L467 708 Q557 708 609 660 Q661 612 661 531 Q661 505 657 484 L585 484 Q588 504 588 520 Q588 576 555.5 609 Q523 642 466 642 L360 642 Q286 642 236 592.5 Q186 543 170 454 L133 246 Q129 223 129 198 Q129 133 162 95.5 Q195 58 253 58 L361 58 Q428 58 478.5 106 Q529 154 543 232 L615 232 Q602 161 566 106.5 Q530 52 476.5 22 Q423 -8 360 -8 L252 -8 Z M515 933 L599 933 L473 781 L405 781 L515 933 Z " />
<glyph glyph-name="Ccaron" unicode="&#x10c;" horiz-adv-x="660" d="M252 -8 Q160 -8 107 45 Q54 98 54 188 Q54 221 59 246 L96 454 Q117 574 187 641 Q257 708 361 708 L467 708 Q557 708 609 660 Q661 612 661 531 Q661 505 657 484 L585 484 Q588 504 588 520 Q588 576 555.5 609 Q523 642 466 642 L360 642 Q286 642 236 592.5 Q186 543 170 454 L133 246 Q129 223 129 198 Q129 133 162 95.5 Q195 58 253 58 L361 58 Q428 58 478.5 106 Q529 154 543 232 L615 232 Q602 161 566 106.5 Q530 52 476.5 22 Q423 -8 360 -8 L252 -8 Z M314 943 L379 943 L443 831 L547 943 L618 943 L464 781 L409 781 L314 943 Z " />
<glyph glyph-name="Ccedilla" unicode="&#xc7;" horiz-adv-x="660" d="M585 484 Q588 504 588 520 Q588 576 555.5 609 Q523 642 466 642 L360 642 Q286 642 236 592.5 Q186 543 170 454 L133 246 Q129 223 129 198 Q129 133 162 95.5 Q195 58 253 58 L361 58 Q428 58 478.5 106 Q529 154 543 232 L615 232 Q602 161 566 106.5 Q530 52 476.5 22 Q423 -8 360 -8 L326 -8 L297 -54 L300 -54 Q336 -54 356.5 -70.5 Q377 -87 377 -116 Q377 -125 376 -130 L374 -141 Q367 -180 337.5 -201.5 Q308 -223 261 -223 L200 -223 L208 -175 L261 -175 Q284 -175 299 -166 Q314 -157 317 -141 L319 -130 Q322 -115 311 -105.5 Q300 -96 280 -96 L233 -96 L241 -52 L268 -8 L252 -8 Q160 -8 107 45 Q54 98 54 188 Q54 221 59 246 L96 454 Q117 574 187 641 Q257 708 361 708 L467 708 Q557 708 609 660 Q661 612 661 531 Q661 505 657 484 L585 484 Z " />
<glyph glyph-name="Ccircumflex" unicode="&#x108;" horiz-adv-x="660" d="M252 -8 Q160 -8 107 45 Q54 98 54 188 Q54 221 59 246 L96 454 Q117 574 187 641 Q257 708 361 708 L467 708 Q557 708 609 660 Q661 612 661 531 Q661 505 657 484 L585 484 Q588 504 588 520 Q588 576 555.5 609 Q523 642 466 642 L360 642 Q286 642 236 592.5 Q186 543 170 454 L133 246 Q129 223 129 198 Q129 133 162 95.5 Q195 58 253 58 L361 58 Q428 58 478.5 106 Q529 154 543 232 L615 232 Q602 161 566 106.5 Q530 52 476.5 22 Q423 -8 360 -8 L252 -8 Z M438 943 L493 943 L589 781 L524 781 L460 893 L356 781 L285 781 L438 943 Z " />
<glyph glyph-name="Cdotaccent" unicode="&#x10a;" horiz-adv-x="660" d="M252 -8 Q160 -8 107 45 Q54 98 54 188 Q54 221 59 246 L96 454 Q117 574 187 641 Q257 708 361 708 L467 708 Q557 708 609 660 Q661 612 661 531 Q661 505 657 484 L585 484 Q588 504 588 520 Q588 576 555.5 609 Q523 642 466 642 L360 642 Q286 642 236 592.5 Q186 543 170 454 L133 246 Q129 223 129 198 Q129 133 162 95.5 Q195 58 253 58 L361 58 Q428 58 478.5 106 Q529 154 543 232 L615 232 Q602 161 566 106.5 Q530 52 476.5 22 Q423 -8 360 -8 L252 -8 Z M438 781 Q417 781 404.5 792.5 Q392 804 392 824 Q392 853 410 871 Q428 889 457 889 Q477 889 489.5 877 Q502 865 502 846 Q502 817 484.5 799 Q467 781 438 781 Z " />
<glyph glyph-name="D" unicode="D" horiz-adv-x="674" d="M101 0 Q74 0 60 13 Q46 26 46 50 Q46 60 47 65 L159 700 L449 700 Q547 700 604 650 Q661 600 661 516 Q661 491 657 470 L618 250 Q574 0 339 0 L101 0 Z M339 66 Q424 66 476 112.5 Q528 159 544 250 L582 470 Q586 498 586 509 Q586 568 549 601 Q512 634 445 634 L221 634 L121 66 L339 66 Z " />
<glyph glyph-name="Eth" unicode="&#xd0;" horiz-adv-x="725" d="M500 700 Q598 700 655 650 Q712 600 712 516 Q712 491 708 470 L669 250 Q625 0 390 0 L152 0 Q125 0 111 13 Q97 26 97 50 Q97 60 98 65 L141 311 L37 311 L48 377 L153 377 L210 700 L500 700 Z M633 470 Q637 498 637 509 Q637 568 600 601 Q563 634 496 634 L272 634 L227 377 L428 377 L417 311 L215 311 L172 66 L390 66 Q475 66 527 112.5 Q579 159 595 250 L633 470 Z " />
<glyph glyph-name="Dcaron" unicode="&#x10e;" horiz-adv-x="674" d="M101 0 Q74 0 60 13 Q46 26 46 50 Q46 60 47 65 L159 700 L449 700 Q547 700 604 650 Q661 600 661 516 Q661 491 657 470 L618 250 Q574 0 339 0 L101 0 Z M339 66 Q424 66 476 112.5 Q528 159 544 250 L582 470 Q586 498 586 509 Q586 568 549 601 Q512 634 445 634 L221 634 L121 66 L339 66 Z M312 943 L377 943 L441 831 L545 943 L616 943 L462 781 L407 781 L312 943 Z " />
<glyph glyph-name="Dcroat" unicode="&#x110;" horiz-adv-x="725" d="M500 700 Q598 700 655 650 Q712 600 712 516 Q712 491 708 470 L669 250 Q625 0 390 0 L152 0 Q125 0 111 13 Q97 26 97 50 Q97 60 98 65 L141 311 L37 311 L48 377 L153 377 L210 700 L500 700 Z M633 470 Q637 498 637 509 Q637 568 600 601 Q563 634 496 634 L272 634 L227 377 L428 377 L417 311 L215 311 L172 66 L390 66 Q475 66 527 112.5 Q579 159 595 250 L633 470 Z " />
<glyph glyph-name="uni1E0C" unicode="&#x1e0c;" horiz-adv-x="674" d="M101 0 Q74 0 60 13 Q46 26 46 50 Q46 60 47 65 L159 700 L449 700 Q547 700 604 650 Q661 600 661 516 Q661 491 657 470 L618 250 Q574 0 339 0 L101 0 Z M339 66 Q424 66 476 112.5 Q528 159 544 250 L582 470 Q586 498 586 509 Q586 568 549 601 Q512 634 445 634 L221 634 L121 66 L339 66 Z M273 -171 Q252 -171 239.5 -159.5 Q227 -148 227 -128 Q227 -99 245 -81 Q263 -63 292 -63 Q312 -63 324.5 -75 Q337 -87 337 -106 Q337 -135 319.5 -153 Q302 -171 273 -171 Z " />
<glyph glyph-name="uni1E0E" unicode="&#x1e0e;" horiz-adv-x="674" d="M101 0 Q74 0 60 13 Q46 26 46 50 Q46 60 47 65 L159 700 L449 700 Q547 700 604 650 Q661 600 661 516 Q661 491 657 470 L618 250 Q574 0 339 0 L101 0 Z M339 66 Q424 66 476 112.5 Q528 159 544 250 L582 470 Q586 498 586 509 Q586 568 549 601 Q512 634 445 634 L221 634 L121 66 L339 66 Z M163 -72 L418 -72 L409 -124 L154 -124 L163 -72 Z " />
<glyph glyph-name="E" unicode="E" horiz-adv-x="600" d="M101 0 Q75 0 61 13.5 Q47 27 47 51 Q47 61 48 66 L160 700 L629 700 L618 636 L223 636 L179 390 L544 390 L533 326 L168 326 L122 64 L517 64 L505 0 L101 0 Z " />
<glyph glyph-name="Eacute" unicode="&#xc9;" horiz-adv-x="600" d="M101 0 Q75 0 61 13.5 Q47 27 47 51 Q47 61 48 66 L160 700 L629 700 L618 636 L223 636 L179 390 L544 390 L533 326 L168 326 L122 64 L517 64 L505 0 L101 0 Z M490 933 L574 933 L448 781 L380 781 L490 933 Z " />
<glyph glyph-name="Ebreve" unicode="&#x114;" horiz-adv-x="600" d="M101 0 Q75 0 61 13.5 Q47 27 47 51 Q47 61 48 66 L160 700 L629 700 L618 636 L223 636 L179 390 L544 390 L533 326 L168 326 L122 64 L517 64 L505 0 L101 0 Z M411 773 Q354 773 321 803.5 Q288 834 288 886 Q288 898 289 904 L290 912 L348 912 L347 904 Q346 899 346 891 Q346 860 364.5 841.5 Q383 823 414 823 L426 823 Q465 823 491.5 845 Q518 867 522 904 L523 912 L580 912 L579 904 Q572 845 529 809 Q486 773 423 773 L411 773 Z " />
<glyph glyph-name="Ecaron" unicode="&#x11a;" horiz-adv-x="600" d="M101 0 Q75 0 61 13.5 Q47 27 47 51 Q47 61 48 66 L160 700 L629 700 L618 636 L223 636 L179 390 L544 390 L533 326 L168 326 L122 64 L517 64 L505 0 L101 0 Z M289 943 L354 943 L418 831 L522 943 L593 943 L439 781 L384 781 L289 943 Z " />
<glyph glyph-name="Ecircumflex" unicode="&#xca;" horiz-adv-x="600" d="M101 0 Q75 0 61 13.5 Q47 27 47 51 Q47 61 48 66 L160 700 L629 700 L618 636 L223 636 L179 390 L544 390 L533 326 L168 326 L122 64 L517 64 L505 0 L101 0 Z M413 943 L468 943 L564 781 L499 781 L435 893 L331 781 L260 781 L413 943 Z " />
<glyph glyph-name="uni1EBE" unicode="&#x1ebe;" horiz-adv-x="600" d="M101 0 Q75 0 61 13.5 Q47 27 47 51 Q47 61 48 66 L160 700 L629 700 L618 636 L223 636 L179 390 L544 390 L533 326 L168 326 L122 64 L517 64 L505 0 L101 0 Z M631 1049 L701 1049 L605 933 L547 933 L631 1049 Z M413 943 L468 943 L564 781 L499 781 L435 893 L331 781 L260 781 L413 943 Z " />
<glyph glyph-name="uni1EC6" unicode="&#x1ec6;" horiz-adv-x="600" d="M101 0 Q75 0 61 13.5 Q47 27 47 51 Q47 61 48 66 L160 700 L629 700 L618 636 L223 636 L179 390 L544 390 L533 326 L168 326 L122 64 L517 64 L505 0 L101 0 Z M249 -171 Q228 -171 215.5 -159.5 Q203 -148 203 -128 Q203 -99 221 -81 Q239 -63 268 -63 Q288 -63 300.5 -75 Q313 -87 313 -106 Q313 -135 295.5 -153 Q278 -171 249 -171 Z M413 943 L468 943 L564 781 L499 781 L435 893 L331 781 L260 781 L413 943 Z " />
<glyph glyph-name="uni1EC0" unicode="&#x1ec0;" horiz-adv-x="600" d="M101 0 Q75 0 61 13.5 Q47 27 47 51 Q47 61 48 66 L160 700 L629 700 L618 636 L223 636 L179 390 L544 390 L533 326 L168 326 L122 64 L517 64 L505 0 L101 0 Z M519 1049 L587 1049 L631 933 L575 933 L519 1049 Z M413 943 L468 943 L564 781 L499 781 L435 893 L331 781 L260 781 L413 943 Z " />
<glyph glyph-name="uni1EC2" unicode="&#x1ec2;" horiz-adv-x="600" d="M101 0 Q75 0 61 13.5 Q47 27 47 51 Q47 61 48 66 L160 700 L629 700 L618 636 L223 636 L179 390 L544 390 L533 326 L168 326 L122 64 L517 64 L505 0 L101 0 Z M550 931 Q554 947 566.5 958.5 Q579 970 599 982 Q615 992 623.5 999 Q632 1006 633 1015 L634 1024 Q637 1051 609 1051 L593 1051 Q558 1051 552 1017 L504 1017 Q516 1095 595 1095 L611 1095 Q685 1095 685 1036 L684 1024 L683 1015 Q681 996 668 983 Q655 970 632 957 Q621 951 612 944.5 Q603 938 602 931 L600 923 L548 923 L550 931 Z M413 943 L468 943 L564 781 L499 781 L435 893 L331 781 L260 781 L413 943 Z " />
<glyph glyph-name="uni1EC4" unicode="&#x1ec4;" horiz-adv-x="600" d="M101 0 Q75 0 61 13.5 Q47 27 47 51 Q47 61 48 66 L160 700 L629 700 L618 636 L223 636 L179 390 L544 390 L533 326 L168 326 L122 64 L517 64 L505 0 L101 0 Z M508 978 Q488 978 475.5 986.5 Q463 995 445 1013 Q435 1025 427 1031 Q419 1037 409 1037 L400 1037 Q386 1037 375.5 1025 Q365 1013 360 992 L311 992 Q319 1034 343 1057.5 Q367 1081 402 1081 L411 1081 Q432 1081 447 1071 Q462 1061 477 1044 Q488 1032 494.5 1027 Q501 1022 509 1022 L518 1022 Q532 1022 542 1034 Q552 1046 556 1067 L605 1067 Q597 1025 574 1001.5 Q551 978 517 978 L508 978 Z M413 943 L468 943 L564 781 L499 781 L435 893 L331 781 L260 781 L413 943 Z " />
<glyph glyph-name="Edieresis" unicode="&#xcb;" horiz-adv-x="600" d="M101 0 Q75 0 61 13.5 Q47 27 47 51 Q47 61 48 66 L160 700 L629 700 L618 636 L223 636 L179 390 L544 390 L533 326 L168 326 L122 64 L517 64 L505 0 L101 0 Z M312 781 Q293 781 282 792 Q271 803 271 820 Q271 846 287.5 862.5 Q304 879 330 879 Q349 879 360 868 Q371 857 371 840 Q371 814 354.5 797.5 Q338 781 312 781 Z M511 781 Q492 781 481 792 Q470 803 470 820 Q470 846 486.5 862.5 Q503 879 529 879 Q548 879 559 868 Q570 857 570 840 Q570 814 553.5 797.5 Q537 781 511 781 Z " />
<glyph glyph-name="Edotaccent" unicode="&#x116;" horiz-adv-x="600" d="M101 0 Q75 0 61 13.5 Q47 27 47 51 Q47 61 48 66 L160 700 L629 700 L618 636 L223 636 L179 390 L544 390 L533 326 L168 326 L122 64 L517 64 L505 0 L101 0 Z M413 781 Q392 781 379.5 792.5 Q367 804 367 824 Q367 853 385 871 Q403 889 432 889 Q452 889 464.5 877 Q477 865 477 846 Q477 817 459.5 799 Q442 781 413 781 Z " />
<glyph glyph-name="uni1EB8" unicode="&#x1eb8;" horiz-adv-x="600" d="M101 0 Q75 0 61 13.5 Q47 27 47 51 Q47 61 48 66 L160 700 L629 700 L618 636 L223 636 L179 390 L544 390 L533 326 L168 326 L122 64 L517 64 L505 0 L101 0 Z M249 -171 Q228 -171 215.5 -159.5 Q203 -148 203 -128 Q203 -99 221 -81 Q239 -63 268 -63 Q288 -63 300.5 -75 Q313 -87 313 -106 Q313 -135 295.5 -153 Q278 -171 249 -171 Z " />
<glyph glyph-name="Egrave" unicode="&#xc8;" horiz-adv-x="600" d="M101 0 Q75 0 61 13.5 Q47 27 47 51 Q47 61 48 66 L160 700 L629 700 L618 636 L223 636 L179 390 L544 390 L533 326 L168 326 L122 64 L517 64 L505 0 L101 0 Z M309 933 L389 933 L445 781 L381 781 L309 933 Z " />
<glyph glyph-name="uni1EBA" unicode="&#x1eba;" horiz-adv-x="600" d="M101 0 Q75 0 61 13.5 Q47 27 47 51 Q47 61 48 66 L160 700 L629 700 L618 636 L223 636 L179 390 L544 390 L533 326 L168 326 L122 64 L517 64 L505 0 L101 0 Z M378 783 Q382 804 396.5 818 Q411 832 437 847 Q456 859 466 867 Q476 875 478 886 L480 897 Q481 900 481 905 Q481 930 449 930 L429 930 Q388 930 380 888 L322 888 Q337 982 432 982 L452 982 Q542 982 542 917 Q542 911 540 897 L538 886 Q534 863 518.5 848 Q503 833 476 816 Q459 805 450 798 Q441 791 440 783 L437 767 L375 767 L378 783 Z " />
<glyph glyph-name="Emacron" unicode="&#x112;" horiz-adv-x="600" d="M101 0 Q75 0 61 13.5 Q47 27 47 51 Q47 61 48 66 L160 700 L629 700 L618 636 L223 636 L179 390 L544 390 L533 326 L168 326 L122 64 L517 64 L505 0 L101 0 Z M296 843 L551 843 L542 791 L287 791 L296 843 Z " />
<glyph glyph-name="Eogonek" unicode="&#x118;" horiz-adv-x="600" d="M101 0 Q75 0 61 13.5 Q47 27 47 51 Q47 61 48 66 L160 700 L629 700 L618 636 L223 636 L179 390 L544 390 L533 326 L168 326 L122 64 L517 64 L505 0 L101 0 Z M448 -209 Q404 -209 379 -189 Q354 -169 354 -134 Q354 -120 356 -113 L358 -103 Q364 -73 385.5 -43.5 Q407 -14 437 0 L505 0 Q472 -16 449.5 -42.5 Q427 -69 421 -99 L419 -109 Q418 -112 418 -119 Q418 -135 428.5 -145 Q439 -155 459 -155 L469 -155 Q482 -155 498 -149.5 Q514 -144 528 -135 L518 -191 Q506 -199 490 -204 Q474 -209 458 -209 L448 -209 Z " />
<glyph glyph-name="uni1EBC" unicode="&#x1ebc;" horiz-adv-x="600" d="M101 0 Q75 0 61 13.5 Q47 27 47 51 Q47 61 48 66 L160 700 L629 700 L618 636 L223 636 L179 390 L544 390 L533 326 L168 326 L122 64 L517 64 L505 0 L101 0 Z M477 773 Q455 773 439.5 783.5 Q424 794 407 813 Q394 827 385.5 833.5 Q377 840 366 840 L356 840 Q339 840 326.5 826.5 Q314 813 309 789 L253 789 Q264 837 292 863.5 Q320 890 360 890 L370 890 Q394 890 410 879 Q426 868 444 848 Q456 835 463.5 829 Q471 823 480 823 L490 823 Q505 823 517 836.5 Q529 850 535 874 L591 874 Q580 826 553 799.5 Q526 773 487 773 L477 773 Z " />
<glyph glyph-name="F" unicode="F" horiz-adv-x="576" d="M159 700 L619 700 L608 634 L222 634 L177 378 L526 378 L514 312 L165 312 L110 0 L36 0 L159 700 Z " />
<glyph glyph-name="G" unicode="G" horiz-adv-x="684" d="M253 -8 Q161 -8 107.5 46 Q54 100 54 190 Q54 222 59 246 L96 454 Q117 574 188 641 Q259 708 364 708 L470 708 Q562 708 615 659.5 Q668 611 668 530 Q668 505 664 484 L592 484 Q595 504 595 520 Q595 577 561.5 609.5 Q528 642 469 642 L363 642 Q288 642 237 592 Q186 542 170 454 L133 246 Q129 223 129 198 Q129 133 162.5 95.5 Q196 58 255 58 L363 58 Q437 58 487.5 105 Q538 152 554 236 L565 296 L370 296 L381 361 L648 361 L626 236 Q606 121 536 56.5 Q466 -8 361 -8 L253 -8 Z " />
<glyph glyph-name="Gbreve" unicode="&#x11e;" horiz-adv-x="684" d="M253 -8 Q161 -8 107.5 46 Q54 100 54 190 Q54 222 59 246 L96 454 Q117 574 188 641 Q259 708 364 708 L470 708 Q562 708 615 659.5 Q668 611 668 530 Q668 505 664 484 L592 484 Q595 504 595 520 Q595 577 561.5 609.5 Q528 642 469 642 L363 642 Q288 642 237 592 Q186 542 170 454 L133 246 Q129 223 129 198 Q129 133 162.5 95.5 Q196 58 255 58 L363 58 Q437 58 487.5 105 Q538 152 554 236 L565 296 L370 296 L381 361 L648 361 L626 236 Q606 121 536 56.5 Q466 -8 361 -8 L253 -8 Z M438 773 Q381 773 348 803.5 Q315 834 315 886 Q315 898 316 904 L317 912 L375 912 L374 904 Q373 899 373 891 Q373 860 391.5 841.5 Q410 823 441 823 L453 823 Q492 823 518.5 845 Q545 867 549 904 L550 912 L607 912 L606 904 Q599 845 556 809 Q513 773 450 773 L438 773 Z " />
<glyph glyph-name="Gcaron" unicode="&#x1e6;" horiz-adv-x="684" d="M253 -8 Q161 -8 107.5 46 Q54 100 54 190 Q54 222 59 246 L96 454 Q117 574 188 641 Q259 708 364 708 L470 708 Q562 708 615 659.5 Q668 611 668 530 Q668 505 664 484 L592 484 Q595 504 595 520 Q595 577 561.5 609.5 Q528 642 469 642 L363 642 Q288 642 237 592 Q186 542 170 454 L133 246 Q129 223 129 198 Q129 133 162.5 95.5 Q196 58 255 58 L363 58 Q437 58 487.5 105 Q538 152 554 236 L565 296 L370 296 L381 361 L648 361 L626 236 Q606 121 536 56.5 Q466 -8 361 -8 L253 -8 Z M316 943 L381 943 L445 831 L549 943 L620 943 L466 781 L411 781 L316 943 Z " />
<glyph glyph-name="Gcircumflex" unicode="&#x11c;" horiz-adv-x="684" d="M253 -8 Q161 -8 107.5 46 Q54 100 54 190 Q54 222 59 246 L96 454 Q117 574 188 641 Q259 708 364 708 L470 708 Q562 708 615 659.5 Q668 611 668 530 Q668 505 664 484 L592 484 Q595 504 595 520 Q595 577 561.5 609.5 Q528 642 469 642 L363 642 Q288 642 237 592 Q186 542 170 454 L133 246 Q129 223 129 198 Q129 133 162.5 95.5 Q196 58 255 58 L363 58 Q437 58 487.5 105 Q538 152 554 236 L565 296 L370 296 L381 361 L648 361 L626 236 Q606 121 536 56.5 Q466 -8 361 -8 L253 -8 Z M440 943 L495 943 L591 781 L526 781 L462 893 L358 781 L287 781 L440 943 Z " />
<glyph glyph-name="uni0122" unicode="&#x122;" horiz-adv-x="684" d="M253 -8 Q161 -8 107.5 46 Q54 100 54 190 Q54 222 59 246 L96 454 Q117 574 188 641 Q259 708 364 708 L470 708 Q562 708 615 659.5 Q668 611 668 530 Q668 505 664 484 L592 484 Q595 504 595 520 Q595 577 561.5 609.5 Q528 642 469 642 L363 642 Q288 642 237 592 Q186 542 170 454 L133 246 Q129 223 129 198 Q129 133 162.5 95.5 Q196 58 255 58 L363 58 Q437 58 487.5 105 Q538 152 554 236 L565 296 L370 296 L381 361 L648 361 L626 236 Q606 121 536 56.5 Q466 -8 361 -8 L253 -8 Z M152 -228 L169 -218 Q204 -196 223 -170 Q242 -144 247 -110 L252 -79 L324 -79 L319 -110 Q310 -165 282 -204.5 Q254 -244 204 -272 L183 -284 L152 -228 Z " />
<glyph glyph-name="Gdotaccent" unicode="&#x120;" horiz-adv-x="684" d="M253 -8 Q161 -8 107.5 46 Q54 100 54 190 Q54 222 59 246 L96 454 Q117 574 188 641 Q259 708 364 708 L470 708 Q562 708 615 659.5 Q668 611 668 530 Q668 505 664 484 L592 484 Q595 504 595 520 Q595 577 561.5 609.5 Q528 642 469 642 L363 642 Q288 642 237 592 Q186 542 170 454 L133 246 Q129 223 129 198 Q129 133 162.5 95.5 Q196 58 255 58 L363 58 Q437 58 487.5 105 Q538 152 554 236 L565 296 L370 296 L381 361 L648 361 L626 236 Q606 121 536 56.5 Q466 -8 361 -8 L253 -8 Z M440 781 Q419 781 406.5 792.5 Q394 804 394 824 Q394 853 412 871 Q430 889 459 889 Q479 889 491.5 877 Q504 865 504 846 Q504 817 486.5 799 Q469 781 440 781 Z " />
<glyph glyph-name="uni1E20" unicode="&#x1e20;" horiz-adv-x="684" d="M253 -8 Q161 -8 107.5 46 Q54 100 54 190 Q54 222 59 246 L96 454 Q117 574 188 641 Q259 708 364 708 L470 708 Q562 708 615 659.5 Q668 611 668 530 Q668 505 664 484 L592 484 Q595 504 595 520 Q595 577 561.5 609.5 Q528 642 469 642 L363 642 Q288 642 237 592 Q186 542 170 454 L133 246 Q129 223 129 198 Q129 133 162.5 95.5 Q196 58 255 58 L363 58 Q437 58 487.5 105 Q538 152 554 236 L565 296 L370 296 L381 361 L648 361 L626 236 Q606 121 536 56.5 Q466 -8 361 -8 L253 -8 Z M323 843 L578 843 L569 791 L314 791 L323 843 Z " />
<glyph glyph-name="H" unicode="H" horiz-adv-x="694" d="M159 700 L233 700 L178 386 L564 386 L619 700 L693 700 L570 0 L496 0 L552 320 L166 320 L110 0 L36 0 L159 700 Z " />
<glyph glyph-name="Hbar" unicode="&#x126;" horiz-adv-x="746" d="M766 510 L686 510 L596 0 L522 0 L578 320 L192 320 L136 0 L62 0 L152 510 L72 510 L83 570 L162 570 L185 700 L259 700 L236 570 L622 570 L645 700 L719 700 L696 570 L777 570 L766 510 Z M612 510 L226 510 L204 386 L590 386 L612 510 Z " />
<glyph glyph-name="uni1E2A" unicode="&#x1e2a;" horiz-adv-x="694" d="M159 700 L233 700 L178 386 L564 386 L619 700 L693 700 L570 0 L496 0 L552 320 L166 320 L110 0 L36 0 L159 700 Z M267 -202 Q210 -202 177 -172 Q144 -142 144 -91 Q144 -78 145 -71 L146 -63 L204 -63 L203 -71 Q202 -76 202 -84 Q202 -116 220 -134 Q238 -152 270 -152 L282 -152 Q321 -152 347.5 -130 Q374 -108 378 -71 L379 -63 L436 -63 L435 -71 Q428 -130 385 -166 Q342 -202 279 -202 L267 -202 Z " />
<glyph glyph-name="Hcircumflex" unicode="&#x124;" horiz-adv-x="694" d="M159 700 L233 700 L178 386 L564 386 L619 700 L693 700 L570 0 L496 0 L552 320 L166 320 L110 0 L36 0 L159 700 Z M439 943 L494 943 L590 781 L525 781 L461 893 L357 781 L286 781 L439 943 Z " />
<glyph glyph-name="uni1E24" unicode="&#x1e24;" horiz-adv-x="694" d="M159 700 L233 700 L178 386 L564 386 L619 700 L693 700 L570 0 L496 0 L552 320 L166 320 L110 0 L36 0 L159 700 Z M273 -171 Q252 -171 239.5 -159.5 Q227 -148 227 -128 Q227 -99 245 -81 Q263 -63 292 -63 Q312 -63 324.5 -75 Q337 -87 337 -106 Q337 -135 319.5 -153 Q302 -171 273 -171 Z " />
<glyph glyph-name="I" unicode="I" horiz-adv-x="254" d="M169 700 L243 700 L120 0 L46 0 L169 700 Z " />
<glyph glyph-name="IJ" unicode="&#x132;" horiz-adv-x="802" d="M169 700 L243 700 L120 0 L46 0 L169 700 Z M416 -8 Q341 -8 294.5 40.5 Q248 89 248 169 Q248 191 253 219 L327 219 Q323 198 323 174 Q323 121 348 89.5 Q373 58 416 58 L503 58 Q559 58 598.5 104 Q638 150 652 232 L735 700 L809 700 L726 232 Q705 117 649 54.5 Q593 -8 503 -8 L416 -8 Z " />
<glyph glyph-name="Iacute" unicode="&#xcd;" horiz-adv-x="254" d="M169 700 L243 700 L120 0 L46 0 L169 700 Z M298 933 L382 933 L256 781 L188 781 L298 933 Z " />
<glyph glyph-name="Ibreve" unicode="&#x12c;" horiz-adv-x="254" d="M169 700 L243 700 L120 0 L46 0 L169 700 Z M219 773 Q162 773 129 803.5 Q96 834 96 886 Q96 898 97 904 L98 912 L156 912 L155 904 Q154 899 154 891 Q154 860 172.5 841.5 Q191 823 222 823 L234 823 Q273 823 299.5 845 Q326 867 330 904 L331 912 L388 912 L387 904 Q380 845 337 809 Q294 773 231 773 L219 773 Z " />
<glyph glyph-name="uni01CF" unicode="&#x1cf;" horiz-adv-x="254" d="M169 700 L243 700 L120 0 L46 0 L169 700 Z M97 943 L162 943 L226 831 L330 943 L401 943 L247 781 L192 781 L97 943 Z " />
<glyph glyph-name="Icircumflex" unicode="&#xce;" horiz-adv-x="254" d="M169 700 L243 700 L120 0 L46 0 L169 700 Z M221 943 L276 943 L372 781 L307 781 L243 893 L139 781 L68 781 L221 943 Z " />
<glyph glyph-name="Idieresis" unicode="&#xcf;" horiz-adv-x="254" d="M169 700 L243 700 L120 0 L46 0 L169 700 Z M120 781 Q101 781 90 792 Q79 803 79 820 Q79 846 95.5 862.5 Q112 879 138 879 Q157 879 168 868 Q179 857 179 840 Q179 814 162.5 797.5 Q146 781 120 781 Z M319 781 Q300 781 289 792 Q278 803 278 820 Q278 846 294.5 862.5 Q311 879 337 879 Q356 879 367 868 Q378 857 378 840 Q378 814 361.5 797.5 Q345 781 319 781 Z " />
<glyph glyph-name="Idot" unicode="&#x130;" horiz-adv-x="254" d="M169 700 L243 700 L120 0 L46 0 L169 700 Z M221 781 Q200 781 187.5 792.5 Q175 804 175 824 Q175 853 193 871 Q211 889 240 889 Q260 889 272.5 877 Q285 865 285 846 Q285 817 267.5 799 Q250 781 221 781 Z " />
<glyph glyph-name="uni1ECA" unicode="&#x1eca;" horiz-adv-x="254" d="M169 700 L243 700 L120 0 L46 0 L169 700 Z M53 -171 Q32 -171 19.5 -159.5 Q7 -148 7 -128 Q7 -99 25 -81 Q43 -63 72 -63 Q92 -63 104.5 -75 Q117 -87 117 -106 Q117 -135 99.5 -153 Q82 -171 53 -171 Z " />
<glyph glyph-name="Igrave" unicode="&#xcc;" horiz-adv-x="254" d="M169 700 L243 700 L120 0 L46 0 L169 700 Z M117 933 L197 933 L253 781 L189 781 L117 933 Z " />
<glyph glyph-name="uni1EC8" unicode="&#x1ec8;" horiz-adv-x="254" d="M169 700 L243 700 L120 0 L46 0 L169 700 Z M186 783 Q190 804 204.5 818 Q219 832 245 847 Q264 859 274 867 Q284 875 286 886 L288 897 Q289 900 289 905 Q289 930 257 930 L237 930 Q196 930 188 888 L130 888 Q145 982 240 982 L260 982 Q350 982 350 917 Q350 911 348 897 L346 886 Q342 863 326.5 848 Q311 833 284 816 Q267 805 258 798 Q249 791 248 783 L245 767 L183 767 L186 783 Z " />
<glyph glyph-name="Imacron" unicode="&#x12a;" horiz-adv-x="254" d="M169 700 L243 700 L120 0 L46 0 L169 700 Z M104 843 L359 843 L350 791 L95 791 L104 843 Z " />
<glyph glyph-name="Iogonek" unicode="&#x12e;" horiz-adv-x="254" d="M169 700 L243 700 L120 0 L46 0 L169 700 Z M63 -209 Q19 -209 -6 -189 Q-31 -169 -31 -134 Q-31 -120 -29 -113 L-27 -103 Q-21 -73 0.5 -43.5 Q22 -14 52 0 L120 0 Q87 -16 64.5 -42.5 Q42 -69 36 -99 L34 -109 Q33 -112 33 -119 Q33 -135 43.5 -145 Q54 -155 74 -155 L84 -155 Q97 -155 113 -149.5 Q129 -144 143 -135 L133 -191 Q121 -199 105 -204 Q89 -209 73 -209 L63 -209 Z " />
<glyph glyph-name="Itilde" unicode="&#x128;" horiz-adv-x="254" d="M169 700 L243 700 L120 0 L46 0 L169 700 Z M285 773 Q263 773 247.5 783.5 Q232 794 215 813 Q202 827 193.5 833.5 Q185 840 174 840 L164 840 Q147 840 134.5 826.5 Q122 813 117 789 L61 789 Q72 837 100 863.5 Q128 890 168 890 L178 890 Q202 890 218 879 Q234 868 252 848 Q264 835 271.5 829 Q279 823 288 823 L298 823 Q313 823 325 836.5 Q337 850 343 874 L399 874 Q388 826 361 799.5 Q334 773 295 773 L285 773 Z " />
<glyph glyph-name="J" unicode="J" horiz-adv-x="578" d="M192 -8 Q117 -8 70.5 40.5 Q24 89 24 169 Q24 191 29 219 L103 219 Q99 198 99 174 Q99 121 124 89.5 Q149 58 192 58 L279 58 Q335 58 374.5 104 Q414 150 428 232 L511 700 L585 700 L502 232 Q481 117 425 54.5 Q369 -8 279 -8 L192 -8 Z " />
<glyph glyph-name="Jcircumflex" unicode="&#x134;" horiz-adv-x="578" d="M192 -8 Q117 -8 70.5 40.5 Q24 89 24 169 Q24 191 29 219 L103 219 Q99 198 99 174 Q99 121 124 89.5 Q149 58 192 58 L279 58 Q335 58 374.5 104 Q414 150 428 232 L511 700 L585 700 L502 232 Q481 117 425 54.5 Q369 -8 279 -8 L192 -8 Z M564 943 L619 943 L715 781 L650 781 L586 893 L482 781 L411 781 L564 943 Z " />
<glyph glyph-name="K" unicode="K" horiz-adv-x="630" d="M317 389 L560 0 L473 0 L260 338 L153 242 L110 0 L36 0 L159 700 L233 700 L170 339 L568 700 L665 700 L317 389 Z " />
<glyph glyph-name="uni0136" unicode="&#x136;" horiz-adv-x="630" d="M317 389 L560 0 L473 0 L260 338 L153 242 L110 0 L36 0 L159 700 L233 700 L170 339 L568 700 L665 700 L317 389 Z M129 -228 L146 -218 Q181 -196 200 -170 Q219 -144 224 -110 L229 -79 L301 -79 L296 -110 Q287 -165 259 -204.5 Q231 -244 181 -272 L160 -284 L129 -228 Z " />
<glyph glyph-name="L" unicode="L" horiz-adv-x="560" d="M101 0 Q74 0 60 13 Q46 26 46 50 Q46 60 47 65 L159 700 L233 700 L121 66 L501 66 L490 0 L101 0 Z " />
<glyph glyph-name="Lacute" unicode="&#x139;" horiz-adv-x="560" d="M101 0 Q74 0 60 13 Q46 26 46 50 Q46 60 47 65 L159 700 L233 700 L121 66 L501 66 L490 0 L101 0 Z M288 933 L372 933 L246 781 L178 781 L288 933 Z " />
<glyph glyph-name="Lcaron" unicode="&#x13d;" horiz-adv-x="560" d="M101 0 Q74 0 60 13 Q46 26 46 50 Q46 60 47 65 L159 700 L233 700 L121 66 L501 66 L490 0 L101 0 Z M439 551 L456 561 Q491 581 510 607.5 Q529 634 534 669 L539 700 L611 700 L606 669 Q597 614 569 574.5 Q541 535 491 507 L470 495 L439 551 Z " />
<glyph glyph-name="uni013B" unicode="&#x13b;" horiz-adv-x="560" d="M101 0 Q74 0 60 13 Q46 26 46 50 Q46 60 47 65 L159 700 L233 700 L121 66 L501 66 L490 0 L101 0 Z M116 -228 L133 -218 Q168 -196 187 -170 Q206 -144 211 -110 L216 -79 L288 -79 L283 -110 Q274 -165 246 -204.5 Q218 -244 168 -272 L147 -284 L116 -228 Z " />
<glyph glyph-name="Ldot" unicode="&#x13f;" horiz-adv-x="560" d="M101 0 Q74 0 60 13 Q46 26 46 50 Q46 60 47 65 L159 700 L233 700 L121 66 L501 66 L490 0 L101 0 Z M383 223 Q362 223 349.5 234.5 Q337 246 337 266 Q337 295 354.5 313 Q372 331 401 331 Q421 331 433.5 319 Q446 307 446 288 Q446 259 428.5 241 Q411 223 383 223 Z " />
<glyph glyph-name="uni1E36" unicode="&#x1e36;" horiz-adv-x="560" d="M101 0 Q74 0 60 13 Q46 26 46 50 Q46 60 47 65 L159 700 L233 700 L121 66 L501 66 L490 0 L101 0 Z M236 -171 Q215 -171 202.5 -159.5 Q190 -148 190 -128 Q190 -99 208 -81 Q226 -63 255 -63 Q275 -63 287.5 -75 Q300 -87 300 -106 Q300 -135 282.5 -153 Q265 -171 236 -171 Z " />
<glyph glyph-name="uni1E38" unicode="&#x1e38;" horiz-adv-x="560" d="M101 0 Q74 0 60 13 Q46 26 46 50 Q46 60 47 65 L159 700 L233 700 L121 66 L501 66 L490 0 L101 0 Z M236 -171 Q215 -171 202.5 -159.5 Q190 -148 190 -128 Q190 -99 208 -81 Q226 -63 255 -63 Q275 -63 287.5 -75 Q300 -87 300 -106 Q300 -135 282.5 -153 Q265 -171 236 -171 Z M94 843 L349 843 L340 791 L85 791 L94 843 Z " />
<glyph glyph-name="uni1E3A" unicode="&#x1e3a;" horiz-adv-x="560" d="M101 0 Q74 0 60 13 Q46 26 46 50 Q46 60 47 65 L159 700 L233 700 L121 66 L501 66 L490 0 L101 0 Z M126 -72 L381 -72 L372 -124 L117 -124 L126 -72 Z " />
<glyph glyph-name="Lslash" unicode="&#x141;" horiz-adv-x="590" d="M531 66 L520 0 L131 0 Q104 0 90 13 Q76 26 76 50 Q76 60 77 65 L112 265 L20 216 L32 285 L124 334 L189 700 L263 700 L206 377 L352 455 L340 386 L194 308 L151 66 L531 66 Z " />
<glyph glyph-name="M" unicode="M" horiz-adv-x="795" d="M159 700 L225 700 L393 235 L718 700 L794 700 L671 0 L598 0 L697 562 L427 178 Q414 159 404.5 151 Q395 143 384 143 L362 143 L208 562 L109 0 L36 0 L159 700 Z " />
<glyph glyph-name="uni1E42" unicode="&#x1e42;" horiz-adv-x="795" d="M159 700 L225 700 L393 235 L718 700 L794 700 L671 0 L598 0 L697 562 L427 178 Q414 159 404.5 151 Q395 143 384 143 L362 143 L208 562 L109 0 L36 0 L159 700 Z M324 -171 Q303 -171 290.5 -159.5 Q278 -148 278 -128 Q278 -99 296 -81 Q314 -63 343 -63 Q363 -63 375.5 -75 Q388 -87 388 -106 Q388 -135 370.5 -153 Q353 -171 324 -171 Z " />
<glyph glyph-name="N" unicode="N" horiz-adv-x="690" d="M159 700 L225 700 L515 116 L617 700 L689 700 L566 0 L500 0 L210 580 L108 0 L36 0 L159 700 Z " />
<glyph glyph-name="Nacute" unicode="&#x143;" horiz-adv-x="690" d="M159 700 L225 700 L515 116 L617 700 L689 700 L566 0 L500 0 L210 580 L108 0 L36 0 L159 700 Z M516 933 L600 933 L474 781 L406 781 L516 933 Z " />
<glyph glyph-name="Ncaron" unicode="&#x147;" horiz-adv-x="690" d="M159 700 L225 700 L515 116 L617 700 L689 700 L566 0 L500 0 L210 580 L108 0 L36 0 L159 700 Z M315 943 L380 943 L444 831 L548 943 L619 943 L465 781 L410 781 L315 943 Z " />
<glyph glyph-name="uni0145" unicode="&#x145;" horiz-adv-x="690" d="M159 700 L225 700 L515 116 L617 700 L689 700 L566 0 L500 0 L210 580 L108 0 L36 0 L159 700 Z M152 -228 L169 -218 Q204 -196 223 -170 Q242 -144 247 -110 L252 -79 L324 -79 L319 -110 Q310 -165 282 -204.5 Q254 -244 204 -272 L183 -284 L152 -228 Z " />
<glyph glyph-name="uni1E44" unicode="&#x1e44;" horiz-adv-x="690" d="M159 700 L225 700 L515 116 L617 700 L689 700 L566 0 L500 0 L210 580 L108 0 L36 0 L159 700 Z M439 781 Q418 781 405.5 792.5 Q393 804 393 824 Q393 853 411 871 Q429 889 458 889 Q478 889 490.5 877 Q503 865 503 846 Q503 817 485.5 799 Q468 781 439 781 Z " />
<glyph glyph-name="uni1E46" unicode="&#x1e46;" horiz-adv-x="690" d="M159 700 L225 700 L515 116 L617 700 L689 700 L566 0 L500 0 L210 580 L108 0 L36 0 L159 700 Z M272 -171 Q251 -171 238.5 -159.5 Q226 -148 226 -128 Q226 -99 244 -81 Q262 -63 291 -63 Q311 -63 323.5 -75 Q336 -87 336 -106 Q336 -135 318.5 -153 Q301 -171 272 -171 Z " />
<glyph glyph-name="Eng" unicode="&#x14a;" horiz-adv-x="690" d="M339 -135 L373 -135 Q425 -135 453 -107 Q481 -79 492 -15 L496 8 L210 580 L108 0 L36 0 L159 700 L225 700 L515 116 L617 700 L689 700 L564 -10 Q546 -111 499 -155 Q452 -199 362 -199 L328 -199 L339 -135 Z " />
<glyph glyph-name="uni1E48" unicode="&#x1e48;" horiz-adv-x="690" d="M159 700 L225 700 L515 116 L617 700 L689 700 L566 0 L500 0 L210 580 L108 0 L36 0 L159 700 Z M162 -72 L417 -72 L408 -124 L153 -124 L162 -72 Z " />
<glyph glyph-name="Ntilde" unicode="&#xd1;" horiz-adv-x="690" d="M159 700 L225 700 L515 116 L617 700 L689 700 L566 0 L500 0 L210 580 L108 0 L36 0 L159 700 Z M503 773 Q481 773 465.5 783.5 Q450 794 433 813 Q420 827 411.5 833.5 Q403 840 392 840 L382 840 Q365 840 352.5 826.5 Q340 813 335 789 L279 789 Q290 837 318 863.5 Q346 890 386 890 L396 890 Q420 890 436 879 Q452 868 470 848 Q482 835 489.5 829 Q497 823 506 823 L516 823 Q531 823 543 836.5 Q555 850 561 874 L617 874 Q606 826 579 799.5 Q552 773 513 773 L503 773 Z " />
<glyph glyph-name="O" unicode="O" horiz-adv-x="696" d="M260 -8 Q165 -8 109.5 45.5 Q54 99 54 190 Q54 211 59 243 L97 457 Q117 575 187.5 641.5 Q258 708 364 708 L470 708 Q567 708 622.5 655 Q678 602 678 512 Q678 489 673 457 L635 243 Q614 123 544 57.5 Q474 -8 367 -8 L260 -8 Z M365 58 Q441 58 493 107 Q545 156 561 243 L599 457 Q603 478 603 502 Q603 567 567 604.5 Q531 642 468 642 L366 642 Q290 642 238.5 593 Q187 544 171 457 L133 243 Q129 222 129 198 Q129 133 164.5 95.5 Q200 58 262 58 L365 58 Z " />
<glyph glyph-name="Oacute" unicode="&#xd3;" horiz-adv-x="696" d="M260 -8 Q165 -8 109.5 45.5 Q54 99 54 190 Q54 211 59 243 L97 457 Q117 575 187.5 641.5 Q258 708 364 708 L470 708 Q567 708 622.5 655 Q678 602 678 512 Q678 489 673 457 L635 243 Q614 123 544 57.5 Q474 -8 367 -8 L260 -8 Z M365 58 Q441 58 493 107 Q545 156 561 243 L599 457 Q603 478 603 502 Q603 567 567 604.5 Q531 642 468 642 L366 642 Q290 642 238.5 593 Q187 544 171 457 L133 243 Q129 222 129 198 Q129 133 164.5 95.5 Q200 58 262 58 L365 58 Z M520 933 L604 933 L478 781 L410 781 L520 933 Z " />
<glyph glyph-name="Obreve" unicode="&#x14e;" horiz-adv-x="696" d="M260 -8 Q165 -8 109.5 45.5 Q54 99 54 190 Q54 211 59 243 L97 457 Q117 575 187.5 641.5 Q258 708 364 708 L470 708 Q567 708 622.5 655 Q678 602 678 512 Q678 489 673 457 L635 243 Q614 123 544 57.5 Q474 -8 367 -8 L260 -8 Z M365 58 Q441 58 493 107 Q545 156 561 243 L599 457 Q603 478 603 502 Q603 567 567 604.5 Q531 642 468 642 L366 642 Q290 642 238.5 593 Q187 544 171 457 L133 243 Q129 222 129 198 Q129 133 164.5 95.5 Q200 58 262 58 L365 58 Z M441 773 Q384 773 351 803.5 Q318 834 318 886 Q318 898 319 904 L320 912 L378 912 L377 904 Q376 899 376 891 Q376 860 394.5 841.5 Q413 823 444 823 L456 823 Q495 823 521.5 845 Q548 867 552 904 L553 912 L610 912 L609 904 Q602 845 559 809 Q516 773 453 773 L441 773 Z " />
<glyph glyph-name="uni01D1" unicode="&#x1d1;" horiz-adv-x="696" d="M260 -8 Q165 -8 109.5 45.5 Q54 99 54 190 Q54 211 59 243 L97 457 Q117 575 187.5 641.5 Q258 708 364 708 L470 708 Q567 708 622.5 655 Q678 602 678 512 Q678 489 673 457 L635 243 Q614 123 544 57.5 Q474 -8 367 -8 L260 -8 Z M365 58 Q441 58 493 107 Q545 156 561 243 L599 457 Q603 478 603 502 Q603 567 567 604.5 Q531 642 468 642 L366 642 Q290 642 238.5 593 Q187 544 171 457 L133 243 Q129 222 129 198 Q129 133 164.5 95.5 Q200 58 262 58 L365 58 Z M319 943 L384 943 L448 831 L552 943 L623 943 L469 781 L414 781 L319 943 Z " />
<glyph glyph-name="Ocircumflex" unicode="&#xd4;" horiz-adv-x="696" d="M260 -8 Q165 -8 109.5 45.5 Q54 99 54 190 Q54 211 59 243 L97 457 Q117 575 187.5 641.5 Q258 708 364 708 L470 708 Q567 708 622.5 655 Q678 602 678 512 Q678 489 673 457 L635 243 Q614 123 544 57.5 Q474 -8 367 -8 L260 -8 Z M365 58 Q441 58 493 107 Q545 156 561 243 L599 457 Q603 478 603 502 Q603 567 567 604.5 Q531 642 468 642 L366 642 Q290 642 238.5 593 Q187 544 171 457 L133 243 Q129 222 129 198 Q129 133 164.5 95.5 Q200 58 262 58 L365 58 Z M443 943 L498 943 L594 781 L529 781 L465 893 L361 781 L290 781 L443 943 Z " />
<glyph glyph-name="uni1ED0" unicode="&#x1ed0;" horiz-adv-x="696" d="M260 -8 Q165 -8 109.5 45.5 Q54 99 54 190 Q54 211 59 243 L97 457 Q117 575 187.5 641.5 Q258 708 364 708 L470 708 Q567 708 622.5 655 Q678 602 678 512 Q678 489 673 457 L635 243 Q614 123 544 57.5 Q474 -8 367 -8 L260 -8 Z M365 58 Q441 58 493 107 Q545 156 561 243 L599 457 Q603 478 603 502 Q603 567 567 604.5 Q531 642 468 642 L366 642 Q290 642 238.5 593 Q187 544 171 457 L133 243 Q129 222 129 198 Q129 133 164.5 95.5 Q200 58 262 58 L365 58 Z M661 1049 L731 1049 L635 933 L577 933 L661 1049 Z M443 943 L498 943 L594 781 L529 781 L465 893 L361 781 L290 781 L443 943 Z " />
<glyph glyph-name="uni1ED8" unicode="&#x1ed8;" horiz-adv-x="696" d="M260 -8 Q165 -8 109.5 45.5 Q54 99 54 190 Q54 211 59 243 L97 457 Q117 575 187.5 641.5 Q258 708 364 708 L470 708 Q567 708 622.5 655 Q678 602 678 512 Q678 489 673 457 L635 243 Q614 123 544 57.5 Q474 -8 367 -8 L260 -8 Z M365 58 Q441 58 493 107 Q545 156 561 243 L599 457 Q603 478 603 502 Q603 567 567 604.5 Q531 642 468 642 L366 642 Q290 642 238.5 593 Q187 544 171 457 L133 243 Q129 222 129 198 Q129 133 164.5 95.5 Q200 58 262 58 L365 58 Z M285 -171 Q264 -171 251.5 -159.5 Q239 -148 239 -128 Q239 -99 257 -81 Q275 -63 304 -63 Q324 -63 336.5 -75 Q349 -87 349 -106 Q349 -135 331.5 -153 Q314 -171 285 -171 Z M443 943 L498 943 L594 781 L529 781 L465 893 L361 781 L290 781 L443 943 Z " />
<glyph glyph-name="uni1ED2" unicode="&#x1ed2;" horiz-adv-x="696" d="M260 -8 Q165 -8 109.5 45.5 Q54 99 54 190 Q54 211 59 243 L97 457 Q117 575 187.5 641.5 Q258 708 364 708 L470 708 Q567 708 622.5 655 Q678 602 678 512 Q678 489 673 457 L635 243 Q614 123 544 57.5 Q474 -8 367 -8 L260 -8 Z M365 58 Q441 58 493 107 Q545 156 561 243 L599 457 Q603 478 603 502 Q603 567 567 604.5 Q531 642 468 642 L366 642 Q290 642 238.5 593 Q187 544 171 457 L133 243 Q129 222 129 198 Q129 133 164.5 95.5 Q200 58 262 58 L365 58 Z M549 1049 L617 1049 L661 933 L605 933 L549 1049 Z M443 943 L498 943 L594 781 L529 781 L465 893 L361 781 L290 781 L443 943 Z " />
<glyph glyph-name="uni1ED4" unicode="&#x1ed4;" horiz-adv-x="696" d="M260 -8 Q165 -8 109.5 45.5 Q54 99 54 190 Q54 211 59 243 L97 457 Q117 575 187.5 641.5 Q258 708 364 708 L470 708 Q567 708 622.5 655 Q678 602 678 512 Q678 489 673 457 L635 243 Q614 123 544 57.5 Q474 -8 367 -8 L260 -8 Z M365 58 Q441 58 493 107 Q545 156 561 243 L599 457 Q603 478 603 502 Q603 567 567 604.5 Q531 642 468 642 L366 642 Q290 642 238.5 593 Q187 544 171 457 L133 243 Q129 222 129 198 Q129 133 164.5 95.5 Q200 58 262 58 L365 58 Z M580 931 Q584 947 596.5 958.5 Q609 970 629 982 Q645 992 653.5 999 Q662 1006 663 1015 L664 1024 Q667 1051 639 1051 L623 1051 Q588 1051 582 1017 L534 1017 Q546 1095 625 1095 L641 1095 Q715 1095 715 1036 L714 1024 L713 1015 Q711 996 698 983 Q685 970 662 957 Q651 951 642 944.5 Q633 938 632 931 L630 923 L578 923 L580 931 Z M443 943 L498 943 L594 781 L529 781 L465 893 L361 781 L290 781 L443 943 Z " />
<glyph glyph-name="uni1ED6" unicode="&#x1ed6;" horiz-adv-x="696" d="M260 -8 Q165 -8 109.5 45.5 Q54 99 54 190 Q54 211 59 243 L97 457 Q117 575 187.5 641.5 Q258 708 364 708 L470 708 Q567 708 622.5 655 Q678 602 678 512 Q678 489 673 457 L635 243 Q614 123 544 57.5 Q474 -8 367 -8 L260 -8 Z M365 58 Q441 58 493 107 Q545 156 561 243 L599 457 Q603 478 603 502 Q603 567 567 604.5 Q531 642 468 642 L366 642 Q290 642 238.5 593 Q187 544 171 457 L133 243 Q129 222 129 198 Q129 133 164.5 95.5 Q200 58 262 58 L365 58 Z M538 978 Q518 978 505.5 986.5 Q493 995 475 1013 Q465 1025 457 1031 Q449 1037 439 1037 L430 1037 Q416 1037 405.5 1025 Q395 1013 390 992 L341 992 Q349 1034 373 1057.5 Q397 1081 432 1081 L441 1081 Q462 1081 477 1071 Q492 1061 507 1044 Q518 1032 524.5 1027 Q531 1022 539 1022 L548 1022 Q562 1022 572 1034 Q582 1046 586 1067 L635 1067 Q627 1025 604 1001.5 Q581 978 547 978 L538 978 Z M443 943 L498 943 L594 781 L529 781 L465 893 L361 781 L290 781 L443 943 Z " />
<glyph glyph-name="Odieresis" unicode="&#xd6;" horiz-adv-x="696" d="M260 -8 Q165 -8 109.5 45.5 Q54 99 54 190 Q54 211 59 243 L97 457 Q117 575 187.5 641.5 Q258 708 364 708 L470 708 Q567 708 622.5 655 Q678 602 678 512 Q678 489 673 457 L635 243 Q614 123 544 57.5 Q474 -8 367 -8 L260 -8 Z M365 58 Q441 58 493 107 Q545 156 561 243 L599 457 Q603 478 603 502 Q603 567 567 604.5 Q531 642 468 642 L366 642 Q290 642 238.5 593 Q187 544 171 457 L133 243 Q129 222 129 198 Q129 133 164.5 95.5 Q200 58 262 58 L365 58 Z M342 781 Q323 781 312 792 Q301 803 301 820 Q301 846 317.5 862.5 Q334 879 360 879 Q379 879 390 868 Q401 857 401 840 Q401 814 384.5 797.5 Q368 781 342 781 Z M541 781 Q522 781 511 792 Q500 803 500 820 Q500 846 516.5 862.5 Q533 879 559 879 Q578 879 589 868 Q600 857 600 840 Q600 814 583.5 797.5 Q567 781 541 781 Z " />
<glyph glyph-name="uni1ECC" unicode="&#x1ecc;" horiz-adv-x="696" d="M260 -8 Q165 -8 109.5 45.5 Q54 99 54 190 Q54 211 59 243 L97 457 Q117 575 187.5 641.5 Q258 708 364 708 L470 708 Q567 708 622.5 655 Q678 602 678 512 Q678 489 673 457 L635 243 Q614 123 544 57.5 Q474 -8 367 -8 L260 -8 Z M365 58 Q441 58 493 107 Q545 156 561 243 L599 457 Q603 478 603 502 Q603 567 567 604.5 Q531 642 468 642 L366 642 Q290 642 238.5 593 Q187 544 171 457 L133 243 Q129 222 129 198 Q129 133 164.5 95.5 Q200 58 262 58 L365 58 Z M285 -171 Q264 -171 251.5 -159.5 Q239 -148 239 -128 Q239 -99 257 -81 Q275 -63 304 -63 Q324 -63 336.5 -75 Q349 -87 349 -106 Q349 -135 331.5 -153 Q314 -171 285 -171 Z " />
<glyph glyph-name="Ograve" unicode="&#xd2;" horiz-adv-x="696" d="M260 -8 Q165 -8 109.5 45.5 Q54 99 54 190 Q54 211 59 243 L97 457 Q117 575 187.5 641.5 Q258 708 364 708 L470 708 Q567 708 622.5 655 Q678 602 678 512 Q678 489 673 457 L635 243 Q614 123 544 57.5 Q474 -8 367 -8 L260 -8 Z M365 58 Q441 58 493 107 Q545 156 561 243 L599 457 Q603 478 603 502 Q603 567 567 604.5 Q531 642 468 642 L366 642 Q290 642 238.5 593 Q187 544 171 457 L133 243 Q129 222 129 198 Q129 133 164.5 95.5 Q200 58 262 58 L365 58 Z M339 933 L419 933 L475 781 L411 781 L339 933 Z " />
<glyph glyph-name="uni1ECE" unicode="&#x1ece;" horiz-adv-x="696" d="M260 -8 Q165 -8 109.5 45.5 Q54 99 54 190 Q54 211 59 243 L97 457 Q117 575 187.5 641.5 Q258 708 364 708 L470 708 Q567 708 622.5 655 Q678 602 678 512 Q678 489 673 457 L635 243 Q614 123 544 57.5 Q474 -8 367 -8 L260 -8 Z M365 58 Q441 58 493 107 Q545 156 561 243 L599 457 Q603 478 603 502 Q603 567 567 604.5 Q531 642 468 642 L366 642 Q290 642 238.5 593 Q187 544 171 457 L133 243 Q129 222 129 198 Q129 133 164.5 95.5 Q200 58 262 58 L365 58 Z M408 783 Q412 804 426.5 818 Q441 832 467 847 Q486 859 496 867 Q506 875 508 886 L510 897 Q511 900 511 905 Q511 930 479 930 L459 930 Q418 930 410 888 L352 888 Q367 982 462 982 L482 982 Q572 982 572 917 Q572 911 570 897 L568 886 Q564 863 548.5 848 Q533 833 506 816 Q489 805 480 798 Q471 791 470 783 L467 767 L405 767 L408 783 Z " />
<glyph glyph-name="Ohorn" unicode="&#x1a0;" horiz-adv-x="766" d="M851 698 L849 686 Q836 604 791 559 Q746 514 678 513 Q678 490 673 457 L635 243 Q614 123 544 57.5 Q474 -8 367 -8 L260 -8 Q165 -8 109.5 45.5 Q54 99 54 190 Q54 211 59 243 L97 457 Q117 575 187.5 641.5 Q258 708 364 708 L470 708 Q549 708 601.5 672.5 Q654 637 671 573 L680 573 Q718 573 745 603 Q772 633 781 686 L783 698 L851 698 Z M599 457 Q603 478 603 502 Q603 567 567 604.5 Q531 642 468 642 L366 642 Q290 642 238.5 593 Q187 544 171 457 L133 243 Q129 222 129 198 Q129 133 164.5 95.5 Q200 58 262 58 L365 58 Q441 58 493 107 Q545 156 561 243 L599 457 Z " />
<glyph glyph-name="uni1EDA" unicode="&#x1eda;" horiz-adv-x="766" d="M851 698 L849 686 Q836 604 791 559 Q746 514 678 513 Q678 490 673 457 L635 243 Q614 123 544 57.5 Q474 -8 367 -8 L260 -8 Q165 -8 109.5 45.5 Q54 99 54 190 Q54 211 59 243 L97 457 Q117 575 187.5 641.5 Q258 708 364 708 L470 708 Q549 708 601.5 672.5 Q654 637 671 573 L680 573 Q718 573 745 603 Q772 633 781 686 L783 698 L851 698 Z M599 457 Q603 478 603 502 Q603 567 567 604.5 Q531 642 468 642 L366 642 Q290 642 238.5 593 Q187 544 171 457 L133 243 Q129 222 129 198 Q129 133 164.5 95.5 Q200 58 262 58 L365 58 Q441 58 493 107 Q545 156 561 243 L599 457 Z M520 933 L604 933 L478 781 L410 781 L520 933 Z " />
<glyph glyph-name="uni1EE2" unicode="&#x1ee2;" horiz-adv-x="766" d="M851 698 L849 686 Q836 604 791 559 Q746 514 678 513 Q678 490 673 457 L635 243 Q614 123 544 57.5 Q474 -8 367 -8 L260 -8 Q165 -8 109.5 45.5 Q54 99 54 190 Q54 211 59 243 L97 457 Q117 575 187.5 641.5 Q258 708 364 708 L470 708 Q549 708 601.5 672.5 Q654 637 671 573 L680 573 Q718 573 745 603 Q772 633 781 686 L783 698 L851 698 Z M599 457 Q603 478 603 502 Q603 567 567 604.5 Q531 642 468 642 L366 642 Q290 642 238.5 593 Q187 544 171 457 L133 243 Q129 222 129 198 Q129 133 164.5 95.5 Q200 58 262 58 L365 58 Q441 58 493 107 Q545 156 561 243 L599 457 Z M274 -171 Q253 -171 240.5 -159.5 Q228 -148 228 -128 Q228 -99 246 -81 Q264 -63 293 -63 Q313 -63 325.5 -75 Q338 -87 338 -106 Q338 -135 320.5 -153 Q303 -171 274 -171 Z " />
<glyph glyph-name="uni1EDC" unicode="&#x1edc;" horiz-adv-x="766" d="M851 698 L849 686 Q836 604 791 559 Q746 514 678 513 Q678 490 673 457 L635 243 Q614 123 544 57.5 Q474 -8 367 -8 L260 -8 Q165 -8 109.5 45.5 Q54 99 54 190 Q54 211 59 243 L97 457 Q117 575 187.5 641.5 Q258 708 364 708 L470 708 Q549 708 601.5 672.5 Q654 637 671 573 L680 573 Q718 573 745 603 Q772 633 781 686 L783 698 L851 698 Z M599 457 Q603 478 603 502 Q603 567 567 604.5 Q531 642 468 642 L366 642 Q290 642 238.5 593 Q187 544 171 457 L133 243 Q129 222 129 198 Q129 133 164.5 95.5 Q200 58 262 58 L365 58 Q441 58 493 107 Q545 156 561 243 L599 457 Z M339 933 L419 933 L475 781 L411 781 L339 933 Z " />
<glyph glyph-name="uni1EDE" unicode="&#x1ede;" horiz-adv-x="766" d="M851 698 L849 686 Q836 604 791 559 Q746 514 678 513 Q678 490 673 457 L635 243 Q614 123 544 57.5 Q474 -8 367 -8 L260 -8 Q165 -8 109.5 45.5 Q54 99 54 190 Q54 211 59 243 L97 457 Q117 575 187.5 641.5 Q258 708 364 708 L470 708 Q549 708 601.5 672.5 Q654 637 671 573 L680 573 Q718 573 745 603 Q772 633 781 686 L783 698 L851 698 Z M599 457 Q603 478 603 502 Q603 567 567 604.5 Q531 642 468 642 L366 642 Q290 642 238.5 593 Q187 544 171 457 L133 243 Q129 222 129 198 Q129 133 164.5 95.5 Q200 58 262 58 L365 58 Q441 58 493 107 Q545 156 561 243 L599 457 Z M408 783 Q412 804 426.5 818 Q441 832 467 847 Q486 859 496 867 Q506 875 508 886 L510 897 Q511 900 511 905 Q511 930 479 930 L459 930 Q418 930 410 888 L352 888 Q367 982 462 982 L482 982 Q572 982 572 917 Q572 911 570 897 L568 886 Q564 863 548.5 848 Q533 833 506 816 Q489 805 480 798 Q471 791 470 783 L467 767 L405 767 L408 783 Z " />
<glyph glyph-name="uni1EE0" unicode="&#x1ee0;" horiz-adv-x="766" d="M851 698 L849 686 Q836 604 791 559 Q746 514 678 513 Q678 490 673 457 L635 243 Q614 123 544 57.5 Q474 -8 367 -8 L260 -8 Q165 -8 109.5 45.5 Q54 99 54 190 Q54 211 59 243 L97 457 Q117 575 187.5 641.5 Q258 708 364 708 L470 708 Q549 708 601.5 672.5 Q654 637 671 573 L680 573 Q718 573 745 603 Q772 633 781 686 L783 698 L851 698 Z M599 457 Q603 478 603 502 Q603 567 567 604.5 Q531 642 468 642 L366 642 Q290 642 238.5 593 Q187 544 171 457 L133 243 Q129 222 129 198 Q129 133 164.5 95.5 Q200 58 262 58 L365 58 Q441 58 493 107 Q545 156 561 243 L599 457 Z M507 773 Q485 773 469.5 783.5 Q454 794 437 813 Q424 827 415.5 833.5 Q407 840 396 840 L386 840 Q369 840 356.5 826.5 Q344 813 339 789 L283 789 Q294 837 322 863.5 Q350 890 390 890 L400 890 Q424 890 440 879 Q456 868 474 848 Q486 835 493.5 829 Q501 823 510 823 L520 823 Q535 823 547 836.5 Q559 850 565 874 L621 874 Q610 826 583 799.5 Q556 773 517 773 L507 773 Z " />
<glyph glyph-name="Ohungarumlaut" unicode="&#x150;" horiz-adv-x="696" d="M260 -8 Q165 -8 109.5 45.5 Q54 99 54 190 Q54 211 59 243 L97 457 Q117 575 187.5 641.5 Q258 708 364 708 L470 708 Q567 708 622.5 655 Q678 602 678 512 Q678 489 673 457 L635 243 Q614 123 544 57.5 Q474 -8 367 -8 L260 -8 Z M365 58 Q441 58 493 107 Q545 156 561 243 L599 457 Q603 478 603 502 Q603 567 567 604.5 Q531 642 468 642 L366 642 Q290 642 238.5 593 Q187 544 171 457 L133 243 Q129 222 129 198 Q129 133 164.5 95.5 Q200 58 262 58 L365 58 Z M443 933 L521 933 L399 781 L337 781 L443 933 Z M572 933 L650 933 L528 781 L466 781 L572 933 Z " />
<glyph glyph-name="Omacron" unicode="&#x14c;" horiz-adv-x="696" d="M260 -8 Q165 -8 109.5 45.5 Q54 99 54 190 Q54 211 59 243 L97 457 Q117 575 187.5 641.5 Q258 708 364 708 L470 708 Q567 708 622.5 655 Q678 602 678 512 Q678 489 673 457 L635 243 Q614 123 544 57.5 Q474 -8 367 -8 L260 -8 Z M365 58 Q441 58 493 107 Q545 156 561 243 L599 457 Q603 478 603 502 Q603 567 567 604.5 Q531 642 468 642 L366 642 Q290 642 238.5 593 Q187 544 171 457 L133 243 Q129 222 129 198 Q129 133 164.5 95.5 Q200 58 262 58 L365 58 Z M326 843 L581 843 L572 791 L317 791 L326 843 Z " />
<glyph glyph-name="Oslash" unicode="&#xd8;" horiz-adv-x="696" d="M606 669 Q641 643 659.5 603 Q678 563 678 512 Q678 489 673 457 L635 243 Q614 123 544 57.5 Q474 -8 367 -8 L260 -8 Q209 -8 167 9 L131 -45 L64 -45 L119 37 Q87 63 70.5 102 Q54 141 54 189 Q54 211 59 243 L97 457 Q117 575 187.5 641.5 Q258 708 364 708 L470 708 Q517 708 557 694 L585 737 L652 737 L606 669 Z M133 243 Q129 222 129 198 Q129 137 161 100 L517 635 Q496 642 468 642 L366 642 Q290 642 238.5 593 Q187 544 171 457 L133 243 Z M599 457 Q603 478 603 503 Q603 569 565 607 L206 68 Q230 58 262 58 L365 58 Q441 58 493 107 Q545 156 561 243 L599 457 Z " />
<glyph glyph-name="Oslashacute" unicode="&#x1fe;" horiz-adv-x="696" d="M606 669 Q641 643 659.5 603 Q678 563 678 512 Q678 489 673 457 L635 243 Q614 123 544 57.5 Q474 -8 367 -8 L260 -8 Q209 -8 167 9 L131 -45 L64 -45 L119 37 Q87 63 70.5 102 Q54 141 54 189 Q54 211 59 243 L97 457 Q117 575 187.5 641.5 Q258 708 364 708 L470 708 Q517 708 557 694 L585 737 L652 737 L606 669 Z M133 243 Q129 222 129 198 Q129 137 161 100 L517 635 Q496 642 468 642 L366 642 Q290 642 238.5 593 Q187 544 171 457 L133 243 Z M599 457 Q603 478 603 503 Q603 569 565 607 L206 68 Q230 58 262 58 L365 58 Q441 58 493 107 Q545 156 561 243 L599 457 Z M520 933 L604 933 L478 781 L410 781 L520 933 Z " />
<glyph glyph-name="Otilde" unicode="&#xd5;" horiz-adv-x="696" d="M260 -8 Q165 -8 109.5 45.5 Q54 99 54 190 Q54 211 59 243 L97 457 Q117 575 187.5 641.5 Q258 708 364 708 L470 708 Q567 708 622.5 655 Q678 602 678 512 Q678 489 673 457 L635 243 Q614 123 544 57.5 Q474 -8 367 -8 L260 -8 Z M365 58 Q441 58 493 107 Q545 156 561 243 L599 457 Q603 478 603 502 Q603 567 567 604.5 Q531 642 468 642 L366 642 Q290 642 238.5 593 Q187 544 171 457 L133 243 Q129 222 129 198 Q129 133 164.5 95.5 Q200 58 262 58 L365 58 Z M507 773 Q485 773 469.5 783.5 Q454 794 437 813 Q424 827 415.5 833.5 Q407 840 396 840 L386 840 Q369 840 356.5 826.5 Q344 813 339 789 L283 789 Q294 837 322 863.5 Q350 890 390 890 L400 890 Q424 890 440 879 Q456 868 474 848 Q486 835 493.5 829 Q501 823 510 823 L520 823 Q535 823 547 836.5 Q559 850 565 874 L621 874 Q610 826 583 799.5 Q556 773 517 773 L507 773 Z " />
<glyph glyph-name="OE" unicode="&#x152;" horiz-adv-x="1076" d="M261 -8 Q167 -8 111 47 Q55 102 55 193 Q55 215 60 247 L96 453 Q109 528 148 586 Q187 644 244 676 Q301 708 368 708 L476 708 Q526 708 569.5 685.5 Q613 663 635 626 L648 700 L1105 700 L1094 636 L711 636 L667 390 L1010 390 L999 326 L656 326 L610 64 L993 64 L981 0 L591 0 Q565 0 550 13 Q535 26 535 48 Q535 54 536 57 L540 82 Q505 41 459 16.5 Q413 -8 365 -8 L261 -8 Z M363 58 Q440 58 497 111.5 Q554 165 569 251 L604 453 Q608 473 608 496 Q608 563 571.5 602.5 Q535 642 472 642 L368 642 Q294 642 239.5 589.5 Q185 537 170 453 L134 247 Q130 226 130 202 Q130 136 166 97 Q202 58 263 58 L363 58 Z " />
<glyph glyph-name="P" unicode="P" horiz-adv-x="624" d="M159 700 L487 700 Q561 700 603.5 665.5 Q646 631 646 572 Q646 557 643 540 L624 437 Q609 356 554.5 310.5 Q500 265 418 265 L157 265 L110 0 L36 0 L159 700 Z M418 331 Q471 331 505.5 359.5 Q540 388 550 439 L569 542 Q571 554 571 560 Q571 594 547.5 614 Q524 634 484 634 L222 634 L168 331 L418 331 Z " />
<glyph glyph-name="Thorn" unicode="&#xde;" horiz-adv-x="638" d="M465 574 Q539 574 581.5 539.5 Q624 505 624 446 Q624 431 621 416 L603 313 Q589 231 532.5 185 Q476 139 389 139 L135 139 L110 0 L36 0 L137 574 L159 700 L233 700 L211 574 L465 574 Z M548 418 Q549 424 549 435 Q549 468 526 488 Q503 508 463 508 L200 508 L146 205 L387 205 Q445 205 482.5 234 Q520 263 530 315 L548 418 Z " />
<glyph glyph-name="Q" unicode="Q" horiz-adv-x="700" d="M470 708 Q567 708 622.5 655 Q678 602 678 512 Q678 489 673 457 L635 245 Q618 155 565 91 L627 16 L573 -32 L512 41 Q442 -8 361 -8 L260 -8 Q165 -8 109.5 45.5 Q54 99 54 190 Q54 211 59 243 L97 457 Q118 576 188 642 Q258 708 364 708 L470 708 Z M599 457 Q603 478 603 502 Q603 567 567 604.5 Q531 642 468 642 L366 642 Q290 642 238.5 593 Q187 544 171 457 L133 243 Q129 222 129 198 Q129 133 164.5 95.5 Q200 58 262 58 L359 58 Q417 58 468 93 L384 193 L439 241 L520 144 Q551 188 561 245 L599 457 Z " />
<glyph glyph-name="R" unicode="R" horiz-adv-x="650" d="M159 700 L490 700 Q562 700 603.5 665.5 Q645 631 645 573 Q645 559 642 542 L629 469 Q619 413 581.5 373.5 Q544 334 477 318 L477 317 Q505 301 523 266.5 Q541 232 546 187 L568 0 L492 0 L470 187 Q464 236 435 266 Q406 296 365 296 L162 296 L110 0 L36 0 L159 700 Z M414 362 Q469 362 508 391.5 Q547 421 555 469 L568 546 Q569 552 569 563 Q569 596 547 615 Q525 634 486 634 L222 634 L174 362 L414 362 Z " />
<glyph glyph-name="Racute" unicode="&#x154;" horiz-adv-x="650" d="M159 700 L490 700 Q562 700 603.5 665.5 Q645 631 645 573 Q645 559 642 542 L629 469 Q619 413 581.5 373.5 Q544 334 477 318 L477 317 Q505 301 523 266.5 Q541 232 546 187 L568 0 L492 0 L470 187 Q464 236 435 266 Q406 296 365 296 L162 296 L110 0 L36 0 L159 700 Z M414 362 Q469 362 508 391.5 Q547 421 555 469 L568 546 Q569 552 569 563 Q569 596 547 615 Q525 634 486 634 L222 634 L174 362 L414 362 Z M493 933 L577 933 L451 781 L383 781 L493 933 Z " />
<glyph glyph-name="Rcaron" unicode="&#x158;" horiz-adv-x="650" d="M159 700 L490 700 Q562 700 603.5 665.5 Q645 631 645 573 Q645 559 642 542 L629 469 Q619 413 581.5 373.5 Q544 334 477 318 L477 317 Q505 301 523 266.5 Q541 232 546 187 L568 0 L492 0 L470 187 Q464 236 435 266 Q406 296 365 296 L162 296 L110 0 L36 0 L159 700 Z M414 362 Q469 362 508 391.5 Q547 421 555 469 L568 546 Q569 552 569 563 Q569 596 547 615 Q525 634 486 634 L222 634 L174 362 L414 362 Z M292 943 L357 943 L421 831 L525 943 L596 943 L442 781 L387 781 L292 943 Z " />
<glyph glyph-name="uni0156" unicode="&#x156;" horiz-adv-x="650" d="M159 700 L490 700 Q562 700 603.5 665.5 Q645 631 645 573 Q645 559 642 542 L629 469 Q619 413 581.5 373.5 Q544 334 477 318 L477 317 Q505 301 523 266.5 Q541 232 546 187 L568 0 L492 0 L470 187 Q464 236 435 266 Q406 296 365 296 L162 296 L110 0 L36 0 L159 700 Z M414 362 Q469 362 508 391.5 Q547 421 555 469 L568 546 Q569 552 569 563 Q569 596 547 615 Q525 634 486 634 L222 634 L174 362 L414 362 Z M143 -228 L160 -218 Q195 -196 214 -170 Q233 -144 238 -110 L243 -79 L315 -79 L310 -110 Q301 -165 273 -204.5 Q245 -244 195 -272 L174 -284 L143 -228 Z " />
<glyph glyph-name="uni1E5A" unicode="&#x1e5a;" horiz-adv-x="650" d="M159 700 L490 700 Q562 700 603.5 665.5 Q645 631 645 573 Q645 559 642 542 L629 469 Q619 413 581.5 373.5 Q544 334 477 318 L477 317 Q505 301 523 266.5 Q541 232 546 187 L568 0 L492 0 L470 187 Q464 236 435 266 Q406 296 365 296 L162 296 L110 0 L36 0 L159 700 Z M414 362 Q469 362 508 391.5 Q547 421 555 469 L568 546 Q569 552 569 563 Q569 596 547 615 Q525 634 486 634 L222 634 L174 362 L414 362 Z M263 -171 Q242 -171 229.5 -159.5 Q217 -148 217 -128 Q217 -99 235 -81 Q253 -63 282 -63 Q302 -63 314.5 -75 Q327 -87 327 -106 Q327 -135 309.5 -153 Q292 -171 263 -171 Z " />
<glyph glyph-name="uni1E5C" unicode="&#x1e5c;" horiz-adv-x="650" d="M159 700 L490 700 Q562 700 603.5 665.5 Q645 631 645 573 Q645 559 642 542 L629 469 Q619 413 581.5 373.5 Q544 334 477 318 L477 317 Q505 301 523 266.5 Q541 232 546 187 L568 0 L492 0 L470 187 Q464 236 435 266 Q406 296 365 296 L162 296 L110 0 L36 0 L159 700 Z M414 362 Q469 362 508 391.5 Q547 421 555 469 L568 546 Q569 552 569 563 Q569 596 547 615 Q525 634 486 634 L222 634 L174 362 L414 362 Z M263 -171 Q242 -171 229.5 -159.5 Q217 -148 217 -128 Q217 -99 235 -81 Q253 -63 282 -63 Q302 -63 314.5 -75 Q327 -87 327 -106 Q327 -135 309.5 -153 Q292 -171 263 -171 Z M299 843 L554 843 L545 791 L290 791 L299 843 Z " />
<glyph glyph-name="uni1E5E" unicode="&#x1e5e;" horiz-adv-x="650" d="M159 700 L490 700 Q562 700 603.5 665.5 Q645 631 645 573 Q645 559 642 542 L629 469 Q619 413 581.5 373.5 Q544 334 477 318 L477 317 Q505 301 523 266.5 Q541 232 546 187 L568 0 L492 0 L470 187 Q464 236 435 266 Q406 296 365 296 L162 296 L110 0 L36 0 L159 700 Z M414 362 Q469 362 508 391.5 Q547 421 555 469 L568 546 Q569 552 569 563 Q569 596 547 615 Q525 634 486 634 L222 634 L174 362 L414 362 Z M153 -72 L408 -72 L399 -124 L144 -124 L153 -72 Z " />
<glyph glyph-name="S" unicode="S" horiz-adv-x="627" d="M227 -8 Q142 -8 92.5 36 Q43 80 43 155 Q43 177 47 197 L119 197 Q116 181 116 165 Q116 116 146 87 Q176 58 227 58 L338 58 Q399 58 438 83.5 Q477 109 485 154 L497 218 Q498 222 498 231 Q498 259 475.5 279.5 Q453 300 415 307 L240 337 Q177 347 141 383 Q105 419 105 470 Q105 478 107 494 L117 548 Q131 624 188 666 Q245 708 332 708 L445 708 Q525 708 571 668 Q617 628 617 559 Q617 547 613 521 L541 521 Q544 536 544 548 Q544 592 517.5 617 Q491 642 445 642 L332 642 Q274 642 237 617 Q200 592 191 548 L181 494 Q180 489 180 481 Q180 452 202 431 Q224 410 261 403 L435 372 Q499 361 536 325.5 Q573 290 573 241 Q573 234 571 218 L559 154 Q544 74 488.5 33 Q433 -8 342 -8 L227 -8 Z " />
<glyph glyph-name="Sacute" unicode="&#x15a;" horiz-adv-x="627" d="M227 -8 Q142 -8 92.5 36 Q43 80 43 155 Q43 177 47 197 L119 197 Q116 181 116 165 Q116 116 146 87 Q176 58 227 58 L338 58 Q399 58 438 83.5 Q477 109 485 154 L497 218 Q498 222 498 231 Q498 259 475.5 279.5 Q453 300 415 307 L240 337 Q177 347 141 383 Q105 419 105 470 Q105 478 107 494 L117 548 Q131 624 188 666 Q245 708 332 708 L445 708 Q525 708 571 668 Q617 628 617 559 Q617 547 613 521 L541 521 Q544 536 544 548 Q544 592 517.5 617 Q491 642 445 642 L332 642 Q274 642 237 617 Q200 592 191 548 L181 494 Q180 489 180 481 Q180 452 202 431 Q224 410 261 403 L435 372 Q499 361 536 325.5 Q573 290 573 241 Q573 234 571 218 L559 154 Q544 74 488.5 33 Q433 -8 342 -8 L227 -8 Z M477 933 L561 933 L435 781 L367 781 L477 933 Z " />
<glyph glyph-name="Scaron" unicode="&#x160;" horiz-adv-x="627" d="M227 -8 Q142 -8 92.5 36 Q43 80 43 155 Q43 177 47 197 L119 197 Q116 181 116 165 Q116 116 146 87 Q176 58 227 58 L338 58 Q399 58 438 83.5 Q477 109 485 154 L497 218 Q498 222 498 231 Q498 259 475.5 279.5 Q453 300 415 307 L240 337 Q177 347 141 383 Q105 419 105 470 Q105 478 107 494 L117 548 Q131 624 188 666 Q245 708 332 708 L445 708 Q525 708 571 668 Q617 628 617 559 Q617 547 613 521 L541 521 Q544 536 544 548 Q544 592 517.5 617 Q491 642 445 642 L332 642 Q274 642 237 617 Q200 592 191 548 L181 494 Q180 489 180 481 Q180 452 202 431 Q224 410 261 403 L435 372 Q499 361 536 325.5 Q573 290 573 241 Q573 234 571 218 L559 154 Q544 74 488.5 33 Q433 -8 342 -8 L227 -8 Z M276 943 L341 943 L405 831 L509 943 L580 943 L426 781 L371 781 L276 943 Z " />
<glyph glyph-name="Scedilla" unicode="&#x15e;" horiz-adv-x="627" d="M541 521 Q544 536 544 548 Q544 592 517.5 617 Q491 642 445 642 L332 642 Q274 642 237 617 Q200 592 191 548 L181 494 Q180 489 180 481 Q180 452 202 431 Q224 410 261 403 L435 372 Q499 361 536 325.5 Q573 290 573 241 Q573 234 571 218 L559 154 Q544 74 488.5 33 Q433 -8 342 -8 L313 -8 L284 -54 L287 -54 Q323 -54 343.5 -70.5 Q364 -87 364 -116 Q364 -125 363 -130 L361 -141 Q354 -180 324.5 -201.5 Q295 -223 248 -223 L187 -223 L195 -175 L248 -175 Q271 -175 286 -166 Q301 -157 304 -141 L306 -130 Q309 -115 298 -105.5 Q287 -96 267 -96 L220 -96 L228 -52 L255 -8 L227 -8 Q142 -8 92.5 36 Q43 80 43 155 Q43 177 47 197 L119 197 Q116 181 116 165 Q116 116 146 87 Q176 58 227 58 L338 58 Q399 58 438 83.5 Q477 109 485 154 L497 218 Q498 222 498 231 Q498 259 475.5 279.5 Q453 300 415 307 L240 337 Q177 347 141 383 Q105 419 105 470 Q105 478 107 494 L117 548 Q131 624 188 666 Q245 708 332 708 L445 708 Q525 708 571 668 Q617 628 617 559 Q617 547 613 521 L541 521 Z " />
<glyph glyph-name="Scircumflex" unicode="&#x15c;" horiz-adv-x="627" d="M227 -8 Q142 -8 92.5 36 Q43 80 43 155 Q43 177 47 197 L119 197 Q116 181 116 165 Q116 116 146 87 Q176 58 227 58 L338 58 Q399 58 438 83.5 Q477 109 485 154 L497 218 Q498 222 498 231 Q498 259 475.5 279.5 Q453 300 415 307 L240 337 Q177 347 141 383 Q105 419 105 470 Q105 478 107 494 L117 548 Q131 624 188 666 Q245 708 332 708 L445 708 Q525 708 571 668 Q617 628 617 559 Q617 547 613 521 L541 521 Q544 536 544 548 Q544 592 517.5 617 Q491 642 445 642 L332 642 Q274 642 237 617 Q200 592 191 548 L181 494 Q180 489 180 481 Q180 452 202 431 Q224 410 261 403 L435 372 Q499 361 536 325.5 Q573 290 573 241 Q573 234 571 218 L559 154 Q544 74 488.5 33 Q433 -8 342 -8 L227 -8 Z M400 943 L455 943 L551 781 L486 781 L422 893 L318 781 L247 781 L400 943 Z " />
<glyph glyph-name="uni0218" unicode="&#x218;" horiz-adv-x="627" d="M227 -8 Q142 -8 92.5 36 Q43 80 43 155 Q43 177 47 197 L119 197 Q116 181 116 165 Q116 116 146 87 Q176 58 227 58 L338 58 Q399 58 438 83.5 Q477 109 485 154 L497 218 Q498 222 498 231 Q498 259 475.5 279.5 Q453 300 415 307 L240 337 Q177 347 141 383 Q105 419 105 470 Q105 478 107 494 L117 548 Q131 624 188 666 Q245 708 332 708 L445 708 Q525 708 571 668 Q617 628 617 559 Q617 547 613 521 L541 521 Q544 536 544 548 Q544 592 517.5 617 Q491 642 445 642 L332 642 Q274 642 237 617 Q200 592 191 548 L181 494 Q180 489 180 481 Q180 452 202 431 Q224 410 261 403 L435 372 Q499 361 536 325.5 Q573 290 573 241 Q573 234 571 218 L559 154 Q544 74 488.5 33 Q433 -8 342 -8 L227 -8 Z M142 -228 L159 -218 Q194 -196 213 -170 Q232 -144 237 -110 L242 -79 L314 -79 L309 -110 Q300 -165 272 -204.5 Q244 -244 194 -272 L173 -284 L142 -228 Z " />
<glyph glyph-name="uni1E60" unicode="&#x1e60;" horiz-adv-x="627" d="M227 -8 Q142 -8 92.5 36 Q43 80 43 155 Q43 177 47 197 L119 197 Q116 181 116 165 Q116 116 146 87 Q176 58 227 58 L338 58 Q399 58 438 83.5 Q477 109 485 154 L497 218 Q498 222 498 231 Q498 259 475.5 279.5 Q453 300 415 307 L240 337 Q177 347 141 383 Q105 419 105 470 Q105 478 107 494 L117 548 Q131 624 188 666 Q245 708 332 708 L445 708 Q525 708 571 668 Q617 628 617 559 Q617 547 613 521 L541 521 Q544 536 544 548 Q544 592 517.5 617 Q491 642 445 642 L332 642 Q274 642 237 617 Q200 592 191 548 L181 494 Q180 489 180 481 Q180 452 202 431 Q224 410 261 403 L435 372 Q499 361 536 325.5 Q573 290 573 241 Q573 234 571 218 L559 154 Q544 74 488.5 33 Q433 -8 342 -8 L227 -8 Z M400 781 Q379 781 366.5 792.5 Q354 804 354 824 Q354 853 372 871 Q390 889 419 889 Q439 889 451.5 877 Q464 865 464 846 Q464 817 446.5 799 Q429 781 400 781 Z " />
<glyph glyph-name="uni1E62" unicode="&#x1e62;" horiz-adv-x="627" d="M227 -8 Q142 -8 92.5 36 Q43 80 43 155 Q43 177 47 197 L119 197 Q116 181 116 165 Q116 116 146 87 Q176 58 227 58 L338 58 Q399 58 438 83.5 Q477 109 485 154 L497 218 Q498 222 498 231 Q498 259 475.5 279.5 Q453 300 415 307 L240 337 Q177 347 141 383 Q105 419 105 470 Q105 478 107 494 L117 548 Q131 624 188 666 Q245 708 332 708 L445 708 Q525 708 571 668 Q617 628 617 559 Q617 547 613 521 L541 521 Q544 536 544 548 Q544 592 517.5 617 Q491 642 445 642 L332 642 Q274 642 237 617 Q200 592 191 548 L181 494 Q180 489 180 481 Q180 452 202 431 Q224 410 261 403 L435 372 Q499 361 536 325.5 Q573 290 573 241 Q573 234 571 218 L559 154 Q544 74 488.5 33 Q433 -8 342 -8 L227 -8 Z M262 -171 Q241 -171 228.5 -159.5 Q216 -148 216 -128 Q216 -99 234 -81 Q252 -63 281 -63 Q301 -63 313.5 -75 Q326 -87 326 -106 Q326 -135 308.5 -153 Q291 -171 262 -171 Z " />
<glyph glyph-name="uni1E9E" unicode="&#x1e9e;" horiz-adv-x="653" d="M365 -8 Q298 -8 258 25.5 Q218 59 218 114 Q218 127 221 142 L291 142 Q289 130 289 124 Q289 92 309.5 74 Q330 56 365 56 L415 56 Q456 56 484.5 85 Q513 114 524 166 L530 196 Q534 222 534 230 Q534 290 473 311 L351 353 L360 402 L540 636 L345 636 Q283 636 241.5 601 Q200 566 189 504 L100 0 L28 0 L117 504 Q134 596 197 648 Q260 700 356 700 L631 700 L621 641 L432 395 L522 362 Q605 331 605 239 Q605 226 601 196 L596 166 Q583 84 534.5 38 Q486 -8 415 -8 L365 -8 Z " />
<glyph glyph-name="uni018F" unicode="&#x18f;" horiz-adv-x="708" d="M473 708 Q572 708 631 653.5 Q690 599 690 509 Q690 487 685 459 L649 255 Q626 128 554 60 Q482 -8 370 -8 L256 -8 Q162 -8 108 45 Q54 98 54 188 Q54 217 60 248 L69 296 L68 296 L80 360 L594 360 L611 459 Q615 487 615 500 Q615 566 577 604 Q539 642 473 642 L367 642 Q291 642 241.5 599.5 Q192 557 178 481 L104 481 Q123 588 192.5 648 Q262 708 367 708 L473 708 Z M370 58 Q450 58 504.5 110 Q559 162 575 255 L582 296 L143 296 L134 248 Q129 218 129 198 Q129 133 162.5 95.5 Q196 58 256 58 L370 58 Z " />
<glyph glyph-name="T" unicode="T" horiz-adv-x="578" d="M320 636 L98 636 L109 700 L627 700 L616 636 L394 636 L282 0 L208 0 L320 636 Z " />
<glyph glyph-name="Tbar" unicode="&#x166;" horiz-adv-x="578" d="M394 636 L346 361 L506 361 L495 301 L335 301 L282 0 L208 0 L261 301 L101 301 L112 361 L272 361 L320 636 L98 636 L109 700 L627 700 L616 636 L394 636 Z " />
<glyph glyph-name="Tcaron" unicode="&#x164;" horiz-adv-x="578" d="M320 636 L98 636 L109 700 L627 700 L616 636 L394 636 L282 0 L208 0 L320 636 Z M259 943 L324 943 L388 831 L492 943 L563 943 L409 781 L354 781 L259 943 Z " />
<glyph glyph-name="uni0162" unicode="&#x162;" horiz-adv-x="578" d="M627 700 L616 636 L394 636 L282 0 L271 0 L237 -54 L240 -54 Q276 -54 296.5 -70.5 Q317 -87 317 -116 Q317 -125 316 -130 L314 -141 Q307 -180 277.5 -201.5 Q248 -223 201 -223 L140 -223 L148 -175 L201 -175 Q224 -175 239 -166 Q254 -157 257 -141 L259 -130 Q262 -115 251 -105.5 Q240 -96 220 -96 L173 -96 L181 -52 L213 0 L208 0 L320 636 L98 636 L109 700 L627 700 Z " />
<glyph glyph-name="uni021A" unicode="&#x21a;" horiz-adv-x="578" d="M320 636 L98 636 L109 700 L627 700 L616 636 L394 636 L282 0 L208 0 L320 636 Z M95 -228 L112 -218 Q147 -196 166 -170 Q185 -144 190 -110 L195 -79 L267 -79 L262 -110 Q253 -165 225 -204.5 Q197 -244 147 -272 L126 -284 L95 -228 Z " />
<glyph glyph-name="uni1E6C" unicode="&#x1e6c;" horiz-adv-x="578" d="M320 636 L98 636 L109 700 L627 700 L616 636 L394 636 L282 0 L208 0 L320 636 Z M215 -171 Q194 -171 181.5 -159.5 Q169 -148 169 -128 Q169 -99 187 -81 Q205 -63 234 -63 Q254 -63 266.5 -75 Q279 -87 279 -106 Q279 -135 261.5 -153 Q244 -171 215 -171 Z " />
<glyph glyph-name="uni1E6E" unicode="&#x1e6e;" horiz-adv-x="578" d="M320 636 L98 636 L109 700 L627 700 L616 636 L394 636 L282 0 L208 0 L320 636 Z M105 -72 L360 -72 L351 -124 L96 -124 L105 -72 Z " />
<glyph glyph-name="U" unicode="U" horiz-adv-x="692" d="M258 -8 Q169 -8 118 41 Q67 90 67 173 Q67 199 71 222 L155 700 L229 700 L145 220 Q141 192 141 181 Q141 124 172.5 91 Q204 58 258 58 L366 58 Q433 58 478 100.5 Q523 143 537 220 L621 700 L695 700 L611 222 Q591 112 527.5 52 Q464 -8 366 -8 L258 -8 Z " />
<glyph glyph-name="Uacute" unicode="&#xda;" horiz-adv-x="692" d="M258 -8 Q169 -8 118 41 Q67 90 67 173 Q67 199 71 222 L155 700 L229 700 L145 220 Q141 192 141 181 Q141 124 172.5 91 Q204 58 258 58 L366 58 Q433 58 478 100.5 Q523 143 537 220 L621 700 L695 700 L611 222 Q591 112 527.5 52 Q464 -8 366 -8 L258 -8 Z M517 933 L601 933 L475 781 L407 781 L517 933 Z " />
<glyph glyph-name="Ubreve" unicode="&#x16c;" horiz-adv-x="692" d="M258 -8 Q169 -8 118 41 Q67 90 67 173 Q67 199 71 222 L155 700 L229 700 L145 220 Q141 192 141 181 Q141 124 172.5 91 Q204 58 258 58 L366 58 Q433 58 478 100.5 Q523 143 537 220 L621 700 L695 700 L611 222 Q591 112 527.5 52 Q464 -8 366 -8 L258 -8 Z M438 773 Q381 773 348 803.5 Q315 834 315 886 Q315 898 316 904 L317 912 L375 912 L374 904 Q373 899 373 891 Q373 860 391.5 841.5 Q410 823 441 823 L453 823 Q492 823 518.5 845 Q545 867 549 904 L550 912 L607 912 L606 904 Q599 845 556 809 Q513 773 450 773 L438 773 Z " />
<glyph glyph-name="uni01D3" unicode="&#x1d3;" horiz-adv-x="692" d="M258 -8 Q169 -8 118 41 Q67 90 67 173 Q67 199 71 222 L155 700 L229 700 L145 220 Q141 192 141 181 Q141 124 172.5 91 Q204 58 258 58 L366 58 Q433 58 478 100.5 Q523 143 537 220 L621 700 L695 700 L611 222 Q591 112 527.5 52 Q464 -8 366 -8 L258 -8 Z M316 943 L381 943 L445 831 L549 943 L620 943 L466 781 L411 781 L316 943 Z " />
<glyph glyph-name="Ucircumflex" unicode="&#xdb;" horiz-adv-x="692" d="M258 -8 Q169 -8 118 41 Q67 90 67 173 Q67 199 71 222 L155 700 L229 700 L145 220 Q141 192 141 181 Q141 124 172.5 91 Q204 58 258 58 L366 58 Q433 58 478 100.5 Q523 143 537 220 L621 700 L695 700 L611 222 Q591 112 527.5 52 Q464 -8 366 -8 L258 -8 Z M440 943 L495 943 L591 781 L526 781 L462 893 L358 781 L287 781 L440 943 Z " />
<glyph glyph-name="Udieresis" unicode="&#xdc;" horiz-adv-x="692" d="M258 -8 Q169 -8 118 41 Q67 90 67 173 Q67 199 71 222 L155 700 L229 700 L145 220 Q141 192 141 181 Q141 124 172.5 91 Q204 58 258 58 L366 58 Q433 58 478 100.5 Q523 143 537 220 L621 700 L695 700 L611 222 Q591 112 527.5 52 Q464 -8 366 -8 L258 -8 Z M339 781 Q320 781 309 792 Q298 803 298 820 Q298 846 314.5 862.5 Q331 879 357 879 Q376 879 387 868 Q398 857 398 840 Q398 814 381.5 797.5 Q365 781 339 781 Z M538 781 Q519 781 508 792 Q497 803 497 820 Q497 846 513.5 862.5 Q530 879 556 879 Q575 879 586 868 Q597 857 597 840 Q597 814 580.5 797.5 Q564 781 538 781 Z " />
<glyph glyph-name="uni01D7" unicode="&#x1d7;" horiz-adv-x="692" d="M258 -8 Q169 -8 118 41 Q67 90 67 173 Q67 199 71 222 L155 700 L229 700 L145 220 Q141 192 141 181 Q141 124 172.5 91 Q204 58 258 58 L366 58 Q433 58 478 100.5 Q523 143 537 220 L621 700 L695 700 L611 222 Q591 112 527.5 52 Q464 -8 366 -8 L258 -8 Z M517 1041 L589 1041 L493 925 L433 925 L517 1041 Z M339 781 Q320 781 309 792 Q298 803 298 820 Q298 846 314.5 862.5 Q331 879 357 879 Q376 879 387 868 Q398 857 398 840 Q398 814 381.5 797.5 Q365 781 339 781 Z M538 781 Q519 781 508 792 Q497 803 497 820 Q497 846 513.5 862.5 Q530 879 556 879 Q575 879 586 868 Q597 857 597 840 Q597 814 580.5 797.5 Q564 781 538 781 Z " />
<glyph glyph-name="uni01D9" unicode="&#x1d9;" horiz-adv-x="692" d="M258 -8 Q169 -8 118 41 Q67 90 67 173 Q67 199 71 222 L155 700 L229 700 L145 220 Q141 192 141 181 Q141 124 172.5 91 Q204 58 258 58 L366 58 Q433 58 478 100.5 Q523 143 537 220 L621 700 L695 700 L611 222 Q591 112 527.5 52 Q464 -8 366 -8 L258 -8 Z M359 1060 L418 1060 L470 969 L554 1060 L617 1060 L489 925 L439 925 L359 1060 Z M339 781 Q320 781 309 792 Q298 803 298 820 Q298 846 314.5 862.5 Q331 879 357 879 Q376 879 387 868 Q398 857 398 840 Q398 814 381.5 797.5 Q365 781 339 781 Z M538 781 Q519 781 508 792 Q497 803 497 820 Q497 846 513.5 862.5 Q530 879 556 879 Q575 879 586 868 Q597 857 597 840 Q597 814 580.5 797.5 Q564 781 538 781 Z " />
<glyph glyph-name="uni01DB" unicode="&#x1db;" horiz-adv-x="692" d="M258 -8 Q169 -8 118 41 Q67 90 67 173 Q67 199 71 222 L155 700 L229 700 L145 220 Q141 192 141 181 Q141 124 172.5 91 Q204 58 258 58 L366 58 Q433 58 478 100.5 Q523 143 537 220 L621 700 L695 700 L611 222 Q591 112 527.5 52 Q464 -8 366 -8 L258 -8 Z M377 1041 L445 1041 L489 925 L433 925 L377 1041 Z M339 781 Q320 781 309 792 Q298 803 298 820 Q298 846 314.5 862.5 Q331 879 357 879 Q376 879 387 868 Q398 857 398 840 Q398 814 381.5 797.5 Q365 781 339 781 Z M538 781 Q519 781 508 792 Q497 803 497 820 Q497 846 513.5 862.5 Q530 879 556 879 Q575 879 586 868 Q597 857 597 840 Q597 814 580.5 797.5 Q564 781 538 781 Z " />
<glyph glyph-name="uni01D5" unicode="&#x1d5;" horiz-adv-x="692" d="M258 -8 Q169 -8 118 41 Q67 90 67 173 Q67 199 71 222 L155 700 L229 700 L145 220 Q141 192 141 181 Q141 124 172.5 91 Q204 58 258 58 L366 58 Q433 58 478 100.5 Q523 143 537 220 L621 700 L695 700 L611 222 Q591 112 527.5 52 Q464 -8 366 -8 L258 -8 Z M348 987 L603 987 L594 935 L339 935 L348 987 Z M339 781 Q320 781 309 792 Q298 803 298 820 Q298 846 314.5 862.5 Q331 879 357 879 Q376 879 387 868 Q398 857 398 840 Q398 814 381.5 797.5 Q365 781 339 781 Z M538 781 Q519 781 508 792 Q497 803 497 820 Q497 846 513.5 862.5 Q530 879 556 879 Q575 879 586 868 Q597 857 597 840 Q597 814 580.5 797.5 Q564 781 538 781 Z " />
<glyph glyph-name="uni1EE4" unicode="&#x1ee4;" horiz-adv-x="692" d="M258 -8 Q169 -8 118 41 Q67 90 67 173 Q67 199 71 222 L155 700 L229 700 L145 220 Q141 192 141 181 Q141 124 172.5 91 Q204 58 258 58 L366 58 Q433 58 478 100.5 Q523 143 537 220 L621 700 L695 700 L611 222 Q591 112 527.5 52 Q464 -8 366 -8 L258 -8 Z M279 -171 Q258 -171 245.5 -159.5 Q233 -148 233 -128 Q233 -99 251 -81 Q269 -63 298 -63 Q318 -63 330.5 -75 Q343 -87 343 -106 Q343 -135 325.5 -153 Q308 -171 279 -171 Z " />
<glyph glyph-name="Ugrave" unicode="&#xd9;" horiz-adv-x="692" d="M258 -8 Q169 -8 118 41 Q67 90 67 173 Q67 199 71 222 L155 700 L229 700 L145 220 Q141 192 141 181 Q141 124 172.5 91 Q204 58 258 58 L366 58 Q433 58 478 100.5 Q523 143 537 220 L621 700 L695 700 L611 222 Q591 112 527.5 52 Q464 -8 366 -8 L258 -8 Z M336 933 L416 933 L472 781 L408 781 L336 933 Z " />
<glyph glyph-name="uni1EE6" unicode="&#x1ee6;" horiz-adv-x="692" d="M258 -8 Q169 -8 118 41 Q67 90 67 173 Q67 199 71 222 L155 700 L229 700 L145 220 Q141 192 141 181 Q141 124 172.5 91 Q204 58 258 58 L366 58 Q433 58 478 100.5 Q523 143 537 220 L621 700 L695 700 L611 222 Q591 112 527.5 52 Q464 -8 366 -8 L258 -8 Z M405 783 Q409 804 423.5 818 Q438 832 464 847 Q483 859 493 867 Q503 875 505 886 L507 897 Q508 900 508 905 Q508 930 476 930 L456 930 Q415 930 407 888 L349 888 Q364 982 459 982 L479 982 Q569 982 569 917 Q569 911 567 897 L565 886 Q561 863 545.5 848 Q530 833 503 816 Q486 805 477 798 Q468 791 467 783 L464 767 L402 767 L405 783 Z " />
<glyph glyph-name="Uhorn" unicode="&#x1af;" horiz-adv-x="766" d="M846 700 L844 688 Q831 606 785.5 560.5 Q740 515 672 515 L662 515 L611 222 Q591 112 527.5 52 Q464 -8 366 -8 L258 -8 Q169 -8 118 41 Q67 90 67 173 Q67 199 71 222 L155 700 L229 700 L145 220 Q141 192 141 181 Q141 124 172.5 91 Q204 58 258 58 L366 58 Q433 58 478 100.5 Q523 143 537 220 L621 700 L695 700 L673 575 L675 575 Q713 575 740 605 Q767 635 776 688 L778 700 L846 700 Z " />
<glyph glyph-name="uni1EE8" unicode="&#x1ee8;" horiz-adv-x="766" d="M846 700 L844 688 Q831 606 785.5 560.5 Q740 515 672 515 L662 515 L611 222 Q591 112 527.5 52 Q464 -8 366 -8 L258 -8 Q169 -8 118 41 Q67 90 67 173 Q67 199 71 222 L155 700 L229 700 L145 220 Q141 192 141 181 Q141 124 172.5 91 Q204 58 258 58 L366 58 Q433 58 478 100.5 Q523 143 537 220 L621 700 L695 700 L673 575 L675 575 Q713 575 740 605 Q767 635 776 688 L778 700 L846 700 Z M517 933 L601 933 L475 781 L407 781 L517 933 Z " />
<glyph glyph-name="uni1EF0" unicode="&#x1ef0;" horiz-adv-x="766" d="M846 700 L844 688 Q831 606 785.5 560.5 Q740 515 672 515 L662 515 L611 222 Q591 112 527.5 52 Q464 -8 366 -8 L258 -8 Q169 -8 118 41 Q67 90 67 173 Q67 199 71 222 L155 700 L229 700 L145 220 Q141 192 141 181 Q141 124 172.5 91 Q204 58 258 58 L366 58 Q433 58 478 100.5 Q523 143 537 220 L621 700 L695 700 L673 575 L675 575 Q713 575 740 605 Q767 635 776 688 L778 700 L846 700 Z M272 -171 Q251 -171 238.5 -159.5 Q226 -148 226 -128 Q226 -99 244 -81 Q262 -63 291 -63 Q311 -63 323.5 -75 Q336 -87 336 -106 Q336 -135 318.5 -153 Q301 -171 272 -171 Z " />
<glyph glyph-name="uni1EEA" unicode="&#x1eea;" horiz-adv-x="766" d="M846 700 L844 688 Q831 606 785.5 560.5 Q740 515 672 515 L662 515 L611 222 Q591 112 527.5 52 Q464 -8 366 -8 L258 -8 Q169 -8 118 41 Q67 90 67 173 Q67 199 71 222 L155 700 L229 700 L145 220 Q141 192 141 181 Q141 124 172.5 91 Q204 58 258 58 L366 58 Q433 58 478 100.5 Q523 143 537 220 L621 700 L695 700 L673 575 L675 575 Q713 575 740 605 Q767 635 776 688 L778 700 L846 700 Z M336 933 L416 933 L472 781 L408 781 L336 933 Z " />
<glyph glyph-name="uni1EEC" unicode="&#x1eec;" horiz-adv-x="766" d="M846 700 L844 688 Q831 606 785.5 560.5 Q740 515 672 515 L662 515 L611 222 Q591 112 527.5 52 Q464 -8 366 -8 L258 -8 Q169 -8 118 41 Q67 90 67 173 Q67 199 71 222 L155 700 L229 700 L145 220 Q141 192 141 181 Q141 124 172.5 91 Q204 58 258 58 L366 58 Q433 58 478 100.5 Q523 143 537 220 L621 700 L695 700 L673 575 L675 575 Q713 575 740 605 Q767 635 776 688 L778 700 L846 700 Z M405 783 Q409 804 423.5 818 Q438 832 464 847 Q483 859 493 867 Q503 875 505 886 L507 897 Q508 900 508 905 Q508 930 476 930 L456 930 Q415 930 407 888 L349 888 Q364 982 459 982 L479 982 Q569 982 569 917 Q569 911 567 897 L565 886 Q561 863 545.5 848 Q530 833 503 816 Q486 805 477 798 Q468 791 467 783 L464 767 L402 767 L405 783 Z " />
<glyph glyph-name="uni1EEE" unicode="&#x1eee;" horiz-adv-x="766" d="M846 700 L844 688 Q831 606 785.5 560.5 Q740 515 672 515 L662 515 L611 222 Q591 112 527.5 52 Q464 -8 366 -8 L258 -8 Q169 -8 118 41 Q67 90 67 173 Q67 199 71 222 L155 700 L229 700 L145 220 Q141 192 141 181 Q141 124 172.5 91 Q204 58 258 58 L366 58 Q433 58 478 100.5 Q523 143 537 220 L621 700 L695 700 L673 575 L675 575 Q713 575 740 605 Q767 635 776 688 L778 700 L846 700 Z M504 773 Q482 773 466.5 783.5 Q451 794 434 813 Q421 827 412.5 833.5 Q404 840 393 840 L383 840 Q366 840 353.5 826.5 Q341 813 336 789 L280 789 Q291 837 319 863.5 Q347 890 387 890 L397 890 Q421 890 437 879 Q453 868 471 848 Q483 835 490.5 829 Q498 823 507 823 L517 823 Q532 823 544 836.5 Q556 850 562 874 L618 874 Q607 826 580 799.5 Q553 773 514 773 L504 773 Z " />
<glyph glyph-name="Uhungarumlaut" unicode="&#x170;" horiz-adv-x="692" d="M258 -8 Q169 -8 118 41 Q67 90 67 173 Q67 199 71 222 L155 700 L229 700 L145 220 Q141 192 141 181 Q141 124 172.5 91 Q204 58 258 58 L366 58 Q433 58 478 100.5 Q523 143 537 220 L621 700 L695 700 L611 222 Q591 112 527.5 52 Q464 -8 366 -8 L258 -8 Z M440 933 L518 933 L396 781 L334 781 L440 933 Z M569 933 L647 933 L525 781 L463 781 L569 933 Z " />
<glyph glyph-name="Umacron" unicode="&#x16a;" horiz-adv-x="692" d="M258 -8 Q169 -8 118 41 Q67 90 67 173 Q67 199 71 222 L155 700 L229 700 L145 220 Q141 192 141 181 Q141 124 172.5 91 Q204 58 258 58 L366 58 Q433 58 478 100.5 Q523 143 537 220 L621 700 L695 700 L611 222 Q591 112 527.5 52 Q464 -8 366 -8 L258 -8 Z M323 843 L578 843 L569 791 L314 791 L323 843 Z " />
<glyph glyph-name="Uogonek" unicode="&#x172;" horiz-adv-x="692" d="M695 700 L611 222 Q594 124 541 65.5 Q488 7 407 -5 Q378 -22 358 -46.5 Q338 -71 333 -99 L331 -109 Q330 -112 330 -119 Q330 -135 340.5 -145 Q351 -155 371 -155 L381 -155 Q394 -155 410 -149.5 Q426 -144 440 -135 L430 -191 Q418 -199 402 -204 Q386 -209 370 -209 L360 -209 Q316 -209 291 -189 Q266 -169 266 -134 Q266 -120 268 -113 L270 -103 Q275 -76 292.5 -50 Q310 -24 335 -8 L258 -8 Q169 -8 118 41 Q67 90 67 173 Q67 199 71 222 L155 700 L229 700 L145 220 Q141 192 141 181 Q141 124 172.5 91 Q204 58 258 58 L366 58 Q433 58 478 100.5 Q523 143 537 220 L621 700 L695 700 Z " />
<glyph glyph-name="Uring" unicode="&#x16e;" horiz-adv-x="692" d="M258 -8 Q169 -8 118 41 Q67 90 67 173 Q67 199 71 222 L155 700 L229 700 L145 220 Q141 192 141 181 Q141 124 172.5 91 Q204 58 258 58 L366 58 Q433 58 478 100.5 Q523 143 537 220 L621 700 L695 700 L611 222 Q591 112 527.5 52 Q464 -8 366 -8 L258 -8 Z M435 743 Q394 743 368.5 766.5 Q343 790 343 829 Q343 883 377 916 Q411 949 467 949 Q508 949 533.5 925.5 Q559 902 559 863 Q559 809 525 776 Q491 743 435 743 Z M441 791 Q471 791 489.5 809.5 Q508 828 508 858 Q508 877 495 889 Q482 901 461 901 Q431 901 412.5 882.5 Q394 864 394 834 Q394 815 407 803 Q420 791 441 791 Z " />
<glyph glyph-name="Utilde" unicode="&#x168;" horiz-adv-x="692" d="M258 -8 Q169 -8 118 41 Q67 90 67 173 Q67 199 71 222 L155 700 L229 700 L145 220 Q141 192 141 181 Q141 124 172.5 91 Q204 58 258 58 L366 58 Q433 58 478 100.5 Q523 143 537 220 L621 700 L695 700 L611 222 Q591 112 527.5 52 Q464 -8 366 -8 L258 -8 Z M504 773 Q482 773 466.5 783.5 Q451 794 434 813 Q421 827 412.5 833.5 Q404 840 393 840 L383 840 Q366 840 353.5 826.5 Q341 813 336 789 L280 789 Q291 837 319 863.5 Q347 890 387 890 L397 890 Q421 890 437 879 Q453 868 471 848 Q483 835 490.5 829 Q498 823 507 823 L517 823 Q532 823 544 836.5 Q556 850 562 874 L618 874 Q607 826 580 799.5 Q553 773 514 773 L504 773 Z " />
<glyph glyph-name="V" unicode="V" horiz-adv-x="634" d="M270 0 Q251 0 240 11 Q229 22 225 46 L101 700 L172 700 L282 89 L283 89 L610 700 L691 700 L308 0 L270 0 Z " />
<glyph glyph-name="W" unicode="W" horiz-adv-x="844" d="M175 0 Q147 0 134 15.5 Q121 31 120 65 L113 700 L184 700 L186 96 L187 96 L463 663 L494 663 Q529 663 534 620 L597 96 L598 96 L814 700 L889 700 L658 65 Q646 33 628.5 16.5 Q611 0 581 0 L551 0 L480 564 L479 564 L205 0 L175 0 Z " />
<glyph glyph-name="Wacute" unicode="&#x1e82;" horiz-adv-x="844" d="M175 0 Q147 0 134 15.5 Q121 31 120 65 L113 700 L184 700 L186 96 L187 96 L463 663 L494 663 Q529 663 534 620 L597 96 L598 96 L814 700 L889 700 L658 65 Q646 33 628.5 16.5 Q611 0 581 0 L551 0 L480 564 L479 564 L205 0 L175 0 Z M593 933 L677 933 L551 781 L483 781 L593 933 Z " />
<glyph glyph-name="Wcircumflex" unicode="&#x174;" horiz-adv-x="844" d="M175 0 Q147 0 134 15.5 Q121 31 120 65 L113 700 L184 700 L186 96 L187 96 L463 663 L494 663 Q529 663 534 620 L597 96 L598 96 L814 700 L889 700 L658 65 Q646 33 628.5 16.5 Q611 0 581 0 L551 0 L480 564 L479 564 L205 0 L175 0 Z M516 943 L571 943 L667 781 L602 781 L538 893 L434 781 L363 781 L516 943 Z " />
<glyph glyph-name="Wdieresis" unicode="&#x1e84;" horiz-adv-x="844" d="M175 0 Q147 0 134 15.5 Q121 31 120 65 L113 700 L184 700 L186 96 L187 96 L463 663 L494 663 Q529 663 534 620 L597 96 L598 96 L814 700 L889 700 L658 65 Q646 33 628.5 16.5 Q611 0 581 0 L551 0 L480 564 L479 564 L205 0 L175 0 Z M415 781 Q396 781 385 792 Q374 803 374 820 Q374 846 390.5 862.5 Q407 879 433 879 Q452 879 463 868 Q474 857 474 840 Q474 814 457.5 797.5 Q441 781 415 781 Z M614 781 Q595 781 584 792 Q573 803 573 820 Q573 846 589.5 862.5 Q606 879 632 879 Q651 879 662 868 Q673 857 673 840 Q673 814 656.5 797.5 Q640 781 614 781 Z " />
<glyph glyph-name="Wgrave" unicode="&#x1e80;" horiz-adv-x="844" d="M175 0 Q147 0 134 15.5 Q121 31 120 65 L113 700 L184 700 L186 96 L187 96 L463 663 L494 663 Q529 663 534 620 L597 96 L598 96 L814 700 L889 700 L658 65 Q646 33 628.5 16.5 Q611 0 581 0 L551 0 L480 564 L479 564 L205 0 L175 0 Z M412 933 L492 933 L548 781 L484 781 L412 933 Z " />
<glyph glyph-name="X" unicode="X" horiz-adv-x="611" d="M284 360 L105 700 L183 700 L332 417 L577 700 L664 700 L365 354 L551 0 L473 0 L317 297 L60 0 L-28 0 L284 360 Z " />
<glyph glyph-name="Y" unicode="Y" horiz-adv-x="622" d="M277 269 L95 700 L170 700 L321 336 L600 700 L685 700 L351 269 L304 0 L230 0 L277 269 Z " />
<glyph glyph-name="Yacute" unicode="&#xdd;" horiz-adv-x="622" d="M277 269 L95 700 L170 700 L321 336 L600 700 L685 700 L351 269 L304 0 L230 0 L277 269 Z M482 933 L566 933 L440 781 L372 781 L482 933 Z " />
<glyph glyph-name="Ycircumflex" unicode="&#x176;" horiz-adv-x="622" d="M277 269 L95 700 L170 700 L321 336 L600 700 L685 700 L351 269 L304 0 L230 0 L277 269 Z M405 943 L460 943 L556 781 L491 781 L427 893 L323 781 L252 781 L405 943 Z " />
<glyph glyph-name="Ydieresis" unicode="&#x178;" horiz-adv-x="622" d="M277 269 L95 700 L170 700 L321 336 L600 700 L685 700 L351 269 L304 0 L230 0 L277 269 Z M304 781 Q285 781 274 792 Q263 803 263 820 Q263 846 279.5 862.5 Q296 879 322 879 Q341 879 352 868 Q363 857 363 840 Q363 814 346.5 797.5 Q330 781 304 781 Z M503 781 Q484 781 473 792 Q462 803 462 820 Q462 846 478.5 862.5 Q495 879 521 879 Q540 879 551 868 Q562 857 562 840 Q562 814 545.5 797.5 Q529 781 503 781 Z " />
<glyph glyph-name="uni1E8E" unicode="&#x1e8e;" horiz-adv-x="622" d="M277 269 L95 700 L170 700 L321 336 L600 700 L685 700 L351 269 L304 0 L230 0 L277 269 Z M405 781 Q384 781 371.5 792.5 Q359 804 359 824 Q359 853 377 871 Q395 889 424 889 Q444 889 456.5 877 Q469 865 469 846 Q469 817 451.5 799 Q434 781 405 781 Z " />
<glyph glyph-name="uni1EF4" unicode="&#x1ef4;" horiz-adv-x="622" d="M277 269 L95 700 L170 700 L321 336 L600 700 L685 700 L351 269 L304 0 L230 0 L277 269 Z M237 -171 Q216 -171 203.5 -159.5 Q191 -148 191 -128 Q191 -99 209 -81 Q227 -63 256 -63 Q276 -63 288.5 -75 Q301 -87 301 -106 Q301 -135 283.5 -153 Q266 -171 237 -171 Z " />
<glyph glyph-name="Ygrave" unicode="&#x1ef2;" horiz-adv-x="622" d="M277 269 L95 700 L170 700 L321 336 L600 700 L685 700 L351 269 L304 0 L230 0 L277 269 Z M301 933 L381 933 L437 781 L373 781 L301 933 Z " />
<glyph glyph-name="uni1EF6" unicode="&#x1ef6;" horiz-adv-x="622" d="M277 269 L95 700 L170 700 L321 336 L600 700 L685 700 L351 269 L304 0 L230 0 L277 269 Z M370 783 Q374 804 388.5 818 Q403 832 429 847 Q448 859 458 867 Q468 875 470 886 L472 897 Q473 900 473 905 Q473 930 441 930 L421 930 Q380 930 372 888 L314 888 Q329 982 424 982 L444 982 Q534 982 534 917 Q534 911 532 897 L530 886 Q526 863 510.5 848 Q495 833 468 816 Q451 805 442 798 Q433 791 432 783 L429 767 L367 767 L370 783 Z " />
<glyph glyph-name="uni1EF8" unicode="&#x1ef8;" horiz-adv-x="622" d="M277 269 L95 700 L170 700 L321 336 L600 700 L685 700 L351 269 L304 0 L230 0 L277 269 Z M469 773 Q447 773 431.5 783.5 Q416 794 399 813 Q386 827 377.5 833.5 Q369 840 358 840 L348 840 Q331 840 318.5 826.5 Q306 813 301 789 L245 789 Q256 837 284 863.5 Q312 890 352 890 L362 890 Q386 890 402 879 Q418 868 436 848 Q448 835 455.5 829 Q463 823 472 823 L482 823 Q497 823 509 836.5 Q521 850 527 874 L583 874 Q572 826 545 799.5 Q518 773 479 773 L469 773 Z " />
<glyph glyph-name="Z" unicode="Z" horiz-adv-x="578" d="M2 33 L503 637 L126 637 L137 700 L617 700 L612 667 L110 63 L495 63 L484 0 L-4 0 L2 33 Z " />
<glyph glyph-name="Zacute" unicode="&#x179;" horiz-adv-x="578" d="M2 33 L503 637 L126 637 L137 700 L617 700 L612 667 L110 63 L495 63 L484 0 L-4 0 L2 33 Z M460 933 L544 933 L418 781 L350 781 L460 933 Z " />
<glyph glyph-name="Zcaron" unicode="&#x17d;" horiz-adv-x="578" d="M2 33 L503 637 L126 637 L137 700 L617 700 L612 667 L110 63 L495 63 L484 0 L-4 0 L2 33 Z M259 943 L324 943 L388 831 L492 943 L563 943 L409 781 L354 781 L259 943 Z " />
<glyph glyph-name="Zdotaccent" unicode="&#x17b;" horiz-adv-x="578" d="M2 33 L503 637 L126 637 L137 700 L617 700 L612 667 L110 63 L495 63 L484 0 L-4 0 L2 33 Z M383 781 Q362 781 349.5 792.5 Q337 804 337 824 Q337 853 355 871 Q373 889 402 889 Q422 889 434.5 877 Q447 865 447 846 Q447 817 429.5 799 Q412 781 383 781 Z " />
<glyph glyph-name="uni1E92" unicode="&#x1e92;" horiz-adv-x="578" d="M2 33 L503 637 L126 637 L137 700 L617 700 L612 667 L110 63 L495 63 L484 0 L-4 0 L2 33 Z M215 -171 Q194 -171 181.5 -159.5 Q169 -148 169 -128 Q169 -99 187 -81 Q205 -63 234 -63 Q254 -63 266.5 -75 Q279 -87 279 -106 Q279 -135 261.5 -153 Q244 -171 215 -171 Z " />
<glyph glyph-name="a" unicode="a" horiz-adv-x="556" d="M185 -8 Q119 -8 78 23.5 Q37 55 37 108 Q37 116 39 132 L45 165 Q57 231 103.5 267 Q150 303 222 303 L286 303 Q319 303 358.5 292.5 Q398 282 419 266 L433 349 Q435 363 435 369 Q435 404 413.5 424 Q392 444 355 444 L275 444 Q232 444 202.5 424 Q173 404 167 371 L95 371 Q106 432 155.5 469.5 Q205 507 275 507 L355 507 Q425 507 465.5 473 Q506 439 506 380 Q506 366 503 349 L442 0 L374 0 L386 70 Q356 33 320 12.5 Q284 -8 245 -8 L185 -8 Z M247 55 Q294 55 336.5 84 Q379 113 400 161 L407 198 Q390 217 356.5 228.5 Q323 240 286 240 L222 240 Q179 240 151.5 220 Q124 200 117 164 L111 132 Q109 120 109 116 Q109 88 129.5 71.5 Q150 55 185 55 L247 55 Z " />
<glyph glyph-name="aacute" unicode="&#xe1;" horiz-adv-x="556" d="M185 -8 Q119 -8 78 23.5 Q37 55 37 108 Q37 116 39 132 L45 165 Q57 231 103.5 267 Q150 303 222 303 L286 303 Q319 303 358.5 292.5 Q398 282 419 266 L433 349 Q435 363 435 369 Q435 404 413.5 424 Q392 444 355 444 L275 444 Q232 444 202.5 424 Q173 404 167 371 L95 371 Q106 432 155.5 469.5 Q205 507 275 507 L355 507 Q425 507 465.5 473 Q506 439 506 380 Q506 366 503 349 L442 0 L374 0 L386 70 Q356 33 320 12.5 Q284 -8 245 -8 L185 -8 Z M247 55 Q294 55 336.5 84 Q379 113 400 161 L407 198 Q390 217 356.5 228.5 Q323 240 286 240 L222 240 Q179 240 151.5 220 Q124 200 117 164 L111 132 Q109 120 109 116 Q109 88 129.5 71.5 Q150 55 185 55 L247 55 Z M419 732 L503 732 L377 580 L309 580 L419 732 Z " />
<glyph glyph-name="abreve" unicode="&#x103;" horiz-adv-x="556" d="M185 -8 Q119 -8 78 23.5 Q37 55 37 108 Q37 116 39 132 L45 165 Q57 231 103.5 267 Q150 303 222 303 L286 303 Q319 303 358.5 292.5 Q398 282 419 266 L433 349 Q435 363 435 369 Q435 404 413.5 424 Q392 444 355 444 L275 444 Q232 444 202.5 424 Q173 404 167 371 L95 371 Q106 432 155.5 469.5 Q205 507 275 507 L355 507 Q425 507 465.5 473 Q506 439 506 380 Q506 366 503 349 L442 0 L374 0 L386 70 Q356 33 320 12.5 Q284 -8 245 -8 L185 -8 Z M247 55 Q294 55 336.5 84 Q379 113 400 161 L407 198 Q390 217 356.5 228.5 Q323 240 286 240 L222 240 Q179 240 151.5 220 Q124 200 117 164 L111 132 Q109 120 109 116 Q109 88 129.5 71.5 Q150 55 185 55 L247 55 Z M340 572 Q283 572 250 602.5 Q217 633 217 685 Q217 697 218 703 L219 711 L277 711 L276 703 Q275 698 275 690 Q275 659 293.5 640.5 Q312 622 343 622 L355 622 Q394 622 420.5 644 Q447 666 451 703 L452 711 L509 711 L508 703 Q501 644 458 608 Q415 572 352 572 L340 572 Z " />
<glyph glyph-name="uni1EAF" unicode="&#x1eaf;" horiz-adv-x="556" d="M185 -8 Q119 -8 78 23.5 Q37 55 37 108 Q37 116 39 132 L45 165 Q57 231 103.5 267 Q150 303 222 303 L286 303 Q319 303 358.5 292.5 Q398 282 419 266 L433 349 Q435 363 435 369 Q435 404 413.5 424 Q392 444 355 444 L275 444 Q232 444 202.5 424 Q173 404 167 371 L95 371 Q106 432 155.5 469.5 Q205 507 275 507 L355 507 Q425 507 465.5 473 Q506 439 506 380 Q506 366 503 349 L442 0 L374 0 L386 70 Q356 33 320 12.5 Q284 -8 245 -8 L185 -8 Z M247 55 Q294 55 336.5 84 Q379 113 400 161 L407 198 Q390 217 356.5 228.5 Q323 240 286 240 L222 240 Q179 240 151.5 220 Q124 200 117 164 L111 132 Q109 120 109 116 Q109 88 129.5 71.5 Q150 55 185 55 L247 55 Z M425 877 L497 877 L401 761 L341 761 L425 877 Z M340 572 Q283 572 250 602.5 Q217 633 217 685 Q217 697 218 703 L219 711 L277 711 L276 703 Q275 698 275 690 Q275 659 293.5 640.5 Q312 622 343 622 L355 622 Q394 622 420.5 644 Q447 666 451 703 L452 711 L509 711 L508 703 Q501 644 458 608 Q415 572 352 572 L340 572 Z " />
<glyph glyph-name="uni1EB7" unicode="&#x1eb7;" horiz-adv-x="556" d="M185 -8 Q119 -8 78 23.5 Q37 55 37 108 Q37 116 39 132 L45 165 Q57 231 103.5 267 Q150 303 222 303 L286 303 Q319 303 358.5 292.5 Q398 282 419 266 L433 349 Q435 363 435 369 Q435 404 413.5 424 Q392 444 355 444 L275 444 Q232 444 202.5 424 Q173 404 167 371 L95 371 Q106 432 155.5 469.5 Q205 507 275 507 L355 507 Q425 507 465.5 473 Q506 439 506 380 Q506 366 503 349 L442 0 L374 0 L386 70 Q356 33 320 12.5 Q284 -8 245 -8 L185 -8 Z M247 55 Q294 55 336.5 84 Q379 113 400 161 L407 198 Q390 217 356.5 228.5 Q323 240 286 240 L222 240 Q179 240 151.5 220 Q124 200 117 164 L111 132 Q109 120 109 116 Q109 88 129.5 71.5 Q150 55 185 55 L247 55 Z M211 -179 Q190 -179 177.5 -167.5 Q165 -156 165 -136 Q165 -107 183 -89 Q201 -71 230 -71 Q250 -71 262.5 -83 Q275 -95 275 -114 Q275 -143 257.5 -161 Q240 -179 211 -179 Z M340 572 Q283 572 250 602.5 Q217 633 217 685 Q217 697 218 703 L219 711 L277 711 L276 703 Q275 698 275 690 Q275 659 293.5 640.5 Q312 622 343 622 L355 622 Q394 622 420.5 644 Q447 666 451 703 L452 711 L509 711 L508 703 Q501 644 458 608 Q415 572 352 572 L340 572 Z " />
<glyph glyph-name="uni1EB1" unicode="&#x1eb1;" horiz-adv-x="556" d="M185 -8 Q119 -8 78 23.5 Q37 55 37 108 Q37 116 39 132 L45 165 Q57 231 103.5 267 Q150 303 222 303 L286 303 Q319 303 358.5 292.5 Q398 282 419 266 L433 349 Q435 363 435 369 Q435 404 413.5 424 Q392 444 355 444 L275 444 Q232 444 202.5 424 Q173 404 167 371 L95 371 Q106 432 155.5 469.5 Q205 507 275 507 L355 507 Q425 507 465.5 473 Q506 439 506 380 Q506 366 503 349 L442 0 L374 0 L386 70 Q356 33 320 12.5 Q284 -8 245 -8 L185 -8 Z M247 55 Q294 55 336.5 84 Q379 113 400 161 L407 198 Q390 217 356.5 228.5 Q323 240 286 240 L222 240 Q179 240 151.5 220 Q124 200 117 164 L111 132 Q109 120 109 116 Q109 88 129.5 71.5 Q150 55 185 55 L247 55 Z M292 877 L360 877 L404 761 L348 761 L292 877 Z M340 572 Q283 572 250 602.5 Q217 633 217 685 Q217 697 218 703 L219 711 L277 711 L276 703 Q275 698 275 690 Q275 659 293.5 640.5 Q312 622 343 622 L355 622 Q394 622 420.5 644 Q447 666 451 703 L452 711 L509 711 L508 703 Q501 644 458 608 Q415 572 352 572 L340 572 Z " />
<glyph glyph-name="uni1EB3" unicode="&#x1eb3;" horiz-adv-x="556" d="M185 -8 Q119 -8 78 23.5 Q37 55 37 108 Q37 116 39 132 L45 165 Q57 231 103.5 267 Q150 303 222 303 L286 303 Q319 303 358.5 292.5 Q398 282 419 266 L433 349 Q435 363 435 369 Q435 404 413.5 424 Q392 444 355 444 L275 444 Q232 444 202.5 424 Q173 404 167 371 L95 371 Q106 432 155.5 469.5 Q205 507 275 507 L355 507 Q425 507 465.5 473 Q506 439 506 380 Q506 366 503 349 L442 0 L374 0 L386 70 Q356 33 320 12.5 Q284 -8 245 -8 L185 -8 Z M247 55 Q294 55 336.5 84 Q379 113 400 161 L407 198 Q390 217 356.5 228.5 Q323 240 286 240 L222 240 Q179 240 151.5 220 Q124 200 117 164 L111 132 Q109 120 109 116 Q109 88 129.5 71.5 Q150 55 185 55 L247 55 Z M344 749 Q348 765 360.5 776.5 Q373 788 393 800 Q409 810 417.5 817 Q426 824 427 833 L428 842 Q431 869 403 869 L387 869 Q352 869 346 835 L298 835 Q310 913 389 913 L405 913 Q479 913 479 855 Q479 847 478 842 L477 833 Q475 814 462 801 Q449 788 426 775 Q415 769 406 762.5 Q397 756 396 749 L394 741 L342 741 L344 749 Z M340 572 Q283 572 250 602.5 Q217 633 217 685 Q217 697 218 703 L219 711 L277 711 L276 703 Q275 698 275 690 Q275 659 293.5 640.5 Q312 622 343 622 L355 622 Q394 622 420.5 644 Q447 666 451 703 L452 711 L509 711 L508 703 Q501 644 458 608 Q415 572 352 572 L340 572 Z " />
<glyph glyph-name="uni1EB5" unicode="&#x1eb5;" horiz-adv-x="556" d="M185 -8 Q119 -8 78 23.5 Q37 55 37 108 Q37 116 39 132 L45 165 Q57 231 103.5 267 Q150 303 222 303 L286 303 Q319 303 358.5 292.5 Q398 282 419 266 L433 349 Q435 363 435 369 Q435 404 413.5 424 Q392 444 355 444 L275 444 Q232 444 202.5 424 Q173 404 167 371 L95 371 Q106 432 155.5 469.5 Q205 507 275 507 L355 507 Q425 507 465.5 473 Q506 439 506 380 Q506 366 503 349 L442 0 L374 0 L386 70 Q356 33 320 12.5 Q284 -8 245 -8 L185 -8 Z M247 55 Q294 55 336.5 84 Q379 113 400 161 L407 198 Q390 217 356.5 228.5 Q323 240 286 240 L222 240 Q179 240 151.5 220 Q124 200 117 164 L111 132 Q109 120 109 116 Q109 88 129.5 71.5 Q150 55 185 55 L247 55 Z M433 753 Q413 753 400.5 761.5 Q388 770 370 788 Q360 800 352 806 Q344 812 334 812 L325 812 Q311 812 300.5 800 Q290 788 285 767 L236 767 Q244 809 268 832.5 Q292 856 327 856 L336 856 Q357 856 372 846 Q387 836 402 819 Q413 807 419.5 802 Q426 797 434 797 L443 797 Q457 797 467 809 Q477 821 481 842 L530 842 Q522 800 499 776.5 Q476 753 442 753 L433 753 Z M340 572 Q283 572 250 602.5 Q217 633 217 685 Q217 697 218 703 L219 711 L277 711 L276 703 Q275 698 275 690 Q275 659 293.5 640.5 Q312 622 343 622 L355 622 Q394 622 420.5 644 Q447 666 451 703 L452 711 L509 711 L508 703 Q501 644 458 608 Q415 572 352 572 L340 572 Z " />
<glyph glyph-name="uni01CE" unicode="&#x1ce;" horiz-adv-x="556" d="M185 -8 Q119 -8 78 23.5 Q37 55 37 108 Q37 116 39 132 L45 165 Q57 231 103.5 267 Q150 303 222 303 L286 303 Q319 303 358.5 292.5 Q398 282 419 266 L433 349 Q435 363 435 369 Q435 404 413.5 424 Q392 444 355 444 L275 444 Q232 444 202.5 424 Q173 404 167 371 L95 371 Q106 432 155.5 469.5 Q205 507 275 507 L355 507 Q425 507 465.5 473 Q506 439 506 380 Q506 366 503 349 L442 0 L374 0 L386 70 Q356 33 320 12.5 Q284 -8 245 -8 L185 -8 Z M247 55 Q294 55 336.5 84 Q379 113 400 161 L407 198 Q390 217 356.5 228.5 Q323 240 286 240 L222 240 Q179 240 151.5 220 Q124 200 117 164 L111 132 Q109 120 109 116 Q109 88 129.5 71.5 Q150 55 185 55 L247 55 Z M218 742 L283 742 L347 630 L451 742 L522 742 L368 580 L313 580 L218 742 Z " />
<glyph glyph-name="acircumflex" unicode="&#xe2;" horiz-adv-x="556" d="M185 -8 Q119 -8 78 23.5 Q37 55 37 108 Q37 116 39 132 L45 165 Q57 231 103.5 267 Q150 303 222 303 L286 303 Q319 303 358.5 292.5 Q398 282 419 266 L433 349 Q435 363 435 369 Q435 404 413.5 424 Q392 444 355 444 L275 444 Q232 444 202.5 424 Q173 404 167 371 L95 371 Q106 432 155.5 469.5 Q205 507 275 507 L355 507 Q425 507 465.5 473 Q506 439 506 380 Q506 366 503 349 L442 0 L374 0 L386 70 Q356 33 320 12.5 Q284 -8 245 -8 L185 -8 Z M247 55 Q294 55 336.5 84 Q379 113 400 161 L407 198 Q390 217 356.5 228.5 Q323 240 286 240 L222 240 Q179 240 151.5 220 Q124 200 117 164 L111 132 Q109 120 109 116 Q109 88 129.5 71.5 Q150 55 185 55 L247 55 Z M342 742 L397 742 L493 580 L428 580 L364 692 L260 580 L189 580 L342 742 Z " />
<glyph glyph-name="uni1EA5" unicode="&#x1ea5;" horiz-adv-x="556" d="M185 -8 Q119 -8 78 23.5 Q37 55 37 108 Q37 116 39 132 L45 165 Q57 231 103.5 267 Q150 303 222 303 L286 303 Q319 303 358.5 292.5 Q398 282 419 266 L433 349 Q435 363 435 369 Q435 404 413.5 424 Q392 444 355 444 L275 444 Q232 444 202.5 424 Q173 404 167 371 L95 371 Q106 432 155.5 469.5 Q205 507 275 507 L355 507 Q425 507 465.5 473 Q506 439 506 380 Q506 366 503 349 L442 0 L374 0 L386 70 Q356 33 320 12.5 Q284 -8 245 -8 L185 -8 Z M247 55 Q294 55 336.5 84 Q379 113 400 161 L407 198 Q390 217 356.5 228.5 Q323 240 286 240 L222 240 Q179 240 151.5 220 Q124 200 117 164 L111 132 Q109 120 109 116 Q109 88 129.5 71.5 Q150 55 185 55 L247 55 Z M560 848 L630 848 L534 732 L476 732 L560 848 Z M342 742 L397 742 L493 580 L428 580 L364 692 L260 580 L189 580 L342 742 Z " />
<glyph glyph-name="uni1EAD" unicode="&#x1ead;" horiz-adv-x="556" d="M185 -8 Q119 -8 78 23.5 Q37 55 37 108 Q37 116 39 132 L45 165 Q57 231 103.5 267 Q150 303 222 303 L286 303 Q319 303 358.5 292.5 Q398 282 419 266 L433 349 Q435 363 435 369 Q435 404 413.5 424 Q392 444 355 444 L275 444 Q232 444 202.5 424 Q173 404 167 371 L95 371 Q106 432 155.5 469.5 Q205 507 275 507 L355 507 Q425 507 465.5 473 Q506 439 506 380 Q506 366 503 349 L442 0 L374 0 L386 70 Q356 33 320 12.5 Q284 -8 245 -8 L185 -8 Z M247 55 Q294 55 336.5 84 Q379 113 400 161 L407 198 Q390 217 356.5 228.5 Q323 240 286 240 L222 240 Q179 240 151.5 220 Q124 200 117 164 L111 132 Q109 120 109 116 Q109 88 129.5 71.5 Q150 55 185 55 L247 55 Z M211 -179 Q190 -179 177.5 -167.5 Q165 -156 165 -136 Q165 -107 183 -89 Q201 -71 230 -71 Q250 -71 262.5 -83 Q275 -95 275 -114 Q275 -143 257.5 -161 Q240 -179 211 -179 Z M342 742 L397 742 L493 580 L428 580 L364 692 L260 580 L189 580 L342 742 Z " />
<glyph glyph-name="uni1EA7" unicode="&#x1ea7;" horiz-adv-x="556" d="M185 -8 Q119 -8 78 23.5 Q37 55 37 108 Q37 116 39 132 L45 165 Q57 231 103.5 267 Q150 303 222 303 L286 303 Q319 303 358.5 292.5 Q398 282 419 266 L433 349 Q435 363 435 369 Q435 404 413.5 424 Q392 444 355 444 L275 444 Q232 444 202.5 424 Q173 404 167 371 L95 371 Q106 432 155.5 469.5 Q205 507 275 507 L355 507 Q425 507 465.5 473 Q506 439 506 380 Q506 366 503 349 L442 0 L374 0 L386 70 Q356 33 320 12.5 Q284 -8 245 -8 L185 -8 Z M247 55 Q294 55 336.5 84 Q379 113 400 161 L407 198 Q390 217 356.5 228.5 Q323 240 286 240 L222 240 Q179 240 151.5 220 Q124 200 117 164 L111 132 Q109 120 109 116 Q109 88 129.5 71.5 Q150 55 185 55 L247 55 Z M448 848 L516 848 L560 732 L504 732 L448 848 Z M342 742 L397 742 L493 580 L428 580 L364 692 L260 580 L189 580 L342 742 Z " />
<glyph glyph-name="uni1EA9" unicode="&#x1ea9;" horiz-adv-x="556" d="M185 -8 Q119 -8 78 23.5 Q37 55 37 108 Q37 116 39 132 L45 165 Q57 231 103.5 267 Q150 303 222 303 L286 303 Q319 303 358.5 292.5 Q398 282 419 266 L433 349 Q435 363 435 369 Q435 404 413.5 424 Q392 444 355 444 L275 444 Q232 444 202.5 424 Q173 404 167 371 L95 371 Q106 432 155.5 469.5 Q205 507 275 507 L355 507 Q425 507 465.5 473 Q506 439 506 380 Q506 366 503 349 L442 0 L374 0 L386 70 Q356 33 320 12.5 Q284 -8 245 -8 L185 -8 Z M247 55 Q294 55 336.5 84 Q379 113 400 161 L407 198 Q390 217 356.5 228.5 Q323 240 286 240 L222 240 Q179 240 151.5 220 Q124 200 117 164 L111 132 Q109 120 109 116 Q109 88 129.5 71.5 Q150 55 185 55 L247 55 Z M479 730 Q483 746 495.5 757.5 Q508 769 528 781 Q544 791 552.5 798 Q561 805 562 814 L563 823 Q566 850 538 850 L522 850 Q487 850 481 816 L433 816 Q445 894 524 894 L540 894 Q614 894 614 835 L613 823 L612 814 Q610 795 597 782 Q584 769 561 756 Q550 750 541 743.5 Q532 737 531 730 L529 722 L477 722 L479 730 Z M342 742 L397 742 L493 580 L428 580 L364 692 L260 580 L189 580 L342 742 Z " />
<glyph glyph-name="uni1EAB" unicode="&#x1eab;" horiz-adv-x="556" d="M185 -8 Q119 -8 78 23.5 Q37 55 37 108 Q37 116 39 132 L45 165 Q57 231 103.5 267 Q150 303 222 303 L286 303 Q319 303 358.5 292.5 Q398 282 419 266 L433 349 Q435 363 435 369 Q435 404 413.5 424 Q392 444 355 444 L275 444 Q232 444 202.5 424 Q173 404 167 371 L95 371 Q106 432 155.5 469.5 Q205 507 275 507 L355 507 Q425 507 465.5 473 Q506 439 506 380 Q506 366 503 349 L442 0 L374 0 L386 70 Q356 33 320 12.5 Q284 -8 245 -8 L185 -8 Z M247 55 Q294 55 336.5 84 Q379 113 400 161 L407 198 Q390 217 356.5 228.5 Q323 240 286 240 L222 240 Q179 240 151.5 220 Q124 200 117 164 L111 132 Q109 120 109 116 Q109 88 129.5 71.5 Q150 55 185 55 L247 55 Z M437 777 Q417 777 404.5 785.5 Q392 794 374 812 Q364 824 356 830 Q348 836 338 836 L329 836 Q315 836 304.5 824 Q294 812 289 791 L240 791 Q248 833 272 856.5 Q296 880 331 880 L340 880 Q361 880 376 870 Q391 860 406 843 Q417 831 423.5 826 Q430 821 438 821 L447 821 Q461 821 471 833 Q481 845 485 866 L534 866 Q526 824 503 800.5 Q480 777 446 777 L437 777 Z M342 742 L397 742 L493 580 L428 580 L364 692 L260 580 L189 580 L342 742 Z " />
<glyph glyph-name="adieresis" unicode="&#xe4;" horiz-adv-x="556" d="M185 -8 Q119 -8 78 23.5 Q37 55 37 108 Q37 116 39 132 L45 165 Q57 231 103.5 267 Q150 303 222 303 L286 303 Q319 303 358.5 292.5 Q398 282 419 266 L433 349 Q435 363 435 369 Q435 404 413.5 424 Q392 444 355 444 L275 444 Q232 444 202.5 424 Q173 404 167 371 L95 371 Q106 432 155.5 469.5 Q205 507 275 507 L355 507 Q425 507 465.5 473 Q506 439 506 380 Q506 366 503 349 L442 0 L374 0 L386 70 Q356 33 320 12.5 Q284 -8 245 -8 L185 -8 Z M247 55 Q294 55 336.5 84 Q379 113 400 161 L407 198 Q390 217 356.5 228.5 Q323 240 286 240 L222 240 Q179 240 151.5 220 Q124 200 117 164 L111 132 Q109 120 109 116 Q109 88 129.5 71.5 Q150 55 185 55 L247 55 Z M241 580 Q222 580 211 591 Q200 602 200 619 Q200 645 216.5 661.5 Q233 678 259 678 Q278 678 289 667 Q300 656 300 639 Q300 613 283.5 596.5 Q267 580 241 580 Z M440 580 Q421 580 410 591 Q399 602 399 619 Q399 645 415.5 661.5 Q432 678 458 678 Q477 678 488 667 Q499 656 499 639 Q499 613 482.5 596.5 Q466 580 440 580 Z " />
<glyph glyph-name="uni1EA1" unicode="&#x1ea1;" horiz-adv-x="556" d="M185 -8 Q119 -8 78 23.5 Q37 55 37 108 Q37 116 39 132 L45 165 Q57 231 103.5 267 Q150 303 222 303 L286 303 Q319 303 358.5 292.5 Q398 282 419 266 L433 349 Q435 363 435 369 Q435 404 413.5 424 Q392 444 355 444 L275 444 Q232 444 202.5 424 Q173 404 167 371 L95 371 Q106 432 155.5 469.5 Q205 507 275 507 L355 507 Q425 507 465.5 473 Q506 439 506 380 Q506 366 503 349 L442 0 L374 0 L386 70 Q356 33 320 12.5 Q284 -8 245 -8 L185 -8 Z M247 55 Q294 55 336.5 84 Q379 113 400 161 L407 198 Q390 217 356.5 228.5 Q323 240 286 240 L222 240 Q179 240 151.5 220 Q124 200 117 164 L111 132 Q109 120 109 116 Q109 88 129.5 71.5 Q150 55 185 55 L247 55 Z M211 -179 Q190 -179 177.5 -167.5 Q165 -156 165 -136 Q165 -107 183 -89 Q201 -71 230 -71 Q250 -71 262.5 -83 Q275 -95 275 -114 Q275 -143 257.5 -161 Q240 -179 211 -179 Z " />
<glyph glyph-name="agrave" unicode="&#xe0;" horiz-adv-x="556" d="M185 -8 Q119 -8 78 23.5 Q37 55 37 108 Q37 116 39 132 L45 165 Q57 231 103.5 267 Q150 303 222 303 L286 303 Q319 303 358.5 292.5 Q398 282 419 266 L433 349 Q435 363 435 369 Q435 404 413.5 424 Q392 444 355 444 L275 444 Q232 444 202.5 424 Q173 404 167 371 L95 371 Q106 432 155.5 469.5 Q205 507 275 507 L355 507 Q425 507 465.5 473 Q506 439 506 380 Q506 366 503 349 L442 0 L374 0 L386 70 Q356 33 320 12.5 Q284 -8 245 -8 L185 -8 Z M247 55 Q294 55 336.5 84 Q379 113 400 161 L407 198 Q390 217 356.5 228.5 Q323 240 286 240 L222 240 Q179 240 151.5 220 Q124 200 117 164 L111 132 Q109 120 109 116 Q109 88 129.5 71.5 Q150 55 185 55 L247 55 Z M238 732 L318 732 L374 580 L310 580 L238 732 Z " />
<glyph glyph-name="uni1EA3" unicode="&#x1ea3;" horiz-adv-x="556" d="M185 -8 Q119 -8 78 23.5 Q37 55 37 108 Q37 116 39 132 L45 165 Q57 231 103.5 267 Q150 303 222 303 L286 303 Q319 303 358.5 292.5 Q398 282 419 266 L433 349 Q435 363 435 369 Q435 404 413.5 424 Q392 444 355 444 L275 444 Q232 444 202.5 424 Q173 404 167 371 L95 371 Q106 432 155.5 469.5 Q205 507 275 507 L355 507 Q425 507 465.5 473 Q506 439 506 380 Q506 366 503 349 L442 0 L374 0 L386 70 Q356 33 320 12.5 Q284 -8 245 -8 L185 -8 Z M247 55 Q294 55 336.5 84 Q379 113 400 161 L407 198 Q390 217 356.5 228.5 Q323 240 286 240 L222 240 Q179 240 151.5 220 Q124 200 117 164 L111 132 Q109 120 109 116 Q109 88 129.5 71.5 Q150 55 185 55 L247 55 Z M307 582 Q311 603 325.5 617 Q340 631 366 646 Q385 658 395 666 Q405 674 407 685 L409 696 Q410 699 410 704 Q410 729 378 729 L358 729 Q317 729 309 687 L251 687 Q266 781 361 781 L381 781 Q471 781 471 716 Q471 710 469 696 L467 685 Q463 662 447.5 647 Q432 632 405 615 Q388 604 379 597 Q370 590 369 582 L366 566 L304 566 L307 582 Z " />
<glyph glyph-name="uni0251" unicode="&#x251;" horiz-adv-x="580" d="M198 -8 Q125 -8 82.5 33.5 Q40 75 40 143 Q40 164 44 183 L66 303 Q83 399 138 453 Q193 507 273 507 L345 507 Q386 507 418.5 489 Q451 471 464 441 L474 499 L544 499 L477 116 Q476 111 476 101 Q476 64 513 64 L537 64 L526 0 L492 0 Q452 0 430 20 Q408 40 409 76 L408 76 Q380 39 338 15.5 Q296 -8 261 -8 L198 -8 Z M265 56 Q319 56 361.5 95 Q404 134 421 198 L443 324 Q446 377 419.5 410 Q393 443 347 443 L275 443 Q222 443 186 406 Q150 369 138 303 L116 183 Q113 167 113 151 Q113 107 136.5 81.5 Q160 56 200 56 L265 56 Z " />
<glyph glyph-name="amacron" unicode="&#x101;" horiz-adv-x="556" d="M185 -8 Q119 -8 78 23.5 Q37 55 37 108 Q37 116 39 132 L45 165 Q57 231 103.5 267 Q150 303 222 303 L286 303 Q319 303 358.5 292.5 Q398 282 419 266 L433 349 Q435 363 435 369 Q435 404 413.5 424 Q392 444 355 444 L275 444 Q232 444 202.5 424 Q173 404 167 371 L95 371 Q106 432 155.5 469.5 Q205 507 275 507 L355 507 Q425 507 465.5 473 Q506 439 506 380 Q506 366 503 349 L442 0 L374 0 L386 70 Q356 33 320 12.5 Q284 -8 245 -8 L185 -8 Z M247 55 Q294 55 336.5 84 Q379 113 400 161 L407 198 Q390 217 356.5 228.5 Q323 240 286 240 L222 240 Q179 240 151.5 220 Q124 200 117 164 L111 132 Q109 120 109 116 Q109 88 129.5 71.5 Q150 55 185 55 L247 55 Z M225 642 L480 642 L471 590 L216 590 L225 642 Z " />
<glyph glyph-name="aogonek" unicode="&#x105;" horiz-adv-x="556" d="M356 -109 Q355 -112 355 -119 Q355 -135 365.5 -145 Q376 -155 396 -155 L406 -155 Q419 -155 435 -149.5 Q451 -144 465 -135 L455 -191 Q443 -199 427 -204 Q411 -209 395 -209 L385 -209 Q341 -209 316 -189 Q291 -169 291 -134 Q291 -120 293 -113 L295 -103 Q301 -73 322.5 -43.5 Q344 -14 374 0 L386 70 Q356 33 320 12.5 Q284 -8 245 -8 L185 -8 Q119 -8 78 23.5 Q37 55 37 108 Q37 116 39 132 L45 165 Q57 231 103.5 267 Q150 303 222 303 L286 303 Q319 303 358.5 292.5 Q398 282 419 266 L433 349 Q435 363 435 369 Q435 404 413.5 424 Q392 444 355 444 L275 444 Q232 444 202.5 424 Q173 404 167 371 L95 371 Q106 432 155.5 469.5 Q205 507 275 507 L355 507 Q425 507 465.5 473 Q506 439 506 380 Q506 366 503 349 L442 0 Q409 -16 386.5 -42.5 Q364 -69 358 -99 L356 -109 Z M247 55 Q294 55 336.5 84 Q379 113 400 161 L407 198 Q390 217 356.5 228.5 Q323 240 286 240 L222 240 Q179 240 151.5 220 Q124 200 117 164 L111 132 Q109 120 109 116 Q109 88 129.5 71.5 Q150 55 185 55 L247 55 Z " />
<glyph glyph-name="aring" unicode="&#xe5;" horiz-adv-x="556" d="M185 -8 Q119 -8 78 23.5 Q37 55 37 108 Q37 116 39 132 L45 165 Q57 231 103.5 267 Q150 303 222 303 L286 303 Q319 303 358.5 292.5 Q398 282 419 266 L433 349 Q435 363 435 369 Q435 404 413.5 424 Q392 444 355 444 L275 444 Q232 444 202.5 424 Q173 404 167 371 L95 371 Q106 432 155.5 469.5 Q205 507 275 507 L355 507 Q425 507 465.5 473 Q506 439 506 380 Q506 366 503 349 L442 0 L374 0 L386 70 Q356 33 320 12.5 Q284 -8 245 -8 L185 -8 Z M247 55 Q294 55 336.5 84 Q379 113 400 161 L407 198 Q390 217 356.5 228.5 Q323 240 286 240 L222 240 Q179 240 151.5 220 Q124 200 117 164 L111 132 Q109 120 109 116 Q109 88 129.5 71.5 Q150 55 185 55 L247 55 Z M337 542 Q296 542 270.5 565.5 Q245 589 245 628 Q245 682 279 715 Q313 748 369 748 Q410 748 435.5 724.5 Q461 701 461 662 Q461 608 427 575 Q393 542 337 542 Z M343 590 Q373 590 391.5 608.5 Q410 627 410 657 Q410 676 397 688 Q384 700 363 700 Q333 700 314.5 681.5 Q296 663 296 633 Q296 614 309 602 Q322 590 343 590 Z " />
<glyph glyph-name="aringacute" unicode="&#x1fb;" horiz-adv-x="556" d="M185 -8 Q119 -8 78 23.5 Q37 55 37 108 Q37 116 39 132 L45 165 Q57 231 103.5 267 Q150 303 222 303 L286 303 Q319 303 358.5 292.5 Q398 282 419 266 L433 349 Q435 363 435 369 Q435 404 413.5 424 Q392 444 355 444 L275 444 Q232 444 202.5 424 Q173 404 167 371 L95 371 Q106 432 155.5 469.5 Q205 507 275 507 L355 507 Q425 507 465.5 473 Q506 439 506 380 Q506 366 503 349 L442 0 L374 0 L386 70 Q356 33 320 12.5 Q284 -8 245 -8 L185 -8 Z M247 55 Q294 55 336.5 84 Q379 113 400 161 L407 198 Q390 217 356.5 228.5 Q323 240 286 240 L222 240 Q179 240 151.5 220 Q124 200 117 164 L111 132 Q109 120 109 116 Q109 88 129.5 71.5 Q150 55 185 55 L247 55 Z M337 542 Q296 542 270.5 565.5 Q245 589 245 628 Q245 682 279 715 Q313 748 369 748 Q410 748 435.5 724.5 Q461 701 461 662 Q461 608 427 575 Q393 542 337 542 Z M343 590 Q373 590 391.5 608.5 Q410 627 410 657 Q410 676 397 688 Q384 700 363 700 Q333 700 314.5 681.5 Q296 663 296 633 Q296 614 309 602 Q322 590 343 590 Z M456 941 L540 941 L414 789 L346 789 L456 941 Z " />
<glyph glyph-name="atilde" unicode="&#xe3;" horiz-adv-x="556" d="M185 -8 Q119 -8 78 23.5 Q37 55 37 108 Q37 116 39 132 L45 165 Q57 231 103.5 267 Q150 303 222 303 L286 303 Q319 303 358.5 292.5 Q398 282 419 266 L433 349 Q435 363 435 369 Q435 404 413.5 424 Q392 444 355 444 L275 444 Q232 444 202.5 424 Q173 404 167 371 L95 371 Q106 432 155.5 469.5 Q205 507 275 507 L355 507 Q425 507 465.5 473 Q506 439 506 380 Q506 366 503 349 L442 0 L374 0 L386 70 Q356 33 320 12.5 Q284 -8 245 -8 L185 -8 Z M247 55 Q294 55 336.5 84 Q379 113 400 161 L407 198 Q390 217 356.5 228.5 Q323 240 286 240 L222 240 Q179 240 151.5 220 Q124 200 117 164 L111 132 Q109 120 109 116 Q109 88 129.5 71.5 Q150 55 185 55 L247 55 Z M406 572 Q384 572 368.5 582.5 Q353 593 336 612 Q323 626 314.5 632.5 Q306 639 295 639 L285 639 Q268 639 255.5 625.5 Q243 612 238 588 L182 588 Q193 636 221 662.5 Q249 689 289 689 L299 689 Q323 689 339 678 Q355 667 373 647 Q385 634 392.5 628 Q400 622 409 622 L419 622 Q434 622 446 635.5 Q458 649 464 673 L520 673 Q509 625 482 598.5 Q455 572 416 572 L406 572 Z " />
<glyph glyph-name="ae" unicode="&#xe6;" horiz-adv-x="908" d="M177 -8 Q113 -8 75.5 23.5 Q38 55 38 108 Q38 116 40 134 L45 164 Q55 228 107.5 266 Q160 304 235 304 L299 304 Q331 304 365 293.5 Q399 283 421 266 L435 349 Q437 361 437 368 Q437 402 415.5 422.5 Q394 443 357 443 L277 443 Q234 443 203.5 423 Q173 403 167 371 L95 371 Q106 432 156 469.5 Q206 507 277 507 L357 507 Q404 507 441 487 Q478 467 491 434 L492 434 Q520 468 558 487.5 Q596 507 638 507 L716 507 Q787 507 830 466.5 Q873 426 873 358 Q873 341 870 321 L855 233 L487 233 L476 171 Q474 162 474 145 Q474 103 499 79.5 Q524 56 569 56 L641 56 Q691 56 726 83.5 Q761 111 769 157 L839 157 Q826 82 773 37 Q720 -8 641 -8 L569 -8 Q513 -8 473.5 14.5 Q434 37 420 77 L419 77 Q340 -8 236 -8 L177 -8 Z M794 295 L798 321 Q800 331 800 350 Q800 393 778.5 418 Q757 443 716 443 L638 443 Q587 443 550 409 Q513 375 502 316 L498 295 L794 295 Z M250 56 Q297 56 339 84.5 Q381 113 402 161 L409 198 Q392 217 358.5 228.5 Q325 240 288 240 L224 240 Q181 240 152 220 Q123 200 117 164 L112 134 Q111 129 111 120 Q111 91 132 73.5 Q153 56 188 56 L250 56 Z " />
<glyph glyph-name="aeacute" unicode="&#x1fd;" horiz-adv-x="908" d="M177 -8 Q113 -8 75.5 23.5 Q38 55 38 108 Q38 116 40 134 L45 164 Q55 228 107.5 266 Q160 304 235 304 L299 304 Q331 304 365 293.5 Q399 283 421 266 L435 349 Q437 361 437 368 Q437 402 415.5 422.5 Q394 443 357 443 L277 443 Q234 443 203.5 423 Q173 403 167 371 L95 371 Q106 432 156 469.5 Q206 507 277 507 L357 507 Q404 507 441 487 Q478 467 491 434 L492 434 Q520 468 558 487.5 Q596 507 638 507 L716 507 Q787 507 830 466.5 Q873 426 873 358 Q873 341 870 321 L855 233 L487 233 L476 171 Q474 162 474 145 Q474 103 499 79.5 Q524 56 569 56 L641 56 Q691 56 726 83.5 Q761 111 769 157 L839 157 Q826 82 773 37 Q720 -8 641 -8 L569 -8 Q513 -8 473.5 14.5 Q434 37 420 77 L419 77 Q340 -8 236 -8 L177 -8 Z M794 295 L798 321 Q800 331 800 350 Q800 393 778.5 418 Q757 443 716 443 L638 443 Q587 443 550 409 Q513 375 502 316 L498 295 L794 295 Z M250 56 Q297 56 339 84.5 Q381 113 402 161 L409 198 Q392 217 358.5 228.5 Q325 240 288 240 L224 240 Q181 240 152 220 Q123 200 117 164 L112 134 Q111 129 111 120 Q111 91 132 73.5 Q153 56 188 56 L250 56 Z M596 732 L680 732 L554 580 L486 580 L596 732 Z " />
<glyph glyph-name="b" unicode="b" horiz-adv-x="578" d="M239 -8 Q199 -8 165.5 11.5 Q132 31 113 64 L102 0 L32 0 L155 700 L227 700 L182 440 Q208 470 243.5 488.5 Q279 507 310 507 L381 507 Q454 507 496 467.5 Q538 428 538 361 Q538 339 534 320 L511 191 Q494 99 440.5 45.5 Q387 -8 309 -8 L239 -8 Z M307 56 Q356 56 392.5 93 Q429 130 439 191 L462 320 Q465 337 465 351 Q465 393 442 418 Q419 443 379 443 L312 443 Q258 443 215.5 405 Q173 367 158 305 L136 183 Q135 178 135 168 Q135 120 165 88 Q195 56 239 56 L307 56 Z " />
<glyph glyph-name="c" unicode="c" horiz-adv-x="536" d="M200 -8 Q124 -8 81.5 30.5 Q39 69 39 135 Q39 153 42 172 L68 316 Q85 406 138.5 456.5 Q192 507 271 507 L353 507 Q426 507 468 472.5 Q510 438 510 379 Q510 361 508 351 L438 351 Q439 357 439 368 Q439 402 416 422.5 Q393 443 353 443 L271 443 Q220 443 185 409.5 Q150 376 140 316 L114 172 Q111 157 111 145 Q111 104 135.5 80 Q160 56 203 56 L285 56 Q334 56 367 88 Q400 120 411 177 L481 177 Q465 90 413 41 Q361 -8 285 -8 L200 -8 Z " />
<glyph glyph-name="cacute" unicode="&#x107;" horiz-adv-x="536" d="M200 -8 Q124 -8 81.5 30.5 Q39 69 39 135 Q39 153 42 172 L68 316 Q85 406 138.5 456.5 Q192 507 271 507 L353 507 Q426 507 468 472.5 Q510 438 510 379 Q510 361 508 351 L438 351 Q439 357 439 368 Q439 402 416 422.5 Q393 443 353 443 L271 443 Q220 443 185 409.5 Q150 376 140 316 L114 172 Q111 157 111 145 Q111 104 135.5 80 Q160 56 203 56 L285 56 Q334 56 367 88 Q400 120 411 177 L481 177 Q465 90 413 41 Q361 -8 285 -8 L200 -8 Z M414 732 L498 732 L372 580 L304 580 L414 732 Z " />
<glyph glyph-name="ccaron" unicode="&#x10d;" horiz-adv-x="536" d="M200 -8 Q124 -8 81.5 30.5 Q39 69 39 135 Q39 153 42 172 L68 316 Q85 406 138.5 456.5 Q192 507 271 507 L353 507 Q426 507 468 472.5 Q510 438 510 379 Q510 361 508 351 L438 351 Q439 357 439 368 Q439 402 416 422.5 Q393 443 353 443 L271 443 Q220 443 185 409.5 Q150 376 140 316 L114 172 Q111 157 111 145 Q111 104 135.5 80 Q160 56 203 56 L285 56 Q334 56 367 88 Q400 120 411 177 L481 177 Q465 90 413 41 Q361 -8 285 -8 L200 -8 Z M213 742 L278 742 L342 630 L446 742 L517 742 L363 580 L308 580 L213 742 Z " />
<glyph glyph-name="ccedilla" unicode="&#xe7;" horiz-adv-x="536" d="M438 351 Q439 357 439 368 Q439 402 416 422.5 Q393 443 353 443 L271 443 Q220 443 185 409.5 Q150 376 140 316 L114 172 Q111 157 111 145 Q111 104 135.5 80 Q160 56 203 56 L285 56 Q334 56 367 88 Q400 120 411 177 L481 177 Q465 90 413 41 Q361 -8 285 -8 L255 -8 L226 -54 L229 -54 Q265 -54 285.5 -70.5 Q306 -87 306 -116 Q306 -125 305 -130 L303 -141 Q296 -180 266.5 -201.5 Q237 -223 190 -223 L129 -223 L137 -175 L190 -175 Q213 -175 228 -166 Q243 -157 246 -141 L248 -130 Q251 -115 240 -105.5 Q229 -96 209 -96 L162 -96 L170 -52 L197 -8 Q123 -7 81 31.5 Q39 70 39 135 Q39 153 42 172 L68 316 Q85 406 138.5 456.5 Q192 507 271 507 L353 507 Q426 507 468 472.5 Q510 438 510 379 Q510 361 508 351 L438 351 Z " />
<glyph glyph-name="ccircumflex" unicode="&#x109;" horiz-adv-x="536" d="M200 -8 Q124 -8 81.5 30.5 Q39 69 39 135 Q39 153 42 172 L68 316 Q85 406 138.5 456.5 Q192 507 271 507 L353 507 Q426 507 468 472.5 Q510 438 510 379 Q510 361 508 351 L438 351 Q439 357 439 368 Q439 402 416 422.5 Q393 443 353 443 L271 443 Q220 443 185 409.5 Q150 376 140 316 L114 172 Q111 157 111 145 Q111 104 135.5 80 Q160 56 203 56 L285 56 Q334 56 367 88 Q400 120 411 177 L481 177 Q465 90 413 41 Q361 -8 285 -8 L200 -8 Z M337 742 L392 742 L488 580 L423 580 L359 692 L255 580 L184 580 L337 742 Z " />
<glyph glyph-name="cdotaccent" unicode="&#x10b;" horiz-adv-x="536" d="M200 -8 Q124 -8 81.5 30.5 Q39 69 39 135 Q39 153 42 172 L68 316 Q85 406 138.5 456.5 Q192 507 271 507 L353 507 Q426 507 468 472.5 Q510 438 510 379 Q510 361 508 351 L438 351 Q439 357 439 368 Q439 402 416 422.5 Q393 443 353 443 L271 443 Q220 443 185 409.5 Q150 376 140 316 L114 172 Q111 157 111 145 Q111 104 135.5 80 Q160 56 203 56 L285 56 Q334 56 367 88 Q400 120 411 177 L481 177 Q465 90 413 41 Q361 -8 285 -8 L200 -8 Z M337 580 Q316 580 303.5 591.5 Q291 603 291 623 Q291 652 309 670 Q327 688 356 688 Q376 688 388.5 676 Q401 664 401 645 Q401 616 383.5 598 Q366 580 337 580 Z " />
<glyph glyph-name="d" unicode="d" horiz-adv-x="578" d="M197 -8 Q122 -8 81 30 Q40 68 40 137 Q40 162 44 183 L65 303 Q81 396 137 451.5 Q193 507 274 507 L348 507 Q386 507 417.5 490.5 Q449 474 465 447 L509 700 L581 700 L458 0 L388 0 L401 74 Q372 37 334.5 14.5 Q297 -8 264 -8 L197 -8 Z M264 56 Q296 56 329 76.5 Q362 97 387 130 Q412 163 421 198 L443 324 Q445 377 418.5 410 Q392 443 346 443 L276 443 Q225 443 186.5 404.5 Q148 366 137 303 L116 183 Q113 164 113 148 Q113 104 135 80 Q157 56 199 56 L264 56 Z " />
<glyph glyph-name="eth" unicode="&#xf0;" horiz-adv-x="587" d="M478 720 Q524 686 546 630 Q568 574 568 493 Q568 428 555 353 L532 221 Q513 113 449 52.5 Q385 -8 289 -8 L217 -8 Q134 -8 85.5 37 Q37 82 37 157 Q37 181 41 201 L59 301 Q76 399 137 457 Q198 515 287 515 L359 515 Q401 515 441 492.5 Q481 470 497 434 L498 434 Q501 466 501 492 Q501 557 483.5 600 Q466 643 429 668 L357 593 L285 593 L379 692 Q332 706 270 706 L248 706 L260 770 L282 770 Q371 770 431 745 L481 798 L553 798 L478 720 Z M471 284 Q474 302 474 319 Q474 377 441.5 414 Q409 451 353 451 L287 451 Q228 451 185.5 410 Q143 369 131 302 L113 199 Q110 183 110 166 Q110 115 139.5 85.5 Q169 56 220 56 L288 56 Q352 56 399 100 Q446 144 459 217 L471 284 Z " />
<glyph glyph-name="dcaron" unicode="&#x10f;" horiz-adv-x="736" d="M197 -8 Q122 -8 81 30 Q40 68 40 137 Q40 162 44 183 L65 303 Q81 396 137 451.5 Q193 507 274 507 L348 507 Q386 507 417.5 490.5 Q449 474 465 447 L509 700 L581 700 L458 0 L388 0 L401 74 Q372 37 334.5 14.5 Q297 -8 264 -8 L197 -8 Z M264 56 Q296 56 329 76.5 Q362 97 387 130 Q412 163 421 198 L443 324 Q445 377 418.5 410 Q392 443 346 443 L276 443 Q225 443 186.5 404.5 Q148 366 137 303 L116 183 Q113 164 113 148 Q113 104 135 80 Q157 56 199 56 L264 56 Z M627 551 L644 561 Q679 581 698 607.5 Q717 634 722 669 L727 700 L799 700 L794 669 Q785 614 757 574.5 Q729 535 679 507 L658 495 L627 551 Z " />
<glyph glyph-name="dslash" unicode="&#x111;" horiz-adv-x="595" d="M633 567 L558 567 L458 0 L388 0 L401 74 Q372 37 334.5 14.5 Q297 -8 264 -8 L197 -8 Q122 -8 81 30 Q40 68 40 137 Q40 162 44 183 L65 303 Q81 396 137 451.5 Q193 507 274 507 L348 507 Q386 507 417.5 490.5 Q449 474 465 447 L486 567 L324 567 L335 627 L496 627 L509 700 L581 700 L568 627 L644 627 L633 567 Z M443 324 Q445 377 418.5 410 Q392 443 346 443 L276 443 Q225 443 186.5 404.5 Q148 366 137 303 L116 183 Q113 164 113 148 Q113 104 135 80 Q157 56 199 56 L264 56 Q296 56 329 76.5 Q362 97 387 130 Q412 163 421 198 L443 324 Z " />
<glyph glyph-name="uni1E0D" unicode="&#x1e0d;" horiz-adv-x="578" d="M197 -8 Q122 -8 81 30 Q40 68 40 137 Q40 162 44 183 L65 303 Q81 396 137 451.5 Q193 507 274 507 L348 507 Q386 507 417.5 490.5 Q449 474 465 447 L509 700 L581 700 L458 0 L388 0 L401 74 Q372 37 334.5 14.5 Q297 -8 264 -8 L197 -8 Z M264 56 Q296 56 329 76.5 Q362 97 387 130 Q412 163 421 198 L443 324 Q445 377 418.5 410 Q392 443 346 443 L276 443 Q225 443 186.5 404.5 Q148 366 137 303 L116 183 Q113 164 113 148 Q113 104 135 80 Q157 56 199 56 L264 56 Z M210 -171 Q189 -171 176.5 -159.5 Q164 -148 164 -128 Q164 -99 182 -81 Q200 -63 229 -63 Q249 -63 261.5 -75 Q274 -87 274 -106 Q274 -135 256.5 -153 Q239 -171 210 -171 Z " />
<glyph glyph-name="uni1E0F" unicode="&#x1e0f;" horiz-adv-x="578" d="M197 -8 Q122 -8 81 30 Q40 68 40 137 Q40 162 44 183 L65 303 Q81 396 137 451.5 Q193 507 274 507 L348 507 Q386 507 417.5 490.5 Q449 474 465 447 L509 700 L581 700 L458 0 L388 0 L401 74 Q372 37 334.5 14.5 Q297 -8 264 -8 L197 -8 Z M264 56 Q296 56 329 76.5 Q362 97 387 130 Q412 163 421 198 L443 324 Q445 377 418.5 410 Q392 443 346 443 L276 443 Q225 443 186.5 404.5 Q148 366 137 303 L116 183 Q113 164 113 148 Q113 104 135 80 Q157 56 199 56 L264 56 Z M100 -72 L355 -72 L346 -124 L91 -124 L100 -72 Z " />
<glyph glyph-name="e" unicode="e" horiz-adv-x="552" d="M207 -8 Q129 -8 84.5 31.5 Q40 71 40 137 Q40 155 43 173 L68 316 Q84 406 139 456.5 Q194 507 276 507 L358 507 Q429 507 473 466 Q517 425 517 357 Q517 339 514 321 L499 233 L125 233 L115 173 Q113 164 113 147 Q113 105 138 80.5 Q163 56 207 56 L283 56 Q336 56 370.5 83 Q405 110 413 157 L483 157 Q470 79 417 35.5 Q364 -8 283 -8 L207 -8 Z M437 295 L442 321 Q445 336 445 351 Q445 392 421.5 417.5 Q398 443 358 443 L276 443 Q223 443 187 409.5 Q151 376 140 316 L136 295 L437 295 Z " />
<glyph glyph-name="eacute" unicode="&#xe9;" horiz-adv-x="552" d="M207 -8 Q129 -8 84.5 31.5 Q40 71 40 137 Q40 155 43 173 L68 316 Q84 406 139 456.5 Q194 507 276 507 L358 507 Q429 507 473 466 Q517 425 517 357 Q517 339 514 321 L499 233 L125 233 L115 173 Q113 164 113 147 Q113 105 138 80.5 Q163 56 207 56 L283 56 Q336 56 370.5 83 Q405 110 413 157 L483 157 Q470 79 417 35.5 Q364 -8 283 -8 L207 -8 Z M437 295 L442 321 Q445 336 445 351 Q445 392 421.5 417.5 Q398 443 358 443 L276 443 Q223 443 187 409.5 Q151 376 140 316 L136 295 L437 295 Z M411 732 L495 732 L369 580 L301 580 L411 732 Z " />
<glyph glyph-name="ebreve" unicode="&#x115;" horiz-adv-x="552" d="M207 -8 Q129 -8 84.5 31.5 Q40 71 40 137 Q40 155 43 173 L68 316 Q84 406 139 456.5 Q194 507 276 507 L358 507 Q429 507 473 466 Q517 425 517 357 Q517 339 514 321 L499 233 L125 233 L115 173 Q113 164 113 147 Q113 105 138 80.5 Q163 56 207 56 L283 56 Q336 56 370.5 83 Q405 110 413 157 L483 157 Q470 79 417 35.5 Q364 -8 283 -8 L207 -8 Z M437 295 L442 321 Q445 336 445 351 Q445 392 421.5 417.5 Q398 443 358 443 L276 443 Q223 443 187 409.5 Q151 376 140 316 L136 295 L437 295 Z M332 572 Q275 572 242 602.5 Q209 633 209 685 Q209 697 210 703 L211 711 L269 711 L268 703 Q267 698 267 690 Q267 659 285.5 640.5 Q304 622 335 622 L347 622 Q386 622 412.5 644 Q439 666 443 703 L444 711 L501 711 L500 703 Q493 644 450 608 Q407 572 344 572 L332 572 Z " />
<glyph glyph-name="ecaron" unicode="&#x11b;" horiz-adv-x="552" d="M207 -8 Q129 -8 84.5 31.5 Q40 71 40 137 Q40 155 43 173 L68 316 Q84 406 139 456.5 Q194 507 276 507 L358 507 Q429 507 473 466 Q517 425 517 357 Q517 339 514 321 L499 233 L125 233 L115 173 Q113 164 113 147 Q113 105 138 80.5 Q163 56 207 56 L283 56 Q336 56 370.5 83 Q405 110 413 157 L483 157 Q470 79 417 35.5 Q364 -8 283 -8 L207 -8 Z M437 295 L442 321 Q445 336 445 351 Q445 392 421.5 417.5 Q398 443 358 443 L276 443 Q223 443 187 409.5 Q151 376 140 316 L136 295 L437 295 Z M210 742 L275 742 L339 630 L443 742 L514 742 L360 580 L305 580 L210 742 Z " />
<glyph glyph-name="ecircumflex" unicode="&#xea;" horiz-adv-x="552" d="M207 -8 Q129 -8 84.5 31.5 Q40 71 40 137 Q40 155 43 173 L68 316 Q84 406 139 456.5 Q194 507 276 507 L358 507 Q429 507 473 466 Q517 425 517 357 Q517 339 514 321 L499 233 L125 233 L115 173 Q113 164 113 147 Q113 105 138 80.5 Q163 56 207 56 L283 56 Q336 56 370.5 83 Q405 110 413 157 L483 157 Q470 79 417 35.5 Q364 -8 283 -8 L207 -8 Z M437 295 L442 321 Q445 336 445 351 Q445 392 421.5 417.5 Q398 443 358 443 L276 443 Q223 443 187 409.5 Q151 376 140 316 L136 295 L437 295 Z M334 742 L389 742 L485 580 L420 580 L356 692 L252 580 L181 580 L334 742 Z " />
<glyph glyph-name="uni1EBF" unicode="&#x1ebf;" horiz-adv-x="552" d="M207 -8 Q129 -8 84.5 31.5 Q40 71 40 137 Q40 155 43 173 L68 316 Q84 406 139 456.5 Q194 507 276 507 L358 507 Q429 507 473 466 Q517 425 517 357 Q517 339 514 321 L499 233 L125 233 L115 173 Q113 164 113 147 Q113 105 138 80.5 Q163 56 207 56 L283 56 Q336 56 370.5 83 Q405 110 413 157 L483 157 Q470 79 417 35.5 Q364 -8 283 -8 L207 -8 Z M437 295 L442 321 Q445 336 445 351 Q445 392 421.5 417.5 Q398 443 358 443 L276 443 Q223 443 187 409.5 Q151 376 140 316 L136 295 L437 295 Z M552 848 L622 848 L526 732 L468 732 L552 848 Z M334 742 L389 742 L485 580 L420 580 L356 692 L252 580 L181 580 L334 742 Z " />
<glyph glyph-name="uni1EC7" unicode="&#x1ec7;" horiz-adv-x="552" d="M207 -8 Q129 -8 84.5 31.5 Q40 71 40 137 Q40 155 43 173 L68 316 Q84 406 139 456.5 Q194 507 276 507 L358 507 Q429 507 473 466 Q517 425 517 357 Q517 339 514 321 L499 233 L125 233 L115 173 Q113 164 113 147 Q113 105 138 80.5 Q163 56 207 56 L283 56 Q336 56 370.5 83 Q405 110 413 157 L483 157 Q470 79 417 35.5 Q364 -8 283 -8 L207 -8 Z M437 295 L442 321 Q445 336 445 351 Q445 392 421.5 417.5 Q398 443 358 443 L276 443 Q223 443 187 409.5 Q151 376 140 316 L136 295 L437 295 Z M211 -171 Q190 -171 177.5 -159.5 Q165 -148 165 -128 Q165 -99 183 -81 Q201 -63 230 -63 Q250 -63 262.5 -75 Q275 -87 275 -106 Q275 -135 257.5 -153 Q240 -171 211 -171 Z M334 742 L389 742 L485 580 L420 580 L356 692 L252 580 L181 580 L334 742 Z " />
<glyph glyph-name="uni1EC1" unicode="&#x1ec1;" horiz-adv-x="552" d="M207 -8 Q129 -8 84.5 31.5 Q40 71 40 137 Q40 155 43 173 L68 316 Q84 406 139 456.5 Q194 507 276 507 L358 507 Q429 507 473 466 Q517 425 517 357 Q517 339 514 321 L499 233 L125 233 L115 173 Q113 164 113 147 Q113 105 138 80.5 Q163 56 207 56 L283 56 Q336 56 370.5 83 Q405 110 413 157 L483 157 Q470 79 417 35.5 Q364 -8 283 -8 L207 -8 Z M437 295 L442 321 Q445 336 445 351 Q445 392 421.5 417.5 Q398 443 358 443 L276 443 Q223 443 187 409.5 Q151 376 140 316 L136 295 L437 295 Z M440 848 L508 848 L552 732 L496 732 L440 848 Z M334 742 L389 742 L485 580 L420 580 L356 692 L252 580 L181 580 L334 742 Z " />
<glyph glyph-name="uni1EC3" unicode="&#x1ec3;" horiz-adv-x="552" d="M207 -8 Q129 -8 84.5 31.5 Q40 71 40 137 Q40 155 43 173 L68 316 Q84 406 139 456.5 Q194 507 276 507 L358 507 Q429 507 473 466 Q517 425 517 357 Q517 339 514 321 L499 233 L125 233 L115 173 Q113 164 113 147 Q113 105 138 80.5 Q163 56 207 56 L283 56 Q336 56 370.5 83 Q405 110 413 157 L483 157 Q470 79 417 35.5 Q364 -8 283 -8 L207 -8 Z M437 295 L442 321 Q445 336 445 351 Q445 392 421.5 417.5 Q398 443 358 443 L276 443 Q223 443 187 409.5 Q151 376 140 316 L136 295 L437 295 Z M471 730 Q475 746 487.5 757.5 Q500 769 520 781 Q536 791 544.5 798 Q553 805 554 814 L555 823 Q558 850 530 850 L514 850 Q479 850 473 816 L425 816 Q437 894 516 894 L532 894 Q606 894 606 835 L605 823 L604 814 Q602 795 589 782 Q576 769 553 756 Q542 750 533 743.5 Q524 737 523 730 L521 722 L469 722 L471 730 Z M334 742 L389 742 L485 580 L420 580 L356 692 L252 580 L181 580 L334 742 Z " />
<glyph glyph-name="uni1EC5" unicode="&#x1ec5;" horiz-adv-x="552" d="M207 -8 Q129 -8 84.5 31.5 Q40 71 40 137 Q40 155 43 173 L68 316 Q84 406 139 456.5 Q194 507 276 507 L358 507 Q429 507 473 466 Q517 425 517 357 Q517 339 514 321 L499 233 L125 233 L115 173 Q113 164 113 147 Q113 105 138 80.5 Q163 56 207 56 L283 56 Q336 56 370.5 83 Q405 110 413 157 L483 157 Q470 79 417 35.5 Q364 -8 283 -8 L207 -8 Z M437 295 L442 321 Q445 336 445 351 Q445 392 421.5 417.5 Q398 443 358 443 L276 443 Q223 443 187 409.5 Q151 376 140 316 L136 295 L437 295 Z M429 777 Q409 777 396.5 785.5 Q384 794 366 812 Q356 824 348 830 Q340 836 330 836 L321 836 Q307 836 296.5 824 Q286 812 281 791 L232 791 Q240 833 264 856.5 Q288 880 323 880 L332 880 Q353 880 368 870 Q383 860 398 843 Q409 831 415.5 826 Q422 821 430 821 L439 821 Q453 821 463 833 Q473 845 477 866 L526 866 Q518 824 495 800.5 Q472 777 438 777 L429 777 Z M334 742 L389 742 L485 580 L420 580 L356 692 L252 580 L181 580 L334 742 Z " />
<glyph glyph-name="edieresis" unicode="&#xeb;" horiz-adv-x="552" d="M207 -8 Q129 -8 84.5 31.5 Q40 71 40 137 Q40 155 43 173 L68 316 Q84 406 139 456.5 Q194 507 276 507 L358 507 Q429 507 473 466 Q517 425 517 357 Q517 339 514 321 L499 233 L125 233 L115 173 Q113 164 113 147 Q113 105 138 80.5 Q163 56 207 56 L283 56 Q336 56 370.5 83 Q405 110 413 157 L483 157 Q470 79 417 35.5 Q364 -8 283 -8 L207 -8 Z M437 295 L442 321 Q445 336 445 351 Q445 392 421.5 417.5 Q398 443 358 443 L276 443 Q223 443 187 409.5 Q151 376 140 316 L136 295 L437 295 Z M233 580 Q214 580 203 591 Q192 602 192 619 Q192 645 208.5 661.5 Q225 678 251 678 Q270 678 281 667 Q292 656 292 639 Q292 613 275.5 596.5 Q259 580 233 580 Z M432 580 Q413 580 402 591 Q391 602 391 619 Q391 645 407.5 661.5 Q424 678 450 678 Q469 678 480 667 Q491 656 491 639 Q491 613 474.5 596.5 Q458 580 432 580 Z " />
<glyph glyph-name="edotaccent" unicode="&#x117;" horiz-adv-x="552" d="M207 -8 Q129 -8 84.5 31.5 Q40 71 40 137 Q40 155 43 173 L68 316 Q84 406 139 456.5 Q194 507 276 507 L358 507 Q429 507 473 466 Q517 425 517 357 Q517 339 514 321 L499 233 L125 233 L115 173 Q113 164 113 147 Q113 105 138 80.5 Q163 56 207 56 L283 56 Q336 56 370.5 83 Q405 110 413 157 L483 157 Q470 79 417 35.5 Q364 -8 283 -8 L207 -8 Z M437 295 L442 321 Q445 336 445 351 Q445 392 421.5 417.5 Q398 443 358 443 L276 443 Q223 443 187 409.5 Q151 376 140 316 L136 295 L437 295 Z M334 580 Q313 580 300.5 591.5 Q288 603 288 623 Q288 652 306 670 Q324 688 353 688 Q373 688 385.5 676 Q398 664 398 645 Q398 616 380.5 598 Q363 580 334 580 Z " />
<glyph glyph-name="uni1EB9" unicode="&#x1eb9;" horiz-adv-x="552" d="M207 -8 Q129 -8 84.5 31.5 Q40 71 40 137 Q40 155 43 173 L68 316 Q84 406 139 456.5 Q194 507 276 507 L358 507 Q429 507 473 466 Q517 425 517 357 Q517 339 514 321 L499 233 L125 233 L115 173 Q113 164 113 147 Q113 105 138 80.5 Q163 56 207 56 L283 56 Q336 56 370.5 83 Q405 110 413 157 L483 157 Q470 79 417 35.5 Q364 -8 283 -8 L207 -8 Z M437 295 L442 321 Q445 336 445 351 Q445 392 421.5 417.5 Q398 443 358 443 L276 443 Q223 443 187 409.5 Q151 376 140 316 L136 295 L437 295 Z M211 -171 Q190 -171 177.5 -159.5 Q165 -148 165 -128 Q165 -99 183 -81 Q201 -63 230 -63 Q250 -63 262.5 -75 Q275 -87 275 -106 Q275 -135 257.5 -153 Q240 -171 211 -171 Z " />
<glyph glyph-name="egrave" unicode="&#xe8;" horiz-adv-x="552" d="M207 -8 Q129 -8 84.5 31.5 Q40 71 40 137 Q40 155 43 173 L68 316 Q84 406 139 456.5 Q194 507 276 507 L358 507 Q429 507 473 466 Q517 425 517 357 Q517 339 514 321 L499 233 L125 233 L115 173 Q113 164 113 147 Q113 105 138 80.5 Q163 56 207 56 L283 56 Q336 56 370.5 83 Q405 110 413 157 L483 157 Q470 79 417 35.5 Q364 -8 283 -8 L207 -8 Z M437 295 L442 321 Q445 336 445 351 Q445 392 421.5 417.5 Q398 443 358 443 L276 443 Q223 443 187 409.5 Q151 376 140 316 L136 295 L437 295 Z M230 732 L310 732 L366 580 L302 580 L230 732 Z " />
<glyph glyph-name="uni1EBB" unicode="&#x1ebb;" horiz-adv-x="552" d="M207 -8 Q129 -8 84.5 31.5 Q40 71 40 137 Q40 155 43 173 L68 316 Q84 406 139 456.5 Q194 507 276 507 L358 507 Q429 507 473 466 Q517 425 517 357 Q517 339 514 321 L499 233 L125 233 L115 173 Q113 164 113 147 Q113 105 138 80.5 Q163 56 207 56 L283 56 Q336 56 370.5 83 Q405 110 413 157 L483 157 Q470 79 417 35.5 Q364 -8 283 -8 L207 -8 Z M437 295 L442 321 Q445 336 445 351 Q445 392 421.5 417.5 Q398 443 358 443 L276 443 Q223 443 187 409.5 Q151 376 140 316 L136 295 L437 295 Z M299 582 Q303 603 317.5 617 Q332 631 358 646 Q377 658 387 666 Q397 674 399 685 L401 696 Q402 699 402 704 Q402 729 370 729 L350 729 Q309 729 301 687 L243 687 Q258 781 353 781 L373 781 Q463 781 463 716 Q463 710 461 696 L459 685 Q455 662 439.5 647 Q424 632 397 615 Q380 604 371 597 Q362 590 361 582 L358 566 L296 566 L299 582 Z " />
<glyph glyph-name="emacron" unicode="&#x113;" horiz-adv-x="552" d="M207 -8 Q129 -8 84.5 31.5 Q40 71 40 137 Q40 155 43 173 L68 316 Q84 406 139 456.5 Q194 507 276 507 L358 507 Q429 507 473 466 Q517 425 517 357 Q517 339 514 321 L499 233 L125 233 L115 173 Q113 164 113 147 Q113 105 138 80.5 Q163 56 207 56 L283 56 Q336 56 370.5 83 Q405 110 413 157 L483 157 Q470 79 417 35.5 Q364 -8 283 -8 L207 -8 Z M437 295 L442 321 Q445 336 445 351 Q445 392 421.5 417.5 Q398 443 358 443 L276 443 Q223 443 187 409.5 Q151 376 140 316 L136 295 L437 295 Z M217 642 L472 642 L463 590 L208 590 L217 642 Z " />
<glyph glyph-name="eogonek" unicode="&#x119;" horiz-adv-x="552" d="M358 507 Q429 507 473 466 Q517 425 517 357 Q517 339 514 321 L499 233 L125 233 L115 173 Q113 164 113 147 Q113 105 138 80.5 Q163 56 207 56 L283 56 Q336 56 370.5 83 Q405 110 413 157 L483 157 Q472 93 434.5 52 Q397 11 338 -2 Q307 -19 285.5 -44.5 Q264 -70 258 -99 L256 -109 Q255 -112 255 -119 Q255 -135 265.5 -145 Q276 -155 296 -155 L306 -155 Q319 -155 335 -149.5 Q351 -144 365 -135 L355 -191 Q343 -199 327 -204 Q311 -209 295 -209 L285 -209 Q241 -209 216 -189 Q191 -169 191 -134 Q191 -120 193 -113 L195 -103 Q200 -76 217.5 -50 Q235 -24 260 -8 L207 -8 Q129 -8 84.5 31.5 Q40 71 40 137 Q40 155 43 173 L68 316 Q84 406 139 456.5 Q194 507 276 507 L358 507 Z M442 321 Q445 336 445 351 Q445 392 421.5 417.5 Q398 443 358 443 L276 443 Q223 443 187 409.5 Q151 376 140 316 L136 295 L437 295 L442 321 Z " />
<glyph glyph-name="uni1EBD" unicode="&#x1ebd;" horiz-adv-x="552" d="M207 -8 Q129 -8 84.5 31.5 Q40 71 40 137 Q40 155 43 173 L68 316 Q84 406 139 456.5 Q194 507 276 507 L358 507 Q429 507 473 466 Q517 425 517 357 Q517 339 514 321 L499 233 L125 233 L115 173 Q113 164 113 147 Q113 105 138 80.5 Q163 56 207 56 L283 56 Q336 56 370.5 83 Q405 110 413 157 L483 157 Q470 79 417 35.5 Q364 -8 283 -8 L207 -8 Z M437 295 L442 321 Q445 336 445 351 Q445 392 421.5 417.5 Q398 443 358 443 L276 443 Q223 443 187 409.5 Q151 376 140 316 L136 295 L437 295 Z M398 572 Q376 572 360.5 582.5 Q345 593 328 612 Q315 626 306.5 632.5 Q298 639 287 639 L277 639 Q260 639 247.5 625.5 Q235 612 230 588 L174 588 Q185 636 213 662.5 Q241 689 281 689 L291 689 Q315 689 331 678 Q347 667 365 647 Q377 634 384.5 628 Q392 622 401 622 L411 622 Q426 622 438 635.5 Q450 649 456 673 L512 673 Q501 625 474 598.5 Q447 572 408 572 L398 572 Z " />
<glyph glyph-name="uni0259" unicode="&#x259;" horiz-adv-x="548" d="M180 -8 Q111 -8 72 30.5 Q33 69 33 135 Q33 158 37 178 L53 266 L423 266 L434 326 Q437 340 437 353 Q437 395 411 419 Q385 443 340 443 L266 443 Q216 443 181 415.5 Q146 388 138 342 L68 342 Q82 416 139 461.5 Q196 507 277 507 L351 507 Q424 507 466 468.5 Q508 430 508 364 Q508 346 505 326 L480 183 Q465 97 404.5 44.5 Q344 -8 260 -8 L180 -8 Z M271 56 Q324 56 360.5 91.5 Q397 127 408 183 L412 204 L114 204 L109 178 Q106 162 106 146 Q106 105 128.5 80.5 Q151 56 191 56 L271 56 Z " />
<glyph glyph-name="f" unicode="f" horiz-adv-x="359" d="M159 435 L73 435 L84 499 L170 499 L177 538 Q192 620 241 662 Q290 704 371 704 L409 704 L398 642 L360 642 Q313 642 286 617 Q259 592 249 538 L242 499 L362 499 L351 435 L231 435 L154 0 L82 0 L159 435 Z " />
<glyph glyph-name="g" unicode="g" horiz-adv-x="578" d="M169 -203 Q103 -203 63 -171.5 Q23 -140 23 -88 L24 -74 L96 -74 Q94 -104 114.5 -122.5 Q135 -141 169 -141 L252 -141 Q303 -141 338 -106.5 Q373 -72 384 -10 L398 67 Q370 36 336.5 18 Q303 0 271 0 L198 0 Q126 0 84 40 Q42 80 42 149 Q42 171 46 191 L66 308 Q81 398 138 452.5 Q195 507 277 507 L347 507 Q384 507 417 489.5 Q450 472 466 443 L476 499 L546 499 L456 -10 Q440 -101 386 -152 Q332 -203 252 -203 L169 -203 Z M271 64 Q321 64 364 103.5 Q407 143 422 204 L444 327 Q448 377 420.5 410 Q393 443 347 443 L279 443 Q226 443 187 406 Q148 369 138 308 L118 191 Q115 175 115 160 Q115 116 137.5 90 Q160 64 200 64 L271 64 Z " />
<glyph glyph-name="gbreve" unicode="&#x11f;" horiz-adv-x="578" d="M169 -203 Q103 -203 63 -171.5 Q23 -140 23 -88 L24 -74 L96 -74 Q94 -104 114.5 -122.5 Q135 -141 169 -141 L252 -141 Q303 -141 338 -106.5 Q373 -72 384 -10 L398 67 Q370 36 336.5 18 Q303 0 271 0 L198 0 Q126 0 84 40 Q42 80 42 149 Q42 171 46 191 L66 308 Q81 398 138 452.5 Q195 507 277 507 L347 507 Q384 507 417 489.5 Q450 472 466 443 L476 499 L546 499 L456 -10 Q440 -101 386 -152 Q332 -203 252 -203 L169 -203 Z M271 64 Q321 64 364 103.5 Q407 143 422 204 L444 327 Q448 377 420.5 410 Q393 443 347 443 L279 443 Q226 443 187 406 Q148 369 138 308 L118 191 Q115 175 115 160 Q115 116 137.5 90 Q160 64 200 64 L271 64 Z M335 572 Q278 572 245 602.5 Q212 633 212 685 Q212 697 213 703 L214 711 L272 711 L271 703 Q270 698 270 690 Q270 659 288.5 640.5 Q307 622 338 622 L350 622 Q389 622 415.5 644 Q442 666 446 703 L447 711 L504 711 L503 703 Q496 644 453 608 Q410 572 347 572 L335 572 Z " />
<glyph glyph-name="gcaron" unicode="&#x1e7;" horiz-adv-x="578" d="M169 -203 Q103 -203 63 -171.5 Q23 -140 23 -88 L24 -74 L96 -74 Q94 -104 114.5 -122.5 Q135 -141 169 -141 L252 -141 Q303 -141 338 -106.5 Q373 -72 384 -10 L398 67 Q370 36 336.5 18 Q303 0 271 0 L198 0 Q126 0 84 40 Q42 80 42 149 Q42 171 46 191 L66 308 Q81 398 138 452.5 Q195 507 277 507 L347 507 Q384 507 417 489.5 Q450 472 466 443 L476 499 L546 499 L456 -10 Q440 -101 386 -152 Q332 -203 252 -203 L169 -203 Z M271 64 Q321 64 364 103.5 Q407 143 422 204 L444 327 Q448 377 420.5 410 Q393 443 347 443 L279 443 Q226 443 187 406 Q148 369 138 308 L118 191 Q115 175 115 160 Q115 116 137.5 90 Q160 64 200 64 L271 64 Z M213 742 L278 742 L342 630 L446 742 L517 742 L363 580 L308 580 L213 742 Z " />
<glyph glyph-name="gcircumflex" unicode="&#x11d;" horiz-adv-x="578" d="M169 -203 Q103 -203 63 -171.5 Q23 -140 23 -88 L24 -74 L96 -74 Q94 -104 114.5 -122.5 Q135 -141 169 -141 L252 -141 Q303 -141 338 -106.5 Q373 -72 384 -10 L398 67 Q370 36 336.5 18 Q303 0 271 0 L198 0 Q126 0 84 40 Q42 80 42 149 Q42 171 46 191 L66 308 Q81 398 138 452.5 Q195 507 277 507 L347 507 Q384 507 417 489.5 Q450 472 466 443 L476 499 L546 499 L456 -10 Q440 -101 386 -152 Q332 -203 252 -203 L169 -203 Z M271 64 Q321 64 364 103.5 Q407 143 422 204 L444 327 Q448 377 420.5 410 Q393 443 347 443 L279 443 Q226 443 187 406 Q148 369 138 308 L118 191 Q115 175 115 160 Q115 116 137.5 90 Q160 64 200 64 L271 64 Z M337 742 L392 742 L488 580 L423 580 L359 692 L255 580 L184 580 L337 742 Z " />
<glyph glyph-name="uni0123" unicode="&#x123;" horiz-adv-x="578" d="M169 -203 Q103 -203 63 -171.5 Q23 -140 23 -88 L24 -74 L96 -74 Q94 -104 114.5 -122.5 Q135 -141 169 -141 L252 -141 Q303 -141 338 -106.5 Q373 -72 384 -10 L398 67 Q370 36 336.5 18 Q303 0 271 0 L198 0 Q126 0 84 40 Q42 80 42 149 Q42 171 46 191 L66 308 Q81 398 138 452.5 Q195 507 277 507 L347 507 Q384 507 417 489.5 Q450 472 466 443 L476 499 L546 499 L456 -10 Q440 -101 386 -152 Q332 -203 252 -203 L169 -203 Z M271 64 Q321 64 364 103.5 Q407 143 422 204 L444 327 Q448 377 420.5 410 Q393 443 347 443 L279 443 Q226 443 187 406 Q148 369 138 308 L118 191 Q115 175 115 160 Q115 116 137.5 90 Q160 64 200 64 L271 64 Z M297 594 Q306 649 334 688.5 Q362 728 412 756 L433 768 L464 712 L447 702 Q413 682 394 656.5 Q375 631 369 594 L364 563 L292 563 L297 594 Z " />
<glyph glyph-name="gdotaccent" unicode="&#x121;" horiz-adv-x="578" d="M169 -203 Q103 -203 63 -171.5 Q23 -140 23 -88 L24 -74 L96 -74 Q94 -104 114.5 -122.5 Q135 -141 169 -141 L252 -141 Q303 -141 338 -106.5 Q373 -72 384 -10 L398 67 Q370 36 336.5 18 Q303 0 271 0 L198 0 Q126 0 84 40 Q42 80 42 149 Q42 171 46 191 L66 308 Q81 398 138 452.5 Q195 507 277 507 L347 507 Q384 507 417 489.5 Q450 472 466 443 L476 499 L546 499 L456 -10 Q440 -101 386 -152 Q332 -203 252 -203 L169 -203 Z M271 64 Q321 64 364 103.5 Q407 143 422 204 L444 327 Q448 377 420.5 410 Q393 443 347 443 L279 443 Q226 443 187 406 Q148 369 138 308 L118 191 Q115 175 115 160 Q115 116 137.5 90 Q160 64 200 64 L271 64 Z M337 580 Q316 580 303.5 591.5 Q291 603 291 623 Q291 652 309 670 Q327 688 356 688 Q376 688 388.5 676 Q401 664 401 645 Q401 616 383.5 598 Q366 580 337 580 Z " />
<glyph glyph-name="uni1E21" unicode="&#x1e21;" horiz-adv-x="578" d="M169 -203 Q103 -203 63 -171.5 Q23 -140 23 -88 L24 -74 L96 -74 Q94 -104 114.5 -122.5 Q135 -141 169 -141 L252 -141 Q303 -141 338 -106.5 Q373 -72 384 -10 L398 67 Q370 36 336.5 18 Q303 0 271 0 L198 0 Q126 0 84 40 Q42 80 42 149 Q42 171 46 191 L66 308 Q81 398 138 452.5 Q195 507 277 507 L347 507 Q384 507 417 489.5 Q450 472 466 443 L476 499 L546 499 L456 -10 Q440 -101 386 -152 Q332 -203 252 -203 L169 -203 Z M271 64 Q321 64 364 103.5 Q407 143 422 204 L444 327 Q448 377 420.5 410 Q393 443 347 443 L279 443 Q226 443 187 406 Q148 369 138 308 L118 191 Q115 175 115 160 Q115 116 137.5 90 Q160 64 200 64 L271 64 Z M220 642 L475 642 L466 590 L211 590 L220 642 Z " />
<glyph glyph-name="h" unicode="h" horiz-adv-x="574" d="M155 700 L227 700 L180 430 Q209 466 246 486.5 Q283 507 320 507 L384 507 Q448 507 485 471 Q522 435 522 374 Q522 357 519 337 L460 0 L388 0 L448 339 Q450 348 450 365 Q450 401 432 422 Q414 443 382 443 L316 443 Q269 443 224 406.5 Q179 370 159 313 L104 0 L32 0 L155 700 Z " />
<glyph glyph-name="hbar" unicode="&#x127;" horiz-adv-x="614" d="M424 507 Q488 507 525 471 Q562 435 562 374 Q562 357 559 337 L500 0 L428 0 L488 339 Q490 348 490 365 Q490 401 472 422 Q454 443 422 443 L356 443 Q309 443 264 406.5 Q219 370 199 313 L144 0 L72 0 L172 568 L82 568 L93 626 L182 626 L195 700 L267 700 L254 626 L383 626 L372 568 L244 568 L220 430 Q249 466 286 486.5 Q323 507 360 507 L424 507 Z " />
<glyph glyph-name="uni1E2B" unicode="&#x1e2b;" horiz-adv-x="574" d="M155 700 L227 700 L180 430 Q209 466 246 486.5 Q283 507 320 507 L384 507 Q448 507 485 471 Q522 435 522 374 Q522 357 519 337 L460 0 L388 0 L448 339 Q450 348 450 365 Q450 401 432 422 Q414 443 382 443 L316 443 Q269 443 224 406.5 Q179 370 159 313 L104 0 L32 0 L155 700 Z M211 -202 Q154 -202 121 -172 Q88 -142 88 -91 Q88 -78 89 -71 L90 -63 L148 -63 L147 -71 Q146 -76 146 -84 Q146 -116 164 -134 Q182 -152 214 -152 L226 -152 Q265 -152 291.5 -130 Q318 -108 322 -71 L323 -63 L380 -63 L379 -71 Q372 -130 329 -166 Q286 -202 223 -202 L211 -202 Z " />
<glyph glyph-name="hcircumflex" unicode="&#x125;" horiz-adv-x="574" d="M155 700 L227 700 L180 430 Q209 466 246 486.5 Q283 507 320 507 L384 507 Q448 507 485 471 Q522 435 522 374 Q522 357 519 337 L460 0 L388 0 L448 339 Q450 348 450 365 Q450 401 432 422 Q414 443 382 443 L316 443 Q269 443 224 406.5 Q179 370 159 313 L104 0 L32 0 L155 700 Z M382 943 L437 943 L533 781 L468 781 L404 893 L300 781 L229 781 L382 943 Z " />
<glyph glyph-name="uni1E25" unicode="&#x1e25;" horiz-adv-x="574" d="M155 700 L227 700 L180 430 Q209 466 246 486.5 Q283 507 320 507 L384 507 Q448 507 485 471 Q522 435 522 374 Q522 357 519 337 L460 0 L388 0 L448 339 Q450 348 450 365 Q450 401 432 422 Q414 443 382 443 L316 443 Q269 443 224 406.5 Q179 370 159 313 L104 0 L32 0 L155 700 Z M217 -171 Q196 -171 183.5 -159.5 Q171 -148 171 -128 Q171 -99 189 -81 Q207 -63 236 -63 Q256 -63 268.5 -75 Q281 -87 281 -106 Q281 -135 263.5 -153 Q246 -171 217 -171 Z " />
<glyph glyph-name="i" unicode="i" horiz-adv-x="260" d="M187 574 Q167 574 154.5 586 Q142 598 142 617 Q142 646 159.5 664 Q177 682 205 682 Q226 682 238.5 670.5 Q251 659 251 639 Q251 610 233.5 592 Q216 574 187 574 Z M138 499 L210 499 L122 0 L50 0 L138 499 Z " />
<glyph glyph-name="dotlessi" unicode="&#x131;" horiz-adv-x="236" d="M126 499 L198 499 L110 0 L38 0 L126 499 Z " />
<glyph glyph-name="iacute" unicode="&#xed;" horiz-adv-x="236" d="M126 499 L198 499 L110 0 L38 0 L126 499 Z M248 761 L332 761 L206 609 L138 609 L248 761 Z " />
<glyph glyph-name="ibreve" unicode="&#x12d;" horiz-adv-x="236" d="M126 499 L198 499 L110 0 L38 0 L126 499 Z M175 572 Q118 572 85 602.5 Q52 633 52 685 Q52 697 53 703 L54 711 L112 711 L111 703 Q110 698 110 690 Q110 659 128.5 640.5 Q147 622 178 622 L190 622 Q229 622 255.5 644 Q282 666 286 703 L287 711 L344 711 L343 703 Q336 644 293 608 Q250 572 187 572 L175 572 Z " />
<glyph glyph-name="uni01D0" unicode="&#x1d0;" horiz-adv-x="236" d="M126 499 L198 499 L110 0 L38 0 L126 499 Z M53 742 L118 742 L182 630 L286 742 L357 742 L203 580 L148 580 L53 742 Z " />
<glyph glyph-name="icircumflex" unicode="&#xee;" horiz-adv-x="236" d="M126 499 L198 499 L110 0 L38 0 L126 499 Z M177 742 L232 742 L328 580 L263 580 L199 692 L95 580 L24 580 L177 742 Z " />
<glyph glyph-name="idieresis" unicode="&#xef;" horiz-adv-x="236" d="M126 499 L198 499 L110 0 L38 0 L126 499 Z M76 580 Q57 580 46 591 Q35 602 35 619 Q35 645 51.5 661.5 Q68 678 94 678 Q113 678 124 667 Q135 656 135 639 Q135 613 118.5 596.5 Q102 580 76 580 Z M275 580 Q256 580 245 591 Q234 602 234 619 Q234 645 250.5 661.5 Q267 678 293 678 Q312 678 323 667 Q334 656 334 639 Q334 613 317.5 596.5 Q301 580 275 580 Z " />
<glyph glyph-name="uni1ECB" unicode="&#x1ecb;" horiz-adv-x="260" d="M187 574 Q167 574 154.5 586 Q142 598 142 617 Q142 646 159.5 664 Q177 682 205 682 Q226 682 238.5 670.5 Q251 659 251 639 Q251 610 233.5 592 Q216 574 187 574 Z M138 499 L210 499 L122 0 L50 0 L138 499 Z M56 -171 Q35 -171 22.5 -159.5 Q10 -148 10 -128 Q10 -99 28 -81 Q46 -63 75 -63 Q95 -63 107.5 -75 Q120 -87 120 -106 Q120 -135 102.5 -153 Q85 -171 56 -171 Z " />
<glyph glyph-name="igrave" unicode="&#xec;" horiz-adv-x="236" d="M126 499 L198 499 L110 0 L38 0 L126 499 Z M81 761 L161 761 L217 609 L153 609 L81 761 Z " />
<glyph glyph-name="uni1EC9" unicode="&#x1ec9;" horiz-adv-x="236" d="M126 499 L198 499 L110 0 L38 0 L126 499 Z M146 611 Q150 632 164.5 646 Q179 660 205 675 Q224 687 234 695 Q244 703 246 714 L248 725 Q249 728 249 733 Q249 758 217 758 L197 758 Q156 758 148 716 L90 716 Q105 810 200 810 L220 810 Q310 810 310 745 Q310 739 308 725 L306 714 Q302 691 286.5 676 Q271 661 244 644 Q227 633 218 626 Q209 619 208 611 L205 595 L143 595 L146 611 Z " />
<glyph glyph-name="ij" unicode="&#x133;" horiz-adv-x="502" d="M187 574 Q167 574 154.5 586 Q142 598 142 617 Q142 646 159.5 664 Q177 682 205 682 Q226 682 238.5 670.5 Q251 659 251 639 Q251 610 233.5 592 Q216 574 187 574 Z M138 499 L210 499 L122 0 L50 0 L138 499 Z M429 574 Q409 574 396.5 586 Q384 598 384 617 Q384 646 401.5 664 Q419 682 447 682 Q468 682 480.5 670.5 Q493 659 493 639 Q493 610 475.5 592 Q458 574 429 574 Z M136 -135 L170 -135 Q222 -135 249.5 -107 Q277 -79 288 -15 L379 499 L451 499 L361 -10 Q343 -111 296.5 -155 Q250 -199 159 -199 L125 -199 L136 -135 Z " />
<glyph glyph-name="imacron" unicode="&#x12b;" horiz-adv-x="236" d="M126 499 L198 499 L110 0 L38 0 L126 499 Z M60 642 L315 642 L306 590 L51 590 L60 642 Z " />
<glyph glyph-name="iogonek" unicode="&#x12f;" horiz-adv-x="260" d="M187 574 Q167 574 154.5 586 Q142 598 142 617 Q142 646 159.5 664 Q177 682 205 682 Q226 682 238.5 670.5 Q251 659 251 639 Q251 610 233.5 592 Q216 574 187 574 Z M138 499 L210 499 L122 0 L50 0 L138 499 Z M65 -209 Q21 -209 -4 -189 Q-29 -169 -29 -134 Q-29 -120 -27 -113 L-25 -103 Q-19 -73 2.5 -43.5 Q24 -14 54 0 L122 0 Q89 -16 66.5 -42.5 Q44 -69 38 -99 L36 -109 Q35 -112 35 -119 Q35 -135 45.5 -145 Q56 -155 76 -155 L86 -155 Q99 -155 115 -149.5 Q131 -144 145 -135 L135 -191 Q123 -199 107 -204 Q91 -209 75 -209 L65 -209 Z " />
<glyph glyph-name="itilde" unicode="&#x129;" horiz-adv-x="236" d="M126 499 L198 499 L110 0 L38 0 L126 499 Z M241 572 Q219 572 203.5 582.5 Q188 593 171 612 Q158 626 149.5 632.5 Q141 639 130 639 L120 639 Q103 639 90.5 625.5 Q78 612 73 588 L17 588 Q28 636 56 662.5 Q84 689 124 689 L134 689 Q158 689 174 678 Q190 667 208 647 Q220 634 227.5 628 Q235 622 244 622 L254 622 Q269 622 281 635.5 Q293 649 299 673 L355 673 Q344 625 317 598.5 Q290 572 251 572 L241 572 Z " />
<glyph glyph-name="j" unicode="j" horiz-adv-x="266" d="M193 574 Q173 574 160.5 586 Q148 598 148 617 Q148 646 165.5 664 Q183 682 211 682 Q232 682 244.5 670.5 Q257 659 257 639 Q257 610 239.5 592 Q222 574 193 574 Z M-100 -135 L-66 -135 Q-14 -135 13.5 -107 Q41 -79 52 -15 L143 499 L215 499 L125 -10 Q107 -111 60.5 -155 Q14 -199 -77 -199 L-111 -199 L-100 -135 Z " />
<glyph glyph-name="uni0237" unicode="&#x237;" horiz-adv-x="254" d="M-100 -135 L-65 -135 Q-14 -135 14 -107 Q42 -79 53 -15 L144 499 L216 499 L126 -10 Q109 -110 62 -154.5 Q15 -199 -76 -199 L-111 -199 L-100 -135 Z " />
<glyph glyph-name="jcircumflex" unicode="&#x135;" horiz-adv-x="254" d="M-100 -135 L-65 -135 Q-14 -135 14 -107 Q42 -79 53 -15 L144 499 L216 499 L126 -10 Q109 -110 62 -154.5 Q15 -199 -76 -199 L-111 -199 L-100 -135 Z M195 742 L250 742 L346 580 L281 580 L217 692 L113 580 L42 580 L195 742 Z " />
<glyph glyph-name="k" unicode="k" horiz-adv-x="511" d="M273 285 L455 0 L374 0 L218 239 L133 167 L104 0 L32 0 L155 700 L227 700 L150 260 L434 499 L527 499 L273 285 Z " />
<glyph glyph-name="uni0137" unicode="&#x137;" horiz-adv-x="511" d="M273 285 L455 0 L374 0 L218 239 L133 167 L104 0 L32 0 L155 700 L227 700 L150 260 L434 499 L527 499 L273 285 Z M80 -228 L97 -218 Q132 -196 151 -170 Q170 -144 175 -110 L180 -79 L252 -79 L247 -110 Q238 -165 210 -204.5 Q182 -244 132 -272 L111 -284 L80 -228 Z " />
<glyph glyph-name="kgreenlandic" unicode="&#x138;" horiz-adv-x="523" d="M278 277 L467 0 L386 0 L225 232 L131 151 L104 0 L32 0 L120 499 L192 499 L147 244 L444 499 L537 499 L278 277 Z " />
<glyph glyph-name="l" unicode="l" horiz-adv-x="268" d="M170 0 Q109 0 80.5 21 Q52 42 52 92 Q52 115 56 136 L155 700 L227 700 L128 136 Q125 121 125 109 Q125 84 138 74 Q151 64 181 64 L215 64 L204 0 L170 0 Z " />
<glyph glyph-name="lacute" unicode="&#x13a;" horiz-adv-x="268" d="M170 0 Q109 0 80.5 21 Q52 42 52 92 Q52 115 56 136 L155 700 L227 700 L128 136 Q125 121 125 109 Q125 84 138 74 Q151 64 181 64 L215 64 L204 0 L170 0 Z M283 933 L367 933 L241 781 L173 781 L283 933 Z " />
<glyph glyph-name="lcaron" unicode="&#x13e;" horiz-adv-x="398" d="M170 0 Q109 0 80.5 21 Q52 42 52 92 Q52 115 56 136 L155 700 L227 700 L128 136 Q125 121 125 109 Q125 84 138 74 Q151 64 181 64 L215 64 L204 0 L170 0 Z M289 551 L306 561 Q341 581 360 607.5 Q379 634 384 669 L389 700 L461 700 L456 669 Q447 614 419 574.5 Q391 535 341 507 L320 495 L289 551 Z " />
<glyph glyph-name="uni013C" unicode="&#x13c;" horiz-adv-x="268" d="M170 0 Q109 0 80.5 21 Q52 42 52 92 Q52 115 56 136 L155 700 L227 700 L128 136 Q125 121 125 109 Q125 84 138 74 Q151 64 181 64 L215 64 L204 0 L170 0 Z M-32 -228 L-15 -218 Q20 -196 39 -170 Q58 -144 63 -110 L68 -79 L140 -79 L135 -110 Q126 -165 98 -204.5 Q70 -244 20 -272 L-1 -284 L-32 -228 Z " />
<glyph glyph-name="ldot" unicode="&#x140;" horiz-adv-x="384" d="M170 0 Q109 0 80.5 21 Q52 42 52 92 Q52 115 56 136 L155 700 L227 700 L128 136 Q125 121 125 109 Q125 84 138 74 Q151 64 181 64 L215 64 L204 0 L170 0 Z M310 203 Q289 203 276.5 214.5 Q264 226 264 246 Q264 275 281.5 293 Q299 311 328 311 Q348 311 360.5 299 Q373 287 373 268 Q373 239 355.5 221 Q338 203 310 203 Z " />
<glyph glyph-name="uni1E37" unicode="&#x1e37;" horiz-adv-x="268" d="M170 0 Q109 0 80.5 21 Q52 42 52 92 Q52 115 56 136 L155 700 L227 700 L128 136 Q125 121 125 109 Q125 84 138 74 Q151 64 181 64 L215 64 L204 0 L170 0 Z M88 -171 Q67 -171 54.5 -159.5 Q42 -148 42 -128 Q42 -99 60 -81 Q78 -63 107 -63 Q127 -63 139.5 -75 Q152 -87 152 -106 Q152 -135 134.5 -153 Q117 -171 88 -171 Z " />
<glyph glyph-name="uni1E39" unicode="&#x1e39;" horiz-adv-x="268" d="M170 0 Q109 0 80.5 21 Q52 42 52 92 Q52 115 56 136 L155 700 L227 700 L128 136 Q125 121 125 109 Q125 84 138 74 Q151 64 181 64 L215 64 L204 0 L170 0 Z M88 -171 Q67 -171 54.5 -159.5 Q42 -148 42 -128 Q42 -99 60 -81 Q78 -63 107 -63 Q127 -63 139.5 -75 Q152 -87 152 -106 Q152 -135 134.5 -153 Q117 -171 88 -171 Z M89 843 L344 843 L335 791 L80 791 L89 843 Z " />
<glyph glyph-name="uni1E3B" unicode="&#x1e3b;" horiz-adv-x="268" d="M170 0 Q109 0 80.5 21 Q52 42 52 92 Q52 115 56 136 L155 700 L227 700 L128 136 Q125 121 125 109 Q125 84 138 74 Q151 64 181 64 L215 64 L204 0 L170 0 Z M-22 -72 L233 -72 L224 -124 L-31 -124 L-22 -72 Z " />
<glyph glyph-name="lslash" unicode="&#x142;" horiz-adv-x="301" d="M161 136 Q158 121 158 109 Q158 84 171 74 Q184 64 214 64 L248 64 L237 0 L203 0 Q142 0 113.5 21 Q85 42 85 92 Q85 115 89 136 L114 279 L18 228 L30 297 L126 348 L188 700 L260 700 L206 390 L299 439 L287 370 L193 321 L161 136 Z " />
<glyph glyph-name="m" unicode="m" horiz-adv-x="836" d="M657 507 Q717 507 751.5 473.5 Q786 440 786 383 Q786 365 783 347 L722 0 L650 0 L712 349 Q714 358 714 374 Q714 406 698.5 424.5 Q683 443 655 443 L598 443 Q557 443 522.5 412.5 Q488 382 472 332 L413 0 L341 0 L401 343 Q404 358 404 372 Q404 405 389.5 424 Q375 443 350 443 L293 443 Q252 443 215 407 Q178 371 159 313 L104 0 L32 0 L120 499 L190 499 L177 427 Q202 463 235 485 Q268 507 297 507 L356 507 Q398 507 427 485 Q456 463 467 425 Q494 463 528.5 485 Q563 507 596 507 L657 507 Z " />
<glyph glyph-name="uni1E43" unicode="&#x1e43;" horiz-adv-x="836" d="M657 507 Q717 507 751.5 473.5 Q786 440 786 383 Q786 365 783 347 L722 0 L650 0 L712 349 Q714 358 714 374 Q714 406 698.5 424.5 Q683 443 655 443 L598 443 Q557 443 522.5 412.5 Q488 382 472 332 L413 0 L341 0 L401 343 Q404 358 404 372 Q404 405 389.5 424 Q375 443 350 443 L293 443 Q252 443 215 407 Q178 371 159 313 L104 0 L32 0 L120 499 L190 499 L177 427 Q202 463 235 485 Q268 507 297 507 L356 507 Q398 507 427 485 Q456 463 467 425 Q494 463 528.5 485 Q563 507 596 507 L657 507 Z M347 -171 Q326 -171 313.5 -159.5 Q301 -148 301 -128 Q301 -99 319 -81 Q337 -63 366 -63 Q386 -63 398.5 -75 Q411 -87 411 -106 Q411 -135 393.5 -153 Q376 -171 347 -171 Z " />
<glyph glyph-name="n" unicode="n" horiz-adv-x="572" d="M120 499 L190 499 L177 425 Q208 464 245.5 485.5 Q283 507 320 507 L384 507 Q447 507 483.5 471.5 Q520 436 520 375 Q520 357 517 337 L458 0 L386 0 L446 339 Q448 348 448 366 Q448 402 430 422.5 Q412 443 380 443 L316 443 Q269 443 224 406 Q179 369 159 311 L104 0 L32 0 L120 499 Z " />
<glyph glyph-name="nacute" unicode="&#x144;" horiz-adv-x="572" d="M120 499 L190 499 L177 425 Q208 464 245.5 485.5 Q283 507 320 507 L384 507 Q447 507 483.5 471.5 Q520 436 520 375 Q520 357 517 337 L458 0 L386 0 L446 339 Q448 348 448 366 Q448 402 430 422.5 Q412 443 380 443 L316 443 Q269 443 224 406 Q179 369 159 311 L104 0 L32 0 L120 499 Z M430 732 L514 732 L388 580 L320 580 L430 732 Z " />
<glyph glyph-name="napostrophe" unicode="&#x149;" horiz-adv-x="691" d="M239 499 L309 499 L296 425 Q327 464 364.5 485.5 Q402 507 439 507 L503 507 Q566 507 602.5 471.5 Q639 436 639 375 Q639 357 636 337 L577 0 L505 0 L565 339 Q567 348 567 366 Q567 402 549 422.5 Q531 443 499 443 L435 443 Q388 443 343 406 Q298 369 278 311 L223 0 L151 0 L239 499 Z M69 551 L86 561 Q121 581 140 607.5 Q159 634 164 669 L169 700 L241 700 L236 669 Q227 614 199 574.5 Q171 535 121 507 L100 495 L69 551 Z " />
<glyph glyph-name="ncaron" unicode="&#x148;" horiz-adv-x="572" d="M120 499 L190 499 L177 425 Q208 464 245.5 485.5 Q283 507 320 507 L384 507 Q447 507 483.5 471.5 Q520 436 520 375 Q520 357 517 337 L458 0 L386 0 L446 339 Q448 348 448 366 Q448 402 430 422.5 Q412 443 380 443 L316 443 Q269 443 224 406 Q179 369 159 311 L104 0 L32 0 L120 499 Z M229 742 L294 742 L358 630 L462 742 L533 742 L379 580 L324 580 L229 742 Z " />
<glyph glyph-name="uni0146" unicode="&#x146;" horiz-adv-x="572" d="M120 499 L190 499 L177 425 Q208 464 245.5 485.5 Q283 507 320 507 L384 507 Q447 507 483.5 471.5 Q520 436 520 375 Q520 357 517 337 L458 0 L386 0 L446 339 Q448 348 448 366 Q448 402 430 422.5 Q412 443 380 443 L316 443 Q269 443 224 406 Q179 369 159 311 L104 0 L32 0 L120 499 Z M100 -228 L117 -218 Q152 -196 171 -170 Q190 -144 195 -110 L200 -79 L272 -79 L267 -110 Q258 -165 230 -204.5 Q202 -244 152 -272 L131 -284 L100 -228 Z " />
<glyph glyph-name="uni1E45" unicode="&#x1e45;" horiz-adv-x="572" d="M120 499 L190 499 L177 425 Q208 464 245.5 485.5 Q283 507 320 507 L384 507 Q447 507 483.5 471.5 Q520 436 520 375 Q520 357 517 337 L458 0 L386 0 L446 339 Q448 348 448 366 Q448 402 430 422.5 Q412 443 380 443 L316 443 Q269 443 224 406 Q179 369 159 311 L104 0 L32 0 L120 499 Z M353 580 Q332 580 319.5 591.5 Q307 603 307 623 Q307 652 325 670 Q343 688 372 688 Q392 688 404.5 676 Q417 664 417 645 Q417 616 399.5 598 Q382 580 353 580 Z " />
<glyph glyph-name="uni1E47" unicode="&#x1e47;" horiz-adv-x="572" d="M120 499 L190 499 L177 425 Q208 464 245.5 485.5 Q283 507 320 507 L384 507 Q447 507 483.5 471.5 Q520 436 520 375 Q520 357 517 337 L458 0 L386 0 L446 339 Q448 348 448 366 Q448 402 430 422.5 Q412 443 380 443 L316 443 Q269 443 224 406 Q179 369 159 311 L104 0 L32 0 L120 499 Z M220 -171 Q199 -171 186.5 -159.5 Q174 -148 174 -128 Q174 -99 192 -81 Q210 -63 239 -63 Q259 -63 271.5 -75 Q284 -87 284 -106 Q284 -135 266.5 -153 Q249 -171 220 -171 Z " />
<glyph glyph-name="eng" unicode="&#x14b;" horiz-adv-x="572" d="M230 -135 L265 -135 Q317 -135 344.5 -107 Q372 -79 383 -15 L446 339 Q448 348 448 365 Q448 401 430 422 Q412 443 380 443 L316 443 Q269 443 224 406 Q179 369 159 311 L104 0 L32 0 L120 499 L190 499 L177 425 Q205 461 247 484 Q289 507 325 507 L393 507 Q452 507 486.5 471.5 Q521 436 521 377 Q521 365 517 337 L456 -10 Q438 -111 391.5 -155 Q345 -199 254 -199 L219 -199 L230 -135 Z " />
<glyph glyph-name="uni1E49" unicode="&#x1e49;" horiz-adv-x="572" d="M120 499 L190 499 L177 425 Q208 464 245.5 485.5 Q283 507 320 507 L384 507 Q447 507 483.5 471.5 Q520 436 520 375 Q520 357 517 337 L458 0 L386 0 L446 339 Q448 348 448 366 Q448 402 430 422.5 Q412 443 380 443 L316 443 Q269 443 224 406 Q179 369 159 311 L104 0 L32 0 L120 499 Z M110 -72 L365 -72 L356 -124 L101 -124 L110 -72 Z " />
<glyph glyph-name="ntilde" unicode="&#xf1;" horiz-adv-x="572" d="M120 499 L190 499 L177 425 Q208 464 245.5 485.5 Q283 507 320 507 L384 507 Q447 507 483.5 471.5 Q520 436 520 375 Q520 357 517 337 L458 0 L386 0 L446 339 Q448 348 448 366 Q448 402 430 422.5 Q412 443 380 443 L316 443 Q269 443 224 406 Q179 369 159 311 L104 0 L32 0 L120 499 Z M417 572 Q395 572 379.5 582.5 Q364 593 347 612 Q334 626 325.5 632.5 Q317 639 306 639 L296 639 Q279 639 266.5 625.5 Q254 612 249 588 L193 588 Q204 636 232 662.5 Q260 689 300 689 L310 689 Q334 689 350 678 Q366 667 384 647 Q396 634 403.5 628 Q411 622 420 622 L430 622 Q445 622 457 635.5 Q469 649 475 673 L531 673 Q520 625 493 598.5 Q466 572 427 572 L417 572 Z " />
<glyph glyph-name="o" unicode="o" horiz-adv-x="570" d="M208 -8 Q130 -8 85 32.5 Q40 73 40 142 Q40 155 44 181 L68 318 Q84 407 139.5 457 Q195 507 278 507 L360 507 Q439 507 484.5 466.5 Q530 426 530 357 Q530 344 526 318 L502 181 Q486 92 430 42 Q374 -8 290 -8 L208 -8 Z M290 56 Q343 56 381.5 90.5 Q420 125 430 181 L454 318 Q457 333 457 346 Q457 390 431 416.5 Q405 443 360 443 L278 443 Q223 443 186.5 410 Q150 377 140 318 L116 181 Q113 166 113 152 Q113 108 138.5 82 Q164 56 208 56 L290 56 Z " />
<glyph glyph-name="oacute" unicode="&#xf3;" horiz-adv-x="570" d="M208 -8 Q130 -8 85 32.5 Q40 73 40 142 Q40 155 44 181 L68 318 Q84 407 139.5 457 Q195 507 278 507 L360 507 Q439 507 484.5 466.5 Q530 426 530 357 Q530 344 526 318 L502 181 Q486 92 430 42 Q374 -8 290 -8 L208 -8 Z M290 56 Q343 56 381.5 90.5 Q420 125 430 181 L454 318 Q457 333 457 346 Q457 390 431 416.5 Q405 443 360 443 L278 443 Q223 443 186.5 410 Q150 377 140 318 L116 181 Q113 166 113 152 Q113 108 138.5 82 Q164 56 208 56 L290 56 Z M421 732 L505 732 L379 580 L311 580 L421 732 Z " />
<glyph glyph-name="obreve" unicode="&#x14f;" horiz-adv-x="570" d="M208 -8 Q130 -8 85 32.5 Q40 73 40 142 Q40 155 44 181 L68 318 Q84 407 139.5 457 Q195 507 278 507 L360 507 Q439 507 484.5 466.5 Q530 426 530 357 Q530 344 526 318 L502 181 Q486 92 430 42 Q374 -8 290 -8 L208 -8 Z M290 56 Q343 56 381.5 90.5 Q420 125 430 181 L454 318 Q457 333 457 346 Q457 390 431 416.5 Q405 443 360 443 L278 443 Q223 443 186.5 410 Q150 377 140 318 L116 181 Q113 166 113 152 Q113 108 138.5 82 Q164 56 208 56 L290 56 Z M342 572 Q285 572 252 602.5 Q219 633 219 685 Q219 697 220 703 L221 711 L279 711 L278 703 Q277 698 277 690 Q277 659 295.5 640.5 Q314 622 345 622 L357 622 Q396 622 422.5 644 Q449 666 453 703 L454 711 L511 711 L510 703 Q503 644 460 608 Q417 572 354 572 L342 572 Z " />
<glyph glyph-name="uni01D2" unicode="&#x1d2;" horiz-adv-x="570" d="M208 -8 Q130 -8 85 32.5 Q40 73 40 142 Q40 155 44 181 L68 318 Q84 407 139.5 457 Q195 507 278 507 L360 507 Q439 507 484.5 466.5 Q530 426 530 357 Q530 344 526 318 L502 181 Q486 92 430 42 Q374 -8 290 -8 L208 -8 Z M290 56 Q343 56 381.5 90.5 Q420 125 430 181 L454 318 Q457 333 457 346 Q457 390 431 416.5 Q405 443 360 443 L278 443 Q223 443 186.5 410 Q150 377 140 318 L116 181 Q113 166 113 152 Q113 108 138.5 82 Q164 56 208 56 L290 56 Z M220 742 L285 742 L349 630 L453 742 L524 742 L370 580 L315 580 L220 742 Z " />
<glyph glyph-name="ocircumflex" unicode="&#xf4;" horiz-adv-x="570" d="M208 -8 Q130 -8 85 32.5 Q40 73 40 142 Q40 155 44 181 L68 318 Q84 407 139.5 457 Q195 507 278 507 L360 507 Q439 507 484.5 466.5 Q530 426 530 357 Q530 344 526 318 L502 181 Q486 92 430 42 Q374 -8 290 -8 L208 -8 Z M290 56 Q343 56 381.5 90.5 Q420 125 430 181 L454 318 Q457 333 457 346 Q457 390 431 416.5 Q405 443 360 443 L278 443 Q223 443 186.5 410 Q150 377 140 318 L116 181 Q113 166 113 152 Q113 108 138.5 82 Q164 56 208 56 L290 56 Z M344 742 L399 742 L495 580 L430 580 L366 692 L262 580 L191 580 L344 742 Z " />
<glyph glyph-name="uni1ED1" unicode="&#x1ed1;" horiz-adv-x="570" d="M208 -8 Q130 -8 85 32.5 Q40 73 40 142 Q40 155 44 181 L68 318 Q84 407 139.5 457 Q195 507 278 507 L360 507 Q439 507 484.5 466.5 Q530 426 530 357 Q530 344 526 318 L502 181 Q486 92 430 42 Q374 -8 290 -8 L208 -8 Z M290 56 Q343 56 381.5 90.5 Q420 125 430 181 L454 318 Q457 333 457 346 Q457 390 431 416.5 Q405 443 360 443 L278 443 Q223 443 186.5 410 Q150 377 140 318 L116 181 Q113 166 113 152 Q113 108 138.5 82 Q164 56 208 56 L290 56 Z M562 848 L632 848 L536 732 L478 732 L562 848 Z M344 742 L399 742 L495 580 L430 580 L366 692 L262 580 L191 580 L344 742 Z " />
<glyph glyph-name="uni1ED9" unicode="&#x1ed9;" horiz-adv-x="570" d="M208 -8 Q130 -8 85 32.5 Q40 73 40 142 Q40 155 44 181 L68 318 Q84 407 139.5 457 Q195 507 278 507 L360 507 Q439 507 484.5 466.5 Q530 426 530 357 Q530 344 526 318 L502 181 Q486 92 430 42 Q374 -8 290 -8 L208 -8 Z M290 56 Q343 56 381.5 90.5 Q420 125 430 181 L454 318 Q457 333 457 346 Q457 390 431 416.5 Q405 443 360 443 L278 443 Q223 443 186.5 410 Q150 377 140 318 L116 181 Q113 166 113 152 Q113 108 138.5 82 Q164 56 208 56 L290 56 Z M217 -171 Q196 -171 183.5 -159.5 Q171 -148 171 -128 Q171 -99 189 -81 Q207 -63 236 -63 Q256 -63 268.5 -75 Q281 -87 281 -106 Q281 -135 263.5 -153 Q246 -171 217 -171 Z M344 742 L399 742 L495 580 L430 580 L366 692 L262 580 L191 580 L344 742 Z " />
<glyph glyph-name="uni1ED3" unicode="&#x1ed3;" horiz-adv-x="570" d="M208 -8 Q130 -8 85 32.5 Q40 73 40 142 Q40 155 44 181 L68 318 Q84 407 139.5 457 Q195 507 278 507 L360 507 Q439 507 484.5 466.5 Q530 426 530 357 Q530 344 526 318 L502 181 Q486 92 430 42 Q374 -8 290 -8 L208 -8 Z M290 56 Q343 56 381.5 90.5 Q420 125 430 181 L454 318 Q457 333 457 346 Q457 390 431 416.5 Q405 443 360 443 L278 443 Q223 443 186.5 410 Q150 377 140 318 L116 181 Q113 166 113 152 Q113 108 138.5 82 Q164 56 208 56 L290 56 Z M450 848 L518 848 L562 732 L506 732 L450 848 Z M344 742 L399 742 L495 580 L430 580 L366 692 L262 580 L191 580 L344 742 Z " />
<glyph glyph-name="uni1ED5" unicode="&#x1ed5;" horiz-adv-x="570" d="M208 -8 Q130 -8 85 32.5 Q40 73 40 142 Q40 155 44 181 L68 318 Q84 407 139.5 457 Q195 507 278 507 L360 507 Q439 507 484.5 466.5 Q530 426 530 357 Q530 344 526 318 L502 181 Q486 92 430 42 Q374 -8 290 -8 L208 -8 Z M290 56 Q343 56 381.5 90.5 Q420 125 430 181 L454 318 Q457 333 457 346 Q457 390 431 416.5 Q405 443 360 443 L278 443 Q223 443 186.5 410 Q150 377 140 318 L116 181 Q113 166 113 152 Q113 108 138.5 82 Q164 56 208 56 L290 56 Z M481 730 Q485 746 497.5 757.5 Q510 769 530 781 Q546 791 554.5 798 Q563 805 564 814 L565 823 Q568 850 540 850 L524 850 Q489 850 483 816 L435 816 Q447 894 526 894 L542 894 Q616 894 616 835 L615 823 L614 814 Q612 795 599 782 Q586 769 563 756 Q552 750 543 743.5 Q534 737 533 730 L531 722 L479 722 L481 730 Z M344 742 L399 742 L495 580 L430 580 L366 692 L262 580 L191 580 L344 742 Z " />
<glyph glyph-name="uni1ED7" unicode="&#x1ed7;" horiz-adv-x="570" d="M208 -8 Q130 -8 85 32.5 Q40 73 40 142 Q40 155 44 181 L68 318 Q84 407 139.5 457 Q195 507 278 507 L360 507 Q439 507 484.5 466.5 Q530 426 530 357 Q530 344 526 318 L502 181 Q486 92 430 42 Q374 -8 290 -8 L208 -8 Z M290 56 Q343 56 381.5 90.5 Q420 125 430 181 L454 318 Q457 333 457 346 Q457 390 431 416.5 Q405 443 360 443 L278 443 Q223 443 186.5 410 Q150 377 140 318 L116 181 Q113 166 113 152 Q113 108 138.5 82 Q164 56 208 56 L290 56 Z M439 777 Q419 777 406.5 785.5 Q394 794 376 812 Q366 824 358 830 Q350 836 340 836 L331 836 Q317 836 306.5 824 Q296 812 291 791 L242 791 Q250 833 274 856.5 Q298 880 333 880 L342 880 Q363 880 378 870 Q393 860 408 843 Q419 831 425.5 826 Q432 821 440 821 L449 821 Q463 821 473 833 Q483 845 487 866 L536 866 Q528 824 505 800.5 Q482 777 448 777 L439 777 Z M344 742 L399 742 L495 580 L430 580 L366 692 L262 580 L191 580 L344 742 Z " />
<glyph glyph-name="odieresis" unicode="&#xf6;" horiz-adv-x="570" d="M208 -8 Q130 -8 85 32.5 Q40 73 40 142 Q40 155 44 181 L68 318 Q84 407 139.5 457 Q195 507 278 507 L360 507 Q439 507 484.5 466.5 Q530 426 530 357 Q530 344 526 318 L502 181 Q486 92 430 42 Q374 -8 290 -8 L208 -8 Z M290 56 Q343 56 381.5 90.5 Q420 125 430 181 L454 318 Q457 333 457 346 Q457 390 431 416.5 Q405 443 360 443 L278 443 Q223 443 186.5 410 Q150 377 140 318 L116 181 Q113 166 113 152 Q113 108 138.5 82 Q164 56 208 56 L290 56 Z M243 580 Q224 580 213 591 Q202 602 202 619 Q202 645 218.5 661.5 Q235 678 261 678 Q280 678 291 667 Q302 656 302 639 Q302 613 285.5 596.5 Q269 580 243 580 Z M442 580 Q423 580 412 591 Q401 602 401 619 Q401 645 417.5 661.5 Q434 678 460 678 Q479 678 490 667 Q501 656 501 639 Q501 613 484.5 596.5 Q468 580 442 580 Z " />
<glyph glyph-name="uni1ECD" unicode="&#x1ecd;" horiz-adv-x="570" d="M208 -8 Q130 -8 85 32.5 Q40 73 40 142 Q40 155 44 181 L68 318 Q84 407 139.5 457 Q195 507 278 507 L360 507 Q439 507 484.5 466.5 Q530 426 530 357 Q530 344 526 318 L502 181 Q486 92 430 42 Q374 -8 290 -8 L208 -8 Z M290 56 Q343 56 381.5 90.5 Q420 125 430 181 L454 318 Q457 333 457 346 Q457 390 431 416.5 Q405 443 360 443 L278 443 Q223 443 186.5 410 Q150 377 140 318 L116 181 Q113 166 113 152 Q113 108 138.5 82 Q164 56 208 56 L290 56 Z M217 -171 Q196 -171 183.5 -159.5 Q171 -148 171 -128 Q171 -99 189 -81 Q207 -63 236 -63 Q256 -63 268.5 -75 Q281 -87 281 -106 Q281 -135 263.5 -153 Q246 -171 217 -171 Z " />
<glyph glyph-name="ograve" unicode="&#xf2;" horiz-adv-x="570" d="M208 -8 Q130 -8 85 32.5 Q40 73 40 142 Q40 155 44 181 L68 318 Q84 407 139.5 457 Q195 507 278 507 L360 507 Q439 507 484.5 466.5 Q530 426 530 357 Q530 344 526 318 L502 181 Q486 92 430 42 Q374 -8 290 -8 L208 -8 Z M290 56 Q343 56 381.5 90.5 Q420 125 430 181 L454 318 Q457 333 457 346 Q457 390 431 416.5 Q405 443 360 443 L278 443 Q223 443 186.5 410 Q150 377 140 318 L116 181 Q113 166 113 152 Q113 108 138.5 82 Q164 56 208 56 L290 56 Z M240 732 L320 732 L376 580 L312 580 L240 732 Z " />
<glyph glyph-name="uni1ECF" unicode="&#x1ecf;" horiz-adv-x="570" d="M208 -8 Q130 -8 85 32.5 Q40 73 40 142 Q40 155 44 181 L68 318 Q84 407 139.5 457 Q195 507 278 507 L360 507 Q439 507 484.5 466.5 Q530 426 530 357 Q530 344 526 318 L502 181 Q486 92 430 42 Q374 -8 290 -8 L208 -8 Z M290 56 Q343 56 381.5 90.5 Q420 125 430 181 L454 318 Q457 333 457 346 Q457 390 431 416.5 Q405 443 360 443 L278 443 Q223 443 186.5 410 Q150 377 140 318 L116 181 Q113 166 113 152 Q113 108 138.5 82 Q164 56 208 56 L290 56 Z M309 582 Q313 603 327.5 617 Q342 631 368 646 Q387 658 397 666 Q407 674 409 685 L411 696 Q412 699 412 704 Q412 729 380 729 L360 729 Q319 729 311 687 L253 687 Q268 781 363 781 L383 781 Q473 781 473 716 Q473 710 471 696 L469 685 Q465 662 449.5 647 Q434 632 407 615 Q390 604 381 597 Q372 590 371 582 L368 566 L306 566 L309 582 Z " />
<glyph glyph-name="ohorn" unicode="&#x1a1;" horiz-adv-x="634" d="M686 507 L684 495 Q671 418 630 373 Q589 328 527 323 L526 318 L502 181 Q486 92 430 42 Q374 -8 290 -8 L208 -8 Q130 -8 85 32.5 Q40 73 40 142 Q40 155 44 181 L68 318 Q84 407 139.5 457 Q195 507 278 507 L360 507 Q431 507 475 474 Q519 441 528 383 Q561 388 584.5 417 Q608 446 616 495 L618 507 L686 507 Z M454 318 Q457 333 457 346 Q457 390 431 416.5 Q405 443 360 443 L278 443 Q223 443 186.5 410 Q150 377 140 318 L116 181 Q113 166 113 152 Q113 108 138.5 82 Q164 56 208 56 L290 56 Q343 56 381.5 90.5 Q420 125 430 181 L454 318 Z " />
<glyph glyph-name="uni1EDB" unicode="&#x1edb;" horiz-adv-x="634" d="M686 507 L684 495 Q671 418 630 373 Q589 328 527 323 L526 318 L502 181 Q486 92 430 42 Q374 -8 290 -8 L208 -8 Q130 -8 85 32.5 Q40 73 40 142 Q40 155 44 181 L68 318 Q84 407 139.5 457 Q195 507 278 507 L360 507 Q431 507 475 474 Q519 441 528 383 Q561 388 584.5 417 Q608 446 616 495 L618 507 L686 507 Z M454 318 Q457 333 457 346 Q457 390 431 416.5 Q405 443 360 443 L278 443 Q223 443 186.5 410 Q150 377 140 318 L116 181 Q113 166 113 152 Q113 108 138.5 82 Q164 56 208 56 L290 56 Q343 56 381.5 90.5 Q420 125 430 181 L454 318 Z M421 732 L505 732 L379 580 L311 580 L421 732 Z " />
<glyph glyph-name="uni1EE3" unicode="&#x1ee3;" horiz-adv-x="634" d="M686 507 L684 495 Q671 418 630 373 Q589 328 527 323 L526 318 L502 181 Q486 92 430 42 Q374 -8 290 -8 L208 -8 Q130 -8 85 32.5 Q40 73 40 142 Q40 155 44 181 L68 318 Q84 407 139.5 457 Q195 507 278 507 L360 507 Q431 507 475 474 Q519 441 528 383 Q561 388 584.5 417 Q608 446 616 495 L618 507 L686 507 Z M454 318 Q457 333 457 346 Q457 390 431 416.5 Q405 443 360 443 L278 443 Q223 443 186.5 410 Q150 377 140 318 L116 181 Q113 166 113 152 Q113 108 138.5 82 Q164 56 208 56 L290 56 Q343 56 381.5 90.5 Q420 125 430 181 L454 318 Z M211 -171 Q190 -171 177.5 -159.5 Q165 -148 165 -128 Q165 -99 183 -81 Q201 -63 230 -63 Q250 -63 262.5 -75 Q275 -87 275 -106 Q275 -135 257.5 -153 Q240 -171 211 -171 Z " />
<glyph glyph-name="uni1EDD" unicode="&#x1edd;" horiz-adv-x="634" d="M686 507 L684 495 Q671 418 630 373 Q589 328 527 323 L526 318 L502 181 Q486 92 430 42 Q374 -8 290 -8 L208 -8 Q130 -8 85 32.5 Q40 73 40 142 Q40 155 44 181 L68 318 Q84 407 139.5 457 Q195 507 278 507 L360 507 Q431 507 475 474 Q519 441 528 383 Q561 388 584.5 417 Q608 446 616 495 L618 507 L686 507 Z M454 318 Q457 333 457 346 Q457 390 431 416.5 Q405 443 360 443 L278 443 Q223 443 186.5 410 Q150 377 140 318 L116 181 Q113 166 113 152 Q113 108 138.5 82 Q164 56 208 56 L290 56 Q343 56 381.5 90.5 Q420 125 430 181 L454 318 Z M240 732 L320 732 L376 580 L312 580 L240 732 Z " />
<glyph glyph-name="uni1EDF" unicode="&#x1edf;" horiz-adv-x="634" d="M686 507 L684 495 Q671 418 630 373 Q589 328 527 323 L526 318 L502 181 Q486 92 430 42 Q374 -8 290 -8 L208 -8 Q130 -8 85 32.5 Q40 73 40 142 Q40 155 44 181 L68 318 Q84 407 139.5 457 Q195 507 278 507 L360 507 Q431 507 475 474 Q519 441 528 383 Q561 388 584.5 417 Q608 446 616 495 L618 507 L686 507 Z M454 318 Q457 333 457 346 Q457 390 431 416.5 Q405 443 360 443 L278 443 Q223 443 186.5 410 Q150 377 140 318 L116 181 Q113 166 113 152 Q113 108 138.5 82 Q164 56 208 56 L290 56 Q343 56 381.5 90.5 Q420 125 430 181 L454 318 Z M309 582 Q313 603 327.5 617 Q342 631 368 646 Q387 658 397 666 Q407 674 409 685 L411 696 Q412 699 412 704 Q412 729 380 729 L360 729 Q319 729 311 687 L253 687 Q268 781 363 781 L383 781 Q473 781 473 716 Q473 710 471 696 L469 685 Q465 662 449.5 647 Q434 632 407 615 Q390 604 381 597 Q372 590 371 582 L368 566 L306 566 L309 582 Z " />
<glyph glyph-name="uni1EE1" unicode="&#x1ee1;" horiz-adv-x="634" d="M686 507 L684 495 Q671 418 630 373 Q589 328 527 323 L526 318 L502 181 Q486 92 430 42 Q374 -8 290 -8 L208 -8 Q130 -8 85 32.5 Q40 73 40 142 Q40 155 44 181 L68 318 Q84 407 139.5 457 Q195 507 278 507 L360 507 Q431 507 475 474 Q519 441 528 383 Q561 388 584.5 417 Q608 446 616 495 L618 507 L686 507 Z M454 318 Q457 333 457 346 Q457 390 431 416.5 Q405 443 360 443 L278 443 Q223 443 186.5 410 Q150 377 140 318 L116 181 Q113 166 113 152 Q113 108 138.5 82 Q164 56 208 56 L290 56 Q343 56 381.5 90.5 Q420 125 430 181 L454 318 Z M408 572 Q386 572 370.5 582.5 Q355 593 338 612 Q325 626 316.5 632.5 Q308 639 297 639 L287 639 Q270 639 257.5 625.5 Q245 612 240 588 L184 588 Q195 636 223 662.5 Q251 689 291 689 L301 689 Q325 689 341 678 Q357 667 375 647 Q387 634 394.5 628 Q402 622 411 622 L421 622 Q436 622 448 635.5 Q460 649 466 673 L522 673 Q511 625 484 598.5 Q457 572 418 572 L408 572 Z " />
<glyph glyph-name="ohungarumlaut" unicode="&#x151;" horiz-adv-x="570" d="M208 -8 Q130 -8 85 32.5 Q40 73 40 142 Q40 155 44 181 L68 318 Q84 407 139.5 457 Q195 507 278 507 L360 507 Q439 507 484.5 466.5 Q530 426 530 357 Q530 344 526 318 L502 181 Q486 92 430 42 Q374 -8 290 -8 L208 -8 Z M290 56 Q343 56 381.5 90.5 Q420 125 430 181 L454 318 Q457 333 457 346 Q457 390 431 416.5 Q405 443 360 443 L278 443 Q223 443 186.5 410 Q150 377 140 318 L116 181 Q113 166 113 152 Q113 108 138.5 82 Q164 56 208 56 L290 56 Z M344 732 L422 732 L300 580 L238 580 L344 732 Z M473 732 L551 732 L429 580 L367 580 L473 732 Z " />
<glyph glyph-name="omacron" unicode="&#x14d;" horiz-adv-x="570" d="M208 -8 Q130 -8 85 32.5 Q40 73 40 142 Q40 155 44 181 L68 318 Q84 407 139.5 457 Q195 507 278 507 L360 507 Q439 507 484.5 466.5 Q530 426 530 357 Q530 344 526 318 L502 181 Q486 92 430 42 Q374 -8 290 -8 L208 -8 Z M290 56 Q343 56 381.5 90.5 Q420 125 430 181 L454 318 Q457 333 457 346 Q457 390 431 416.5 Q405 443 360 443 L278 443 Q223 443 186.5 410 Q150 377 140 318 L116 181 Q113 166 113 152 Q113 108 138.5 82 Q164 56 208 56 L290 56 Z M227 642 L482 642 L473 590 L218 590 L227 642 Z " />
<glyph glyph-name="oslash" unicode="&#xf8;" horiz-adv-x="570" d="M476 473 Q502 453 516 423.5 Q530 394 530 357 Q530 344 526 318 L502 181 Q486 92 430 42 Q374 -8 290 -8 L208 -8 Q175 -8 146 0 L121 -35 L51 -35 L94 26 Q68 46 54 75.5 Q40 105 40 142 Q40 155 44 181 L68 318 Q84 407 139.5 457 Q195 507 278 507 L360 507 Q394 507 424 499 L449 535 L519 535 L476 473 Z M116 181 Q113 166 113 152 Q113 111 135 86 L383 441 Q369 443 360 443 L278 443 Q223 443 186.5 410 Q150 377 140 318 L116 181 Z M454 318 Q457 333 457 346 Q457 385 434 413 L186 58 Q200 56 208 56 L290 56 Q343 56 381.5 90.5 Q420 125 430 181 L454 318 Z " />
<glyph glyph-name="oslashacute" unicode="&#x1ff;" horiz-adv-x="570" d="M476 473 Q502 453 516 423.5 Q530 394 530 357 Q530 344 526 318 L502 181 Q486 92 430 42 Q374 -8 290 -8 L208 -8 Q175 -8 146 0 L121 -35 L51 -35 L94 26 Q68 46 54 75.5 Q40 105 40 142 Q40 155 44 181 L68 318 Q84 407 139.5 457 Q195 507 278 507 L360 507 Q394 507 424 499 L449 535 L519 535 L476 473 Z M116 181 Q113 166 113 152 Q113 111 135 86 L383 441 Q369 443 360 443 L278 443 Q223 443 186.5 410 Q150 377 140 318 L116 181 Z M454 318 Q457 333 457 346 Q457 385 434 413 L186 58 Q200 56 208 56 L290 56 Q343 56 381.5 90.5 Q420 125 430 181 L454 318 Z M421 732 L505 732 L379 580 L311 580 L421 732 Z " />
<glyph glyph-name="otilde" unicode="&#xf5;" horiz-adv-x="570" d="M208 -8 Q130 -8 85 32.5 Q40 73 40 142 Q40 155 44 181 L68 318 Q84 407 139.5 457 Q195 507 278 507 L360 507 Q439 507 484.5 466.5 Q530 426 530 357 Q530 344 526 318 L502 181 Q486 92 430 42 Q374 -8 290 -8 L208 -8 Z M290 56 Q343 56 381.5 90.5 Q420 125 430 181 L454 318 Q457 333 457 346 Q457 390 431 416.5 Q405 443 360 443 L278 443 Q223 443 186.5 410 Q150 377 140 318 L116 181 Q113 166 113 152 Q113 108 138.5 82 Q164 56 208 56 L290 56 Z M408 572 Q386 572 370.5 582.5 Q355 593 338 612 Q325 626 316.5 632.5 Q308 639 297 639 L287 639 Q270 639 257.5 625.5 Q245 612 240 588 L184 588 Q195 636 223 662.5 Q251 689 291 689 L301 689 Q325 689 341 678 Q357 667 375 647 Q387 634 394.5 628 Q402 622 411 622 L421 622 Q436 622 448 635.5 Q460 649 466 673 L522 673 Q511 625 484 598.5 Q457 572 418 572 L408 572 Z " />
<glyph glyph-name="oe" unicode="&#x153;" horiz-adv-x="930" d="M738 507 Q809 507 852 466.5 Q895 426 895 358 Q895 341 892 321 L877 233 L507 233 L496 173 Q493 160 493 146 Q493 104 518.5 80 Q544 56 589 56 L663 56 Q713 56 748 83.5 Q783 111 791 157 L861 157 Q847 83 793 37.5 Q739 -8 663 -8 L589 -8 Q537 -8 497.5 13 Q458 34 442 72 Q414 34 371.5 13 Q329 -8 285 -8 L208 -8 Q130 -8 85 32.5 Q40 73 40 141 Q40 162 44 181 L69 318 Q86 407 140.5 457 Q195 507 277 507 L358 507 Q410 507 448 486.5 Q486 466 504 430 Q564 507 658 507 L738 507 Z M450 318 Q453 333 453 347 Q453 390 427.5 416.5 Q402 443 358 443 L277 443 Q224 443 187.5 410 Q151 377 141 318 L116 181 Q113 165 113 151 Q113 107 138.5 81.5 Q164 56 208 56 L285 56 Q339 56 377 91 Q415 126 425 181 L450 318 Z M820 321 Q823 338 823 353 Q823 394 800.5 418.5 Q778 443 738 443 L658 443 Q605 443 568.5 407.5 Q532 372 521 316 L517 295 L815 295 L820 321 Z " />
<glyph glyph-name="p" unicode="p" horiz-adv-x="578" d="M120 499 L190 499 L178 431 Q205 466 239.5 486.5 Q274 507 305 507 L377 507 Q452 507 495.5 467.5 Q539 428 539 361 Q539 349 535 321 L513 198 Q496 101 440.5 46.5 Q385 -8 304 -8 L232 -8 Q194 -8 161.5 9.5 Q129 27 114 55 L69 -199 L-3 -199 L120 499 Z M302 56 Q356 56 392.5 93.5 Q429 131 441 198 L463 321 Q466 336 466 350 Q466 393 442 418 Q418 443 375 443 L305 443 Q263 443 223.5 411 Q184 379 162 327 L135 177 Q133 122 160.5 89 Q188 56 236 56 L302 56 Z " />
<glyph glyph-name="thorn" unicode="&#xfe;" horiz-adv-x="578" d="M155 700 L227 700 L180 434 Q207 467 242 487 Q277 507 307 507 L377 507 Q452 507 495.5 467.5 Q539 428 539 360 Q539 349 535 321 L513 198 Q496 101 440 46.5 Q384 -8 303 -8 L231 -8 Q192 -8 159.5 9.5 Q127 27 113 55 L68 -203 L-4 -203 L155 700 Z M301 56 Q355 56 392 93.5 Q429 131 441 198 L463 321 Q466 336 466 349 Q466 392 441.5 417.5 Q417 443 375 443 L305 443 Q262 443 223 411.5 Q184 380 161 327 L135 177 Q132 122 159.5 89 Q187 56 235 56 L301 56 Z " />
<glyph glyph-name="q" unicode="q" horiz-adv-x="578" d="M396 59 Q370 29 335 10.5 Q300 -8 269 -8 L196 -8 Q124 -8 82 32 Q40 72 40 141 Q40 163 44 182 L66 307 Q82 401 137.5 454 Q193 507 275 507 L347 507 Q387 507 419.5 489.5 Q452 472 466 443 L476 499 L546 499 L422 -203 L350 -203 L396 59 Z M270 56 Q322 56 363 94 Q404 132 420 194 L444 327 Q448 379 421.5 411 Q395 443 347 443 L275 443 Q221 443 185 407 Q149 371 138 307 L116 182 Q113 166 113 151 Q113 107 136 81.5 Q159 56 199 56 L270 56 Z " />
<glyph glyph-name="r" unicode="r" horiz-adv-x="355" d="M120 499 L190 499 L176 422 Q204 459 243.5 480 Q283 501 325 501 L379 501 L368 436 L325 436 Q260 436 213.5 395.5 Q167 355 155 288 L104 0 L32 0 L120 499 Z " />
<glyph glyph-name="racute" unicode="&#x155;" horiz-adv-x="355" d="M120 499 L190 499 L176 422 Q204 459 243.5 480 Q283 501 325 501 L379 501 L368 436 L325 436 Q260 436 213.5 395.5 Q167 355 155 288 L104 0 L32 0 L120 499 Z M336 732 L420 732 L294 580 L226 580 L336 732 Z " />
<glyph glyph-name="rcaron" unicode="&#x159;" horiz-adv-x="355" d="M120 499 L190 499 L176 422 Q204 459 243.5 480 Q283 501 325 501 L379 501 L368 436 L325 436 Q260 436 213.5 395.5 Q167 355 155 288 L104 0 L32 0 L120 499 Z M135 742 L200 742 L264 630 L368 742 L439 742 L285 580 L230 580 L135 742 Z " />
<glyph glyph-name="uni0157" unicode="&#x157;" horiz-adv-x="355" d="M120 499 L190 499 L176 422 Q204 459 243.5 480 Q283 501 325 501 L379 501 L368 436 L325 436 Q260 436 213.5 395.5 Q167 355 155 288 L104 0 L32 0 L120 499 Z M-82 -228 L-65 -218 Q-30 -196 -11 -170 Q8 -144 13 -110 L18 -79 L90 -79 L85 -110 Q76 -165 48 -204.5 Q20 -244 -30 -272 L-51 -284 L-82 -228 Z " />
<glyph glyph-name="uni1E5B" unicode="&#x1e5b;" horiz-adv-x="355" d="M120 499 L190 499 L176 422 Q204 459 243.5 480 Q283 501 325 501 L379 501 L368 436 L325 436 Q260 436 213.5 395.5 Q167 355 155 288 L104 0 L32 0 L120 499 Z M38 -171 Q17 -171 4.5 -159.5 Q-8 -148 -8 -128 Q-8 -99 10 -81 Q28 -63 57 -63 Q77 -63 89.5 -75 Q102 -87 102 -106 Q102 -135 84.5 -153 Q67 -171 38 -171 Z " />
<glyph glyph-name="uni1E5D" unicode="&#x1e5d;" horiz-adv-x="355" d="M120 499 L190 499 L176 422 Q204 459 243.5 480 Q283 501 325 501 L379 501 L368 436 L325 436 Q260 436 213.5 395.5 Q167 355 155 288 L104 0 L32 0 L120 499 Z M38 -171 Q17 -171 4.5 -159.5 Q-8 -148 -8 -128 Q-8 -99 10 -81 Q28 -63 57 -63 Q77 -63 89.5 -75 Q102 -87 102 -106 Q102 -135 84.5 -153 Q67 -171 38 -171 Z M142 642 L397 642 L388 590 L133 590 L142 642 Z " />
<glyph glyph-name="uni1E5F" unicode="&#x1e5f;" horiz-adv-x="355" d="M120 499 L190 499 L176 422 Q204 459 243.5 480 Q283 501 325 501 L379 501 L368 436 L325 436 Q260 436 213.5 395.5 Q167 355 155 288 L104 0 L32 0 L120 499 Z M-72 -72 L183 -72 L174 -124 L-81 -124 L-72 -72 Z " />
<glyph glyph-name="s" unicode="s" horiz-adv-x="520" d="M183 -8 Q111 -8 70 26 Q29 60 29 117 Q29 132 32 148 L102 148 Q100 134 100 128 Q100 94 122 74 Q144 54 183 54 L270 54 Q315 54 343.5 70.5 Q372 87 378 117 L385 151 Q386 154 386 159 Q386 176 373.5 188 Q361 200 340 204 L172 234 Q127 242 101 267.5 Q75 293 75 328 Q75 333 77 345 L83 378 Q94 439 139 473 Q184 507 254 507 L340 507 Q407 507 445.5 475 Q484 443 484 389 Q484 372 482 363 L412 363 Q413 368 413 379 Q413 409 393.5 427 Q374 445 340 445 L254 445 Q214 445 188 427 Q162 409 155 378 L149 349 Q145 330 159 315.5 Q173 301 199 296 L366 266 Q409 258 434 233 Q459 208 459 173 Q459 167 457 155 L450 115 Q439 57 392 24.5 Q345 -8 270 -8 L183 -8 Z " />
<glyph glyph-name="sacute" unicode="&#x15b;" horiz-adv-x="520" d="M183 -8 Q111 -8 70 26 Q29 60 29 117 Q29 132 32 148 L102 148 Q100 134 100 128 Q100 94 122 74 Q144 54 183 54 L270 54 Q315 54 343.5 70.5 Q372 87 378 117 L385 151 Q386 154 386 159 Q386 176 373.5 188 Q361 200 340 204 L172 234 Q127 242 101 267.5 Q75 293 75 328 Q75 333 77 345 L83 378 Q94 439 139 473 Q184 507 254 507 L340 507 Q407 507 445.5 475 Q484 443 484 389 Q484 372 482 363 L412 363 Q413 368 413 379 Q413 409 393.5 427 Q374 445 340 445 L254 445 Q214 445 188 427 Q162 409 155 378 L149 349 Q145 330 159 315.5 Q173 301 199 296 L366 266 Q409 258 434 233 Q459 208 459 173 Q459 167 457 155 L450 115 Q439 57 392 24.5 Q345 -8 270 -8 L183 -8 Z M386 732 L470 732 L344 580 L276 580 L386 732 Z " />
<glyph glyph-name="scaron" unicode="&#x161;" horiz-adv-x="520" d="M183 -8 Q111 -8 70 26 Q29 60 29 117 Q29 132 32 148 L102 148 Q100 134 100 128 Q100 94 122 74 Q144 54 183 54 L270 54 Q315 54 343.5 70.5 Q372 87 378 117 L385 151 Q386 154 386 159 Q386 176 373.5 188 Q361 200 340 204 L172 234 Q127 242 101 267.5 Q75 293 75 328 Q75 333 77 345 L83 378 Q94 439 139 473 Q184 507 254 507 L340 507 Q407 507 445.5 475 Q484 443 484 389 Q484 372 482 363 L412 363 Q413 368 413 379 Q413 409 393.5 427 Q374 445 340 445 L254 445 Q214 445 188 427 Q162 409 155 378 L149 349 Q145 330 159 315.5 Q173 301 199 296 L366 266 Q409 258 434 233 Q459 208 459 173 Q459 167 457 155 L450 115 Q439 57 392 24.5 Q345 -8 270 -8 L183 -8 Z M185 742 L250 742 L314 630 L418 742 L489 742 L335 580 L280 580 L185 742 Z " />
<glyph glyph-name="scedilla" unicode="&#x15f;" horiz-adv-x="520" d="M412 363 Q413 368 413 379 Q413 409 393.5 427 Q374 445 340 445 L254 445 Q214 445 188 427 Q162 409 155 378 L149 349 Q145 330 159 315.5 Q173 301 199 296 L366 266 Q409 258 434 233 Q459 208 459 173 Q459 167 457 155 L450 115 Q439 57 392 24.5 Q345 -8 270 -8 L251 -8 L222 -54 L225 -54 Q261 -54 281.5 -70.5 Q302 -87 302 -116 Q302 -125 301 -130 L299 -141 Q292 -180 262.5 -201.5 Q233 -223 186 -223 L125 -223 L133 -175 L186 -175 Q209 -175 224 -166 Q239 -157 242 -141 L244 -130 Q247 -115 236 -105.5 Q225 -96 205 -96 L158 -96 L166 -52 L193 -8 L183 -8 Q111 -8 70 26 Q29 60 29 117 Q29 132 32 148 L102 148 Q100 134 100 128 Q100 94 122 74 Q144 54 183 54 L270 54 Q315 54 343.5 70.5 Q372 87 378 117 L385 151 Q386 154 386 159 Q386 176 373.5 188 Q361 200 340 204 L172 234 Q127 242 101 267.5 Q75 293 75 328 Q75 333 77 345 L83 378 Q94 439 139 473 Q184 507 254 507 L340 507 Q407 507 445.5 475 Q484 443 484 389 Q484 372 482 363 L412 363 Z " />
<glyph glyph-name="scircumflex" unicode="&#x15d;" horiz-adv-x="520" d="M183 -8 Q111 -8 70 26 Q29 60 29 117 Q29 132 32 148 L102 148 Q100 134 100 128 Q100 94 122 74 Q144 54 183 54 L270 54 Q315 54 343.5 70.5 Q372 87 378 117 L385 151 Q386 154 386 159 Q386 176 373.5 188 Q361 200 340 204 L172 234 Q127 242 101 267.5 Q75 293 75 328 Q75 333 77 345 L83 378 Q94 439 139 473 Q184 507 254 507 L340 507 Q407 507 445.5 475 Q484 443 484 389 Q484 372 482 363 L412 363 Q413 368 413 379 Q413 409 393.5 427 Q374 445 340 445 L254 445 Q214 445 188 427 Q162 409 155 378 L149 349 Q145 330 159 315.5 Q173 301 199 296 L366 266 Q409 258 434 233 Q459 208 459 173 Q459 167 457 155 L450 115 Q439 57 392 24.5 Q345 -8 270 -8 L183 -8 Z M309 742 L364 742 L460 580 L395 580 L331 692 L227 580 L156 580 L309 742 Z " />
<glyph glyph-name="uni0219" unicode="&#x219;" horiz-adv-x="520" d="M183 -8 Q111 -8 70 26 Q29 60 29 117 Q29 132 32 148 L102 148 Q100 134 100 128 Q100 94 122 74 Q144 54 183 54 L270 54 Q315 54 343.5 70.5 Q372 87 378 117 L385 151 Q386 154 386 159 Q386 176 373.5 188 Q361 200 340 204 L172 234 Q127 242 101 267.5 Q75 293 75 328 Q75 333 77 345 L83 378 Q94 439 139 473 Q184 507 254 507 L340 507 Q407 507 445.5 475 Q484 443 484 389 Q484 372 482 363 L412 363 Q413 368 413 379 Q413 409 393.5 427 Q374 445 340 445 L254 445 Q214 445 188 427 Q162 409 155 378 L149 349 Q145 330 159 315.5 Q173 301 199 296 L366 266 Q409 258 434 233 Q459 208 459 173 Q459 167 457 155 L450 115 Q439 57 392 24.5 Q345 -8 270 -8 L183 -8 Z M80 -228 L97 -218 Q132 -196 151 -170 Q170 -144 175 -110 L180 -79 L252 -79 L247 -110 Q238 -165 210 -204.5 Q182 -244 132 -272 L111 -284 L80 -228 Z " />
<glyph glyph-name="uni1E61" unicode="&#x1e61;" horiz-adv-x="520" d="M183 -8 Q111 -8 70 26 Q29 60 29 117 Q29 132 32 148 L102 148 Q100 134 100 128 Q100 94 122 74 Q144 54 183 54 L270 54 Q315 54 343.5 70.5 Q372 87 378 117 L385 151 Q386 154 386 159 Q386 176 373.5 188 Q361 200 340 204 L172 234 Q127 242 101 267.5 Q75 293 75 328 Q75 333 77 345 L83 378 Q94 439 139 473 Q184 507 254 507 L340 507 Q407 507 445.5 475 Q484 443 484 389 Q484 372 482 363 L412 363 Q413 368 413 379 Q413 409 393.5 427 Q374 445 340 445 L254 445 Q214 445 188 427 Q162 409 155 378 L149 349 Q145 330 159 315.5 Q173 301 199 296 L366 266 Q409 258 434 233 Q459 208 459 173 Q459 167 457 155 L450 115 Q439 57 392 24.5 Q345 -8 270 -8 L183 -8 Z M309 580 Q288 580 275.5 591.5 Q263 603 263 623 Q263 652 281 670 Q299 688 328 688 Q348 688 360.5 676 Q373 664 373 645 Q373 616 355.5 598 Q338 580 309 580 Z " />
<glyph glyph-name="uni1E63" unicode="&#x1e63;" horiz-adv-x="520" d="M183 -8 Q111 -8 70 26 Q29 60 29 117 Q29 132 32 148 L102 148 Q100 134 100 128 Q100 94 122 74 Q144 54 183 54 L270 54 Q315 54 343.5 70.5 Q372 87 378 117 L385 151 Q386 154 386 159 Q386 176 373.5 188 Q361 200 340 204 L172 234 Q127 242 101 267.5 Q75 293 75 328 Q75 333 77 345 L83 378 Q94 439 139 473 Q184 507 254 507 L340 507 Q407 507 445.5 475 Q484 443 484 389 Q484 372 482 363 L412 363 Q413 368 413 379 Q413 409 393.5 427 Q374 445 340 445 L254 445 Q214 445 188 427 Q162 409 155 378 L149 349 Q145 330 159 315.5 Q173 301 199 296 L366 266 Q409 258 434 233 Q459 208 459 173 Q459 167 457 155 L450 115 Q439 57 392 24.5 Q345 -8 270 -8 L183 -8 Z M200 -171 Q179 -171 166.5 -159.5 Q154 -148 154 -128 Q154 -99 172 -81 Q190 -63 219 -63 Q239 -63 251.5 -75 Q264 -87 264 -106 Q264 -135 246.5 -153 Q229 -171 200 -171 Z " />
<glyph glyph-name="germandbls" unicode="&#xdf;" horiz-adv-x="673" d="M391 -8 Q323 -8 284 24.5 Q245 57 245 112 Q245 126 248 141 L318 141 Q316 129 316 123 Q316 92 336 74 Q356 56 391 56 L442 56 Q483 56 511 76.5 Q539 97 544 130 L549 160 Q550 164 550 171 Q550 194 534 213.5 Q518 233 486 259 Q449 289 429.5 314 Q410 339 410 373 Q410 383 411 388 L414 408 Q424 461 460 490 Q496 519 557 523 Q559 532 559 549 Q559 592 531 616 Q503 640 453 640 L373 640 Q310 640 268.5 605 Q227 570 216 508 L126 0 L54 0 L126 406 L40 406 L51 470 L137 470 L144 508 Q161 600 221.5 652 Q282 704 373 704 L453 704 Q532 704 580.5 663 Q629 622 629 553 Q629 538 626 521 L617 467 L581 467 Q539 467 514.5 452 Q490 437 486 408 L483 388 Q480 366 494 348.5 Q508 331 541 304 Q581 273 602 246 Q623 219 623 181 Q623 174 621 160 L616 130 Q605 65 559 28.5 Q513 -8 442 -8 L391 -8 Z " />
<glyph glyph-name="t" unicode="t" horiz-adv-x="382" d="M228 0 Q162 0 131.5 23.5 Q101 47 101 99 Q101 118 106 146 L157 435 L69 435 L80 499 L168 499 L195 650 L267 650 L240 499 L370 499 L359 435 L229 435 L178 146 Q176 136 176 118 Q176 88 190.5 76 Q205 64 240 64 L293 64 L281 0 L228 0 Z " />
<glyph glyph-name="tbar" unicode="&#x167;" horiz-adv-x="372" d="M233 435 L209 299 L335 299 L324 237 L198 237 L182 146 Q180 136 180 118 Q180 88 194.5 76 Q209 64 244 64 L297 64 L285 0 L232 0 Q166 0 135.5 23.5 Q105 47 105 99 Q105 118 110 146 L126 237 L34 237 L45 299 L137 299 L161 435 L73 435 L84 499 L172 499 L199 650 L271 650 L244 499 L374 499 L363 435 L233 435 Z " />
<glyph glyph-name="tcaron" unicode="&#x165;" horiz-adv-x="532" d="M228 0 Q162 0 131.5 23.5 Q101 47 101 99 Q101 118 106 146 L157 435 L69 435 L80 499 L168 499 L195 650 L267 650 L240 499 L370 499 L359 435 L229 435 L178 146 Q176 136 176 118 Q176 88 190.5 76 Q205 64 240 64 L293 64 L281 0 L228 0 Z M423 551 L440 561 Q475 581 494 607.5 Q513 634 518 669 L523 700 L595 700 L590 669 Q581 614 553 574.5 Q525 535 475 507 L454 495 L423 551 Z " />
<glyph glyph-name="uni0163" unicode="&#x163;" horiz-adv-x="382" d="M178 146 Q176 136 176 118 Q176 88 190.5 76 Q205 64 240 64 L293 64 L281 0 L228 0 L214 0 L180 -54 L183 -54 Q219 -54 239.5 -70.5 Q260 -87 260 -116 Q260 -125 259 -130 L257 -141 Q250 -180 220.5 -201.5 Q191 -223 144 -223 L83 -223 L91 -175 L144 -175 Q167 -175 182 -166 Q197 -157 200 -141 L202 -130 Q205 -115 194 -105.5 Q183 -96 163 -96 L116 -96 L124 -52 L161 9 Q130 19 116 41 Q102 63 102 100 Q102 123 106 146 L157 435 L69 435 L80 499 L168 499 L195 650 L267 650 L240 499 L370 499 L359 435 L229 435 L178 146 Z " />
<glyph glyph-name="uni021B" unicode="&#x21b;" horiz-adv-x="382" d="M228 0 Q162 0 131.5 23.5 Q101 47 101 99 Q101 118 106 146 L157 435 L69 435 L80 499 L168 499 L195 650 L267 650 L240 499 L370 499 L359 435 L229 435 L178 146 Q176 136 176 118 Q176 88 190.5 76 Q205 64 240 64 L293 64 L281 0 L228 0 Z M38 -228 L55 -218 Q90 -196 109 -170 Q128 -144 133 -110 L138 -79 L210 -79 L205 -110 Q196 -165 168 -204.5 Q140 -244 90 -272 L69 -284 L38 -228 Z " />
<glyph glyph-name="uni1E97" unicode="&#x1e97;" horiz-adv-x="382" d="M228 0 Q162 0 131.5 23.5 Q101 47 101 99 Q101 118 106 146 L157 435 L69 435 L80 499 L168 499 L195 650 L267 650 L240 499 L370 499 L359 435 L229 435 L178 146 Q176 136 176 118 Q176 88 190.5 76 Q205 64 240 64 L293 64 L281 0 L228 0 Z M155 731 Q136 731 125 742 Q114 753 114 770 Q114 796 130.5 812.5 Q147 829 173 829 Q192 829 203 818 Q214 807 214 790 Q214 764 197.5 747.5 Q181 731 155 731 Z M354 731 Q335 731 324 742 Q313 753 313 770 Q313 796 329.5 812.5 Q346 829 372 829 Q391 829 402 818 Q413 807 413 790 Q413 764 396.5 747.5 Q380 731 354 731 Z " />
<glyph glyph-name="uni1E6D" unicode="&#x1e6d;" horiz-adv-x="382" d="M228 0 Q162 0 131.5 23.5 Q101 47 101 99 Q101 118 106 146 L157 435 L69 435 L80 499 L168 499 L195 650 L267 650 L240 499 L370 499 L359 435 L229 435 L178 146 Q176 136 176 118 Q176 88 190.5 76 Q205 64 240 64 L293 64 L281 0 L228 0 Z M158 -171 Q137 -171 124.5 -159.5 Q112 -148 112 -128 Q112 -99 130 -81 Q148 -63 177 -63 Q197 -63 209.5 -75 Q222 -87 222 -106 Q222 -135 204.5 -153 Q187 -171 158 -171 Z " />
</font>
</svg>
