<?xml version="1.0" encoding="UTF-8"?>
<svg xmlns="http://www.w3.org/2000/svg" xmlns:xlink="http://www.w3.org/1999/xlink" version="1.2" >
<font id="Stavian Regular">
<font-face  font-family="Stavian" units-per-em="1000" ascent="1000" descent="-250" font-style="normal" font-weight="400" font-stretch="normal" cap-height="700" x-height="499" underline-position="-75" underline-thickness="50" />
<missing-glyph  horiz-adv-x="509" d="M50 712 L459 712 L459 0 L50 0 L50 712 Z M392 66 L392 646 L118 646 L118 66 L392 66 Z " />
<glyph glyph-name="null" d="" />
<glyph glyph-name="nonmarkingreturn" unicode="&#xd;" horiz-adv-x="260" d="" />
<glyph glyph-name="space" unicode="&#x20;" horiz-adv-x="260" d="" />
<glyph glyph-name="A" unicode="A" horiz-adv-x="647" d="M477 194 L170 194 L98 0 L22 0 L291 700 L325 700 Q358 700 373 660 L527 256 L528 256 L528 254 L625 0 L549 0 L477 194 Z M193 256 L454 256 L324 604 L323 604 L193 256 Z " />
<glyph glyph-name="Aacute" unicode="&#xc1;" horiz-adv-x="647" d="M477 194 L170 194 L98 0 L22 0 L291 700 L325 700 Q358 700 373 660 L527 256 L528 256 L528 254 L625 0 L549 0 L477 194 Z M193 256 L454 256 L324 604 L323 604 L193 256 Z M376 933 L458 933 L359 781 L293 781 L376 933 Z " />
<glyph glyph-name="Abreve" unicode="&#x102;" horiz-adv-x="647" d="M477 194 L170 194 L98 0 L22 0 L291 700 L325 700 Q358 700 373 660 L527 256 L528 256 L528 254 L625 0 L549 0 L477 194 Z M193 256 L454 256 L324 604 L323 604 L193 256 Z M318 773 Q256 773 217.5 809 Q179 845 179 904 L179 912 L237 912 L237 904 Q237 867 259 845 Q281 823 318 823 L330 823 Q367 823 389.5 845 Q412 867 412 904 L412 912 L469 912 L469 904 Q469 845 430.5 809 Q392 773 330 773 L318 773 Z " />
<glyph glyph-name="uni1EAE" unicode="&#x1eae;" horiz-adv-x="647" d="M477 194 L170 194 L98 0 L22 0 L291 700 L325 700 Q358 700 373 660 L527 256 L528 256 L528 254 L625 0 L549 0 L477 194 Z M193 256 L454 256 L324 604 L323 604 L193 256 Z M357 1078 L427 1078 L351 962 L293 962 L357 1078 Z M318 773 Q256 773 217.5 809 Q179 845 179 904 L179 912 L237 912 L237 904 Q237 867 259 845 Q281 823 318 823 L330 823 Q367 823 389.5 845 Q412 867 412 904 L412 912 L469 912 L469 904 Q469 845 430.5 809 Q392 773 330 773 L318 773 Z " />
<glyph glyph-name="uni1EB6" unicode="&#x1eb6;" horiz-adv-x="647" d="M477 194 L170 194 L98 0 L22 0 L291 700 L325 700 Q358 700 373 660 L527 256 L528 256 L528 254 L625 0 L549 0 L477 194 Z M193 256 L454 256 L324 604 L323 604 L193 256 Z M324 -179 Q300 -179 285 -164 Q270 -149 270 -125 Q270 -101 285 -86 Q300 -71 324 -71 Q348 -71 363 -86 Q378 -101 378 -125 Q378 -149 363 -164 Q348 -179 324 -179 Z M318 773 Q256 773 217.5 809 Q179 845 179 904 L179 912 L237 912 L237 904 Q237 867 259 845 Q281 823 318 823 L330 823 Q367 823 389.5 845 Q412 867 412 904 L412 912 L469 912 L469 904 Q469 845 430.5 809 Q392 773 330 773 L318 773 Z " />
<glyph glyph-name="uni1EB0" unicode="&#x1eb0;" horiz-adv-x="647" d="M477 194 L170 194 L98 0 L22 0 L291 700 L325 700 Q358 700 373 660 L527 256 L528 256 L528 254 L625 0 L549 0 L477 194 Z M193 256 L454 256 L324 604 L323 604 L193 256 Z M221 1078 L291 1078 L355 962 L297 962 L221 1078 Z M318 773 Q256 773 217.5 809 Q179 845 179 904 L179 912 L237 912 L237 904 Q237 867 259 845 Q281 823 318 823 L330 823 Q367 823 389.5 845 Q412 867 412 904 L412 912 L469 912 L469 904 Q469 845 430.5 809 Q392 773 330 773 L318 773 Z " />
<glyph glyph-name="uni1EB2" unicode="&#x1eb2;" horiz-adv-x="647" d="M477 194 L170 194 L98 0 L22 0 L291 700 L325 700 Q358 700 373 660 L527 256 L528 256 L528 254 L625 0 L549 0 L477 194 Z M193 256 L454 256 L324 604 L323 604 L193 256 Z M297 950 Q297 967 307.5 978.5 Q318 990 337 1002 Q351 1012 358 1018.5 Q365 1025 365 1034 L365 1043 Q365 1056 357 1063 Q349 1070 335 1070 L319 1070 Q284 1070 284 1036 L236 1036 Q236 1114 319 1114 L335 1114 Q415 1114 415 1043 L415 1034 Q415 1015 403.5 1002 Q392 989 373 977 Q361 969 355 963 Q349 957 349 950 L349 942 L297 942 L297 950 Z M318 773 Q256 773 217.5 809 Q179 845 179 904 L179 912 L237 912 L237 904 Q237 867 259 845 Q281 823 318 823 L330 823 Q367 823 389.5 845 Q412 867 412 904 L412 912 L469 912 L469 904 Q469 845 430.5 809 Q392 773 330 773 L318 773 Z " />
<glyph glyph-name="uni1EB4" unicode="&#x1eb4;" horiz-adv-x="647" d="M477 194 L170 194 L98 0 L22 0 L291 700 L325 700 Q358 700 373 660 L527 256 L528 256 L528 254 L625 0 L549 0 L477 194 Z M193 256 L454 256 L324 604 L323 604 L193 256 Z M379 954 Q359 954 345 963 Q331 972 314 989 Q301 1001 293 1007 Q285 1013 276 1013 L267 1013 Q254 1013 245 1000.5 Q236 988 235 968 L186 968 Q187 1008 209.5 1032.5 Q232 1057 267 1057 L276 1057 Q299 1057 314.5 1047 Q330 1037 346 1020 Q358 1008 364.5 1003 Q371 998 379 998 L388 998 Q400 998 408.5 1010.5 Q417 1023 418 1043 L467 1043 Q466 1003 444 978.5 Q422 954 388 954 L379 954 Z M318 773 Q256 773 217.5 809 Q179 845 179 904 L179 912 L237 912 L237 904 Q237 867 259 845 Q281 823 318 823 L330 823 Q367 823 389.5 845 Q412 867 412 904 L412 912 L469 912 L469 904 Q469 845 430.5 809 Q392 773 330 773 L318 773 Z " />
<glyph glyph-name="uni01CD" unicode="&#x1cd;" horiz-adv-x="647" d="M477 194 L170 194 L98 0 L22 0 L291 700 L325 700 Q358 700 373 660 L527 256 L528 256 L528 254 L625 0 L549 0 L477 194 Z M193 256 L454 256 L324 604 L323 604 L193 256 Z M172 943 L240 943 L324 831 L408 943 L476 943 L351 781 L296 781 L172 943 Z " />
<glyph glyph-name="Acircumflex" unicode="&#xc2;" horiz-adv-x="647" d="M477 194 L170 194 L98 0 L22 0 L291 700 L325 700 Q358 700 373 660 L527 256 L528 256 L528 254 L625 0 L549 0 L477 194 Z M193 256 L454 256 L324 604 L323 604 L193 256 Z M296 943 L351 943 L476 781 L408 781 L324 893 L240 781 L172 781 L296 943 Z " />
<glyph glyph-name="uni1EA4" unicode="&#x1ea4;" horiz-adv-x="647" d="M477 194 L170 194 L98 0 L22 0 L291 700 L325 700 Q358 700 373 660 L527 256 L528 256 L528 254 L625 0 L549 0 L477 194 Z M193 256 L454 256 L324 604 L323 604 L193 256 Z M496 1049 L566 1049 L490 933 L432 933 L496 1049 Z M296 943 L351 943 L476 781 L408 781 L324 893 L240 781 L172 781 L296 943 Z " />
<glyph glyph-name="uni1EAC" unicode="&#x1eac;" horiz-adv-x="647" d="M477 194 L170 194 L98 0 L22 0 L291 700 L325 700 Q358 700 373 660 L527 256 L528 256 L528 254 L625 0 L549 0 L477 194 Z M193 256 L454 256 L324 604 L323 604 L193 256 Z M324 -179 Q300 -179 285 -164 Q270 -149 270 -125 Q270 -101 285 -86 Q300 -71 324 -71 Q348 -71 363 -86 Q378 -101 378 -125 Q378 -149 363 -164 Q348 -179 324 -179 Z M296 943 L351 943 L476 781 L408 781 L324 893 L240 781 L172 781 L296 943 Z " />
<glyph glyph-name="uni1EA6" unicode="&#x1ea6;" horiz-adv-x="647" d="M477 194 L170 194 L98 0 L22 0 L291 700 L325 700 Q358 700 373 660 L527 256 L528 256 L528 254 L625 0 L549 0 L477 194 Z M193 256 L454 256 L324 604 L323 604 L193 256 Z M382 1049 L452 1049 L516 933 L458 933 L382 1049 Z M296 943 L351 943 L476 781 L408 781 L324 893 L240 781 L172 781 L296 943 Z " />
<glyph glyph-name="uni1EA8" unicode="&#x1ea8;" horiz-adv-x="647" d="M477 194 L170 194 L98 0 L22 0 L291 700 L325 700 Q358 700 373 660 L527 256 L528 256 L528 254 L625 0 L549 0 L477 194 Z M193 256 L454 256 L324 604 L323 604 L193 256 Z M435 931 Q435 948 445.5 959.5 Q456 971 475 983 Q489 993 496 999.5 Q503 1006 503 1015 L503 1024 Q503 1037 495 1044 Q487 1051 473 1051 L457 1051 Q422 1051 422 1017 L374 1017 Q374 1095 457 1095 L473 1095 Q553 1095 553 1024 L553 1015 Q553 996 541.5 983 Q530 970 511 958 Q499 950 493 944 Q487 938 487 931 L487 923 L435 923 L435 931 Z M296 943 L351 943 L476 781 L408 781 L324 893 L240 781 L172 781 L296 943 Z " />
<glyph glyph-name="uni1EAA" unicode="&#x1eaa;" horiz-adv-x="647" d="M477 194 L170 194 L98 0 L22 0 L291 700 L325 700 Q358 700 373 660 L527 256 L528 256 L528 254 L625 0 L549 0 L477 194 Z M193 256 L454 256 L324 604 L323 604 L193 256 Z M379 978 Q359 978 345 987 Q331 996 314 1013 Q301 1026 293 1031.5 Q285 1037 276 1037 L267 1037 Q254 1037 245 1024.5 Q236 1012 235 992 L186 992 Q187 1032 209.5 1056.5 Q232 1081 267 1081 L276 1081 Q299 1081 314.5 1071 Q330 1061 346 1044 Q358 1032 364.5 1027 Q371 1022 379 1022 L388 1022 Q400 1022 408.5 1034.5 Q417 1047 418 1067 L467 1067 Q466 1027 444 1002.5 Q422 978 388 978 L379 978 Z M296 943 L351 943 L476 781 L408 781 L324 893 L240 781 L172 781 L296 943 Z " />
<glyph glyph-name="Adieresis" unicode="&#xc4;" horiz-adv-x="647" d="M477 194 L170 194 L98 0 L22 0 L291 700 L325 700 Q358 700 373 660 L527 256 L528 256 L528 254 L625 0 L549 0 L477 194 Z M193 256 L454 256 L324 604 L323 604 L193 256 Z M224 781 Q202 781 188.5 794.5 Q175 808 175 830 Q175 852 188.5 865.5 Q202 879 224 879 Q246 879 259.5 865.5 Q273 852 273 830 Q273 808 259.5 794.5 Q246 781 224 781 Z M423 781 Q401 781 387.5 794.5 Q374 808 374 830 Q374 852 387.5 865.5 Q401 879 423 879 Q445 879 458.5 865.5 Q472 852 472 830 Q472 808 458.5 794.5 Q445 781 423 781 Z " />
<glyph glyph-name="uni1EA0" unicode="&#x1ea0;" horiz-adv-x="647" d="M477 194 L170 194 L98 0 L22 0 L291 700 L325 700 Q358 700 373 660 L527 256 L528 256 L528 254 L625 0 L549 0 L477 194 Z M193 256 L454 256 L324 604 L323 604 L193 256 Z M324 -179 Q300 -179 285 -164 Q270 -149 270 -125 Q270 -101 285 -86 Q300 -71 324 -71 Q348 -71 363 -86 Q378 -101 378 -125 Q378 -149 363 -164 Q348 -179 324 -179 Z " />
<glyph glyph-name="Agrave" unicode="&#xc0;" horiz-adv-x="647" d="M477 194 L170 194 L98 0 L22 0 L291 700 L325 700 Q358 700 373 660 L527 256 L528 256 L528 254 L625 0 L549 0 L477 194 Z M193 256 L454 256 L324 604 L323 604 L193 256 Z M193 933 L275 933 L358 781 L292 781 L193 933 Z " />
<glyph glyph-name="uni1EA2" unicode="&#x1ea2;" horiz-adv-x="647" d="M477 194 L170 194 L98 0 L22 0 L291 700 L325 700 Q358 700 373 660 L527 256 L528 256 L528 254 L625 0 L549 0 L477 194 Z M193 256 L454 256 L324 604 L323 604 L193 256 Z M289 783 Q289 804 301.5 818 Q314 832 337 847 Q354 859 362.5 867 Q371 875 371 886 L371 897 Q371 930 335 930 L315 930 Q273 930 273 888 L215 888 Q215 982 315 982 L335 982 Q382 982 406.5 960.5 Q431 939 431 897 L431 886 Q431 863 418 848 Q405 833 381 816 Q366 806 358.5 798.5 Q351 791 351 783 L351 767 L289 767 L289 783 Z " />
<glyph glyph-name="Amacron" unicode="&#x100;" horiz-adv-x="647" d="M477 194 L170 194 L98 0 L22 0 L291 700 L325 700 Q358 700 373 660 L527 256 L528 256 L528 254 L625 0 L549 0 L477 194 Z M193 256 L454 256 L324 604 L323 604 L193 256 Z M197 843 L452 843 L452 791 L197 791 L197 843 Z " />
<glyph glyph-name="Aogonek" unicode="&#x104;" horiz-adv-x="647" d="M477 194 L170 194 L98 0 L22 0 L291 700 L325 700 Q358 700 373 660 L527 256 L528 256 L528 254 L625 0 L549 0 L477 194 Z M193 256 L454 256 L324 604 L323 604 L193 256 Z M601 -209 Q553 -209 524.5 -183 Q496 -157 496 -113 L496 -103 Q496 -72 512.5 -43.5 Q529 -15 557 0 L625 0 Q594 -16 576 -42.5 Q558 -69 558 -99 L558 -109 Q558 -129 570.5 -142 Q583 -155 606 -155 L616 -155 Q629 -155 644.5 -149.5 Q660 -144 672 -135 L672 -191 Q662 -199 644.5 -204 Q627 -209 611 -209 L601 -209 Z " />
<glyph glyph-name="Aring" unicode="&#xc5;" horiz-adv-x="647" d="M477 194 L170 194 L98 0 L22 0 L291 700 L325 700 Q358 700 373 660 L527 256 L528 256 L528 254 L625 0 L549 0 L477 194 Z M193 256 L454 256 L324 604 L323 604 L193 256 Z M324 743 Q277 743 247.5 771.5 Q218 800 218 846 Q218 892 247.5 920.5 Q277 949 324 949 Q371 949 400.5 920.5 Q430 892 430 846 Q430 800 400.5 771.5 Q371 743 324 743 Z M324 791 Q350 791 365 806 Q380 821 380 846 Q380 871 365 886 Q350 901 324 901 Q298 901 283 886 Q268 871 268 846 Q268 821 283 806 Q298 791 324 791 Z " />
<glyph glyph-name="Aringacute" unicode="&#x1fa;" horiz-adv-x="647" d="M477 194 L170 194 L98 0 L22 0 L291 700 L325 700 Q358 700 373 660 L527 256 L528 256 L528 254 L625 0 L549 0 L477 194 Z M193 256 L454 256 L324 604 L323 604 L193 256 Z M324 743 Q277 743 247.5 771.5 Q218 800 218 846 Q218 892 247.5 920.5 Q277 949 324 949 Q371 949 400.5 920.5 Q430 892 430 846 Q430 800 400.5 771.5 Q371 743 324 743 Z M324 791 Q350 791 365 806 Q380 821 380 846 Q380 871 365 886 Q350 901 324 901 Q298 901 283 886 Q268 871 268 846 Q268 821 283 806 Q298 791 324 791 Z M376 1142 L458 1142 L359 990 L293 990 L376 1142 Z " />
<glyph glyph-name="Atilde" unicode="&#xc3;" horiz-adv-x="647" d="M477 194 L170 194 L98 0 L22 0 L291 700 L325 700 Q358 700 373 660 L527 256 L528 256 L528 254 L625 0 L549 0 L477 194 Z M193 256 L454 256 L324 604 L323 604 L193 256 Z M384 773 Q361 773 344.5 783.5 Q328 794 310 813 Q294 828 286 834 Q278 840 267 840 L257 840 Q242 840 231 826 Q220 812 219 789 L163 789 Q164 834 190.5 862 Q217 890 257 890 L267 890 Q292 890 309.5 879 Q327 868 347 848 Q359 835 367 829 Q375 823 384 823 L394 823 Q408 823 418.5 837 Q429 851 430 874 L486 874 Q485 829 459 801 Q433 773 394 773 L384 773 Z " />
<glyph glyph-name="AE" unicode="&#xc6;" horiz-adv-x="926" d="M391 700 L876 700 L876 636 L492 636 L492 390 L836 390 L836 326 L492 326 L492 64 L876 64 L876 0 L483 0 Q452 0 435 17.5 Q418 35 418 66 L418 194 L190 194 L84 0 L8 0 L391 700 Z M418 256 L418 608 L417 608 L224 256 L418 256 Z " />
<glyph glyph-name="AEacute" unicode="&#x1fc;" horiz-adv-x="926" d="M391 700 L876 700 L876 636 L492 636 L492 390 L836 390 L836 326 L492 326 L492 64 L876 64 L876 0 L483 0 Q452 0 435 17.5 Q418 35 418 66 L418 194 L190 194 L84 0 L8 0 L391 700 Z M418 256 L418 608 L417 608 L224 256 L418 256 Z M597 933 L679 933 L580 781 L514 781 L597 933 Z " />
<glyph glyph-name="B" unicode="B" horiz-adv-x="662" d="M145 0 Q116 0 98 18 Q80 36 80 65 L80 700 L376 700 Q465 700 519.5 657.5 Q574 615 574 545 L574 492 Q574 455 557 421.5 Q540 388 510 368 L510 367 Q559 354 588.5 316.5 Q618 279 618 229 L618 181 Q618 99 566 49.5 Q514 0 425 0 L145 0 Z M396 384 Q443 384 471.5 413.5 Q500 443 500 492 L500 545 Q500 585 465.5 609.5 Q431 634 376 634 L154 634 L154 384 L396 384 Z M415 66 Q475 66 509.5 97.5 Q544 129 544 181 L544 229 Q544 271 514 296.5 Q484 322 435 322 L154 322 L154 66 L415 66 Z " />
<glyph glyph-name="C" unicode="C" horiz-adv-x="660" d="M287 -8 Q220 -8 168.5 24 Q117 56 88.5 113.5 Q60 171 60 246 L60 454 Q60 529 88.5 587 Q117 645 169.5 676.5 Q222 708 291 708 L397 708 Q462 708 511.5 680 Q561 652 588.5 601 Q616 550 616 484 L544 484 Q544 555 503.5 598.5 Q463 642 397 642 L291 642 Q220 642 177 590.5 Q134 539 134 454 L134 246 Q134 161 176 109.5 Q218 58 287 58 L395 58 Q463 58 504.5 106 Q546 154 546 232 L618 232 Q618 161 590 106.5 Q562 52 511.5 22 Q461 -8 395 -8 L287 -8 Z " />
<glyph glyph-name="Cacute" unicode="&#x106;" horiz-adv-x="660" d="M287 -8 Q220 -8 168.5 24 Q117 56 88.5 113.5 Q60 171 60 246 L60 454 Q60 529 88.5 587 Q117 645 169.5 676.5 Q222 708 291 708 L397 708 Q462 708 511.5 680 Q561 652 588.5 601 Q616 550 616 484 L544 484 Q544 555 503.5 598.5 Q463 642 397 642 L291 642 Q220 642 177 590.5 Q134 539 134 454 L134 246 Q134 161 176 109.5 Q218 58 287 58 L395 58 Q463 58 504.5 106 Q546 154 546 232 L618 232 Q618 161 590 106.5 Q562 52 511.5 22 Q461 -8 395 -8 L287 -8 Z M396 933 L478 933 L379 781 L313 781 L396 933 Z " />
<glyph glyph-name="Ccaron" unicode="&#x10c;" horiz-adv-x="660" d="M287 -8 Q220 -8 168.5 24 Q117 56 88.5 113.5 Q60 171 60 246 L60 454 Q60 529 88.5 587 Q117 645 169.5 676.5 Q222 708 291 708 L397 708 Q462 708 511.5 680 Q561 652 588.5 601 Q616 550 616 484 L544 484 Q544 555 503.5 598.5 Q463 642 397 642 L291 642 Q220 642 177 590.5 Q134 539 134 454 L134 246 Q134 161 176 109.5 Q218 58 287 58 L395 58 Q463 58 504.5 106 Q546 154 546 232 L618 232 Q618 161 590 106.5 Q562 52 511.5 22 Q461 -8 395 -8 L287 -8 Z M192 943 L260 943 L344 831 L428 943 L496 943 L371 781 L316 781 L192 943 Z " />
<glyph glyph-name="Ccedilla" unicode="&#xc7;" horiz-adv-x="660" d="M366 -8 L345 -54 L352 -54 Q391 -54 414.5 -75 Q438 -96 438 -130 L438 -141 Q438 -178 409 -200.5 Q380 -223 333 -223 L278 -223 L278 -175 L331 -175 Q353 -175 367 -165.5 Q381 -156 381 -141 L381 -130 Q381 -115 368.5 -105.5 Q356 -96 336 -96 L289 -96 L289 -52 L308 -8 L287 -8 Q220 -8 168.5 24 Q117 56 88.5 113.5 Q60 171 60 246 L60 454 Q60 529 88.5 587 Q117 645 169.5 676.5 Q222 708 291 708 L397 708 Q462 708 511.5 680 Q561 652 588.5 601 Q616 550 616 484 L544 484 Q544 555 503.5 598.5 Q463 642 397 642 L291 642 Q220 642 177 590.5 Q134 539 134 454 L134 246 Q134 161 176 109.5 Q218 58 287 58 L395 58 Q463 58 504.5 106 Q546 154 546 232 L618 232 Q618 161 590 106.5 Q562 52 511.5 22 Q461 -8 395 -8 L366 -8 Z " />
<glyph glyph-name="Ccircumflex" unicode="&#x108;" horiz-adv-x="660" d="M287 -8 Q220 -8 168.5 24 Q117 56 88.5 113.5 Q60 171 60 246 L60 454 Q60 529 88.5 587 Q117 645 169.5 676.5 Q222 708 291 708 L397 708 Q462 708 511.5 680 Q561 652 588.5 601 Q616 550 616 484 L544 484 Q544 555 503.5 598.5 Q463 642 397 642 L291 642 Q220 642 177 590.5 Q134 539 134 454 L134 246 Q134 161 176 109.5 Q218 58 287 58 L395 58 Q463 58 504.5 106 Q546 154 546 232 L618 232 Q618 161 590 106.5 Q562 52 511.5 22 Q461 -8 395 -8 L287 -8 Z M316 943 L371 943 L496 781 L428 781 L344 893 L260 781 L192 781 L316 943 Z " />
<glyph glyph-name="Cdotaccent" unicode="&#x10a;" horiz-adv-x="660" d="M287 -8 Q220 -8 168.5 24 Q117 56 88.5 113.5 Q60 171 60 246 L60 454 Q60 529 88.5 587 Q117 645 169.5 676.5 Q222 708 291 708 L397 708 Q462 708 511.5 680 Q561 652 588.5 601 Q616 550 616 484 L544 484 Q544 555 503.5 598.5 Q463 642 397 642 L291 642 Q220 642 177 590.5 Q134 539 134 454 L134 246 Q134 161 176 109.5 Q218 58 287 58 L395 58 Q463 58 504.5 106 Q546 154 546 232 L618 232 Q618 161 590 106.5 Q562 52 511.5 22 Q461 -8 395 -8 L287 -8 Z M344 781 Q320 781 305 796 Q290 811 290 835 Q290 859 305 874 Q320 889 344 889 Q368 889 383 874 Q398 859 398 835 Q398 811 383 796 Q368 781 344 781 Z " />
<glyph glyph-name="D" unicode="D" horiz-adv-x="674" d="M145 0 Q114 0 97 17 Q80 34 80 65 L80 700 L370 700 Q444 700 500 671.5 Q556 643 587 590.5 Q618 538 618 470 L618 250 Q618 127 556 63.5 Q494 0 374 0 L145 0 Z M372 66 Q457 66 500.5 112.5 Q544 159 544 250 L544 470 Q544 543 495.5 588.5 Q447 634 368 634 L154 634 L154 66 L372 66 Z " />
<glyph glyph-name="Eth" unicode="&#xd0;" horiz-adv-x="725" d="M421 700 Q495 700 551 671.5 Q607 643 638 590.5 Q669 538 669 470 L669 250 Q669 127 607 63.5 Q545 0 425 0 L196 0 Q165 0 148 17 Q131 34 131 65 L131 311 L26 311 L26 377 L131 377 L131 700 L421 700 Z M595 470 Q595 543 546.5 588.5 Q498 634 419 634 L205 634 L205 377 L406 377 L406 311 L205 311 L205 66 L423 66 Q508 66 551.5 112.5 Q595 159 595 250 L595 470 Z " />
<glyph glyph-name="Dcaron" unicode="&#x10e;" horiz-adv-x="674" d="M145 0 Q114 0 97 17 Q80 34 80 65 L80 700 L370 700 Q444 700 500 671.5 Q556 643 587 590.5 Q618 538 618 470 L618 250 Q618 127 556 63.5 Q494 0 374 0 L145 0 Z M372 66 Q457 66 500.5 112.5 Q544 159 544 250 L544 470 Q544 543 495.5 588.5 Q447 634 368 634 L154 634 L154 66 L372 66 Z M190 943 L258 943 L342 831 L426 943 L494 943 L369 781 L314 781 L190 943 Z " />
<glyph glyph-name="Dcroat" unicode="&#x110;" horiz-adv-x="725" d="M421 700 Q495 700 551 671.5 Q607 643 638 590.5 Q669 538 669 470 L669 250 Q669 127 607 63.5 Q545 0 425 0 L196 0 Q165 0 148 17 Q131 34 131 65 L131 311 L26 311 L26 377 L131 377 L131 700 L421 700 Z M595 470 Q595 543 546.5 588.5 Q498 634 419 634 L205 634 L205 377 L406 377 L406 311 L205 311 L205 66 L423 66 Q508 66 551.5 112.5 Q595 159 595 250 L595 470 Z " />
<glyph glyph-name="uni1E0C" unicode="&#x1e0c;" horiz-adv-x="674" d="M145 0 Q114 0 97 17 Q80 34 80 65 L80 700 L370 700 Q444 700 500 671.5 Q556 643 587 590.5 Q618 538 618 470 L618 250 Q618 127 556 63.5 Q494 0 374 0 L145 0 Z M372 66 Q457 66 500.5 112.5 Q544 159 544 250 L544 470 Q544 543 495.5 588.5 Q447 634 368 634 L154 634 L154 66 L372 66 Z M347 -179 Q323 -179 308 -164 Q293 -149 293 -125 Q293 -101 308 -86 Q323 -71 347 -71 Q371 -71 386 -86 Q401 -101 401 -125 Q401 -149 386 -164 Q371 -179 347 -179 Z " />
<glyph glyph-name="uni1E0E" unicode="&#x1e0e;" horiz-adv-x="674" d="M145 0 Q114 0 97 17 Q80 34 80 65 L80 700 L370 700 Q444 700 500 671.5 Q556 643 587 590.5 Q618 538 618 470 L618 250 Q618 127 556 63.5 Q494 0 374 0 L145 0 Z M372 66 Q457 66 500.5 112.5 Q544 159 544 250 L544 470 Q544 543 495.5 588.5 Q447 634 368 634 L154 634 L154 66 L372 66 Z M220 -74 L475 -74 L475 -126 L220 -126 L220 -74 Z " />
<glyph glyph-name="E" unicode="E" horiz-adv-x="600" d="M145 0 Q114 0 97 17.5 Q80 35 80 66 L80 700 L550 700 L550 636 L154 636 L154 390 L520 390 L520 326 L154 326 L154 64 L550 64 L550 0 L145 0 Z " />
<glyph glyph-name="Eacute" unicode="&#xc9;" horiz-adv-x="600" d="M145 0 Q114 0 97 17.5 Q80 35 80 66 L80 700 L550 700 L550 636 L154 636 L154 390 L520 390 L520 326 L154 326 L154 64 L550 64 L550 0 L145 0 Z M370 933 L452 933 L353 781 L287 781 L370 933 Z " />
<glyph glyph-name="Ebreve" unicode="&#x114;" horiz-adv-x="600" d="M145 0 Q114 0 97 17.5 Q80 35 80 66 L80 700 L550 700 L550 636 L154 636 L154 390 L520 390 L520 326 L154 326 L154 64 L550 64 L550 0 L145 0 Z M312 773 Q250 773 211.5 809 Q173 845 173 904 L173 912 L231 912 L231 904 Q231 867 253 845 Q275 823 312 823 L324 823 Q361 823 383.5 845 Q406 867 406 904 L406 912 L463 912 L463 904 Q463 845 424.5 809 Q386 773 324 773 L312 773 Z " />
<glyph glyph-name="Ecaron" unicode="&#x11a;" horiz-adv-x="600" d="M145 0 Q114 0 97 17.5 Q80 35 80 66 L80 700 L550 700 L550 636 L154 636 L154 390 L520 390 L520 326 L154 326 L154 64 L550 64 L550 0 L145 0 Z M166 943 L234 943 L318 831 L402 943 L470 943 L345 781 L290 781 L166 943 Z " />
<glyph glyph-name="Ecircumflex" unicode="&#xca;" horiz-adv-x="600" d="M145 0 Q114 0 97 17.5 Q80 35 80 66 L80 700 L550 700 L550 636 L154 636 L154 390 L520 390 L520 326 L154 326 L154 64 L550 64 L550 0 L145 0 Z M290 943 L345 943 L470 781 L402 781 L318 893 L234 781 L166 781 L290 943 Z " />
<glyph glyph-name="uni1EBE" unicode="&#x1ebe;" horiz-adv-x="600" d="M145 0 Q114 0 97 17.5 Q80 35 80 66 L80 700 L550 700 L550 636 L154 636 L154 390 L520 390 L520 326 L154 326 L154 64 L550 64 L550 0 L145 0 Z M490 1049 L560 1049 L484 933 L426 933 L490 1049 Z M290 943 L345 943 L470 781 L402 781 L318 893 L234 781 L166 781 L290 943 Z " />
<glyph glyph-name="uni1EC6" unicode="&#x1ec6;" horiz-adv-x="600" d="M145 0 Q114 0 97 17.5 Q80 35 80 66 L80 700 L550 700 L550 636 L154 636 L154 390 L520 390 L520 326 L154 326 L154 64 L550 64 L550 0 L145 0 Z M323 -179 Q299 -179 284 -164 Q269 -149 269 -125 Q269 -101 284 -86 Q299 -71 323 -71 Q347 -71 362 -86 Q377 -101 377 -125 Q377 -149 362 -164 Q347 -179 323 -179 Z M290 943 L345 943 L470 781 L402 781 L318 893 L234 781 L166 781 L290 943 Z " />
<glyph glyph-name="uni1EC0" unicode="&#x1ec0;" horiz-adv-x="600" d="M145 0 Q114 0 97 17.5 Q80 35 80 66 L80 700 L550 700 L550 636 L154 636 L154 390 L520 390 L520 326 L154 326 L154 64 L550 64 L550 0 L145 0 Z M376 1049 L446 1049 L510 933 L452 933 L376 1049 Z M290 943 L345 943 L470 781 L402 781 L318 893 L234 781 L166 781 L290 943 Z " />
<glyph glyph-name="uni1EC2" unicode="&#x1ec2;" horiz-adv-x="600" d="M145 0 Q114 0 97 17.5 Q80 35 80 66 L80 700 L550 700 L550 636 L154 636 L154 390 L520 390 L520 326 L154 326 L154 64 L550 64 L550 0 L145 0 Z M429 931 Q429 948 439.5 959.5 Q450 971 469 983 Q483 993 490 999.5 Q497 1006 497 1015 L497 1024 Q497 1037 489 1044 Q481 1051 467 1051 L451 1051 Q416 1051 416 1017 L368 1017 Q368 1095 451 1095 L467 1095 Q547 1095 547 1024 L547 1015 Q547 996 535.5 983 Q524 970 505 958 Q493 950 487 944 Q481 938 481 931 L481 923 L429 923 L429 931 Z M290 943 L345 943 L470 781 L402 781 L318 893 L234 781 L166 781 L290 943 Z " />
<glyph glyph-name="uni1EC4" unicode="&#x1ec4;" horiz-adv-x="600" d="M145 0 Q114 0 97 17.5 Q80 35 80 66 L80 700 L550 700 L550 636 L154 636 L154 390 L520 390 L520 326 L154 326 L154 64 L550 64 L550 0 L145 0 Z M373 978 Q353 978 339 987 Q325 996 308 1013 Q295 1026 287 1031.5 Q279 1037 270 1037 L261 1037 Q248 1037 239 1024.5 Q230 1012 229 992 L180 992 Q181 1032 203.5 1056.5 Q226 1081 261 1081 L270 1081 Q293 1081 308.5 1071 Q324 1061 340 1044 Q352 1032 358.5 1027 Q365 1022 373 1022 L382 1022 Q394 1022 402.5 1034.5 Q411 1047 412 1067 L461 1067 Q460 1027 438 1002.5 Q416 978 382 978 L373 978 Z M290 943 L345 943 L470 781 L402 781 L318 893 L234 781 L166 781 L290 943 Z " />
<glyph glyph-name="Edieresis" unicode="&#xcb;" horiz-adv-x="600" d="M145 0 Q114 0 97 17.5 Q80 35 80 66 L80 700 L550 700 L550 636 L154 636 L154 390 L520 390 L520 326 L154 326 L154 64 L550 64 L550 0 L145 0 Z M218 781 Q196 781 182.5 794.5 Q169 808 169 830 Q169 852 182.5 865.5 Q196 879 218 879 Q240 879 253.5 865.5 Q267 852 267 830 Q267 808 253.5 794.5 Q240 781 218 781 Z M417 781 Q395 781 381.5 794.5 Q368 808 368 830 Q368 852 381.5 865.5 Q395 879 417 879 Q439 879 452.5 865.5 Q466 852 466 830 Q466 808 452.5 794.5 Q439 781 417 781 Z " />
<glyph glyph-name="Edotaccent" unicode="&#x116;" horiz-adv-x="600" d="M145 0 Q114 0 97 17.5 Q80 35 80 66 L80 700 L550 700 L550 636 L154 636 L154 390 L520 390 L520 326 L154 326 L154 64 L550 64 L550 0 L145 0 Z M318 781 Q294 781 279 796 Q264 811 264 835 Q264 859 279 874 Q294 889 318 889 Q342 889 357 874 Q372 859 372 835 Q372 811 357 796 Q342 781 318 781 Z " />
<glyph glyph-name="uni1EB8" unicode="&#x1eb8;" horiz-adv-x="600" d="M145 0 Q114 0 97 17.5 Q80 35 80 66 L80 700 L550 700 L550 636 L154 636 L154 390 L520 390 L520 326 L154 326 L154 64 L550 64 L550 0 L145 0 Z M323 -179 Q299 -179 284 -164 Q269 -149 269 -125 Q269 -101 284 -86 Q299 -71 323 -71 Q347 -71 362 -86 Q377 -101 377 -125 Q377 -149 362 -164 Q347 -179 323 -179 Z " />
<glyph glyph-name="Egrave" unicode="&#xc8;" horiz-adv-x="600" d="M145 0 Q114 0 97 17.5 Q80 35 80 66 L80 700 L550 700 L550 636 L154 636 L154 390 L520 390 L520 326 L154 326 L154 64 L550 64 L550 0 L145 0 Z M187 933 L269 933 L352 781 L286 781 L187 933 Z " />
<glyph glyph-name="uni1EBA" unicode="&#x1eba;" horiz-adv-x="600" d="M145 0 Q114 0 97 17.5 Q80 35 80 66 L80 700 L550 700 L550 636 L154 636 L154 390 L520 390 L520 326 L154 326 L154 64 L550 64 L550 0 L145 0 Z M283 783 Q283 804 295.5 818 Q308 832 331 847 Q348 859 356.5 867 Q365 875 365 886 L365 897 Q365 930 329 930 L309 930 Q267 930 267 888 L209 888 Q209 982 309 982 L329 982 Q376 982 400.5 960.5 Q425 939 425 897 L425 886 Q425 863 412 848 Q399 833 375 816 Q360 806 352.5 798.5 Q345 791 345 783 L345 767 L283 767 L283 783 Z " />
<glyph glyph-name="Emacron" unicode="&#x112;" horiz-adv-x="600" d="M145 0 Q114 0 97 17.5 Q80 35 80 66 L80 700 L550 700 L550 636 L154 636 L154 390 L520 390 L520 326 L154 326 L154 64 L550 64 L550 0 L145 0 Z M191 843 L446 843 L446 791 L191 791 L191 843 Z " />
<glyph glyph-name="Eogonek" unicode="&#x118;" horiz-adv-x="600" d="M145 0 Q114 0 97 17.5 Q80 35 80 66 L80 700 L550 700 L550 636 L154 636 L154 390 L520 390 L520 326 L154 326 L154 64 L550 64 L550 0 L145 0 Z M526 -209 Q478 -209 449.5 -183 Q421 -157 421 -113 L421 -103 Q421 -72 437.5 -43.5 Q454 -15 482 0 L550 0 Q519 -16 501 -42.5 Q483 -69 483 -99 L483 -109 Q483 -129 495.5 -142 Q508 -155 531 -155 L541 -155 Q554 -155 569.5 -149.5 Q585 -144 597 -135 L597 -191 Q587 -199 569.5 -204 Q552 -209 536 -209 L526 -209 Z " />
<glyph glyph-name="uni1EBC" unicode="&#x1ebc;" horiz-adv-x="600" d="M145 0 Q114 0 97 17.5 Q80 35 80 66 L80 700 L550 700 L550 636 L154 636 L154 390 L520 390 L520 326 L154 326 L154 64 L550 64 L550 0 L145 0 Z M378 773 Q355 773 338.5 783.5 Q322 794 304 813 Q288 828 280 834 Q272 840 261 840 L251 840 Q236 840 225 826 Q214 812 213 789 L157 789 Q158 834 184.5 862 Q211 890 251 890 L261 890 Q286 890 303.5 879 Q321 868 341 848 Q353 835 361 829 Q369 823 378 823 L388 823 Q402 823 412.5 837 Q423 851 424 874 L480 874 Q479 829 453 801 Q427 773 388 773 L378 773 Z " />
<glyph glyph-name="F" unicode="F" horiz-adv-x="576" d="M80 700 L540 700 L540 634 L154 634 L154 378 L503 378 L503 312 L154 312 L154 0 L80 0 L80 700 Z " />
<glyph glyph-name="G" unicode="G" horiz-adv-x="684" d="M289 -8 Q220 -8 168.5 23.5 Q117 55 88.5 113 Q60 171 60 246 L60 454 Q60 529 89.5 586.5 Q119 644 172 676 Q225 708 294 708 L400 708 Q466 708 516.5 680 Q567 652 595 601 Q623 550 623 484 L551 484 Q551 555 509.5 598.5 Q468 642 400 642 L294 642 Q222 642 178 590.5 Q134 539 134 454 L134 246 Q134 161 176.5 109.5 Q219 58 289 58 L397 58 Q468 58 512 107 Q556 156 556 236 L556 296 L362 296 L362 361 L628 361 L628 236 Q628 164 599.5 108.5 Q571 53 518.5 22.5 Q466 -8 397 -8 L289 -8 Z " />
<glyph glyph-name="Gbreve" unicode="&#x11e;" horiz-adv-x="684" d="M289 -8 Q220 -8 168.5 23.5 Q117 55 88.5 113 Q60 171 60 246 L60 454 Q60 529 89.5 586.5 Q119 644 172 676 Q225 708 294 708 L400 708 Q466 708 516.5 680 Q567 652 595 601 Q623 550 623 484 L551 484 Q551 555 509.5 598.5 Q468 642 400 642 L294 642 Q222 642 178 590.5 Q134 539 134 454 L134 246 Q134 161 176.5 109.5 Q219 58 289 58 L397 58 Q468 58 512 107 Q556 156 556 236 L556 296 L362 296 L362 361 L628 361 L628 236 Q628 164 599.5 108.5 Q571 53 518.5 22.5 Q466 -8 397 -8 L289 -8 Z M340 773 Q278 773 239.5 809 Q201 845 201 904 L201 912 L259 912 L259 904 Q259 867 281 845 Q303 823 340 823 L352 823 Q389 823 411.5 845 Q434 867 434 904 L434 912 L491 912 L491 904 Q491 845 452.5 809 Q414 773 352 773 L340 773 Z " />
<glyph glyph-name="Gcaron" unicode="&#x1e6;" horiz-adv-x="684" d="M289 -8 Q220 -8 168.5 23.5 Q117 55 88.5 113 Q60 171 60 246 L60 454 Q60 529 89.5 586.5 Q119 644 172 676 Q225 708 294 708 L400 708 Q466 708 516.5 680 Q567 652 595 601 Q623 550 623 484 L551 484 Q551 555 509.5 598.5 Q468 642 400 642 L294 642 Q222 642 178 590.5 Q134 539 134 454 L134 246 Q134 161 176.5 109.5 Q219 58 289 58 L397 58 Q468 58 512 107 Q556 156 556 236 L556 296 L362 296 L362 361 L628 361 L628 236 Q628 164 599.5 108.5 Q571 53 518.5 22.5 Q466 -8 397 -8 L289 -8 Z M194 943 L262 943 L346 831 L430 943 L498 943 L373 781 L318 781 L194 943 Z " />
<glyph glyph-name="Gcircumflex" unicode="&#x11c;" horiz-adv-x="684" d="M289 -8 Q220 -8 168.5 23.5 Q117 55 88.5 113 Q60 171 60 246 L60 454 Q60 529 89.5 586.5 Q119 644 172 676 Q225 708 294 708 L400 708 Q466 708 516.5 680 Q567 652 595 601 Q623 550 623 484 L551 484 Q551 555 509.5 598.5 Q468 642 400 642 L294 642 Q222 642 178 590.5 Q134 539 134 454 L134 246 Q134 161 176.5 109.5 Q219 58 289 58 L397 58 Q468 58 512 107 Q556 156 556 236 L556 296 L362 296 L362 361 L628 361 L628 236 Q628 164 599.5 108.5 Q571 53 518.5 22.5 Q466 -8 397 -8 L289 -8 Z M318 943 L373 943 L498 781 L430 781 L346 893 L262 781 L194 781 L318 943 Z " />
<glyph glyph-name="uni0122" unicode="&#x122;" horiz-adv-x="684" d="M289 -8 Q220 -8 168.5 23.5 Q117 55 88.5 113 Q60 171 60 246 L60 454 Q60 529 89.5 586.5 Q119 644 172 676 Q225 708 294 708 L400 708 Q466 708 516.5 680 Q567 652 595 601 Q623 550 623 484 L551 484 Q551 555 509.5 598.5 Q468 642 400 642 L294 642 Q222 642 178 590.5 Q134 539 134 454 L134 246 Q134 161 176.5 109.5 Q219 58 289 58 L397 58 Q468 58 512 107 Q556 156 556 236 L556 296 L362 296 L362 361 L628 361 L628 236 Q628 164 599.5 108.5 Q571 53 518.5 22.5 Q466 -8 397 -8 L289 -8 Z M236 -224 L251 -214 Q281 -194 295.5 -167.5 Q310 -141 310 -106 L310 -75 L382 -75 L382 -106 Q382 -162 361 -201 Q340 -240 296 -268 L277 -280 L236 -224 Z " />
<glyph glyph-name="Gdotaccent" unicode="&#x120;" horiz-adv-x="684" d="M289 -8 Q220 -8 168.5 23.5 Q117 55 88.5 113 Q60 171 60 246 L60 454 Q60 529 89.5 586.5 Q119 644 172 676 Q225 708 294 708 L400 708 Q466 708 516.5 680 Q567 652 595 601 Q623 550 623 484 L551 484 Q551 555 509.5 598.5 Q468 642 400 642 L294 642 Q222 642 178 590.5 Q134 539 134 454 L134 246 Q134 161 176.5 109.5 Q219 58 289 58 L397 58 Q468 58 512 107 Q556 156 556 236 L556 296 L362 296 L362 361 L628 361 L628 236 Q628 164 599.5 108.5 Q571 53 518.5 22.5 Q466 -8 397 -8 L289 -8 Z M346 781 Q322 781 307 796 Q292 811 292 835 Q292 859 307 874 Q322 889 346 889 Q370 889 385 874 Q400 859 400 835 Q400 811 385 796 Q370 781 346 781 Z " />
<glyph glyph-name="uni1E20" unicode="&#x1e20;" horiz-adv-x="684" d="M289 -8 Q220 -8 168.5 23.5 Q117 55 88.5 113 Q60 171 60 246 L60 454 Q60 529 89.5 586.5 Q119 644 172 676 Q225 708 294 708 L400 708 Q466 708 516.5 680 Q567 652 595 601 Q623 550 623 484 L551 484 Q551 555 509.5 598.5 Q468 642 400 642 L294 642 Q222 642 178 590.5 Q134 539 134 454 L134 246 Q134 161 176.5 109.5 Q219 58 289 58 L397 58 Q468 58 512 107 Q556 156 556 236 L556 296 L362 296 L362 361 L628 361 L628 236 Q628 164 599.5 108.5 Q571 53 518.5 22.5 Q466 -8 397 -8 L289 -8 Z M219 843 L474 843 L474 791 L219 791 L219 843 Z " />
<glyph glyph-name="H" unicode="H" horiz-adv-x="694" d="M80 700 L154 700 L154 386 L540 386 L540 700 L614 700 L614 0 L540 0 L540 320 L154 320 L154 0 L80 0 L80 700 Z " />
<glyph glyph-name="Hbar" unicode="&#x126;" horiz-adv-x="746" d="M720 510 L640 510 L640 0 L566 0 L566 320 L180 320 L180 0 L106 0 L106 510 L26 510 L26 570 L106 570 L106 700 L180 700 L180 570 L566 570 L566 700 L640 700 L640 570 L720 570 L720 510 Z M566 510 L180 510 L180 386 L566 386 L566 510 Z " />
<glyph glyph-name="uni1E2A" unicode="&#x1e2a;" horiz-adv-x="694" d="M80 700 L154 700 L154 386 L540 386 L540 700 L614 700 L614 0 L540 0 L540 320 L154 320 L154 0 L80 0 L80 700 Z M341 -202 Q279 -202 240.5 -166 Q202 -130 202 -71 L202 -63 L260 -63 L260 -71 Q260 -108 282 -130 Q304 -152 341 -152 L353 -152 Q390 -152 412.5 -130 Q435 -108 435 -71 L435 -63 L492 -63 L492 -71 Q492 -130 453.5 -166 Q415 -202 353 -202 L341 -202 Z " />
<glyph glyph-name="Hcircumflex" unicode="&#x124;" horiz-adv-x="694" d="M80 700 L154 700 L154 386 L540 386 L540 700 L614 700 L614 0 L540 0 L540 320 L154 320 L154 0 L80 0 L80 700 Z M317 943 L372 943 L497 781 L429 781 L345 893 L261 781 L193 781 L317 943 Z " />
<glyph glyph-name="uni1E24" unicode="&#x1e24;" horiz-adv-x="694" d="M80 700 L154 700 L154 386 L540 386 L540 700 L614 700 L614 0 L540 0 L540 320 L154 320 L154 0 L80 0 L80 700 Z M347 -179 Q323 -179 308 -164 Q293 -149 293 -125 Q293 -101 308 -86 Q323 -71 347 -71 Q371 -71 386 -86 Q401 -101 401 -125 Q401 -149 386 -164 Q371 -179 347 -179 Z " />
<glyph glyph-name="I" unicode="I" horiz-adv-x="254" d="M90 700 L164 700 L164 0 L90 0 L90 700 Z " />
<glyph glyph-name="IJ" unicode="&#x132;" horiz-adv-x="802" d="M90 700 L164 700 L164 0 L90 0 L90 700 Z M449 -8 Q392 -8 349 20.5 Q306 49 282 100.5 Q258 152 258 219 L332 219 Q332 146 364 102 Q396 58 449 58 L536 58 Q592 58 624 104 Q656 150 656 232 L656 700 L730 700 L730 232 Q730 119 679 55.5 Q628 -8 536 -8 L449 -8 Z " />
<glyph glyph-name="Iacute" unicode="&#xcd;" horiz-adv-x="254" d="M90 700 L164 700 L164 0 L90 0 L90 700 Z M179 933 L261 933 L162 781 L96 781 L179 933 Z " />
<glyph glyph-name="Ibreve" unicode="&#x12c;" horiz-adv-x="254" d="M90 700 L164 700 L164 0 L90 0 L90 700 Z M121 773 Q59 773 20.5 809 Q-18 845 -18 904 L-18 912 L40 912 L40 904 Q40 867 62 845 Q84 823 121 823 L133 823 Q170 823 192.5 845 Q215 867 215 904 L215 912 L272 912 L272 904 Q272 845 233.5 809 Q195 773 133 773 L121 773 Z " />
<glyph glyph-name="uni01CF" unicode="&#x1cf;" horiz-adv-x="254" d="M90 700 L164 700 L164 0 L90 0 L90 700 Z M-25 943 L43 943 L127 831 L211 943 L279 943 L154 781 L99 781 L-25 943 Z " />
<glyph glyph-name="Icircumflex" unicode="&#xce;" horiz-adv-x="254" d="M90 700 L164 700 L164 0 L90 0 L90 700 Z M99 943 L154 943 L279 781 L211 781 L127 893 L43 781 L-25 781 L99 943 Z " />
<glyph glyph-name="Idieresis" unicode="&#xcf;" horiz-adv-x="254" d="M90 700 L164 700 L164 0 L90 0 L90 700 Z M27 781 Q5 781 -8.5 794.5 Q-22 808 -22 830 Q-22 852 -8.5 865.5 Q5 879 27 879 Q49 879 62.5 865.5 Q76 852 76 830 Q76 808 62.5 794.5 Q49 781 27 781 Z M226 781 Q204 781 190.5 794.5 Q177 808 177 830 Q177 852 190.5 865.5 Q204 879 226 879 Q248 879 261.5 865.5 Q275 852 275 830 Q275 808 261.5 794.5 Q248 781 226 781 Z " />
<glyph glyph-name="Idot" unicode="&#x130;" horiz-adv-x="254" d="M90 700 L164 700 L164 0 L90 0 L90 700 Z M127 781 Q103 781 88 796 Q73 811 73 835 Q73 859 88 874 Q103 889 127 889 Q151 889 166 874 Q181 859 181 835 Q181 811 166 796 Q151 781 127 781 Z " />
<glyph glyph-name="uni1ECA" unicode="&#x1eca;" horiz-adv-x="254" d="M90 700 L164 700 L164 0 L90 0 L90 700 Z M127 -179 Q103 -179 88 -164 Q73 -149 73 -125 Q73 -101 88 -86 Q103 -71 127 -71 Q151 -71 166 -86 Q181 -101 181 -125 Q181 -149 166 -164 Q151 -179 127 -179 Z " />
<glyph glyph-name="Igrave" unicode="&#xcc;" horiz-adv-x="254" d="M90 700 L164 700 L164 0 L90 0 L90 700 Z M-4 933 L78 933 L161 781 L95 781 L-4 933 Z " />
<glyph glyph-name="uni1EC8" unicode="&#x1ec8;" horiz-adv-x="254" d="M90 700 L164 700 L164 0 L90 0 L90 700 Z M92 783 Q92 804 104.5 818 Q117 832 140 847 Q157 859 165.5 867 Q174 875 174 886 L174 897 Q174 930 138 930 L118 930 Q76 930 76 888 L18 888 Q18 982 118 982 L138 982 Q185 982 209.5 960.5 Q234 939 234 897 L234 886 Q234 863 221 848 Q208 833 184 816 Q169 806 161.5 798.5 Q154 791 154 783 L154 767 L92 767 L92 783 Z " />
<glyph glyph-name="Imacron" unicode="&#x12a;" horiz-adv-x="254" d="M90 700 L164 700 L164 0 L90 0 L90 700 Z M0 843 L255 843 L255 791 L0 791 L0 843 Z " />
<glyph glyph-name="Iogonek" unicode="&#x12e;" horiz-adv-x="254" d="M90 700 L164 700 L164 0 L90 0 L90 700 Z M140 -209 Q92 -209 63.5 -183 Q35 -157 35 -113 L35 -103 Q35 -72 51.5 -43.5 Q68 -15 96 0 L164 0 Q133 -16 115 -42.5 Q97 -69 97 -99 L97 -109 Q97 -129 109.5 -142 Q122 -155 145 -155 L155 -155 Q168 -155 183.5 -149.5 Q199 -144 211 -135 L211 -191 Q201 -199 183.5 -204 Q166 -209 150 -209 L140 -209 Z " />
<glyph glyph-name="Itilde" unicode="&#x128;" horiz-adv-x="254" d="M90 700 L164 700 L164 0 L90 0 L90 700 Z M187 773 Q164 773 147.5 783.5 Q131 794 113 813 Q97 828 89 834 Q81 840 70 840 L60 840 Q45 840 34 826 Q23 812 22 789 L-34 789 Q-33 834 -6.5 862 Q20 890 60 890 L70 890 Q95 890 112.5 879 Q130 868 150 848 Q162 835 170 829 Q178 823 187 823 L197 823 Q211 823 221.5 837 Q232 851 233 874 L289 874 Q288 829 262 801 Q236 773 197 773 L187 773 Z " />
<glyph glyph-name="J" unicode="J" horiz-adv-x="578" d="M225 -8 Q168 -8 125 20.5 Q82 49 58 100.5 Q34 152 34 219 L108 219 Q108 146 140 102 Q172 58 225 58 L312 58 Q368 58 400 104 Q432 150 432 232 L432 700 L506 700 L506 232 Q506 119 455 55.5 Q404 -8 312 -8 L225 -8 Z " />
<glyph glyph-name="Jcircumflex" unicode="&#x134;" horiz-adv-x="578" d="M225 -8 Q168 -8 125 20.5 Q82 49 58 100.5 Q34 152 34 219 L108 219 Q108 146 140 102 Q172 58 225 58 L312 58 Q368 58 400 104 Q432 150 432 232 L432 700 L506 700 L506 232 Q506 119 455 55.5 Q404 -8 312 -8 L225 -8 Z M441 943 L496 943 L621 781 L553 781 L469 893 L385 781 L317 781 L441 943 Z " />
<glyph glyph-name="K" unicode="K" horiz-adv-x="630" d="M512 0 L242 335 L154 242 L154 0 L80 0 L80 700 L154 700 L154 334 L494 700 L586 700 L293 389 L604 0 L512 0 Z " />
<glyph glyph-name="uni0136" unicode="&#x136;" horiz-adv-x="630" d="M512 0 L242 335 L154 242 L154 0 L80 0 L80 700 L154 700 L154 334 L494 700 L586 700 L293 389 L604 0 L512 0 Z M213 -224 L228 -214 Q258 -194 272.5 -167.5 Q287 -141 287 -106 L287 -75 L359 -75 L359 -106 Q359 -162 338 -201 Q317 -240 273 -268 L254 -280 L213 -224 Z " />
<glyph glyph-name="L" unicode="L" horiz-adv-x="560" d="M145 0 Q114 0 97 17 Q80 34 80 65 L80 700 L154 700 L154 66 L534 66 L534 0 L145 0 Z " />
<glyph glyph-name="Lacute" unicode="&#x139;" horiz-adv-x="560" d="M145 0 Q114 0 97 17 Q80 34 80 65 L80 700 L154 700 L154 66 L534 66 L534 0 L145 0 Z M169 933 L251 933 L152 781 L86 781 L169 933 Z " />
<glyph glyph-name="Lcaron" unicode="&#x13d;" horiz-adv-x="560" d="M145 0 Q114 0 97 17 Q80 34 80 65 L80 700 L154 700 L154 66 L534 66 L534 0 L145 0 Z M386 551 L401 561 Q431 581 445.5 607.5 Q460 634 460 669 L460 700 L532 700 L532 669 Q532 613 511 574 Q490 535 446 507 L427 495 L386 551 Z " />
<glyph glyph-name="uni013B" unicode="&#x13b;" horiz-adv-x="560" d="M145 0 Q114 0 97 17 Q80 34 80 65 L80 700 L154 700 L154 66 L534 66 L534 0 L145 0 Z M200 -224 L215 -214 Q245 -194 259.5 -167.5 Q274 -141 274 -106 L274 -75 L346 -75 L346 -106 Q346 -162 325 -201 Q304 -240 260 -268 L241 -280 L200 -224 Z " />
<glyph glyph-name="Ldot" unicode="&#x13f;" horiz-adv-x="560" d="M145 0 Q114 0 97 17 Q80 34 80 65 L80 700 L154 700 L154 66 L534 66 L534 0 L145 0 Z M390 223 Q366 223 351 238 Q336 253 336 277 Q336 301 351 316 Q366 331 390 331 Q414 331 429 316 Q444 301 444 277 Q444 253 429 238 Q414 223 390 223 Z " />
<glyph glyph-name="uni1E36" unicode="&#x1e36;" horiz-adv-x="560" d="M145 0 Q114 0 97 17 Q80 34 80 65 L80 700 L154 700 L154 66 L534 66 L534 0 L145 0 Z M310 -179 Q286 -179 271 -164 Q256 -149 256 -125 Q256 -101 271 -86 Q286 -71 310 -71 Q334 -71 349 -86 Q364 -101 364 -125 Q364 -149 349 -164 Q334 -179 310 -179 Z " />
<glyph glyph-name="uni1E38" unicode="&#x1e38;" horiz-adv-x="560" d="M145 0 Q114 0 97 17 Q80 34 80 65 L80 700 L154 700 L154 66 L534 66 L534 0 L145 0 Z M310 -179 Q286 -179 271 -164 Q256 -149 256 -125 Q256 -101 271 -86 Q286 -71 310 -71 Q334 -71 349 -86 Q364 -101 364 -125 Q364 -149 349 -164 Q334 -179 310 -179 Z M-10 843 L245 843 L245 791 L-10 791 L-10 843 Z " />
<glyph glyph-name="uni1E3A" unicode="&#x1e3a;" horiz-adv-x="560" d="M145 0 Q114 0 97 17 Q80 34 80 65 L80 700 L154 700 L154 66 L534 66 L534 0 L145 0 Z M183 -74 L438 -74 L438 -126 L183 -126 L183 -74 Z " />
<glyph glyph-name="Lslash" unicode="&#x141;" horiz-adv-x="590" d="M564 66 L564 0 L175 0 Q144 0 127 17 Q110 34 110 65 L110 265 L26 216 L26 285 L110 334 L110 700 L184 700 L184 378 L316 455 L316 386 L184 309 L184 66 L564 66 Z " />
<glyph glyph-name="M" unicode="M" horiz-adv-x="795" d="M80 700 L151 700 L401 235 L644 700 L715 700 L715 0 L642 0 L642 562 L440 178 Q429 158 421 150.5 Q413 143 403 143 L381 143 L153 562 L153 0 L80 0 L80 700 Z " />
<glyph glyph-name="uni1E42" unicode="&#x1e42;" horiz-adv-x="795" d="M80 700 L151 700 L401 235 L644 700 L715 700 L715 0 L642 0 L642 562 L440 178 Q429 158 421 150.5 Q413 143 403 143 L381 143 L153 562 L153 0 L80 0 L80 700 Z M398 -179 Q374 -179 359 -164 Q344 -149 344 -125 Q344 -101 359 -86 Q374 -71 398 -71 Q422 -71 437 -86 Q452 -101 452 -125 Q452 -149 437 -164 Q422 -179 398 -179 Z " />
<glyph glyph-name="N" unicode="N" horiz-adv-x="690" d="M80 700 L150 700 L538 117 L538 700 L610 700 L610 0 L540 0 L152 579 L152 0 L80 0 L80 700 Z " />
<glyph glyph-name="Nacute" unicode="&#x143;" horiz-adv-x="690" d="M80 700 L150 700 L538 117 L538 700 L610 700 L610 0 L540 0 L152 579 L152 0 L80 0 L80 700 Z M397 933 L479 933 L380 781 L314 781 L397 933 Z " />
<glyph glyph-name="Ncaron" unicode="&#x147;" horiz-adv-x="690" d="M80 700 L150 700 L538 117 L538 700 L610 700 L610 0 L540 0 L152 579 L152 0 L80 0 L80 700 Z M193 943 L261 943 L345 831 L429 943 L497 943 L372 781 L317 781 L193 943 Z " />
<glyph glyph-name="uni0145" unicode="&#x145;" horiz-adv-x="690" d="M80 700 L150 700 L538 117 L538 700 L610 700 L610 0 L540 0 L152 579 L152 0 L80 0 L80 700 Z M236 -224 L251 -214 Q281 -194 295.5 -167.5 Q310 -141 310 -106 L310 -75 L382 -75 L382 -106 Q382 -162 361 -201 Q340 -240 296 -268 L277 -280 L236 -224 Z " />
<glyph glyph-name="uni1E44" unicode="&#x1e44;" horiz-adv-x="690" d="M80 700 L150 700 L538 117 L538 700 L610 700 L610 0 L540 0 L152 579 L152 0 L80 0 L80 700 Z M345 781 Q321 781 306 796 Q291 811 291 835 Q291 859 306 874 Q321 889 345 889 Q369 889 384 874 Q399 859 399 835 Q399 811 384 796 Q369 781 345 781 Z " />
<glyph glyph-name="uni1E46" unicode="&#x1e46;" horiz-adv-x="690" d="M80 700 L150 700 L538 117 L538 700 L610 700 L610 0 L540 0 L152 579 L152 0 L80 0 L80 700 Z M346 -179 Q322 -179 307 -164 Q292 -149 292 -125 Q292 -101 307 -86 Q322 -71 346 -71 Q370 -71 385 -86 Q400 -101 400 -125 Q400 -149 385 -164 Q370 -179 346 -179 Z " />
<glyph glyph-name="Eng" unicode="&#x14a;" horiz-adv-x="690" d="M406 -135 L441 -135 Q493 -135 515.5 -107 Q538 -79 538 -15 L538 3 L152 579 L152 0 L80 0 L80 700 L150 700 L538 117 L538 700 L610 700 L610 -10 Q610 -111 571 -155 Q532 -199 441 -199 L406 -199 L406 -135 Z " />
<glyph glyph-name="uni1E48" unicode="&#x1e48;" horiz-adv-x="690" d="M80 700 L150 700 L538 117 L538 700 L610 700 L610 0 L540 0 L152 579 L152 0 L80 0 L80 700 Z M219 -74 L474 -74 L474 -126 L219 -126 L219 -74 Z " />
<glyph glyph-name="Ntilde" unicode="&#xd1;" horiz-adv-x="690" d="M80 700 L150 700 L538 117 L538 700 L610 700 L610 0 L540 0 L152 579 L152 0 L80 0 L80 700 Z M405 773 Q382 773 365.5 783.5 Q349 794 331 813 Q315 828 307 834 Q299 840 288 840 L278 840 Q263 840 252 826 Q241 812 240 789 L184 789 Q185 834 211.5 862 Q238 890 278 890 L288 890 Q313 890 330.5 879 Q348 868 368 848 Q380 835 388 829 Q396 823 405 823 L415 823 Q429 823 439.5 837 Q450 851 451 874 L507 874 Q506 829 480 801 Q454 773 415 773 L405 773 Z " />
<glyph glyph-name="O" unicode="O" horiz-adv-x="696" d="M294 -8 Q225 -8 172 23 Q119 54 89.5 111 Q60 168 60 243 L60 457 Q60 532 89.5 589 Q119 646 172 677 Q225 708 295 708 L401 708 Q471 708 524 677 Q577 646 606.5 589 Q636 532 636 457 L636 243 Q636 168 606.5 111.5 Q577 55 523.5 23.5 Q470 -8 401 -8 L294 -8 Z M399 58 Q472 58 517 109 Q562 160 562 243 L562 457 Q562 540 517 591 Q472 642 399 642 L297 642 Q224 642 179 591 Q134 540 134 457 L134 243 Q134 160 178.5 109 Q223 58 296 58 L399 58 Z " />
<glyph glyph-name="Oacute" unicode="&#xd3;" horiz-adv-x="696" d="M294 -8 Q225 -8 172 23 Q119 54 89.5 111 Q60 168 60 243 L60 457 Q60 532 89.5 589 Q119 646 172 677 Q225 708 295 708 L401 708 Q471 708 524 677 Q577 646 606.5 589 Q636 532 636 457 L636 243 Q636 168 606.5 111.5 Q577 55 523.5 23.5 Q470 -8 401 -8 L294 -8 Z M399 58 Q472 58 517 109 Q562 160 562 243 L562 457 Q562 540 517 591 Q472 642 399 642 L297 642 Q224 642 179 591 Q134 540 134 457 L134 243 Q134 160 178.5 109 Q223 58 296 58 L399 58 Z M400 933 L482 933 L383 781 L317 781 L400 933 Z " />
<glyph glyph-name="Obreve" unicode="&#x14e;" horiz-adv-x="696" d="M294 -8 Q225 -8 172 23 Q119 54 89.5 111 Q60 168 60 243 L60 457 Q60 532 89.5 589 Q119 646 172 677 Q225 708 295 708 L401 708 Q471 708 524 677 Q577 646 606.5 589 Q636 532 636 457 L636 243 Q636 168 606.5 111.5 Q577 55 523.5 23.5 Q470 -8 401 -8 L294 -8 Z M399 58 Q472 58 517 109 Q562 160 562 243 L562 457 Q562 540 517 591 Q472 642 399 642 L297 642 Q224 642 179 591 Q134 540 134 457 L134 243 Q134 160 178.5 109 Q223 58 296 58 L399 58 Z M342 773 Q280 773 241.5 809 Q203 845 203 904 L203 912 L261 912 L261 904 Q261 867 283 845 Q305 823 342 823 L354 823 Q391 823 413.5 845 Q436 867 436 904 L436 912 L493 912 L493 904 Q493 845 454.5 809 Q416 773 354 773 L342 773 Z " />
<glyph glyph-name="uni01D1" unicode="&#x1d1;" horiz-adv-x="696" d="M294 -8 Q225 -8 172 23 Q119 54 89.5 111 Q60 168 60 243 L60 457 Q60 532 89.5 589 Q119 646 172 677 Q225 708 295 708 L401 708 Q471 708 524 677 Q577 646 606.5 589 Q636 532 636 457 L636 243 Q636 168 606.5 111.5 Q577 55 523.5 23.5 Q470 -8 401 -8 L294 -8 Z M399 58 Q472 58 517 109 Q562 160 562 243 L562 457 Q562 540 517 591 Q472 642 399 642 L297 642 Q224 642 179 591 Q134 540 134 457 L134 243 Q134 160 178.5 109 Q223 58 296 58 L399 58 Z M196 943 L264 943 L348 831 L432 943 L500 943 L375 781 L320 781 L196 943 Z " />
<glyph glyph-name="Ocircumflex" unicode="&#xd4;" horiz-adv-x="696" d="M294 -8 Q225 -8 172 23 Q119 54 89.5 111 Q60 168 60 243 L60 457 Q60 532 89.5 589 Q119 646 172 677 Q225 708 295 708 L401 708 Q471 708 524 677 Q577 646 606.5 589 Q636 532 636 457 L636 243 Q636 168 606.5 111.5 Q577 55 523.5 23.5 Q470 -8 401 -8 L294 -8 Z M399 58 Q472 58 517 109 Q562 160 562 243 L562 457 Q562 540 517 591 Q472 642 399 642 L297 642 Q224 642 179 591 Q134 540 134 457 L134 243 Q134 160 178.5 109 Q223 58 296 58 L399 58 Z M320 943 L375 943 L500 781 L432 781 L348 893 L264 781 L196 781 L320 943 Z " />
<glyph glyph-name="uni1ED0" unicode="&#x1ed0;" horiz-adv-x="696" d="M294 -8 Q225 -8 172 23 Q119 54 89.5 111 Q60 168 60 243 L60 457 Q60 532 89.5 589 Q119 646 172 677 Q225 708 295 708 L401 708 Q471 708 524 677 Q577 646 606.5 589 Q636 532 636 457 L636 243 Q636 168 606.5 111.5 Q577 55 523.5 23.5 Q470 -8 401 -8 L294 -8 Z M399 58 Q472 58 517 109 Q562 160 562 243 L562 457 Q562 540 517 591 Q472 642 399 642 L297 642 Q224 642 179 591 Q134 540 134 457 L134 243 Q134 160 178.5 109 Q223 58 296 58 L399 58 Z M520 1049 L590 1049 L514 933 L456 933 L520 1049 Z M320 943 L375 943 L500 781 L432 781 L348 893 L264 781 L196 781 L320 943 Z " />
<glyph glyph-name="uni1ED8" unicode="&#x1ed8;" horiz-adv-x="696" d="M294 -8 Q225 -8 172 23 Q119 54 89.5 111 Q60 168 60 243 L60 457 Q60 532 89.5 589 Q119 646 172 677 Q225 708 295 708 L401 708 Q471 708 524 677 Q577 646 606.5 589 Q636 532 636 457 L636 243 Q636 168 606.5 111.5 Q577 55 523.5 23.5 Q470 -8 401 -8 L294 -8 Z M399 58 Q472 58 517 109 Q562 160 562 243 L562 457 Q562 540 517 591 Q472 642 399 642 L297 642 Q224 642 179 591 Q134 540 134 457 L134 243 Q134 160 178.5 109 Q223 58 296 58 L399 58 Z M348 -179 Q324 -179 309 -164 Q294 -149 294 -125 Q294 -101 309 -86 Q324 -71 348 -71 Q372 -71 387 -86 Q402 -101 402 -125 Q402 -149 387 -164 Q372 -179 348 -179 Z M320 943 L375 943 L500 781 L432 781 L348 893 L264 781 L196 781 L320 943 Z " />
<glyph glyph-name="uni1ED2" unicode="&#x1ed2;" horiz-adv-x="696" d="M294 -8 Q225 -8 172 23 Q119 54 89.5 111 Q60 168 60 243 L60 457 Q60 532 89.5 589 Q119 646 172 677 Q225 708 295 708 L401 708 Q471 708 524 677 Q577 646 606.5 589 Q636 532 636 457 L636 243 Q636 168 606.5 111.5 Q577 55 523.5 23.5 Q470 -8 401 -8 L294 -8 Z M399 58 Q472 58 517 109 Q562 160 562 243 L562 457 Q562 540 517 591 Q472 642 399 642 L297 642 Q224 642 179 591 Q134 540 134 457 L134 243 Q134 160 178.5 109 Q223 58 296 58 L399 58 Z M406 1049 L476 1049 L540 933 L482 933 L406 1049 Z M320 943 L375 943 L500 781 L432 781 L348 893 L264 781 L196 781 L320 943 Z " />
<glyph glyph-name="uni1ED4" unicode="&#x1ed4;" horiz-adv-x="696" d="M294 -8 Q225 -8 172 23 Q119 54 89.5 111 Q60 168 60 243 L60 457 Q60 532 89.5 589 Q119 646 172 677 Q225 708 295 708 L401 708 Q471 708 524 677 Q577 646 606.5 589 Q636 532 636 457 L636 243 Q636 168 606.5 111.5 Q577 55 523.5 23.5 Q470 -8 401 -8 L294 -8 Z M399 58 Q472 58 517 109 Q562 160 562 243 L562 457 Q562 540 517 591 Q472 642 399 642 L297 642 Q224 642 179 591 Q134 540 134 457 L134 243 Q134 160 178.5 109 Q223 58 296 58 L399 58 Z M459 931 Q459 948 469.5 959.5 Q480 971 499 983 Q513 993 520 999.5 Q527 1006 527 1015 L527 1024 Q527 1037 519 1044 Q511 1051 497 1051 L481 1051 Q446 1051 446 1017 L398 1017 Q398 1095 481 1095 L497 1095 Q577 1095 577 1024 L577 1015 Q577 996 565.5 983 Q554 970 535 958 Q523 950 517 944 Q511 938 511 931 L511 923 L459 923 L459 931 Z M320 943 L375 943 L500 781 L432 781 L348 893 L264 781 L196 781 L320 943 Z " />
<glyph glyph-name="uni1ED6" unicode="&#x1ed6;" horiz-adv-x="696" d="M294 -8 Q225 -8 172 23 Q119 54 89.5 111 Q60 168 60 243 L60 457 Q60 532 89.5 589 Q119 646 172 677 Q225 708 295 708 L401 708 Q471 708 524 677 Q577 646 606.5 589 Q636 532 636 457 L636 243 Q636 168 606.5 111.5 Q577 55 523.5 23.5 Q470 -8 401 -8 L294 -8 Z M399 58 Q472 58 517 109 Q562 160 562 243 L562 457 Q562 540 517 591 Q472 642 399 642 L297 642 Q224 642 179 591 Q134 540 134 457 L134 243 Q134 160 178.5 109 Q223 58 296 58 L399 58 Z M403 978 Q383 978 369 987 Q355 996 338 1013 Q325 1026 317 1031.5 Q309 1037 300 1037 L291 1037 Q278 1037 269 1024.5 Q260 1012 259 992 L210 992 Q211 1032 233.5 1056.5 Q256 1081 291 1081 L300 1081 Q323 1081 338.5 1071 Q354 1061 370 1044 Q382 1032 388.5 1027 Q395 1022 403 1022 L412 1022 Q424 1022 432.5 1034.5 Q441 1047 442 1067 L491 1067 Q490 1027 468 1002.5 Q446 978 412 978 L403 978 Z M320 943 L375 943 L500 781 L432 781 L348 893 L264 781 L196 781 L320 943 Z " />
<glyph glyph-name="Odieresis" unicode="&#xd6;" horiz-adv-x="696" d="M294 -8 Q225 -8 172 23 Q119 54 89.5 111 Q60 168 60 243 L60 457 Q60 532 89.5 589 Q119 646 172 677 Q225 708 295 708 L401 708 Q471 708 524 677 Q577 646 606.5 589 Q636 532 636 457 L636 243 Q636 168 606.5 111.5 Q577 55 523.5 23.5 Q470 -8 401 -8 L294 -8 Z M399 58 Q472 58 517 109 Q562 160 562 243 L562 457 Q562 540 517 591 Q472 642 399 642 L297 642 Q224 642 179 591 Q134 540 134 457 L134 243 Q134 160 178.5 109 Q223 58 296 58 L399 58 Z M248 781 Q226 781 212.5 794.5 Q199 808 199 830 Q199 852 212.5 865.5 Q226 879 248 879 Q270 879 283.5 865.5 Q297 852 297 830 Q297 808 283.5 794.5 Q270 781 248 781 Z M447 781 Q425 781 411.5 794.5 Q398 808 398 830 Q398 852 411.5 865.5 Q425 879 447 879 Q469 879 482.5 865.5 Q496 852 496 830 Q496 808 482.5 794.5 Q469 781 447 781 Z " />
<glyph glyph-name="uni1ECC" unicode="&#x1ecc;" horiz-adv-x="696" d="M294 -8 Q225 -8 172 23 Q119 54 89.5 111 Q60 168 60 243 L60 457 Q60 532 89.5 589 Q119 646 172 677 Q225 708 295 708 L401 708 Q471 708 524 677 Q577 646 606.5 589 Q636 532 636 457 L636 243 Q636 168 606.5 111.5 Q577 55 523.5 23.5 Q470 -8 401 -8 L294 -8 Z M399 58 Q472 58 517 109 Q562 160 562 243 L562 457 Q562 540 517 591 Q472 642 399 642 L297 642 Q224 642 179 591 Q134 540 134 457 L134 243 Q134 160 178.5 109 Q223 58 296 58 L399 58 Z M348 -179 Q324 -179 309 -164 Q294 -149 294 -125 Q294 -101 309 -86 Q324 -71 348 -71 Q372 -71 387 -86 Q402 -101 402 -125 Q402 -149 387 -164 Q372 -179 348 -179 Z " />
<glyph glyph-name="Ograve" unicode="&#xd2;" horiz-adv-x="696" d="M294 -8 Q225 -8 172 23 Q119 54 89.5 111 Q60 168 60 243 L60 457 Q60 532 89.5 589 Q119 646 172 677 Q225 708 295 708 L401 708 Q471 708 524 677 Q577 646 606.5 589 Q636 532 636 457 L636 243 Q636 168 606.5 111.5 Q577 55 523.5 23.5 Q470 -8 401 -8 L294 -8 Z M399 58 Q472 58 517 109 Q562 160 562 243 L562 457 Q562 540 517 591 Q472 642 399 642 L297 642 Q224 642 179 591 Q134 540 134 457 L134 243 Q134 160 178.5 109 Q223 58 296 58 L399 58 Z M217 933 L299 933 L382 781 L316 781 L217 933 Z " />
<glyph glyph-name="uni1ECE" unicode="&#x1ece;" horiz-adv-x="696" d="M294 -8 Q225 -8 172 23 Q119 54 89.5 111 Q60 168 60 243 L60 457 Q60 532 89.5 589 Q119 646 172 677 Q225 708 295 708 L401 708 Q471 708 524 677 Q577 646 606.5 589 Q636 532 636 457 L636 243 Q636 168 606.5 111.5 Q577 55 523.5 23.5 Q470 -8 401 -8 L294 -8 Z M399 58 Q472 58 517 109 Q562 160 562 243 L562 457 Q562 540 517 591 Q472 642 399 642 L297 642 Q224 642 179 591 Q134 540 134 457 L134 243 Q134 160 178.5 109 Q223 58 296 58 L399 58 Z M313 783 Q313 804 325.5 818 Q338 832 361 847 Q378 859 386.5 867 Q395 875 395 886 L395 897 Q395 930 359 930 L339 930 Q297 930 297 888 L239 888 Q239 982 339 982 L359 982 Q406 982 430.5 960.5 Q455 939 455 897 L455 886 Q455 863 442 848 Q429 833 405 816 Q390 806 382.5 798.5 Q375 791 375 783 L375 767 L313 767 L313 783 Z " />
<glyph glyph-name="Ohorn" unicode="&#x1a0;" horiz-adv-x="766" d="M781 698 L781 686 Q781 605 741.5 559.5 Q702 514 631 513 Q636 483 636 457 L636 243 Q636 168 606.5 111.5 Q577 55 523.5 23.5 Q470 -8 401 -8 L294 -8 Q225 -8 172 23 Q119 54 89.5 111 Q60 168 60 243 L60 457 Q60 532 89.5 589 Q119 646 172 677 Q225 708 295 708 L401 708 Q476 708 531.5 672.5 Q587 637 614 573 L632 573 Q672 573 692.5 602 Q713 631 713 686 L713 698 L781 698 Z M562 457 Q562 540 517 591 Q472 642 399 642 L297 642 Q224 642 179 591 Q134 540 134 457 L134 243 Q134 160 178.5 109 Q223 58 296 58 L399 58 Q472 58 517 109 Q562 160 562 243 L562 457 Z " />
<glyph glyph-name="uni1EDA" unicode="&#x1eda;" horiz-adv-x="766" d="M781 698 L781 686 Q781 605 741.5 559.5 Q702 514 631 513 Q636 483 636 457 L636 243 Q636 168 606.5 111.5 Q577 55 523.5 23.5 Q470 -8 401 -8 L294 -8 Q225 -8 172 23 Q119 54 89.5 111 Q60 168 60 243 L60 457 Q60 532 89.5 589 Q119 646 172 677 Q225 708 295 708 L401 708 Q476 708 531.5 672.5 Q587 637 614 573 L632 573 Q672 573 692.5 602 Q713 631 713 686 L713 698 L781 698 Z M562 457 Q562 540 517 591 Q472 642 399 642 L297 642 Q224 642 179 591 Q134 540 134 457 L134 243 Q134 160 178.5 109 Q223 58 296 58 L399 58 Q472 58 517 109 Q562 160 562 243 L562 457 Z M400 933 L482 933 L383 781 L317 781 L400 933 Z " />
<glyph glyph-name="uni1EE2" unicode="&#x1ee2;" horiz-adv-x="766" d="M781 698 L781 686 Q781 605 741.5 559.5 Q702 514 631 513 Q636 483 636 457 L636 243 Q636 168 606.5 111.5 Q577 55 523.5 23.5 Q470 -8 401 -8 L294 -8 Q225 -8 172 23 Q119 54 89.5 111 Q60 168 60 243 L60 457 Q60 532 89.5 589 Q119 646 172 677 Q225 708 295 708 L401 708 Q476 708 531.5 672.5 Q587 637 614 573 L632 573 Q672 573 692.5 602 Q713 631 713 686 L713 698 L781 698 Z M562 457 Q562 540 517 591 Q472 642 399 642 L297 642 Q224 642 179 591 Q134 540 134 457 L134 243 Q134 160 178.5 109 Q223 58 296 58 L399 58 Q472 58 517 109 Q562 160 562 243 L562 457 Z M348 -179 Q324 -179 309 -164 Q294 -149 294 -125 Q294 -101 309 -86 Q324 -71 348 -71 Q372 -71 387 -86 Q402 -101 402 -125 Q402 -149 387 -164 Q372 -179 348 -179 Z " />
<glyph glyph-name="uni1EDC" unicode="&#x1edc;" horiz-adv-x="766" d="M781 698 L781 686 Q781 605 741.5 559.5 Q702 514 631 513 Q636 483 636 457 L636 243 Q636 168 606.5 111.5 Q577 55 523.5 23.5 Q470 -8 401 -8 L294 -8 Q225 -8 172 23 Q119 54 89.5 111 Q60 168 60 243 L60 457 Q60 532 89.5 589 Q119 646 172 677 Q225 708 295 708 L401 708 Q476 708 531.5 672.5 Q587 637 614 573 L632 573 Q672 573 692.5 602 Q713 631 713 686 L713 698 L781 698 Z M562 457 Q562 540 517 591 Q472 642 399 642 L297 642 Q224 642 179 591 Q134 540 134 457 L134 243 Q134 160 178.5 109 Q223 58 296 58 L399 58 Q472 58 517 109 Q562 160 562 243 L562 457 Z M217 933 L299 933 L382 781 L316 781 L217 933 Z " />
<glyph glyph-name="uni1EDE" unicode="&#x1ede;" horiz-adv-x="766" d="M781 698 L781 686 Q781 605 741.5 559.5 Q702 514 631 513 Q636 483 636 457 L636 243 Q636 168 606.5 111.5 Q577 55 523.5 23.5 Q470 -8 401 -8 L294 -8 Q225 -8 172 23 Q119 54 89.5 111 Q60 168 60 243 L60 457 Q60 532 89.5 589 Q119 646 172 677 Q225 708 295 708 L401 708 Q476 708 531.5 672.5 Q587 637 614 573 L632 573 Q672 573 692.5 602 Q713 631 713 686 L713 698 L781 698 Z M562 457 Q562 540 517 591 Q472 642 399 642 L297 642 Q224 642 179 591 Q134 540 134 457 L134 243 Q134 160 178.5 109 Q223 58 296 58 L399 58 Q472 58 517 109 Q562 160 562 243 L562 457 Z M313 783 Q313 804 325.5 818 Q338 832 361 847 Q378 859 386.5 867 Q395 875 395 886 L395 897 Q395 930 359 930 L339 930 Q297 930 297 888 L239 888 Q239 982 339 982 L359 982 Q406 982 430.5 960.5 Q455 939 455 897 L455 886 Q455 863 442 848 Q429 833 405 816 Q390 806 382.5 798.5 Q375 791 375 783 L375 767 L313 767 L313 783 Z " />
<glyph glyph-name="uni1EE0" unicode="&#x1ee0;" horiz-adv-x="766" d="M781 698 L781 686 Q781 605 741.5 559.5 Q702 514 631 513 Q636 483 636 457 L636 243 Q636 168 606.5 111.5 Q577 55 523.5 23.5 Q470 -8 401 -8 L294 -8 Q225 -8 172 23 Q119 54 89.5 111 Q60 168 60 243 L60 457 Q60 532 89.5 589 Q119 646 172 677 Q225 708 295 708 L401 708 Q476 708 531.5 672.5 Q587 637 614 573 L632 573 Q672 573 692.5 602 Q713 631 713 686 L713 698 L781 698 Z M562 457 Q562 540 517 591 Q472 642 399 642 L297 642 Q224 642 179 591 Q134 540 134 457 L134 243 Q134 160 178.5 109 Q223 58 296 58 L399 58 Q472 58 517 109 Q562 160 562 243 L562 457 Z M408 773 Q385 773 368.5 783.5 Q352 794 334 813 Q318 828 310 834 Q302 840 291 840 L281 840 Q266 840 255 826 Q244 812 243 789 L187 789 Q188 834 214.5 862 Q241 890 281 890 L291 890 Q316 890 333.5 879 Q351 868 371 848 Q383 835 391 829 Q399 823 408 823 L418 823 Q432 823 442.5 837 Q453 851 454 874 L510 874 Q509 829 483 801 Q457 773 418 773 L408 773 Z " />
<glyph glyph-name="Ohungarumlaut" unicode="&#x150;" horiz-adv-x="696" d="M294 -8 Q225 -8 172 23 Q119 54 89.5 111 Q60 168 60 243 L60 457 Q60 532 89.5 589 Q119 646 172 677 Q225 708 295 708 L401 708 Q471 708 524 677 Q577 646 606.5 589 Q636 532 636 457 L636 243 Q636 168 606.5 111.5 Q577 55 523.5 23.5 Q470 -8 401 -8 L294 -8 Z M399 58 Q472 58 517 109 Q562 160 562 243 L562 457 Q562 540 517 591 Q472 642 399 642 L297 642 Q224 642 179 591 Q134 540 134 457 L134 243 Q134 160 178.5 109 Q223 58 296 58 L399 58 Z M322 933 L400 933 L305 781 L243 781 L322 933 Z M451 933 L529 933 L434 781 L372 781 L451 933 Z " />
<glyph glyph-name="Omacron" unicode="&#x14c;" horiz-adv-x="696" d="M294 -8 Q225 -8 172 23 Q119 54 89.5 111 Q60 168 60 243 L60 457 Q60 532 89.5 589 Q119 646 172 677 Q225 708 295 708 L401 708 Q471 708 524 677 Q577 646 606.5 589 Q636 532 636 457 L636 243 Q636 168 606.5 111.5 Q577 55 523.5 23.5 Q470 -8 401 -8 L294 -8 Z M399 58 Q472 58 517 109 Q562 160 562 243 L562 457 Q562 540 517 591 Q472 642 399 642 L297 642 Q224 642 179 591 Q134 540 134 457 L134 243 Q134 160 178.5 109 Q223 58 296 58 L399 58 Z M221 843 L476 843 L476 791 L221 791 L221 843 Z " />
<glyph glyph-name="Oslash" unicode="&#xd8;" horiz-adv-x="696" d="M575 636 Q636 567 636 457 L636 243 Q636 168 606.5 111.5 Q577 55 523.5 23.5 Q470 -8 401 -8 L294 -8 Q223 -8 168 25 L121 -45 L54 -45 L125 61 Q60 131 60 243 L60 457 Q60 532 89.5 589 Q119 646 172 677 Q225 708 295 708 L401 708 Q476 708 532 672 L575 737 L642 737 L575 636 Z M134 243 Q134 173 167 124 L493 613 Q453 642 399 642 L297 642 Q224 642 179 591 Q134 540 134 457 L134 243 Z M562 457 Q562 523 532 572 L207 84 Q245 58 296 58 L399 58 Q472 58 517 109 Q562 160 562 243 L562 457 Z " />
<glyph glyph-name="Oslashacute" unicode="&#x1fe;" horiz-adv-x="696" d="M575 636 Q636 567 636 457 L636 243 Q636 168 606.5 111.5 Q577 55 523.5 23.5 Q470 -8 401 -8 L294 -8 Q223 -8 168 25 L121 -45 L54 -45 L125 61 Q60 131 60 243 L60 457 Q60 532 89.5 589 Q119 646 172 677 Q225 708 295 708 L401 708 Q476 708 532 672 L575 737 L642 737 L575 636 Z M134 243 Q134 173 167 124 L493 613 Q453 642 399 642 L297 642 Q224 642 179 591 Q134 540 134 457 L134 243 Z M562 457 Q562 523 532 572 L207 84 Q245 58 296 58 L399 58 Q472 58 517 109 Q562 160 562 243 L562 457 Z M396 933 L478 933 L379 781 L313 781 L396 933 Z " />
<glyph glyph-name="Otilde" unicode="&#xd5;" horiz-adv-x="696" d="M294 -8 Q225 -8 172 23 Q119 54 89.5 111 Q60 168 60 243 L60 457 Q60 532 89.5 589 Q119 646 172 677 Q225 708 295 708 L401 708 Q471 708 524 677 Q577 646 606.5 589 Q636 532 636 457 L636 243 Q636 168 606.5 111.5 Q577 55 523.5 23.5 Q470 -8 401 -8 L294 -8 Z M399 58 Q472 58 517 109 Q562 160 562 243 L562 457 Q562 540 517 591 Q472 642 399 642 L297 642 Q224 642 179 591 Q134 540 134 457 L134 243 Q134 160 178.5 109 Q223 58 296 58 L399 58 Z M408 773 Q385 773 368.5 783.5 Q352 794 334 813 Q318 828 310 834 Q302 840 291 840 L281 840 Q266 840 255 826 Q244 812 243 789 L187 789 Q188 834 214.5 862 Q241 890 281 890 L291 890 Q316 890 333.5 879 Q351 868 371 848 Q383 835 391 829 Q399 823 408 823 L418 823 Q432 823 442.5 837 Q453 851 454 874 L510 874 Q509 829 483 801 Q457 773 418 773 L408 773 Z " />
<glyph glyph-name="OE" unicode="&#x152;" horiz-adv-x="1076" d="M294 -8 Q225 -8 172 23.5 Q119 55 89.5 112.5 Q60 170 60 245 L60 453 Q60 528 89.5 586 Q119 644 173 676 Q227 708 297 708 L405 708 Q454 708 497 687.5 Q540 667 568 631 L568 700 L1026 700 L1026 636 L642 636 L642 390 L986 390 L986 326 L642 326 L642 64 L1026 64 L1026 0 L635 0 Q606 0 587.5 16 Q569 32 569 57 L569 82 Q542 42 494.5 17 Q447 -8 398 -8 L294 -8 Z M396 58 Q473 58 520.5 110.5 Q568 163 568 249 L568 453 Q568 537 522.5 589.5 Q477 642 403 642 L299 642 Q225 642 179.5 589.5 Q134 537 134 453 L134 245 Q134 161 178.5 109.5 Q223 58 296 58 L396 58 Z " />
<glyph glyph-name="P" unicode="P" horiz-adv-x="624" d="M80 700 L419 700 Q497 700 544.5 656 Q592 612 592 540 L592 437 Q592 360 541 312.5 Q490 265 407 265 L154 265 L154 0 L80 0 L80 700 Z M405 331 Q456 331 487 360.5 Q518 390 518 439 L518 542 Q518 583 490.5 608.5 Q463 634 417 634 L154 634 L154 331 L405 331 Z " />
<glyph glyph-name="Thorn" unicode="&#xde;" horiz-adv-x="638" d="M419 574 Q497 574 544.5 530.5 Q592 487 592 416 L592 313 Q592 235 538.5 187 Q485 139 397 139 L154 139 L154 0 L80 0 L80 700 L154 700 L154 574 L419 574 Z M518 418 Q518 459 490.5 483.5 Q463 508 417 508 L154 508 L154 205 L395 205 Q450 205 484 235 Q518 265 518 315 L518 418 Z " />
<glyph glyph-name="Q" unicode="Q" horiz-adv-x="700" d="M622 -32 L545 44 Q480 -8 395 -8 L291 -8 Q222 -8 169.5 23 Q117 54 88.5 111 Q60 168 60 243 L60 457 Q60 532 89.5 588.5 Q119 645 173 676.5 Q227 708 296 708 L402 708 Q471 708 524 677 Q577 646 606.5 589 Q636 532 636 457 L636 245 Q636 158 590 93 L668 16 L622 -32 Z M393 58 Q453 58 496 93 L394 193 L440 241 L538 144 Q562 189 562 245 L562 457 Q562 540 517.5 591 Q473 642 400 642 L298 642 Q225 642 179.5 591 Q134 540 134 457 L134 243 Q134 159 177.5 108.5 Q221 58 293 58 L393 58 Z " />
<glyph glyph-name="R" unicode="R" horiz-adv-x="650" d="M80 700 L420 700 Q497 700 543.5 656.5 Q590 613 590 542 L590 469 Q590 416 556 375.5 Q522 335 465 318 L465 317 Q495 301 519.5 266 Q544 231 557 187 L612 0 L536 0 L481 187 Q467 236 432.5 266 Q398 296 357 296 L154 296 L154 0 L80 0 L80 700 Z M394 362 Q449 362 482.5 391.5 Q516 421 516 469 L516 546 Q516 586 489 610 Q462 634 418 634 L154 634 L154 362 L394 362 Z " />
<glyph glyph-name="Racute" unicode="&#x154;" horiz-adv-x="650" d="M80 700 L420 700 Q497 700 543.5 656.5 Q590 613 590 542 L590 469 Q590 416 556 375.5 Q522 335 465 318 L465 317 Q495 301 519.5 266 Q544 231 557 187 L612 0 L536 0 L481 187 Q467 236 432.5 266 Q398 296 357 296 L154 296 L154 0 L80 0 L80 700 Z M394 362 Q449 362 482.5 391.5 Q516 421 516 469 L516 546 Q516 586 489 610 Q462 634 418 634 L154 634 L154 362 L394 362 Z M374 933 L456 933 L357 781 L291 781 L374 933 Z " />
<glyph glyph-name="Rcaron" unicode="&#x158;" horiz-adv-x="650" d="M80 700 L420 700 Q497 700 543.5 656.5 Q590 613 590 542 L590 469 Q590 416 556 375.5 Q522 335 465 318 L465 317 Q495 301 519.5 266 Q544 231 557 187 L612 0 L536 0 L481 187 Q467 236 432.5 266 Q398 296 357 296 L154 296 L154 0 L80 0 L80 700 Z M394 362 Q449 362 482.5 391.5 Q516 421 516 469 L516 546 Q516 586 489 610 Q462 634 418 634 L154 634 L154 362 L394 362 Z M170 943 L238 943 L322 831 L406 943 L474 943 L349 781 L294 781 L170 943 Z " />
<glyph glyph-name="uni0156" unicode="&#x156;" horiz-adv-x="650" d="M80 700 L420 700 Q497 700 543.5 656.5 Q590 613 590 542 L590 469 Q590 416 556 375.5 Q522 335 465 318 L465 317 Q495 301 519.5 266 Q544 231 557 187 L612 0 L536 0 L481 187 Q467 236 432.5 266 Q398 296 357 296 L154 296 L154 0 L80 0 L80 700 Z M394 362 Q449 362 482.5 391.5 Q516 421 516 469 L516 546 Q516 586 489 610 Q462 634 418 634 L154 634 L154 362 L394 362 Z M227 -224 L242 -214 Q272 -194 286.5 -167.5 Q301 -141 301 -106 L301 -75 L373 -75 L373 -106 Q373 -162 352 -201 Q331 -240 287 -268 L268 -280 L227 -224 Z " />
<glyph glyph-name="uni1E5A" unicode="&#x1e5a;" horiz-adv-x="650" d="M80 700 L420 700 Q497 700 543.5 656.5 Q590 613 590 542 L590 469 Q590 416 556 375.5 Q522 335 465 318 L465 317 Q495 301 519.5 266 Q544 231 557 187 L612 0 L536 0 L481 187 Q467 236 432.5 266 Q398 296 357 296 L154 296 L154 0 L80 0 L80 700 Z M394 362 Q449 362 482.5 391.5 Q516 421 516 469 L516 546 Q516 586 489 610 Q462 634 418 634 L154 634 L154 362 L394 362 Z M337 -179 Q313 -179 298 -164 Q283 -149 283 -125 Q283 -101 298 -86 Q313 -71 337 -71 Q361 -71 376 -86 Q391 -101 391 -125 Q391 -149 376 -164 Q361 -179 337 -179 Z " />
<glyph glyph-name="uni1E5C" unicode="&#x1e5c;" horiz-adv-x="650" d="M80 700 L420 700 Q497 700 543.5 656.5 Q590 613 590 542 L590 469 Q590 416 556 375.5 Q522 335 465 318 L465 317 Q495 301 519.5 266 Q544 231 557 187 L612 0 L536 0 L481 187 Q467 236 432.5 266 Q398 296 357 296 L154 296 L154 0 L80 0 L80 700 Z M394 362 Q449 362 482.5 391.5 Q516 421 516 469 L516 546 Q516 586 489 610 Q462 634 418 634 L154 634 L154 362 L394 362 Z M337 -179 Q313 -179 298 -164 Q283 -149 283 -125 Q283 -101 298 -86 Q313 -71 337 -71 Q361 -71 376 -86 Q391 -101 391 -125 Q391 -149 376 -164 Q361 -179 337 -179 Z M195 843 L450 843 L450 791 L195 791 L195 843 Z " />
<glyph glyph-name="uni1E5E" unicode="&#x1e5e;" horiz-adv-x="650" d="M80 700 L420 700 Q497 700 543.5 656.5 Q590 613 590 542 L590 469 Q590 416 556 375.5 Q522 335 465 318 L465 317 Q495 301 519.5 266 Q544 231 557 187 L612 0 L536 0 L481 187 Q467 236 432.5 266 Q398 296 357 296 L154 296 L154 0 L80 0 L80 700 Z M394 362 Q449 362 482.5 391.5 Q516 421 516 469 L516 546 Q516 586 489 610 Q462 634 418 634 L154 634 L154 362 L394 362 Z M210 -74 L465 -74 L465 -126 L210 -126 L210 -74 Z " />
<glyph glyph-name="S" unicode="S" horiz-adv-x="627" d="M259 -8 Q199 -8 153 17.5 Q107 43 81.5 89.5 Q56 136 56 197 L128 197 Q128 135 164.5 96.5 Q201 58 261 58 L372 58 Q431 58 467 84.5 Q503 111 503 154 L503 218 Q503 252 476.5 276 Q450 300 404 307 L224 337 Q148 350 106 391 Q64 432 64 494 L64 548 Q64 621 118.5 664.5 Q173 708 263 708 L376 708 Q461 708 513 656.5 Q565 605 565 521 L493 521 Q493 576 461 609 Q429 642 376 642 L263 642 Q206 642 172 616.5 Q138 591 138 548 L138 494 Q138 459 163.5 435 Q189 411 234 403 L413 372 Q491 358 534 318.5 Q577 279 577 218 L577 154 Q577 81 521 36.5 Q465 -8 374 -8 L259 -8 Z " />
<glyph glyph-name="Sacute" unicode="&#x15a;" horiz-adv-x="627" d="M259 -8 Q199 -8 153 17.5 Q107 43 81.5 89.5 Q56 136 56 197 L128 197 Q128 135 164.5 96.5 Q201 58 261 58 L372 58 Q431 58 467 84.5 Q503 111 503 154 L503 218 Q503 252 476.5 276 Q450 300 404 307 L224 337 Q148 350 106 391 Q64 432 64 494 L64 548 Q64 621 118.5 664.5 Q173 708 263 708 L376 708 Q461 708 513 656.5 Q565 605 565 521 L493 521 Q493 576 461 609 Q429 642 376 642 L263 642 Q206 642 172 616.5 Q138 591 138 548 L138 494 Q138 459 163.5 435 Q189 411 234 403 L413 372 Q491 358 534 318.5 Q577 279 577 218 L577 154 Q577 81 521 36.5 Q465 -8 374 -8 L259 -8 Z M370 933 L452 933 L353 781 L287 781 L370 933 Z " />
<glyph glyph-name="Scaron" unicode="&#x160;" horiz-adv-x="627" d="M259 -8 Q199 -8 153 17.5 Q107 43 81.5 89.5 Q56 136 56 197 L128 197 Q128 135 164.5 96.5 Q201 58 261 58 L372 58 Q431 58 467 84.5 Q503 111 503 154 L503 218 Q503 252 476.5 276 Q450 300 404 307 L224 337 Q148 350 106 391 Q64 432 64 494 L64 548 Q64 621 118.5 664.5 Q173 708 263 708 L376 708 Q461 708 513 656.5 Q565 605 565 521 L493 521 Q493 576 461 609 Q429 642 376 642 L263 642 Q206 642 172 616.5 Q138 591 138 548 L138 494 Q138 459 163.5 435 Q189 411 234 403 L413 372 Q491 358 534 318.5 Q577 279 577 218 L577 154 Q577 81 521 36.5 Q465 -8 374 -8 L259 -8 Z M166 943 L234 943 L318 831 L402 943 L470 943 L345 781 L290 781 L166 943 Z " />
<glyph glyph-name="Scedilla" unicode="&#x15e;" horiz-adv-x="627" d="M413 372 Q491 358 534 318.5 Q577 279 577 218 L577 154 Q577 81 521 36.5 Q465 -8 374 -8 L350 -8 L329 -54 L336 -54 Q375 -54 398.5 -75 Q422 -96 422 -130 L422 -141 Q422 -178 393 -200.5 Q364 -223 317 -223 L262 -223 L262 -175 L315 -175 Q337 -175 351 -165.5 Q365 -156 365 -141 L365 -130 Q365 -115 352.5 -105.5 Q340 -96 320 -96 L273 -96 L273 -52 L292 -8 L259 -8 Q199 -8 153 17.5 Q107 43 81.5 89.5 Q56 136 56 197 L128 197 Q128 135 164.5 96.5 Q201 58 261 58 L372 58 Q431 58 467 84.5 Q503 111 503 154 L503 218 Q503 252 476.5 276 Q450 300 404 307 L224 337 Q148 350 106 391 Q64 432 64 494 L64 548 Q64 621 118.5 664.5 Q173 708 263 708 L376 708 Q461 708 513 656.5 Q565 605 565 521 L493 521 Q493 576 461 609 Q429 642 376 642 L263 642 Q206 642 172 616.5 Q138 591 138 548 L138 494 Q138 459 163.5 435 Q189 411 234 403 L413 372 Z " />
<glyph glyph-name="Scircumflex" unicode="&#x15c;" horiz-adv-x="627" d="M259 -8 Q199 -8 153 17.5 Q107 43 81.5 89.5 Q56 136 56 197 L128 197 Q128 135 164.5 96.5 Q201 58 261 58 L372 58 Q431 58 467 84.5 Q503 111 503 154 L503 218 Q503 252 476.5 276 Q450 300 404 307 L224 337 Q148 350 106 391 Q64 432 64 494 L64 548 Q64 621 118.5 664.5 Q173 708 263 708 L376 708 Q461 708 513 656.5 Q565 605 565 521 L493 521 Q493 576 461 609 Q429 642 376 642 L263 642 Q206 642 172 616.5 Q138 591 138 548 L138 494 Q138 459 163.5 435 Q189 411 234 403 L413 372 Q491 358 534 318.5 Q577 279 577 218 L577 154 Q577 81 521 36.5 Q465 -8 374 -8 L259 -8 Z M290 943 L345 943 L470 781 L402 781 L318 893 L234 781 L166 781 L290 943 Z " />
<glyph glyph-name="uni0218" unicode="&#x218;" horiz-adv-x="627" d="M259 -8 Q199 -8 153 17.5 Q107 43 81.5 89.5 Q56 136 56 197 L128 197 Q128 135 164.5 96.5 Q201 58 261 58 L372 58 Q431 58 467 84.5 Q503 111 503 154 L503 218 Q503 252 476.5 276 Q450 300 404 307 L224 337 Q148 350 106 391 Q64 432 64 494 L64 548 Q64 621 118.5 664.5 Q173 708 263 708 L376 708 Q461 708 513 656.5 Q565 605 565 521 L493 521 Q493 576 461 609 Q429 642 376 642 L263 642 Q206 642 172 616.5 Q138 591 138 548 L138 494 Q138 459 163.5 435 Q189 411 234 403 L413 372 Q491 358 534 318.5 Q577 279 577 218 L577 154 Q577 81 521 36.5 Q465 -8 374 -8 L259 -8 Z M218 -224 L233 -214 Q263 -194 277.5 -167.5 Q292 -141 292 -106 L292 -75 L364 -75 L364 -106 Q364 -162 343 -201 Q322 -240 278 -268 L259 -280 L218 -224 Z " />
<glyph glyph-name="uni1E60" unicode="&#x1e60;" horiz-adv-x="627" d="M259 -8 Q199 -8 153 17.5 Q107 43 81.5 89.5 Q56 136 56 197 L128 197 Q128 135 164.5 96.5 Q201 58 261 58 L372 58 Q431 58 467 84.5 Q503 111 503 154 L503 218 Q503 252 476.5 276 Q450 300 404 307 L224 337 Q148 350 106 391 Q64 432 64 494 L64 548 Q64 621 118.5 664.5 Q173 708 263 708 L376 708 Q461 708 513 656.5 Q565 605 565 521 L493 521 Q493 576 461 609 Q429 642 376 642 L263 642 Q206 642 172 616.5 Q138 591 138 548 L138 494 Q138 459 163.5 435 Q189 411 234 403 L413 372 Q491 358 534 318.5 Q577 279 577 218 L577 154 Q577 81 521 36.5 Q465 -8 374 -8 L259 -8 Z M318 781 Q294 781 279 796 Q264 811 264 835 Q264 859 279 874 Q294 889 318 889 Q342 889 357 874 Q372 859 372 835 Q372 811 357 796 Q342 781 318 781 Z " />
<glyph glyph-name="uni1E62" unicode="&#x1e62;" horiz-adv-x="627" d="M259 -8 Q199 -8 153 17.5 Q107 43 81.5 89.5 Q56 136 56 197 L128 197 Q128 135 164.5 96.5 Q201 58 261 58 L372 58 Q431 58 467 84.5 Q503 111 503 154 L503 218 Q503 252 476.5 276 Q450 300 404 307 L224 337 Q148 350 106 391 Q64 432 64 494 L64 548 Q64 621 118.5 664.5 Q173 708 263 708 L376 708 Q461 708 513 656.5 Q565 605 565 521 L493 521 Q493 576 461 609 Q429 642 376 642 L263 642 Q206 642 172 616.5 Q138 591 138 548 L138 494 Q138 459 163.5 435 Q189 411 234 403 L413 372 Q491 358 534 318.5 Q577 279 577 218 L577 154 Q577 81 521 36.5 Q465 -8 374 -8 L259 -8 Z M328 -179 Q304 -179 289 -164 Q274 -149 274 -125 Q274 -101 289 -86 Q304 -71 328 -71 Q352 -71 367 -86 Q382 -101 382 -125 Q382 -149 367 -164 Q352 -179 328 -179 Z " />
<glyph glyph-name="uni1E9E" unicode="&#x1e9e;" horiz-adv-x="653" d="M399 -8 Q328 -8 284 33.5 Q240 75 240 142 L310 142 Q310 103 334.5 79.5 Q359 56 399 56 L449 56 Q490 56 514.5 86 Q539 116 539 166 L539 196 Q539 243 521 270 Q503 297 462 311 L333 353 L333 402 L472 636 L277 636 Q214 636 179 600 Q144 564 144 504 L144 0 L72 0 L72 504 Q72 593 126.5 646.5 Q181 700 277 700 L552 700 L552 641 L406 395 L502 362 Q611 324 611 196 L611 166 Q611 87 566.5 39.5 Q522 -8 449 -8 L399 -8 Z " />
<glyph glyph-name="uni018F" unicode="&#x18f;" horiz-adv-x="708" d="M404 708 Q476 708 531.5 677 Q587 646 617.5 589.5 Q648 533 648 459 L648 255 Q648 177 617.5 117.5 Q587 58 531.5 25 Q476 -8 404 -8 L290 -8 Q222 -8 169.5 24 Q117 56 88.5 114 Q60 172 60 248 L60 360 L574 360 L574 459 Q574 541 527.5 591.5 Q481 642 404 642 L298 642 Q225 642 181 598 Q137 554 137 481 L63 481 Q63 548 92.5 599.5 Q122 651 175 679.5 Q228 708 298 708 L404 708 Z M404 58 Q480 58 527 112 Q574 166 574 255 L574 296 L134 296 L134 248 Q134 162 177 110 Q220 58 290 58 L404 58 Z " />
<glyph glyph-name="T" unicode="T" horiz-adv-x="578" d="M252 636 L30 636 L30 700 L548 700 L548 636 L326 636 L326 0 L252 0 L252 636 Z " />
<glyph glyph-name="Tbar" unicode="&#x166;" horiz-adv-x="578" d="M326 636 L326 361 L482 361 L482 301 L326 301 L326 0 L252 0 L252 301 L88 301 L88 361 L252 361 L252 636 L30 636 L30 700 L548 700 L548 636 L326 636 Z " />
<glyph glyph-name="Tcaron" unicode="&#x164;" horiz-adv-x="578" d="M252 636 L30 636 L30 700 L548 700 L548 636 L326 636 L326 0 L252 0 L252 636 Z M137 943 L205 943 L289 831 L373 943 L441 943 L316 781 L261 781 L137 943 Z " />
<glyph glyph-name="uni0162" unicode="&#x162;" horiz-adv-x="578" d="M315 0 L290 -54 L297 -54 Q336 -54 359.5 -75 Q383 -96 383 -130 L383 -141 Q383 -178 354 -200.5 Q325 -223 278 -223 L223 -223 L223 -175 L276 -175 Q298 -175 312 -165.5 Q326 -156 326 -141 L326 -130 Q326 -115 313.5 -105.5 Q301 -96 281 -96 L234 -96 L234 -52 L256 0 L252 0 L252 636 L30 636 L30 700 L548 700 L548 636 L326 636 L326 0 L315 0 Z " />
<glyph glyph-name="uni021A" unicode="&#x21a;" horiz-adv-x="578" d="M252 636 L30 636 L30 700 L548 700 L548 636 L326 636 L326 0 L252 0 L252 636 Z M179 -224 L194 -214 Q224 -194 238.5 -167.5 Q253 -141 253 -106 L253 -75 L325 -75 L325 -106 Q325 -162 304 -201 Q283 -240 239 -268 L220 -280 L179 -224 Z " />
<glyph glyph-name="uni1E6C" unicode="&#x1e6c;" horiz-adv-x="578" d="M252 636 L30 636 L30 700 L548 700 L548 636 L326 636 L326 0 L252 0 L252 636 Z M289 -179 Q265 -179 250 -164 Q235 -149 235 -125 Q235 -101 250 -86 Q265 -71 289 -71 Q313 -71 328 -86 Q343 -101 343 -125 Q343 -149 328 -164 Q313 -179 289 -179 Z " />
<glyph glyph-name="uni1E6E" unicode="&#x1e6e;" horiz-adv-x="578" d="M252 636 L30 636 L30 700 L548 700 L548 636 L326 636 L326 0 L252 0 L252 636 Z M162 -74 L417 -74 L417 -126 L162 -126 L162 -74 Z " />
<glyph glyph-name="U" unicode="U" horiz-adv-x="692" d="M292 -8 Q228 -8 179 20.5 Q130 49 103 101.5 Q76 154 76 222 L76 700 L150 700 L150 220 Q150 147 189 102.5 Q228 58 292 58 L400 58 Q464 58 503 102.5 Q542 147 542 220 L542 700 L616 700 L616 222 Q616 154 589 101.5 Q562 49 513 20.5 Q464 -8 400 -8 L292 -8 Z " />
<glyph glyph-name="Uacute" unicode="&#xda;" horiz-adv-x="692" d="M292 -8 Q228 -8 179 20.5 Q130 49 103 101.5 Q76 154 76 222 L76 700 L150 700 L150 220 Q150 147 189 102.5 Q228 58 292 58 L400 58 Q464 58 503 102.5 Q542 147 542 220 L542 700 L616 700 L616 222 Q616 154 589 101.5 Q562 49 513 20.5 Q464 -8 400 -8 L292 -8 Z M398 933 L480 933 L381 781 L315 781 L398 933 Z " />
<glyph glyph-name="Ubreve" unicode="&#x16c;" horiz-adv-x="692" d="M292 -8 Q228 -8 179 20.5 Q130 49 103 101.5 Q76 154 76 222 L76 700 L150 700 L150 220 Q150 147 189 102.5 Q228 58 292 58 L400 58 Q464 58 503 102.5 Q542 147 542 220 L542 700 L616 700 L616 222 Q616 154 589 101.5 Q562 49 513 20.5 Q464 -8 400 -8 L292 -8 Z M340 773 Q278 773 239.5 809 Q201 845 201 904 L201 912 L259 912 L259 904 Q259 867 281 845 Q303 823 340 823 L352 823 Q389 823 411.5 845 Q434 867 434 904 L434 912 L491 912 L491 904 Q491 845 452.5 809 Q414 773 352 773 L340 773 Z " />
<glyph glyph-name="uni01D3" unicode="&#x1d3;" horiz-adv-x="692" d="M292 -8 Q228 -8 179 20.5 Q130 49 103 101.5 Q76 154 76 222 L76 700 L150 700 L150 220 Q150 147 189 102.5 Q228 58 292 58 L400 58 Q464 58 503 102.5 Q542 147 542 220 L542 700 L616 700 L616 222 Q616 154 589 101.5 Q562 49 513 20.5 Q464 -8 400 -8 L292 -8 Z M194 943 L262 943 L346 831 L430 943 L498 943 L373 781 L318 781 L194 943 Z " />
<glyph glyph-name="Ucircumflex" unicode="&#xdb;" horiz-adv-x="692" d="M292 -8 Q228 -8 179 20.5 Q130 49 103 101.5 Q76 154 76 222 L76 700 L150 700 L150 220 Q150 147 189 102.5 Q228 58 292 58 L400 58 Q464 58 503 102.5 Q542 147 542 220 L542 700 L616 700 L616 222 Q616 154 589 101.5 Q562 49 513 20.5 Q464 -8 400 -8 L292 -8 Z M318 943 L373 943 L498 781 L430 781 L346 893 L262 781 L194 781 L318 943 Z " />
<glyph glyph-name="Udieresis" unicode="&#xdc;" horiz-adv-x="692" d="M292 -8 Q228 -8 179 20.5 Q130 49 103 101.5 Q76 154 76 222 L76 700 L150 700 L150 220 Q150 147 189 102.5 Q228 58 292 58 L400 58 Q464 58 503 102.5 Q542 147 542 220 L542 700 L616 700 L616 222 Q616 154 589 101.5 Q562 49 513 20.5 Q464 -8 400 -8 L292 -8 Z M246 781 Q224 781 210.5 794.5 Q197 808 197 830 Q197 852 210.5 865.5 Q224 879 246 879 Q268 879 281.5 865.5 Q295 852 295 830 Q295 808 281.5 794.5 Q268 781 246 781 Z M445 781 Q423 781 409.5 794.5 Q396 808 396 830 Q396 852 409.5 865.5 Q423 879 445 879 Q467 879 480.5 865.5 Q494 852 494 830 Q494 808 480.5 794.5 Q467 781 445 781 Z " />
<glyph glyph-name="uni01D7" unicode="&#x1d7;" horiz-adv-x="692" d="M292 -8 Q228 -8 179 20.5 Q130 49 103 101.5 Q76 154 76 222 L76 700 L150 700 L150 220 Q150 147 189 102.5 Q228 58 292 58 L400 58 Q464 58 503 102.5 Q542 147 542 220 L542 700 L616 700 L616 222 Q616 154 589 101.5 Q562 49 513 20.5 Q464 -8 400 -8 L292 -8 Z M379 1041 L449 1041 L373 925 L315 925 L379 1041 Z M246 781 Q224 781 210.5 794.5 Q197 808 197 830 Q197 852 210.5 865.5 Q224 879 246 879 Q268 879 281.5 865.5 Q295 852 295 830 Q295 808 281.5 794.5 Q268 781 246 781 Z M445 781 Q423 781 409.5 794.5 Q396 808 396 830 Q396 852 409.5 865.5 Q423 879 445 879 Q467 879 480.5 865.5 Q494 852 494 830 Q494 808 480.5 794.5 Q467 781 445 781 Z " />
<glyph glyph-name="uni01D9" unicode="&#x1d9;" horiz-adv-x="692" d="M292 -8 Q228 -8 179 20.5 Q130 49 103 101.5 Q76 154 76 222 L76 700 L150 700 L150 220 Q150 147 189 102.5 Q228 58 292 58 L400 58 Q464 58 503 102.5 Q542 147 542 220 L542 700 L616 700 L616 222 Q616 154 589 101.5 Q562 49 513 20.5 Q464 -8 400 -8 L292 -8 Z M217 1060 L278 1060 L346 969 L414 1060 L475 1060 L371 925 L321 925 L217 1060 Z M246 781 Q224 781 210.5 794.5 Q197 808 197 830 Q197 852 210.5 865.5 Q224 879 246 879 Q268 879 281.5 865.5 Q295 852 295 830 Q295 808 281.5 794.5 Q268 781 246 781 Z M445 781 Q423 781 409.5 794.5 Q396 808 396 830 Q396 852 409.5 865.5 Q423 879 445 879 Q467 879 480.5 865.5 Q494 852 494 830 Q494 808 480.5 794.5 Q467 781 445 781 Z " />
<glyph glyph-name="uni01DB" unicode="&#x1db;" horiz-adv-x="692" d="M292 -8 Q228 -8 179 20.5 Q130 49 103 101.5 Q76 154 76 222 L76 700 L150 700 L150 220 Q150 147 189 102.5 Q228 58 292 58 L400 58 Q464 58 503 102.5 Q542 147 542 220 L542 700 L616 700 L616 222 Q616 154 589 101.5 Q562 49 513 20.5 Q464 -8 400 -8 L292 -8 Z M237 1041 L307 1041 L371 925 L313 925 L237 1041 Z M246 781 Q224 781 210.5 794.5 Q197 808 197 830 Q197 852 210.5 865.5 Q224 879 246 879 Q268 879 281.5 865.5 Q295 852 295 830 Q295 808 281.5 794.5 Q268 781 246 781 Z M445 781 Q423 781 409.5 794.5 Q396 808 396 830 Q396 852 409.5 865.5 Q423 879 445 879 Q467 879 480.5 865.5 Q494 852 494 830 Q494 808 480.5 794.5 Q467 781 445 781 Z " />
<glyph glyph-name="uni01D5" unicode="&#x1d5;" horiz-adv-x="692" d="M292 -8 Q228 -8 179 20.5 Q130 49 103 101.5 Q76 154 76 222 L76 700 L150 700 L150 220 Q150 147 189 102.5 Q228 58 292 58 L400 58 Q464 58 503 102.5 Q542 147 542 220 L542 700 L616 700 L616 222 Q616 154 589 101.5 Q562 49 513 20.5 Q464 -8 400 -8 L292 -8 Z M219 987 L474 987 L474 935 L219 935 L219 987 Z M246 781 Q224 781 210.5 794.5 Q197 808 197 830 Q197 852 210.5 865.5 Q224 879 246 879 Q268 879 281.5 865.5 Q295 852 295 830 Q295 808 281.5 794.5 Q268 781 246 781 Z M445 781 Q423 781 409.5 794.5 Q396 808 396 830 Q396 852 409.5 865.5 Q423 879 445 879 Q467 879 480.5 865.5 Q494 852 494 830 Q494 808 480.5 794.5 Q467 781 445 781 Z " />
<glyph glyph-name="uni1EE4" unicode="&#x1ee4;" horiz-adv-x="692" d="M292 -8 Q228 -8 179 20.5 Q130 49 103 101.5 Q76 154 76 222 L76 700 L150 700 L150 220 Q150 147 189 102.5 Q228 58 292 58 L400 58 Q464 58 503 102.5 Q542 147 542 220 L542 700 L616 700 L616 222 Q616 154 589 101.5 Q562 49 513 20.5 Q464 -8 400 -8 L292 -8 Z M346 -179 Q322 -179 307 -164 Q292 -149 292 -125 Q292 -101 307 -86 Q322 -71 346 -71 Q370 -71 385 -86 Q400 -101 400 -125 Q400 -149 385 -164 Q370 -179 346 -179 Z " />
<glyph glyph-name="Ugrave" unicode="&#xd9;" horiz-adv-x="692" d="M292 -8 Q228 -8 179 20.5 Q130 49 103 101.5 Q76 154 76 222 L76 700 L150 700 L150 220 Q150 147 189 102.5 Q228 58 292 58 L400 58 Q464 58 503 102.5 Q542 147 542 220 L542 700 L616 700 L616 222 Q616 154 589 101.5 Q562 49 513 20.5 Q464 -8 400 -8 L292 -8 Z M215 933 L297 933 L380 781 L314 781 L215 933 Z " />
<glyph glyph-name="uni1EE6" unicode="&#x1ee6;" horiz-adv-x="692" d="M292 -8 Q228 -8 179 20.5 Q130 49 103 101.5 Q76 154 76 222 L76 700 L150 700 L150 220 Q150 147 189 102.5 Q228 58 292 58 L400 58 Q464 58 503 102.5 Q542 147 542 220 L542 700 L616 700 L616 222 Q616 154 589 101.5 Q562 49 513 20.5 Q464 -8 400 -8 L292 -8 Z M311 783 Q311 804 323.5 818 Q336 832 359 847 Q376 859 384.5 867 Q393 875 393 886 L393 897 Q393 930 357 930 L337 930 Q295 930 295 888 L237 888 Q237 982 337 982 L357 982 Q404 982 428.5 960.5 Q453 939 453 897 L453 886 Q453 863 440 848 Q427 833 403 816 Q388 806 380.5 798.5 Q373 791 373 783 L373 767 L311 767 L311 783 Z " />
<glyph glyph-name="Uhorn" unicode="&#x1af;" horiz-adv-x="766" d="M769 700 L769 688 Q769 606 729 560.5 Q689 515 618 515 L616 515 L616 222 Q616 154 589 101.5 Q562 49 513 20.5 Q464 -8 400 -8 L292 -8 Q228 -8 179 20.5 Q130 49 103 101.5 Q76 154 76 222 L76 700 L150 700 L150 220 Q150 147 189 102.5 Q228 58 292 58 L400 58 Q464 58 503 102.5 Q542 147 542 220 L542 700 L616 700 L616 575 L620 575 Q660 575 680.5 604 Q701 633 701 688 L701 700 L769 700 Z " />
<glyph glyph-name="uni1EE8" unicode="&#x1ee8;" horiz-adv-x="766" d="M769 700 L769 688 Q769 606 729 560.5 Q689 515 618 515 L616 515 L616 222 Q616 154 589 101.5 Q562 49 513 20.5 Q464 -8 400 -8 L292 -8 Q228 -8 179 20.5 Q130 49 103 101.5 Q76 154 76 222 L76 700 L150 700 L150 220 Q150 147 189 102.5 Q228 58 292 58 L400 58 Q464 58 503 102.5 Q542 147 542 220 L542 700 L616 700 L616 575 L620 575 Q660 575 680.5 604 Q701 633 701 688 L701 700 L769 700 Z M398 933 L480 933 L381 781 L315 781 L398 933 Z " />
<glyph glyph-name="uni1EF0" unicode="&#x1ef0;" horiz-adv-x="766" d="M769 700 L769 688 Q769 606 729 560.5 Q689 515 618 515 L616 515 L616 222 Q616 154 589 101.5 Q562 49 513 20.5 Q464 -8 400 -8 L292 -8 Q228 -8 179 20.5 Q130 49 103 101.5 Q76 154 76 222 L76 700 L150 700 L150 220 Q150 147 189 102.5 Q228 58 292 58 L400 58 Q464 58 503 102.5 Q542 147 542 220 L542 700 L616 700 L616 575 L620 575 Q660 575 680.5 604 Q701 633 701 688 L701 700 L769 700 Z M346 -179 Q322 -179 307 -164 Q292 -149 292 -125 Q292 -101 307 -86 Q322 -71 346 -71 Q370 -71 385 -86 Q400 -101 400 -125 Q400 -149 385 -164 Q370 -179 346 -179 Z " />
<glyph glyph-name="uni1EEA" unicode="&#x1eea;" horiz-adv-x="766" d="M769 700 L769 688 Q769 606 729 560.5 Q689 515 618 515 L616 515 L616 222 Q616 154 589 101.5 Q562 49 513 20.5 Q464 -8 400 -8 L292 -8 Q228 -8 179 20.5 Q130 49 103 101.5 Q76 154 76 222 L76 700 L150 700 L150 220 Q150 147 189 102.5 Q228 58 292 58 L400 58 Q464 58 503 102.5 Q542 147 542 220 L542 700 L616 700 L616 575 L620 575 Q660 575 680.5 604 Q701 633 701 688 L701 700 L769 700 Z M215 933 L297 933 L380 781 L314 781 L215 933 Z " />
<glyph glyph-name="uni1EEC" unicode="&#x1eec;" horiz-adv-x="766" d="M769 700 L769 688 Q769 606 729 560.5 Q689 515 618 515 L616 515 L616 222 Q616 154 589 101.5 Q562 49 513 20.5 Q464 -8 400 -8 L292 -8 Q228 -8 179 20.5 Q130 49 103 101.5 Q76 154 76 222 L76 700 L150 700 L150 220 Q150 147 189 102.5 Q228 58 292 58 L400 58 Q464 58 503 102.5 Q542 147 542 220 L542 700 L616 700 L616 575 L620 575 Q660 575 680.5 604 Q701 633 701 688 L701 700 L769 700 Z M311 783 Q311 804 323.5 818 Q336 832 359 847 Q376 859 384.5 867 Q393 875 393 886 L393 897 Q393 930 357 930 L337 930 Q295 930 295 888 L237 888 Q237 982 337 982 L357 982 Q404 982 428.5 960.5 Q453 939 453 897 L453 886 Q453 863 440 848 Q427 833 403 816 Q388 806 380.5 798.5 Q373 791 373 783 L373 767 L311 767 L311 783 Z " />
<glyph glyph-name="uni1EEE" unicode="&#x1eee;" horiz-adv-x="766" d="M769 700 L769 688 Q769 606 729 560.5 Q689 515 618 515 L616 515 L616 222 Q616 154 589 101.5 Q562 49 513 20.5 Q464 -8 400 -8 L292 -8 Q228 -8 179 20.5 Q130 49 103 101.5 Q76 154 76 222 L76 700 L150 700 L150 220 Q150 147 189 102.5 Q228 58 292 58 L400 58 Q464 58 503 102.5 Q542 147 542 220 L542 700 L616 700 L616 575 L620 575 Q660 575 680.5 604 Q701 633 701 688 L701 700 L769 700 Z M406 773 Q383 773 366.5 783.5 Q350 794 332 813 Q316 828 308 834 Q300 840 289 840 L279 840 Q264 840 253 826 Q242 812 241 789 L185 789 Q186 834 212.5 862 Q239 890 279 890 L289 890 Q314 890 331.5 879 Q349 868 369 848 Q381 835 389 829 Q397 823 406 823 L416 823 Q430 823 440.5 837 Q451 851 452 874 L508 874 Q507 829 481 801 Q455 773 416 773 L406 773 Z " />
<glyph glyph-name="Uhungarumlaut" unicode="&#x170;" horiz-adv-x="692" d="M292 -8 Q228 -8 179 20.5 Q130 49 103 101.5 Q76 154 76 222 L76 700 L150 700 L150 220 Q150 147 189 102.5 Q228 58 292 58 L400 58 Q464 58 503 102.5 Q542 147 542 220 L542 700 L616 700 L616 222 Q616 154 589 101.5 Q562 49 513 20.5 Q464 -8 400 -8 L292 -8 Z M320 933 L398 933 L303 781 L241 781 L320 933 Z M449 933 L527 933 L432 781 L370 781 L449 933 Z " />
<glyph glyph-name="Umacron" unicode="&#x16a;" horiz-adv-x="692" d="M292 -8 Q228 -8 179 20.5 Q130 49 103 101.5 Q76 154 76 222 L76 700 L150 700 L150 220 Q150 147 189 102.5 Q228 58 292 58 L400 58 Q464 58 503 102.5 Q542 147 542 220 L542 700 L616 700 L616 222 Q616 154 589 101.5 Q562 49 513 20.5 Q464 -8 400 -8 L292 -8 Z M219 843 L474 843 L474 791 L219 791 L219 843 Z " />
<glyph glyph-name="Uogonek" unicode="&#x172;" horiz-adv-x="692" d="M616 700 L616 222 Q616 136 574 76.5 Q532 17 459 -1 Q429 -17 411.5 -43 Q394 -69 394 -99 L394 -109 Q394 -129 406.5 -142 Q419 -155 442 -155 L452 -155 Q465 -155 480.5 -149.5 Q496 -144 508 -135 L508 -191 Q498 -199 480.5 -204 Q463 -209 447 -209 L437 -209 Q389 -209 360.5 -183 Q332 -157 332 -113 L332 -103 Q332 -76 345 -50.5 Q358 -25 380 -8 L292 -8 Q228 -8 179 20.5 Q130 49 103 101.5 Q76 154 76 222 L76 700 L150 700 L150 220 Q150 147 189 102.5 Q228 58 292 58 L400 58 Q464 58 503 102.5 Q542 147 542 220 L542 700 L616 700 Z " />
<glyph glyph-name="Uring" unicode="&#x16e;" horiz-adv-x="692" d="M292 -8 Q228 -8 179 20.5 Q130 49 103 101.5 Q76 154 76 222 L76 700 L150 700 L150 220 Q150 147 189 102.5 Q228 58 292 58 L400 58 Q464 58 503 102.5 Q542 147 542 220 L542 700 L616 700 L616 222 Q616 154 589 101.5 Q562 49 513 20.5 Q464 -8 400 -8 L292 -8 Z M346 743 Q299 743 269.5 771.5 Q240 800 240 846 Q240 892 269.5 920.5 Q299 949 346 949 Q393 949 422.5 920.5 Q452 892 452 846 Q452 800 422.5 771.5 Q393 743 346 743 Z M346 791 Q372 791 387 806 Q402 821 402 846 Q402 871 387 886 Q372 901 346 901 Q320 901 305 886 Q290 871 290 846 Q290 821 305 806 Q320 791 346 791 Z " />
<glyph glyph-name="Utilde" unicode="&#x168;" horiz-adv-x="692" d="M292 -8 Q228 -8 179 20.5 Q130 49 103 101.5 Q76 154 76 222 L76 700 L150 700 L150 220 Q150 147 189 102.5 Q228 58 292 58 L400 58 Q464 58 503 102.5 Q542 147 542 220 L542 700 L616 700 L616 222 Q616 154 589 101.5 Q562 49 513 20.5 Q464 -8 400 -8 L292 -8 Z M406 773 Q383 773 366.5 783.5 Q350 794 332 813 Q316 828 308 834 Q300 840 289 840 L279 840 Q264 840 253 826 Q242 812 241 789 L185 789 Q186 834 212.5 862 Q239 890 279 890 L289 890 Q314 890 331.5 879 Q349 868 369 848 Q381 835 389 829 Q397 823 406 823 L416 823 Q430 823 440.5 837 Q451 851 452 874 L508 874 Q507 829 481 801 Q455 773 416 773 L406 773 Z " />
<glyph glyph-name="V" unicode="V" horiz-adv-x="634" d="M314 0 Q295 0 282.5 11 Q270 22 261 46 L22 700 L98 700 L316 89 L317 89 L536 700 L612 700 L352 0 L314 0 Z " />
<glyph glyph-name="W" unicode="W" horiz-adv-x="844" d="M219 0 Q191 0 175 15.5 Q159 31 153 65 L34 700 L107 700 L216 96 L217 96 L393 663 L424 663 Q442 663 453 652.5 Q464 642 471 620 L627 96 L628 96 L737 700 L810 700 L691 65 Q685 31 669 15.5 Q653 0 625 0 L595 0 L425 564 L424 564 L249 0 L219 0 Z " />
<glyph glyph-name="Wacute" unicode="&#x1e82;" horiz-adv-x="844" d="M219 0 Q191 0 175 15.5 Q159 31 153 65 L34 700 L107 700 L216 96 L217 96 L393 663 L424 663 Q442 663 453 652.5 Q464 642 471 620 L627 96 L628 96 L737 700 L810 700 L691 65 Q685 31 669 15.5 Q653 0 625 0 L595 0 L425 564 L424 564 L249 0 L219 0 Z M474 933 L556 933 L457 781 L391 781 L474 933 Z " />
<glyph glyph-name="Wcircumflex" unicode="&#x174;" horiz-adv-x="844" d="M219 0 Q191 0 175 15.5 Q159 31 153 65 L34 700 L107 700 L216 96 L217 96 L393 663 L424 663 Q442 663 453 652.5 Q464 642 471 620 L627 96 L628 96 L737 700 L810 700 L691 65 Q685 31 669 15.5 Q653 0 625 0 L595 0 L425 564 L424 564 L249 0 L219 0 Z M394 943 L449 943 L574 781 L506 781 L422 893 L338 781 L270 781 L394 943 Z " />
<glyph glyph-name="Wdieresis" unicode="&#x1e84;" horiz-adv-x="844" d="M219 0 Q191 0 175 15.5 Q159 31 153 65 L34 700 L107 700 L216 96 L217 96 L393 663 L424 663 Q442 663 453 652.5 Q464 642 471 620 L627 96 L628 96 L737 700 L810 700 L691 65 Q685 31 669 15.5 Q653 0 625 0 L595 0 L425 564 L424 564 L249 0 L219 0 Z M322 781 Q300 781 286.5 794.5 Q273 808 273 830 Q273 852 286.5 865.5 Q300 879 322 879 Q344 879 357.5 865.5 Q371 852 371 830 Q371 808 357.5 794.5 Q344 781 322 781 Z M521 781 Q499 781 485.5 794.5 Q472 808 472 830 Q472 852 485.5 865.5 Q499 879 521 879 Q543 879 556.5 865.5 Q570 852 570 830 Q570 808 556.5 794.5 Q543 781 521 781 Z " />
<glyph glyph-name="Wgrave" unicode="&#x1e80;" horiz-adv-x="844" d="M219 0 Q191 0 175 15.5 Q159 31 153 65 L34 700 L107 700 L216 96 L217 96 L393 663 L424 663 Q442 663 453 652.5 Q464 642 471 620 L627 96 L628 96 L737 700 L810 700 L691 65 Q685 31 669 15.5 Q653 0 625 0 L595 0 L425 564 L424 564 L249 0 L219 0 Z M291 933 L373 933 L456 781 L390 781 L291 933 Z " />
<glyph glyph-name="X" unicode="X" horiz-adv-x="611" d="M264 357 L26 700 L109 700 L306 418 L503 700 L585 700 L347 357 L595 0 L512 0 L306 297 L99 0 L16 0 L264 357 Z " />
<glyph glyph-name="Y" unicode="Y" horiz-adv-x="622" d="M274 269 L16 700 L96 700 L311 336 L526 700 L606 700 L348 269 L348 0 L274 0 L274 269 Z " />
<glyph glyph-name="Yacute" unicode="&#xdd;" horiz-adv-x="622" d="M274 269 L16 700 L96 700 L311 336 L526 700 L606 700 L348 269 L348 0 L274 0 L274 269 Z M363 933 L445 933 L346 781 L280 781 L363 933 Z " />
<glyph glyph-name="Ycircumflex" unicode="&#x176;" horiz-adv-x="622" d="M274 269 L16 700 L96 700 L311 336 L526 700 L606 700 L348 269 L348 0 L274 0 L274 269 Z M283 943 L338 943 L463 781 L395 781 L311 893 L227 781 L159 781 L283 943 Z " />
<glyph glyph-name="Ydieresis" unicode="&#x178;" horiz-adv-x="622" d="M274 269 L16 700 L96 700 L311 336 L526 700 L606 700 L348 269 L348 0 L274 0 L274 269 Z M211 781 Q189 781 175.5 794.5 Q162 808 162 830 Q162 852 175.5 865.5 Q189 879 211 879 Q233 879 246.5 865.5 Q260 852 260 830 Q260 808 246.5 794.5 Q233 781 211 781 Z M410 781 Q388 781 374.5 794.5 Q361 808 361 830 Q361 852 374.5 865.5 Q388 879 410 879 Q432 879 445.5 865.5 Q459 852 459 830 Q459 808 445.5 794.5 Q432 781 410 781 Z " />
<glyph glyph-name="uni1E8E" unicode="&#x1e8e;" horiz-adv-x="622" d="M274 269 L16 700 L96 700 L311 336 L526 700 L606 700 L348 269 L348 0 L274 0 L274 269 Z M311 781 Q287 781 272 796 Q257 811 257 835 Q257 859 272 874 Q287 889 311 889 Q335 889 350 874 Q365 859 365 835 Q365 811 350 796 Q335 781 311 781 Z " />
<glyph glyph-name="uni1EF4" unicode="&#x1ef4;" horiz-adv-x="622" d="M274 269 L16 700 L96 700 L311 336 L526 700 L606 700 L348 269 L348 0 L274 0 L274 269 Z M311 -179 Q287 -179 272 -164 Q257 -149 257 -125 Q257 -101 272 -86 Q287 -71 311 -71 Q335 -71 350 -86 Q365 -101 365 -125 Q365 -149 350 -164 Q335 -179 311 -179 Z " />
<glyph glyph-name="Ygrave" unicode="&#x1ef2;" horiz-adv-x="622" d="M274 269 L16 700 L96 700 L311 336 L526 700 L606 700 L348 269 L348 0 L274 0 L274 269 Z M180 933 L262 933 L345 781 L279 781 L180 933 Z " />
<glyph glyph-name="uni1EF6" unicode="&#x1ef6;" horiz-adv-x="622" d="M274 269 L16 700 L96 700 L311 336 L526 700 L606 700 L348 269 L348 0 L274 0 L274 269 Z M276 783 Q276 804 288.5 818 Q301 832 324 847 Q341 859 349.5 867 Q358 875 358 886 L358 897 Q358 930 322 930 L302 930 Q260 930 260 888 L202 888 Q202 982 302 982 L322 982 Q369 982 393.5 960.5 Q418 939 418 897 L418 886 Q418 863 405 848 Q392 833 368 816 Q353 806 345.5 798.5 Q338 791 338 783 L338 767 L276 767 L276 783 Z " />
<glyph glyph-name="uni1EF8" unicode="&#x1ef8;" horiz-adv-x="622" d="M274 269 L16 700 L96 700 L311 336 L526 700 L606 700 L348 269 L348 0 L274 0 L274 269 Z M371 773 Q348 773 331.5 783.5 Q315 794 297 813 Q281 828 273 834 Q265 840 254 840 L244 840 Q229 840 218 826 Q207 812 206 789 L150 789 Q151 834 177.5 862 Q204 890 244 890 L254 890 Q279 890 296.5 879 Q314 868 334 848 Q346 835 354 829 Q362 823 371 823 L381 823 Q395 823 405.5 837 Q416 851 417 874 L473 874 Q472 829 446 801 Q420 773 381 773 L371 773 Z " />
<glyph glyph-name="Z" unicode="Z" horiz-adv-x="578" d="M40 33 L436 637 L58 637 L58 700 L538 700 L538 667 L142 63 L528 63 L528 0 L40 0 L40 33 Z " />
<glyph glyph-name="Zacute" unicode="&#x179;" horiz-adv-x="578" d="M40 33 L436 637 L58 637 L58 700 L538 700 L538 667 L142 63 L528 63 L528 0 L40 0 L40 33 Z M341 933 L423 933 L324 781 L258 781 L341 933 Z " />
<glyph glyph-name="Zcaron" unicode="&#x17d;" horiz-adv-x="578" d="M40 33 L436 637 L58 637 L58 700 L538 700 L538 667 L142 63 L528 63 L528 0 L40 0 L40 33 Z M137 943 L205 943 L289 831 L373 943 L441 943 L316 781 L261 781 L137 943 Z " />
<glyph glyph-name="Zdotaccent" unicode="&#x17b;" horiz-adv-x="578" d="M40 33 L436 637 L58 637 L58 700 L538 700 L538 667 L142 63 L528 63 L528 0 L40 0 L40 33 Z M289 781 Q265 781 250 796 Q235 811 235 835 Q235 859 250 874 Q265 889 289 889 Q313 889 328 874 Q343 859 343 835 Q343 811 328 796 Q313 781 289 781 Z " />
<glyph glyph-name="uni1E92" unicode="&#x1e92;" horiz-adv-x="578" d="M40 33 L436 637 L58 637 L58 700 L538 700 L538 667 L142 63 L528 63 L528 0 L40 0 L40 33 Z M289 -179 Q265 -179 250 -164 Q235 -149 235 -125 Q235 -101 250 -86 Q265 -71 289 -71 Q313 -71 328 -86 Q343 -101 343 -125 Q343 -149 328 -164 Q313 -179 289 -179 Z " />
<glyph glyph-name="a" unicode="a" horiz-adv-x="556" d="M220 -8 Q147 -8 103.5 30 Q60 68 60 132 L60 164 Q60 227 105 265 Q150 303 224 303 L288 303 Q321 303 356 293 Q391 283 416 266 L416 349 Q416 391 390 417.5 Q364 444 321 444 L241 444 Q198 444 172 424 Q146 404 146 371 L74 371 Q74 432 120 469.5 Q166 507 241 507 L321 507 Q395 507 440.5 463.5 Q486 420 486 349 L486 0 L418 0 L418 70 Q395 34 357.5 13 Q320 -8 280 -8 L220 -8 Z M282 55 Q329 55 366 84 Q403 113 416 161 L416 198 Q396 217 360.5 228.5 Q325 240 288 240 L224 240 Q183 240 157.5 219 Q132 198 132 164 L132 132 Q132 97 156 76 Q180 55 220 55 L282 55 Z " />
<glyph glyph-name="aacute" unicode="&#xe1;" horiz-adv-x="556" d="M220 -8 Q147 -8 103.5 30 Q60 68 60 132 L60 164 Q60 227 105 265 Q150 303 224 303 L288 303 Q321 303 356 293 Q391 283 416 266 L416 349 Q416 391 390 417.5 Q364 444 321 444 L241 444 Q198 444 172 424 Q146 404 146 371 L74 371 Q74 432 120 469.5 Q166 507 241 507 L321 507 Q395 507 440.5 463.5 Q486 420 486 349 L486 0 L418 0 L418 70 Q395 34 357.5 13 Q320 -8 280 -8 L220 -8 Z M282 55 Q329 55 366 84 Q403 113 416 161 L416 198 Q396 217 360.5 228.5 Q325 240 288 240 L224 240 Q183 240 157.5 219 Q132 198 132 164 L132 132 Q132 97 156 76 Q180 55 220 55 L282 55 Z M335 732 L417 732 L318 580 L252 580 L335 732 Z " />
<glyph glyph-name="abreve" unicode="&#x103;" horiz-adv-x="556" d="M220 -8 Q147 -8 103.5 30 Q60 68 60 132 L60 164 Q60 227 105 265 Q150 303 224 303 L288 303 Q321 303 356 293 Q391 283 416 266 L416 349 Q416 391 390 417.5 Q364 444 321 444 L241 444 Q198 444 172 424 Q146 404 146 371 L74 371 Q74 432 120 469.5 Q166 507 241 507 L321 507 Q395 507 440.5 463.5 Q486 420 486 349 L486 0 L418 0 L418 70 Q395 34 357.5 13 Q320 -8 280 -8 L220 -8 Z M282 55 Q329 55 366 84 Q403 113 416 161 L416 198 Q396 217 360.5 228.5 Q325 240 288 240 L224 240 Q183 240 157.5 219 Q132 198 132 164 L132 132 Q132 97 156 76 Q180 55 220 55 L282 55 Z M277 572 Q215 572 176.5 608 Q138 644 138 703 L138 711 L196 711 L196 703 Q196 666 218 644 Q240 622 277 622 L289 622 Q326 622 348.5 644 Q371 666 371 703 L371 711 L428 711 L428 703 Q428 644 389.5 608 Q351 572 289 572 L277 572 Z " />
<glyph glyph-name="uni1EAF" unicode="&#x1eaf;" horiz-adv-x="556" d="M220 -8 Q147 -8 103.5 30 Q60 68 60 132 L60 164 Q60 227 105 265 Q150 303 224 303 L288 303 Q321 303 356 293 Q391 283 416 266 L416 349 Q416 391 390 417.5 Q364 444 321 444 L241 444 Q198 444 172 424 Q146 404 146 371 L74 371 Q74 432 120 469.5 Q166 507 241 507 L321 507 Q395 507 440.5 463.5 Q486 420 486 349 L486 0 L418 0 L418 70 Q395 34 357.5 13 Q320 -8 280 -8 L220 -8 Z M282 55 Q329 55 366 84 Q403 113 416 161 L416 198 Q396 217 360.5 228.5 Q325 240 288 240 L224 240 Q183 240 157.5 219 Q132 198 132 164 L132 132 Q132 97 156 76 Q180 55 220 55 L282 55 Z M316 877 L386 877 L310 761 L252 761 L316 877 Z M277 572 Q215 572 176.5 608 Q138 644 138 703 L138 711 L196 711 L196 703 Q196 666 218 644 Q240 622 277 622 L289 622 Q326 622 348.5 644 Q371 666 371 703 L371 711 L428 711 L428 703 Q428 644 389.5 608 Q351 572 289 572 L277 572 Z " />
<glyph glyph-name="uni1EB7" unicode="&#x1eb7;" horiz-adv-x="556" d="M220 -8 Q147 -8 103.5 30 Q60 68 60 132 L60 164 Q60 227 105 265 Q150 303 224 303 L288 303 Q321 303 356 293 Q391 283 416 266 L416 349 Q416 391 390 417.5 Q364 444 321 444 L241 444 Q198 444 172 424 Q146 404 146 371 L74 371 Q74 432 120 469.5 Q166 507 241 507 L321 507 Q395 507 440.5 463.5 Q486 420 486 349 L486 0 L418 0 L418 70 Q395 34 357.5 13 Q320 -8 280 -8 L220 -8 Z M282 55 Q329 55 366 84 Q403 113 416 161 L416 198 Q396 217 360.5 228.5 Q325 240 288 240 L224 240 Q183 240 157.5 219 Q132 198 132 164 L132 132 Q132 97 156 76 Q180 55 220 55 L282 55 Z M287 -187 Q263 -187 248 -172 Q233 -157 233 -133 Q233 -109 248 -94 Q263 -79 287 -79 Q311 -79 326 -94 Q341 -109 341 -133 Q341 -157 326 -172 Q311 -187 287 -187 Z M277 572 Q215 572 176.5 608 Q138 644 138 703 L138 711 L196 711 L196 703 Q196 666 218 644 Q240 622 277 622 L289 622 Q326 622 348.5 644 Q371 666 371 703 L371 711 L428 711 L428 703 Q428 644 389.5 608 Q351 572 289 572 L277 572 Z " />
<glyph glyph-name="uni1EB1" unicode="&#x1eb1;" horiz-adv-x="556" d="M220 -8 Q147 -8 103.5 30 Q60 68 60 132 L60 164 Q60 227 105 265 Q150 303 224 303 L288 303 Q321 303 356 293 Q391 283 416 266 L416 349 Q416 391 390 417.5 Q364 444 321 444 L241 444 Q198 444 172 424 Q146 404 146 371 L74 371 Q74 432 120 469.5 Q166 507 241 507 L321 507 Q395 507 440.5 463.5 Q486 420 486 349 L486 0 L418 0 L418 70 Q395 34 357.5 13 Q320 -8 280 -8 L220 -8 Z M282 55 Q329 55 366 84 Q403 113 416 161 L416 198 Q396 217 360.5 228.5 Q325 240 288 240 L224 240 Q183 240 157.5 219 Q132 198 132 164 L132 132 Q132 97 156 76 Q180 55 220 55 L282 55 Z M180 877 L250 877 L314 761 L256 761 L180 877 Z M277 572 Q215 572 176.5 608 Q138 644 138 703 L138 711 L196 711 L196 703 Q196 666 218 644 Q240 622 277 622 L289 622 Q326 622 348.5 644 Q371 666 371 703 L371 711 L428 711 L428 703 Q428 644 389.5 608 Q351 572 289 572 L277 572 Z " />
<glyph glyph-name="uni1EB3" unicode="&#x1eb3;" horiz-adv-x="556" d="M220 -8 Q147 -8 103.5 30 Q60 68 60 132 L60 164 Q60 227 105 265 Q150 303 224 303 L288 303 Q321 303 356 293 Q391 283 416 266 L416 349 Q416 391 390 417.5 Q364 444 321 444 L241 444 Q198 444 172 424 Q146 404 146 371 L74 371 Q74 432 120 469.5 Q166 507 241 507 L321 507 Q395 507 440.5 463.5 Q486 420 486 349 L486 0 L418 0 L418 70 Q395 34 357.5 13 Q320 -8 280 -8 L220 -8 Z M282 55 Q329 55 366 84 Q403 113 416 161 L416 198 Q396 217 360.5 228.5 Q325 240 288 240 L224 240 Q183 240 157.5 219 Q132 198 132 164 L132 132 Q132 97 156 76 Q180 55 220 55 L282 55 Z M256 749 Q256 766 266.5 777.5 Q277 789 296 801 Q310 811 317 817.5 Q324 824 324 833 L324 842 Q324 855 316 862 Q308 869 294 869 L278 869 Q243 869 243 835 L195 835 Q195 913 278 913 L294 913 Q374 913 374 842 L374 833 Q374 814 362.5 801 Q351 788 332 776 Q320 768 314 762 Q308 756 308 749 L308 741 L256 741 L256 749 Z M277 572 Q215 572 176.5 608 Q138 644 138 703 L138 711 L196 711 L196 703 Q196 666 218 644 Q240 622 277 622 L289 622 Q326 622 348.5 644 Q371 666 371 703 L371 711 L428 711 L428 703 Q428 644 389.5 608 Q351 572 289 572 L277 572 Z " />
<glyph glyph-name="uni1EB5" unicode="&#x1eb5;" horiz-adv-x="556" d="M220 -8 Q147 -8 103.5 30 Q60 68 60 132 L60 164 Q60 227 105 265 Q150 303 224 303 L288 303 Q321 303 356 293 Q391 283 416 266 L416 349 Q416 391 390 417.5 Q364 444 321 444 L241 444 Q198 444 172 424 Q146 404 146 371 L74 371 Q74 432 120 469.5 Q166 507 241 507 L321 507 Q395 507 440.5 463.5 Q486 420 486 349 L486 0 L418 0 L418 70 Q395 34 357.5 13 Q320 -8 280 -8 L220 -8 Z M282 55 Q329 55 366 84 Q403 113 416 161 L416 198 Q396 217 360.5 228.5 Q325 240 288 240 L224 240 Q183 240 157.5 219 Q132 198 132 164 L132 132 Q132 97 156 76 Q180 55 220 55 L282 55 Z M338 753 Q318 753 304 762 Q290 771 273 788 Q260 800 252 806 Q244 812 235 812 L226 812 Q213 812 204 799.5 Q195 787 194 767 L145 767 Q146 807 168.5 831.5 Q191 856 226 856 L235 856 Q258 856 273.5 846 Q289 836 305 819 Q317 807 323.5 802 Q330 797 338 797 L347 797 Q359 797 367.5 809.5 Q376 822 377 842 L426 842 Q425 802 403 777.5 Q381 753 347 753 L338 753 Z M277 572 Q215 572 176.5 608 Q138 644 138 703 L138 711 L196 711 L196 703 Q196 666 218 644 Q240 622 277 622 L289 622 Q326 622 348.5 644 Q371 666 371 703 L371 711 L428 711 L428 703 Q428 644 389.5 608 Q351 572 289 572 L277 572 Z " />
<glyph glyph-name="uni01CE" unicode="&#x1ce;" horiz-adv-x="556" d="M220 -8 Q147 -8 103.5 30 Q60 68 60 132 L60 164 Q60 227 105 265 Q150 303 224 303 L288 303 Q321 303 356 293 Q391 283 416 266 L416 349 Q416 391 390 417.5 Q364 444 321 444 L241 444 Q198 444 172 424 Q146 404 146 371 L74 371 Q74 432 120 469.5 Q166 507 241 507 L321 507 Q395 507 440.5 463.5 Q486 420 486 349 L486 0 L418 0 L418 70 Q395 34 357.5 13 Q320 -8 280 -8 L220 -8 Z M282 55 Q329 55 366 84 Q403 113 416 161 L416 198 Q396 217 360.5 228.5 Q325 240 288 240 L224 240 Q183 240 157.5 219 Q132 198 132 164 L132 132 Q132 97 156 76 Q180 55 220 55 L282 55 Z M131 742 L199 742 L283 630 L367 742 L435 742 L310 580 L255 580 L131 742 Z " />
<glyph glyph-name="acircumflex" unicode="&#xe2;" horiz-adv-x="556" d="M220 -8 Q147 -8 103.5 30 Q60 68 60 132 L60 164 Q60 227 105 265 Q150 303 224 303 L288 303 Q321 303 356 293 Q391 283 416 266 L416 349 Q416 391 390 417.5 Q364 444 321 444 L241 444 Q198 444 172 424 Q146 404 146 371 L74 371 Q74 432 120 469.5 Q166 507 241 507 L321 507 Q395 507 440.5 463.5 Q486 420 486 349 L486 0 L418 0 L418 70 Q395 34 357.5 13 Q320 -8 280 -8 L220 -8 Z M282 55 Q329 55 366 84 Q403 113 416 161 L416 198 Q396 217 360.5 228.5 Q325 240 288 240 L224 240 Q183 240 157.5 219 Q132 198 132 164 L132 132 Q132 97 156 76 Q180 55 220 55 L282 55 Z M255 742 L310 742 L435 580 L367 580 L283 692 L199 580 L131 580 L255 742 Z " />
<glyph glyph-name="uni1EA5" unicode="&#x1ea5;" horiz-adv-x="556" d="M220 -8 Q147 -8 103.5 30 Q60 68 60 132 L60 164 Q60 227 105 265 Q150 303 224 303 L288 303 Q321 303 356 293 Q391 283 416 266 L416 349 Q416 391 390 417.5 Q364 444 321 444 L241 444 Q198 444 172 424 Q146 404 146 371 L74 371 Q74 432 120 469.5 Q166 507 241 507 L321 507 Q395 507 440.5 463.5 Q486 420 486 349 L486 0 L418 0 L418 70 Q395 34 357.5 13 Q320 -8 280 -8 L220 -8 Z M282 55 Q329 55 366 84 Q403 113 416 161 L416 198 Q396 217 360.5 228.5 Q325 240 288 240 L224 240 Q183 240 157.5 219 Q132 198 132 164 L132 132 Q132 97 156 76 Q180 55 220 55 L282 55 Z M455 848 L525 848 L449 732 L391 732 L455 848 Z M255 742 L310 742 L435 580 L367 580 L283 692 L199 580 L131 580 L255 742 Z " />
<glyph glyph-name="uni1EAD" unicode="&#x1ead;" horiz-adv-x="556" d="M220 -8 Q147 -8 103.5 30 Q60 68 60 132 L60 164 Q60 227 105 265 Q150 303 224 303 L288 303 Q321 303 356 293 Q391 283 416 266 L416 349 Q416 391 390 417.5 Q364 444 321 444 L241 444 Q198 444 172 424 Q146 404 146 371 L74 371 Q74 432 120 469.5 Q166 507 241 507 L321 507 Q395 507 440.5 463.5 Q486 420 486 349 L486 0 L418 0 L418 70 Q395 34 357.5 13 Q320 -8 280 -8 L220 -8 Z M282 55 Q329 55 366 84 Q403 113 416 161 L416 198 Q396 217 360.5 228.5 Q325 240 288 240 L224 240 Q183 240 157.5 219 Q132 198 132 164 L132 132 Q132 97 156 76 Q180 55 220 55 L282 55 Z M287 -187 Q263 -187 248 -172 Q233 -157 233 -133 Q233 -109 248 -94 Q263 -79 287 -79 Q311 -79 326 -94 Q341 -109 341 -133 Q341 -157 326 -172 Q311 -187 287 -187 Z M255 742 L310 742 L435 580 L367 580 L283 692 L199 580 L131 580 L255 742 Z " />
<glyph glyph-name="uni1EA7" unicode="&#x1ea7;" horiz-adv-x="556" d="M220 -8 Q147 -8 103.5 30 Q60 68 60 132 L60 164 Q60 227 105 265 Q150 303 224 303 L288 303 Q321 303 356 293 Q391 283 416 266 L416 349 Q416 391 390 417.5 Q364 444 321 444 L241 444 Q198 444 172 424 Q146 404 146 371 L74 371 Q74 432 120 469.5 Q166 507 241 507 L321 507 Q395 507 440.5 463.5 Q486 420 486 349 L486 0 L418 0 L418 70 Q395 34 357.5 13 Q320 -8 280 -8 L220 -8 Z M282 55 Q329 55 366 84 Q403 113 416 161 L416 198 Q396 217 360.5 228.5 Q325 240 288 240 L224 240 Q183 240 157.5 219 Q132 198 132 164 L132 132 Q132 97 156 76 Q180 55 220 55 L282 55 Z M341 848 L411 848 L475 732 L417 732 L341 848 Z M255 742 L310 742 L435 580 L367 580 L283 692 L199 580 L131 580 L255 742 Z " />
<glyph glyph-name="uni1EA9" unicode="&#x1ea9;" horiz-adv-x="556" d="M220 -8 Q147 -8 103.5 30 Q60 68 60 132 L60 164 Q60 227 105 265 Q150 303 224 303 L288 303 Q321 303 356 293 Q391 283 416 266 L416 349 Q416 391 390 417.5 Q364 444 321 444 L241 444 Q198 444 172 424 Q146 404 146 371 L74 371 Q74 432 120 469.5 Q166 507 241 507 L321 507 Q395 507 440.5 463.5 Q486 420 486 349 L486 0 L418 0 L418 70 Q395 34 357.5 13 Q320 -8 280 -8 L220 -8 Z M282 55 Q329 55 366 84 Q403 113 416 161 L416 198 Q396 217 360.5 228.5 Q325 240 288 240 L224 240 Q183 240 157.5 219 Q132 198 132 164 L132 132 Q132 97 156 76 Q180 55 220 55 L282 55 Z M394 730 Q394 747 404.5 758.5 Q415 770 434 782 Q448 792 455 798.5 Q462 805 462 814 L462 823 Q462 836 454 843 Q446 850 432 850 L416 850 Q381 850 381 816 L333 816 Q333 894 416 894 L432 894 Q512 894 512 823 L512 814 Q512 795 500.5 782 Q489 769 470 757 Q458 749 452 743 Q446 737 446 730 L446 722 L394 722 L394 730 Z M255 742 L310 742 L435 580 L367 580 L283 692 L199 580 L131 580 L255 742 Z " />
<glyph glyph-name="uni1EAB" unicode="&#x1eab;" horiz-adv-x="556" d="M220 -8 Q147 -8 103.5 30 Q60 68 60 132 L60 164 Q60 227 105 265 Q150 303 224 303 L288 303 Q321 303 356 293 Q391 283 416 266 L416 349 Q416 391 390 417.5 Q364 444 321 444 L241 444 Q198 444 172 424 Q146 404 146 371 L74 371 Q74 432 120 469.5 Q166 507 241 507 L321 507 Q395 507 440.5 463.5 Q486 420 486 349 L486 0 L418 0 L418 70 Q395 34 357.5 13 Q320 -8 280 -8 L220 -8 Z M282 55 Q329 55 366 84 Q403 113 416 161 L416 198 Q396 217 360.5 228.5 Q325 240 288 240 L224 240 Q183 240 157.5 219 Q132 198 132 164 L132 132 Q132 97 156 76 Q180 55 220 55 L282 55 Z M338 777 Q318 777 304 786 Q290 795 273 812 Q260 825 252 830.5 Q244 836 235 836 L226 836 Q213 836 204 823.5 Q195 811 194 791 L145 791 Q146 831 168.5 855.5 Q191 880 226 880 L235 880 Q258 880 273.5 870 Q289 860 305 843 Q317 831 323.5 826 Q330 821 338 821 L347 821 Q359 821 367.5 833.5 Q376 846 377 866 L426 866 Q425 826 403 801.5 Q381 777 347 777 L338 777 Z M255 742 L310 742 L435 580 L367 580 L283 692 L199 580 L131 580 L255 742 Z " />
<glyph glyph-name="adieresis" unicode="&#xe4;" horiz-adv-x="556" d="M220 -8 Q147 -8 103.5 30 Q60 68 60 132 L60 164 Q60 227 105 265 Q150 303 224 303 L288 303 Q321 303 356 293 Q391 283 416 266 L416 349 Q416 391 390 417.5 Q364 444 321 444 L241 444 Q198 444 172 424 Q146 404 146 371 L74 371 Q74 432 120 469.5 Q166 507 241 507 L321 507 Q395 507 440.5 463.5 Q486 420 486 349 L486 0 L418 0 L418 70 Q395 34 357.5 13 Q320 -8 280 -8 L220 -8 Z M282 55 Q329 55 366 84 Q403 113 416 161 L416 198 Q396 217 360.5 228.5 Q325 240 288 240 L224 240 Q183 240 157.5 219 Q132 198 132 164 L132 132 Q132 97 156 76 Q180 55 220 55 L282 55 Z M183 580 Q161 580 147.5 593.5 Q134 607 134 629 Q134 651 147.5 664.5 Q161 678 183 678 Q205 678 218.5 664.5 Q232 651 232 629 Q232 607 218.5 593.5 Q205 580 183 580 Z M382 580 Q360 580 346.5 593.5 Q333 607 333 629 Q333 651 346.5 664.5 Q360 678 382 678 Q404 678 417.5 664.5 Q431 651 431 629 Q431 607 417.5 593.5 Q404 580 382 580 Z " />
<glyph glyph-name="uni1EA1" unicode="&#x1ea1;" horiz-adv-x="556" d="M220 -8 Q147 -8 103.5 30 Q60 68 60 132 L60 164 Q60 227 105 265 Q150 303 224 303 L288 303 Q321 303 356 293 Q391 283 416 266 L416 349 Q416 391 390 417.5 Q364 444 321 444 L241 444 Q198 444 172 424 Q146 404 146 371 L74 371 Q74 432 120 469.5 Q166 507 241 507 L321 507 Q395 507 440.5 463.5 Q486 420 486 349 L486 0 L418 0 L418 70 Q395 34 357.5 13 Q320 -8 280 -8 L220 -8 Z M282 55 Q329 55 366 84 Q403 113 416 161 L416 198 Q396 217 360.5 228.5 Q325 240 288 240 L224 240 Q183 240 157.5 219 Q132 198 132 164 L132 132 Q132 97 156 76 Q180 55 220 55 L282 55 Z M287 -187 Q263 -187 248 -172 Q233 -157 233 -133 Q233 -109 248 -94 Q263 -79 287 -79 Q311 -79 326 -94 Q341 -109 341 -133 Q341 -157 326 -172 Q311 -187 287 -187 Z " />
<glyph glyph-name="agrave" unicode="&#xe0;" horiz-adv-x="556" d="M220 -8 Q147 -8 103.5 30 Q60 68 60 132 L60 164 Q60 227 105 265 Q150 303 224 303 L288 303 Q321 303 356 293 Q391 283 416 266 L416 349 Q416 391 390 417.5 Q364 444 321 444 L241 444 Q198 444 172 424 Q146 404 146 371 L74 371 Q74 432 120 469.5 Q166 507 241 507 L321 507 Q395 507 440.5 463.5 Q486 420 486 349 L486 0 L418 0 L418 70 Q395 34 357.5 13 Q320 -8 280 -8 L220 -8 Z M282 55 Q329 55 366 84 Q403 113 416 161 L416 198 Q396 217 360.5 228.5 Q325 240 288 240 L224 240 Q183 240 157.5 219 Q132 198 132 164 L132 132 Q132 97 156 76 Q180 55 220 55 L282 55 Z M152 732 L234 732 L317 580 L251 580 L152 732 Z " />
<glyph glyph-name="uni1EA3" unicode="&#x1ea3;" horiz-adv-x="556" d="M220 -8 Q147 -8 103.5 30 Q60 68 60 132 L60 164 Q60 227 105 265 Q150 303 224 303 L288 303 Q321 303 356 293 Q391 283 416 266 L416 349 Q416 391 390 417.5 Q364 444 321 444 L241 444 Q198 444 172 424 Q146 404 146 371 L74 371 Q74 432 120 469.5 Q166 507 241 507 L321 507 Q395 507 440.5 463.5 Q486 420 486 349 L486 0 L418 0 L418 70 Q395 34 357.5 13 Q320 -8 280 -8 L220 -8 Z M282 55 Q329 55 366 84 Q403 113 416 161 L416 198 Q396 217 360.5 228.5 Q325 240 288 240 L224 240 Q183 240 157.5 219 Q132 198 132 164 L132 132 Q132 97 156 76 Q180 55 220 55 L282 55 Z M248 582 Q248 603 260.5 617 Q273 631 296 646 Q313 658 321.5 666 Q330 674 330 685 L330 696 Q330 729 294 729 L274 729 Q232 729 232 687 L174 687 Q174 781 274 781 L294 781 Q341 781 365.5 759.5 Q390 738 390 696 L390 685 Q390 662 377 647 Q364 632 340 615 Q325 605 317.5 597.5 Q310 590 310 582 L310 566 L248 566 L248 582 Z " />
<glyph glyph-name="uni0251" unicode="&#x251;" horiz-adv-x="580" d="M232 -8 Q181 -8 141 16 Q101 40 78.5 83 Q56 126 56 183 L56 303 Q56 363 79.5 409.5 Q103 456 144.5 481.5 Q186 507 239 507 L311 507 Q346 507 378.5 489 Q411 471 430 441 L430 499 L500 499 L500 116 Q500 64 546 64 L570 64 L570 0 L536 0 Q495 0 470.5 19.5 Q446 39 440 76 L439 76 Q412 35 374.5 13.5 Q337 -8 295 -8 L232 -8 Z M299 56 Q331 56 360.5 76.5 Q390 97 409 130 Q428 163 430 198 L430 324 Q423 378 391 410.5 Q359 443 313 443 L241 443 Q192 443 160 404 Q128 365 128 303 L128 183 Q128 127 158 91.5 Q188 56 234 56 L299 56 Z " />
<glyph glyph-name="amacron" unicode="&#x101;" horiz-adv-x="556" d="M220 -8 Q147 -8 103.5 30 Q60 68 60 132 L60 164 Q60 227 105 265 Q150 303 224 303 L288 303 Q321 303 356 293 Q391 283 416 266 L416 349 Q416 391 390 417.5 Q364 444 321 444 L241 444 Q198 444 172 424 Q146 404 146 371 L74 371 Q74 432 120 469.5 Q166 507 241 507 L321 507 Q395 507 440.5 463.5 Q486 420 486 349 L486 0 L418 0 L418 70 Q395 34 357.5 13 Q320 -8 280 -8 L220 -8 Z M282 55 Q329 55 366 84 Q403 113 416 161 L416 198 Q396 217 360.5 228.5 Q325 240 288 240 L224 240 Q183 240 157.5 219 Q132 198 132 164 L132 132 Q132 97 156 76 Q180 55 220 55 L282 55 Z M156 642 L411 642 L411 590 L156 590 L156 642 Z " />
<glyph glyph-name="aogonek" unicode="&#x105;" horiz-adv-x="556" d="M477 -155 Q490 -155 505.5 -149.5 Q521 -144 533 -135 L533 -191 Q523 -199 505.5 -204 Q488 -209 472 -209 L462 -209 Q414 -209 385.5 -183 Q357 -157 357 -113 L357 -103 Q357 -72 373.5 -43.5 Q390 -15 418 0 L418 70 Q395 34 357.5 13 Q320 -8 280 -8 L220 -8 Q147 -8 103.5 30 Q60 68 60 132 L60 164 Q60 227 105 265 Q150 303 224 303 L288 303 Q321 303 356 293 Q391 283 416 266 L416 349 Q416 391 390 417.5 Q364 444 321 444 L241 444 Q198 444 172 424 Q146 404 146 371 L74 371 Q74 432 120 469.5 Q166 507 241 507 L321 507 Q395 507 440.5 463.5 Q486 420 486 349 L486 0 Q455 -16 437 -42.5 Q419 -69 419 -99 L419 -109 Q419 -129 431.5 -142 Q444 -155 467 -155 L477 -155 Z M416 198 Q396 217 360.5 228.5 Q325 240 288 240 L224 240 Q183 240 157.5 219 Q132 198 132 164 L132 132 Q132 97 156 76 Q180 55 220 55 L282 55 Q329 55 366 84 Q403 113 416 161 L416 198 Z " />
<glyph glyph-name="aring" unicode="&#xe5;" horiz-adv-x="556" d="M220 -8 Q147 -8 103.5 30 Q60 68 60 132 L60 164 Q60 227 105 265 Q150 303 224 303 L288 303 Q321 303 356 293 Q391 283 416 266 L416 349 Q416 391 390 417.5 Q364 444 321 444 L241 444 Q198 444 172 424 Q146 404 146 371 L74 371 Q74 432 120 469.5 Q166 507 241 507 L321 507 Q395 507 440.5 463.5 Q486 420 486 349 L486 0 L418 0 L418 70 Q395 34 357.5 13 Q320 -8 280 -8 L220 -8 Z M282 55 Q329 55 366 84 Q403 113 416 161 L416 198 Q396 217 360.5 228.5 Q325 240 288 240 L224 240 Q183 240 157.5 219 Q132 198 132 164 L132 132 Q132 97 156 76 Q180 55 220 55 L282 55 Z M283 542 Q236 542 206.5 570.5 Q177 599 177 645 Q177 691 206.5 719.5 Q236 748 283 748 Q330 748 359.5 719.5 Q389 691 389 645 Q389 599 359.5 570.5 Q330 542 283 542 Z M283 590 Q309 590 324 605 Q339 620 339 645 Q339 670 324 685 Q309 700 283 700 Q257 700 242 685 Q227 670 227 645 Q227 620 242 605 Q257 590 283 590 Z " />
<glyph glyph-name="aringacute" unicode="&#x1fb;" horiz-adv-x="556" d="M220 -8 Q147 -8 103.5 30 Q60 68 60 132 L60 164 Q60 227 105 265 Q150 303 224 303 L288 303 Q321 303 356 293 Q391 283 416 266 L416 349 Q416 391 390 417.5 Q364 444 321 444 L241 444 Q198 444 172 424 Q146 404 146 371 L74 371 Q74 432 120 469.5 Q166 507 241 507 L321 507 Q395 507 440.5 463.5 Q486 420 486 349 L486 0 L418 0 L418 70 Q395 34 357.5 13 Q320 -8 280 -8 L220 -8 Z M282 55 Q329 55 366 84 Q403 113 416 161 L416 198 Q396 217 360.5 228.5 Q325 240 288 240 L224 240 Q183 240 157.5 219 Q132 198 132 164 L132 132 Q132 97 156 76 Q180 55 220 55 L282 55 Z M283 542 Q236 542 206.5 570.5 Q177 599 177 645 Q177 691 206.5 719.5 Q236 748 283 748 Q330 748 359.5 719.5 Q389 691 389 645 Q389 599 359.5 570.5 Q330 542 283 542 Z M283 590 Q309 590 324 605 Q339 620 339 645 Q339 670 324 685 Q309 700 283 700 Q257 700 242 685 Q227 670 227 645 Q227 620 242 605 Q257 590 283 590 Z M335 941 L417 941 L318 789 L252 789 L335 941 Z " />
<glyph glyph-name="atilde" unicode="&#xe3;" horiz-adv-x="556" d="M220 -8 Q147 -8 103.5 30 Q60 68 60 132 L60 164 Q60 227 105 265 Q150 303 224 303 L288 303 Q321 303 356 293 Q391 283 416 266 L416 349 Q416 391 390 417.5 Q364 444 321 444 L241 444 Q198 444 172 424 Q146 404 146 371 L74 371 Q74 432 120 469.5 Q166 507 241 507 L321 507 Q395 507 440.5 463.5 Q486 420 486 349 L486 0 L418 0 L418 70 Q395 34 357.5 13 Q320 -8 280 -8 L220 -8 Z M282 55 Q329 55 366 84 Q403 113 416 161 L416 198 Q396 217 360.5 228.5 Q325 240 288 240 L224 240 Q183 240 157.5 219 Q132 198 132 164 L132 132 Q132 97 156 76 Q180 55 220 55 L282 55 Z M343 572 Q320 572 303.5 582.5 Q287 593 269 612 Q253 627 245 633 Q237 639 226 639 L216 639 Q201 639 190 625 Q179 611 178 588 L122 588 Q123 633 149.5 661 Q176 689 216 689 L226 689 Q251 689 268.5 678 Q286 667 306 647 Q318 634 326 628 Q334 622 343 622 L353 622 Q367 622 377.5 636 Q388 650 389 673 L445 673 Q444 628 418 600 Q392 572 353 572 L343 572 Z " />
<glyph glyph-name="ae" unicode="&#xe6;" horiz-adv-x="908" d="M222 -8 Q149 -8 104.5 30.5 Q60 69 60 132 L60 164 Q60 228 105 266 Q150 304 226 304 L290 304 Q322 304 357.5 293.5 Q393 283 418 266 L418 349 Q418 391 392 417 Q366 443 323 443 L243 443 Q200 443 173 423 Q146 403 146 371 L74 371 Q74 432 120.5 469.5 Q167 507 243 507 L323 507 Q367 507 403 487.5 Q439 468 459 434 L460 434 Q481 467 520.5 487 Q560 507 604 507 L682 507 Q761 507 809.5 456 Q858 405 858 321 L858 233 L490 233 L490 171 Q490 118 521 87 Q552 56 604 56 L676 56 Q726 56 756 83.5 Q786 111 786 157 L856 157 Q856 83 806.5 37.5 Q757 -8 676 -8 L604 -8 Q551 -8 510.5 13.5 Q470 35 448 77 L447 77 Q383 -8 282 -8 L222 -8 Z M786 295 L786 321 Q786 376 758 409.5 Q730 443 682 443 L604 443 Q552 443 521 408 Q490 373 490 316 L490 295 L786 295 Z M284 56 Q331 56 368 84.5 Q405 113 418 161 L418 198 Q398 217 362.5 228.5 Q327 240 290 240 L226 240 Q182 240 157 220 Q132 200 132 164 L132 132 Q132 98 156.5 77 Q181 56 222 56 L284 56 Z " />
<glyph glyph-name="aeacute" unicode="&#x1fd;" horiz-adv-x="908" d="M222 -8 Q149 -8 104.5 30.5 Q60 69 60 132 L60 164 Q60 228 105 266 Q150 304 226 304 L290 304 Q322 304 357.5 293.5 Q393 283 418 266 L418 349 Q418 391 392 417 Q366 443 323 443 L243 443 Q200 443 173 423 Q146 403 146 371 L74 371 Q74 432 120.5 469.5 Q167 507 243 507 L323 507 Q367 507 403 487.5 Q439 468 459 434 L460 434 Q481 467 520.5 487 Q560 507 604 507 L682 507 Q761 507 809.5 456 Q858 405 858 321 L858 233 L490 233 L490 171 Q490 118 521 87 Q552 56 604 56 L676 56 Q726 56 756 83.5 Q786 111 786 157 L856 157 Q856 83 806.5 37.5 Q757 -8 676 -8 L604 -8 Q551 -8 510.5 13.5 Q470 35 448 77 L447 77 Q383 -8 282 -8 L222 -8 Z M786 295 L786 321 Q786 376 758 409.5 Q730 443 682 443 L604 443 Q552 443 521 408 Q490 373 490 316 L490 295 L786 295 Z M284 56 Q331 56 368 84.5 Q405 113 418 161 L418 198 Q398 217 362.5 228.5 Q327 240 290 240 L226 240 Q182 240 157 220 Q132 200 132 164 L132 132 Q132 98 156.5 77 Q181 56 222 56 L284 56 Z M512 732 L594 732 L495 580 L429 580 L512 732 Z " />
<glyph glyph-name="b" unicode="b" horiz-adv-x="578" d="M273 -8 Q240 -8 203 12.5 Q166 33 146 64 L146 0 L76 0 L76 700 L148 700 L148 440 Q170 471 204.5 489 Q239 507 276 507 L347 507 Q398 507 437.5 483.5 Q477 460 499.5 417.5 Q522 375 522 320 L522 191 Q522 132 499.5 87 Q477 42 436.5 17 Q396 -8 343 -8 L273 -8 Z M341 56 Q389 56 419.5 93.5 Q450 131 450 191 L450 320 Q450 375 420.5 409 Q391 443 345 443 L278 443 Q226 443 189 405 Q152 367 148 305 L148 183 Q150 148 168 119 Q186 90 214 73 Q242 56 273 56 L341 56 Z " />
<glyph glyph-name="c" unicode="c" horiz-adv-x="536" d="M238 -8 Q156 -8 106 41.5 Q56 91 56 173 L56 316 Q56 402 106 454.5 Q156 507 237 507 L319 507 Q396 507 443 464 Q490 421 490 351 L420 351 Q420 392 392.5 417.5 Q365 443 319 443 L237 443 Q188 443 158 408 Q128 373 128 316 L128 173 Q128 120 158.5 88 Q189 56 238 56 L320 56 Q367 56 395.5 89 Q424 122 424 177 L494 177 Q494 94 446 43 Q398 -8 320 -8 L238 -8 Z " />
<glyph glyph-name="cacute" unicode="&#x107;" horiz-adv-x="536" d="M238 -8 Q156 -8 106 41.5 Q56 91 56 173 L56 316 Q56 402 106 454.5 Q156 507 237 507 L319 507 Q396 507 443 464 Q490 421 490 351 L420 351 Q420 392 392.5 417.5 Q365 443 319 443 L237 443 Q188 443 158 408 Q128 373 128 316 L128 173 Q128 120 158.5 88 Q189 56 238 56 L320 56 Q367 56 395.5 89 Q424 122 424 177 L494 177 Q494 94 446 43 Q398 -8 320 -8 L238 -8 Z M330 732 L412 732 L313 580 L247 580 L330 732 Z " />
<glyph glyph-name="ccaron" unicode="&#x10d;" horiz-adv-x="536" d="M238 -8 Q156 -8 106 41.5 Q56 91 56 173 L56 316 Q56 402 106 454.5 Q156 507 237 507 L319 507 Q396 507 443 464 Q490 421 490 351 L420 351 Q420 392 392.5 417.5 Q365 443 319 443 L237 443 Q188 443 158 408 Q128 373 128 316 L128 173 Q128 120 158.5 88 Q189 56 238 56 L320 56 Q367 56 395.5 89 Q424 122 424 177 L494 177 Q494 94 446 43 Q398 -8 320 -8 L238 -8 Z M126 742 L194 742 L278 630 L362 742 L430 742 L305 580 L250 580 L126 742 Z " />
<glyph glyph-name="ccedilla" unicode="&#xe7;" horiz-adv-x="536" d="M300 -8 L279 -54 L286 -54 Q325 -54 348.5 -75 Q372 -96 372 -130 L372 -141 Q372 -178 343 -200.5 Q314 -223 267 -223 L212 -223 L212 -175 L265 -175 Q287 -175 301 -165.5 Q315 -156 315 -141 L315 -130 Q315 -115 302.5 -105.5 Q290 -96 270 -96 L223 -96 L223 -52 L242 -8 L238 -8 Q156 -8 106 41.5 Q56 91 56 173 L56 316 Q56 402 106 454.5 Q156 507 237 507 L319 507 Q396 507 443 464 Q490 421 490 351 L420 351 Q420 392 392.5 417.5 Q365 443 319 443 L237 443 Q188 443 158 408 Q128 373 128 316 L128 173 Q128 120 158.5 88 Q189 56 238 56 L320 56 Q367 56 395.5 89 Q424 122 424 177 L494 177 Q494 94 446 43 Q398 -8 320 -8 L300 -8 Z " />
<glyph glyph-name="ccircumflex" unicode="&#x109;" horiz-adv-x="536" d="M238 -8 Q156 -8 106 41.5 Q56 91 56 173 L56 316 Q56 402 106 454.5 Q156 507 237 507 L319 507 Q396 507 443 464 Q490 421 490 351 L420 351 Q420 392 392.5 417.5 Q365 443 319 443 L237 443 Q188 443 158 408 Q128 373 128 316 L128 173 Q128 120 158.5 88 Q189 56 238 56 L320 56 Q367 56 395.5 89 Q424 122 424 177 L494 177 Q494 94 446 43 Q398 -8 320 -8 L238 -8 Z M250 742 L305 742 L430 580 L362 580 L278 692 L194 580 L126 580 L250 742 Z " />
<glyph glyph-name="cdotaccent" unicode="&#x10b;" horiz-adv-x="536" d="M238 -8 Q156 -8 106 41.5 Q56 91 56 173 L56 316 Q56 402 106 454.5 Q156 507 237 507 L319 507 Q396 507 443 464 Q490 421 490 351 L420 351 Q420 392 392.5 417.5 Q365 443 319 443 L237 443 Q188 443 158 408 Q128 373 128 316 L128 173 Q128 120 158.5 88 Q189 56 238 56 L320 56 Q367 56 395.5 89 Q424 122 424 177 L494 177 Q494 94 446 43 Q398 -8 320 -8 L238 -8 Z M278 580 Q254 580 239 595 Q224 610 224 634 Q224 658 239 673 Q254 688 278 688 Q302 688 317 673 Q332 658 332 634 Q332 610 317 595 Q302 580 278 580 Z " />
<glyph glyph-name="d" unicode="d" horiz-adv-x="578" d="M231 -8 Q180 -8 140 16 Q100 40 78 83 Q56 126 56 183 L56 303 Q56 363 79 409.5 Q102 456 144 481.5 Q186 507 240 507 L314 507 Q348 507 379.5 491 Q411 475 430 447 L430 700 L502 700 L502 0 L432 0 L432 74 Q409 37 372 14.5 Q335 -8 300 -8 L231 -8 Z M298 56 Q330 56 360 76.5 Q390 97 409 130 Q428 163 430 198 L430 324 Q423 377 390.5 410 Q358 443 312 443 L242 443 Q191 443 159.5 404.5 Q128 366 128 303 L128 183 Q128 127 157.5 91.5 Q187 56 233 56 L298 56 Z " />
<glyph glyph-name="eth" unicode="&#xf0;" horiz-adv-x="587" d="M395 720 Q467 674 502 583 Q537 492 537 353 L537 221 Q537 153 510.5 101 Q484 49 436 20.5 Q388 -8 325 -8 L253 -8 Q193 -8 147 18 Q101 44 75.5 91 Q50 138 50 199 L50 298 Q50 362 75 411.5 Q100 461 145.5 488 Q191 515 250 515 L322 515 Q363 515 402.5 493 Q442 471 465 434 L466 434 Q459 523 432 580.5 Q405 638 355 669 L296 593 L224 593 L301 692 Q251 706 190 706 L168 706 L168 770 L190 770 Q278 770 343 746 L384 798 L456 798 L395 720 Z M465 283 Q465 329 446.5 367.5 Q428 406 394.5 428.5 Q361 451 318 451 L252 451 Q194 451 158 409 Q122 367 122 299 L122 197 Q122 133 158.5 94.5 Q195 56 255 56 L323 56 Q387 56 426 100 Q465 144 465 217 L465 283 Z " />
<glyph glyph-name="dcaron" unicode="&#x10f;" horiz-adv-x="736" d="M231 -8 Q180 -8 140 16 Q100 40 78 83 Q56 126 56 183 L56 303 Q56 363 79 409.5 Q102 456 144 481.5 Q186 507 240 507 L314 507 Q348 507 379.5 491 Q411 475 430 447 L430 700 L502 700 L502 0 L432 0 L432 74 Q409 37 372 14.5 Q335 -8 300 -8 L231 -8 Z M298 56 Q330 56 360 76.5 Q390 97 409 130 Q428 163 430 198 L430 324 Q423 377 390.5 410 Q358 443 312 443 L242 443 Q191 443 159.5 404.5 Q128 366 128 303 L128 183 Q128 127 157.5 91.5 Q187 56 233 56 L298 56 Z M574 551 L589 561 Q619 581 633.5 607.5 Q648 634 648 669 L648 700 L720 700 L720 669 Q720 613 699 574 Q678 535 634 507 L615 495 L574 551 Z " />
<glyph glyph-name="dslash" unicode="&#x111;" horiz-adv-x="595" d="M577 567 L502 567 L502 0 L432 0 L432 74 Q409 37 372 14.5 Q335 -8 300 -8 L231 -8 Q180 -8 140 16 Q100 40 78 83 Q56 126 56 183 L56 303 Q56 363 79 409.5 Q102 456 144 481.5 Q186 507 240 507 L314 507 Q348 507 379.5 491 Q411 475 430 447 L430 567 L268 567 L268 627 L430 627 L430 700 L502 700 L502 627 L577 627 L577 567 Z M430 324 Q423 377 390.5 410 Q358 443 312 443 L242 443 Q191 443 159.5 404.5 Q128 366 128 303 L128 183 Q128 127 157.5 91.5 Q187 56 233 56 L298 56 Q330 56 360 76.5 Q390 97 409 130 Q428 163 430 198 L430 324 Z " />
<glyph glyph-name="uni1E0D" unicode="&#x1e0d;" horiz-adv-x="578" d="M231 -8 Q180 -8 140 16 Q100 40 78 83 Q56 126 56 183 L56 303 Q56 363 79 409.5 Q102 456 144 481.5 Q186 507 240 507 L314 507 Q348 507 379.5 491 Q411 475 430 447 L430 700 L502 700 L502 0 L432 0 L432 74 Q409 37 372 14.5 Q335 -8 300 -8 L231 -8 Z M298 56 Q330 56 360 76.5 Q390 97 409 130 Q428 163 430 198 L430 324 Q423 377 390.5 410 Q358 443 312 443 L242 443 Q191 443 159.5 404.5 Q128 366 128 303 L128 183 Q128 127 157.5 91.5 Q187 56 233 56 L298 56 Z M284 -179 Q260 -179 245 -164 Q230 -149 230 -125 Q230 -101 245 -86 Q260 -71 284 -71 Q308 -71 323 -86 Q338 -101 338 -125 Q338 -149 323 -164 Q308 -179 284 -179 Z " />
<glyph glyph-name="uni1E0F" unicode="&#x1e0f;" horiz-adv-x="578" d="M231 -8 Q180 -8 140 16 Q100 40 78 83 Q56 126 56 183 L56 303 Q56 363 79 409.5 Q102 456 144 481.5 Q186 507 240 507 L314 507 Q348 507 379.5 491 Q411 475 430 447 L430 700 L502 700 L502 0 L432 0 L432 74 Q409 37 372 14.5 Q335 -8 300 -8 L231 -8 Z M298 56 Q330 56 360 76.5 Q390 97 409 130 Q428 163 430 198 L430 324 Q423 377 390.5 410 Q358 443 312 443 L242 443 Q191 443 159.5 404.5 Q128 366 128 303 L128 183 Q128 127 157.5 91.5 Q187 56 233 56 L298 56 Z M157 -74 L412 -74 L412 -126 L157 -126 L157 -74 Z " />
<glyph glyph-name="e" unicode="e" horiz-adv-x="552" d="M242 -8 Q158 -8 107 41.5 Q56 91 56 173 L56 316 Q56 402 107 454.5 Q158 507 242 507 L324 507 Q404 507 453 456 Q502 405 502 321 L502 233 L128 233 L128 173 Q128 121 159.5 88.5 Q191 56 242 56 L318 56 Q368 56 399 83.5 Q430 111 430 157 L500 157 Q500 83 450 37.5 Q400 -8 318 -8 L242 -8 Z M430 295 L430 321 Q430 376 401 409.5 Q372 443 324 443 L242 443 Q191 443 159.5 408 Q128 373 128 316 L128 295 L430 295 Z " />
<glyph glyph-name="eacute" unicode="&#xe9;" horiz-adv-x="552" d="M242 -8 Q158 -8 107 41.5 Q56 91 56 173 L56 316 Q56 402 107 454.5 Q158 507 242 507 L324 507 Q404 507 453 456 Q502 405 502 321 L502 233 L128 233 L128 173 Q128 121 159.5 88.5 Q191 56 242 56 L318 56 Q368 56 399 83.5 Q430 111 430 157 L500 157 Q500 83 450 37.5 Q400 -8 318 -8 L242 -8 Z M430 295 L430 321 Q430 376 401 409.5 Q372 443 324 443 L242 443 Q191 443 159.5 408 Q128 373 128 316 L128 295 L430 295 Z M333 732 L415 732 L316 580 L250 580 L333 732 Z " />
<glyph glyph-name="ebreve" unicode="&#x115;" horiz-adv-x="552" d="M242 -8 Q158 -8 107 41.5 Q56 91 56 173 L56 316 Q56 402 107 454.5 Q158 507 242 507 L324 507 Q404 507 453 456 Q502 405 502 321 L502 233 L128 233 L128 173 Q128 121 159.5 88.5 Q191 56 242 56 L318 56 Q368 56 399 83.5 Q430 111 430 157 L500 157 Q500 83 450 37.5 Q400 -8 318 -8 L242 -8 Z M430 295 L430 321 Q430 376 401 409.5 Q372 443 324 443 L242 443 Q191 443 159.5 408 Q128 373 128 316 L128 295 L430 295 Z M275 572 Q213 572 174.5 608 Q136 644 136 703 L136 711 L194 711 L194 703 Q194 666 216 644 Q238 622 275 622 L287 622 Q324 622 346.5 644 Q369 666 369 703 L369 711 L426 711 L426 703 Q426 644 387.5 608 Q349 572 287 572 L275 572 Z " />
<glyph glyph-name="ecaron" unicode="&#x11b;" horiz-adv-x="552" d="M242 -8 Q158 -8 107 41.5 Q56 91 56 173 L56 316 Q56 402 107 454.5 Q158 507 242 507 L324 507 Q404 507 453 456 Q502 405 502 321 L502 233 L128 233 L128 173 Q128 121 159.5 88.5 Q191 56 242 56 L318 56 Q368 56 399 83.5 Q430 111 430 157 L500 157 Q500 83 450 37.5 Q400 -8 318 -8 L242 -8 Z M430 295 L430 321 Q430 376 401 409.5 Q372 443 324 443 L242 443 Q191 443 159.5 408 Q128 373 128 316 L128 295 L430 295 Z M129 742 L197 742 L281 630 L365 742 L433 742 L308 580 L253 580 L129 742 Z " />
<glyph glyph-name="ecircumflex" unicode="&#xea;" horiz-adv-x="552" d="M242 -8 Q158 -8 107 41.5 Q56 91 56 173 L56 316 Q56 402 107 454.5 Q158 507 242 507 L324 507 Q404 507 453 456 Q502 405 502 321 L502 233 L128 233 L128 173 Q128 121 159.5 88.5 Q191 56 242 56 L318 56 Q368 56 399 83.5 Q430 111 430 157 L500 157 Q500 83 450 37.5 Q400 -8 318 -8 L242 -8 Z M430 295 L430 321 Q430 376 401 409.5 Q372 443 324 443 L242 443 Q191 443 159.5 408 Q128 373 128 316 L128 295 L430 295 Z M253 742 L308 742 L433 580 L365 580 L281 692 L197 580 L129 580 L253 742 Z " />
<glyph glyph-name="uni1EBF" unicode="&#x1ebf;" horiz-adv-x="552" d="M242 -8 Q158 -8 107 41.5 Q56 91 56 173 L56 316 Q56 402 107 454.5 Q158 507 242 507 L324 507 Q404 507 453 456 Q502 405 502 321 L502 233 L128 233 L128 173 Q128 121 159.5 88.5 Q191 56 242 56 L318 56 Q368 56 399 83.5 Q430 111 430 157 L500 157 Q500 83 450 37.5 Q400 -8 318 -8 L242 -8 Z M430 295 L430 321 Q430 376 401 409.5 Q372 443 324 443 L242 443 Q191 443 159.5 408 Q128 373 128 316 L128 295 L430 295 Z M453 848 L523 848 L447 732 L389 732 L453 848 Z M253 742 L308 742 L433 580 L365 580 L281 692 L197 580 L129 580 L253 742 Z " />
<glyph glyph-name="uni1EC7" unicode="&#x1ec7;" horiz-adv-x="552" d="M242 -8 Q158 -8 107 41.5 Q56 91 56 173 L56 316 Q56 402 107 454.5 Q158 507 242 507 L324 507 Q404 507 453 456 Q502 405 502 321 L502 233 L128 233 L128 173 Q128 121 159.5 88.5 Q191 56 242 56 L318 56 Q368 56 399 83.5 Q430 111 430 157 L500 157 Q500 83 450 37.5 Q400 -8 318 -8 L242 -8 Z M430 295 L430 321 Q430 376 401 409.5 Q372 443 324 443 L242 443 Q191 443 159.5 408 Q128 373 128 316 L128 295 L430 295 Z M285 -179 Q261 -179 246 -164 Q231 -149 231 -125 Q231 -101 246 -86 Q261 -71 285 -71 Q309 -71 324 -86 Q339 -101 339 -125 Q339 -149 324 -164 Q309 -179 285 -179 Z M253 742 L308 742 L433 580 L365 580 L281 692 L197 580 L129 580 L253 742 Z " />
<glyph glyph-name="uni1EC1" unicode="&#x1ec1;" horiz-adv-x="552" d="M242 -8 Q158 -8 107 41.5 Q56 91 56 173 L56 316 Q56 402 107 454.5 Q158 507 242 507 L324 507 Q404 507 453 456 Q502 405 502 321 L502 233 L128 233 L128 173 Q128 121 159.5 88.5 Q191 56 242 56 L318 56 Q368 56 399 83.5 Q430 111 430 157 L500 157 Q500 83 450 37.5 Q400 -8 318 -8 L242 -8 Z M430 295 L430 321 Q430 376 401 409.5 Q372 443 324 443 L242 443 Q191 443 159.5 408 Q128 373 128 316 L128 295 L430 295 Z M339 848 L409 848 L473 732 L415 732 L339 848 Z M253 742 L308 742 L433 580 L365 580 L281 692 L197 580 L129 580 L253 742 Z " />
<glyph glyph-name="uni1EC3" unicode="&#x1ec3;" horiz-adv-x="552" d="M242 -8 Q158 -8 107 41.5 Q56 91 56 173 L56 316 Q56 402 107 454.5 Q158 507 242 507 L324 507 Q404 507 453 456 Q502 405 502 321 L502 233 L128 233 L128 173 Q128 121 159.5 88.5 Q191 56 242 56 L318 56 Q368 56 399 83.5 Q430 111 430 157 L500 157 Q500 83 450 37.5 Q400 -8 318 -8 L242 -8 Z M430 295 L430 321 Q430 376 401 409.5 Q372 443 324 443 L242 443 Q191 443 159.5 408 Q128 373 128 316 L128 295 L430 295 Z M392 730 Q392 747 402.5 758.5 Q413 770 432 782 Q446 792 453 798.5 Q460 805 460 814 L460 823 Q460 836 452 843 Q444 850 430 850 L414 850 Q379 850 379 816 L331 816 Q331 894 414 894 L430 894 Q510 894 510 823 L510 814 Q510 795 498.5 782 Q487 769 468 757 Q456 749 450 743 Q444 737 444 730 L444 722 L392 722 L392 730 Z M253 742 L308 742 L433 580 L365 580 L281 692 L197 580 L129 580 L253 742 Z " />
<glyph glyph-name="uni1EC5" unicode="&#x1ec5;" horiz-adv-x="552" d="M242 -8 Q158 -8 107 41.5 Q56 91 56 173 L56 316 Q56 402 107 454.5 Q158 507 242 507 L324 507 Q404 507 453 456 Q502 405 502 321 L502 233 L128 233 L128 173 Q128 121 159.5 88.5 Q191 56 242 56 L318 56 Q368 56 399 83.5 Q430 111 430 157 L500 157 Q500 83 450 37.5 Q400 -8 318 -8 L242 -8 Z M430 295 L430 321 Q430 376 401 409.5 Q372 443 324 443 L242 443 Q191 443 159.5 408 Q128 373 128 316 L128 295 L430 295 Z M336 777 Q316 777 302 786 Q288 795 271 812 Q258 825 250 830.5 Q242 836 233 836 L224 836 Q211 836 202 823.5 Q193 811 192 791 L143 791 Q144 831 166.5 855.5 Q189 880 224 880 L233 880 Q256 880 271.5 870 Q287 860 303 843 Q315 831 321.5 826 Q328 821 336 821 L345 821 Q357 821 365.5 833.5 Q374 846 375 866 L424 866 Q423 826 401 801.5 Q379 777 345 777 L336 777 Z M253 742 L308 742 L433 580 L365 580 L281 692 L197 580 L129 580 L253 742 Z " />
<glyph glyph-name="edieresis" unicode="&#xeb;" horiz-adv-x="552" d="M242 -8 Q158 -8 107 41.5 Q56 91 56 173 L56 316 Q56 402 107 454.5 Q158 507 242 507 L324 507 Q404 507 453 456 Q502 405 502 321 L502 233 L128 233 L128 173 Q128 121 159.5 88.5 Q191 56 242 56 L318 56 Q368 56 399 83.5 Q430 111 430 157 L500 157 Q500 83 450 37.5 Q400 -8 318 -8 L242 -8 Z M430 295 L430 321 Q430 376 401 409.5 Q372 443 324 443 L242 443 Q191 443 159.5 408 Q128 373 128 316 L128 295 L430 295 Z M181 580 Q159 580 145.5 593.5 Q132 607 132 629 Q132 651 145.5 664.5 Q159 678 181 678 Q203 678 216.5 664.5 Q230 651 230 629 Q230 607 216.5 593.5 Q203 580 181 580 Z M380 580 Q358 580 344.5 593.5 Q331 607 331 629 Q331 651 344.5 664.5 Q358 678 380 678 Q402 678 415.5 664.5 Q429 651 429 629 Q429 607 415.5 593.5 Q402 580 380 580 Z " />
<glyph glyph-name="edotaccent" unicode="&#x117;" horiz-adv-x="552" d="M242 -8 Q158 -8 107 41.5 Q56 91 56 173 L56 316 Q56 402 107 454.5 Q158 507 242 507 L324 507 Q404 507 453 456 Q502 405 502 321 L502 233 L128 233 L128 173 Q128 121 159.5 88.5 Q191 56 242 56 L318 56 Q368 56 399 83.5 Q430 111 430 157 L500 157 Q500 83 450 37.5 Q400 -8 318 -8 L242 -8 Z M430 295 L430 321 Q430 376 401 409.5 Q372 443 324 443 L242 443 Q191 443 159.5 408 Q128 373 128 316 L128 295 L430 295 Z M281 580 Q257 580 242 595 Q227 610 227 634 Q227 658 242 673 Q257 688 281 688 Q305 688 320 673 Q335 658 335 634 Q335 610 320 595 Q305 580 281 580 Z " />
<glyph glyph-name="uni1EB9" unicode="&#x1eb9;" horiz-adv-x="552" d="M242 -8 Q158 -8 107 41.5 Q56 91 56 173 L56 316 Q56 402 107 454.5 Q158 507 242 507 L324 507 Q404 507 453 456 Q502 405 502 321 L502 233 L128 233 L128 173 Q128 121 159.5 88.5 Q191 56 242 56 L318 56 Q368 56 399 83.5 Q430 111 430 157 L500 157 Q500 83 450 37.5 Q400 -8 318 -8 L242 -8 Z M430 295 L430 321 Q430 376 401 409.5 Q372 443 324 443 L242 443 Q191 443 159.5 408 Q128 373 128 316 L128 295 L430 295 Z M285 -179 Q261 -179 246 -164 Q231 -149 231 -125 Q231 -101 246 -86 Q261 -71 285 -71 Q309 -71 324 -86 Q339 -101 339 -125 Q339 -149 324 -164 Q309 -179 285 -179 Z " />
<glyph glyph-name="egrave" unicode="&#xe8;" horiz-adv-x="552" d="M242 -8 Q158 -8 107 41.5 Q56 91 56 173 L56 316 Q56 402 107 454.5 Q158 507 242 507 L324 507 Q404 507 453 456 Q502 405 502 321 L502 233 L128 233 L128 173 Q128 121 159.5 88.5 Q191 56 242 56 L318 56 Q368 56 399 83.5 Q430 111 430 157 L500 157 Q500 83 450 37.5 Q400 -8 318 -8 L242 -8 Z M430 295 L430 321 Q430 376 401 409.5 Q372 443 324 443 L242 443 Q191 443 159.5 408 Q128 373 128 316 L128 295 L430 295 Z M150 732 L232 732 L315 580 L249 580 L150 732 Z " />
<glyph glyph-name="uni1EBB" unicode="&#x1ebb;" horiz-adv-x="552" d="M242 -8 Q158 -8 107 41.5 Q56 91 56 173 L56 316 Q56 402 107 454.5 Q158 507 242 507 L324 507 Q404 507 453 456 Q502 405 502 321 L502 233 L128 233 L128 173 Q128 121 159.5 88.5 Q191 56 242 56 L318 56 Q368 56 399 83.5 Q430 111 430 157 L500 157 Q500 83 450 37.5 Q400 -8 318 -8 L242 -8 Z M430 295 L430 321 Q430 376 401 409.5 Q372 443 324 443 L242 443 Q191 443 159.5 408 Q128 373 128 316 L128 295 L430 295 Z M246 582 Q246 603 258.5 617 Q271 631 294 646 Q311 658 319.5 666 Q328 674 328 685 L328 696 Q328 729 292 729 L272 729 Q230 729 230 687 L172 687 Q172 781 272 781 L292 781 Q339 781 363.5 759.5 Q388 738 388 696 L388 685 Q388 662 375 647 Q362 632 338 615 Q323 605 315.5 597.5 Q308 590 308 582 L308 566 L246 566 L246 582 Z " />
<glyph glyph-name="emacron" unicode="&#x113;" horiz-adv-x="552" d="M242 -8 Q158 -8 107 41.5 Q56 91 56 173 L56 316 Q56 402 107 454.5 Q158 507 242 507 L324 507 Q404 507 453 456 Q502 405 502 321 L502 233 L128 233 L128 173 Q128 121 159.5 88.5 Q191 56 242 56 L318 56 Q368 56 399 83.5 Q430 111 430 157 L500 157 Q500 83 450 37.5 Q400 -8 318 -8 L242 -8 Z M430 295 L430 321 Q430 376 401 409.5 Q372 443 324 443 L242 443 Q191 443 159.5 408 Q128 373 128 316 L128 295 L430 295 Z M154 642 L409 642 L409 590 L154 590 L154 642 Z " />
<glyph glyph-name="eogonek" unicode="&#x119;" horiz-adv-x="552" d="M128 233 L128 173 Q128 121 159.5 88.5 Q191 56 242 56 L318 56 Q368 56 399 83.5 Q430 111 430 157 L500 157 Q500 98 468 56.5 Q436 15 380 0 L386 0 Q355 -16 337 -42.5 Q319 -69 319 -99 L319 -109 Q319 -129 331.5 -142 Q344 -155 367 -155 L377 -155 Q390 -155 405.5 -149.5 Q421 -144 433 -135 L433 -191 Q423 -199 405.5 -204 Q388 -209 372 -209 L362 -209 Q314 -209 285.5 -183 Q257 -157 257 -113 L257 -103 Q257 -76 270 -50.5 Q283 -25 305 -8 L242 -8 Q158 -8 107 41.5 Q56 91 56 173 L56 316 Q56 402 107 454.5 Q158 507 242 507 L324 507 Q404 507 453 456 Q502 405 502 321 L502 233 L128 233 Z M128 295 L430 295 L430 321 Q430 376 401 409.5 Q372 443 324 443 L242 443 Q191 443 159.5 408 Q128 373 128 316 L128 295 Z " />
<glyph glyph-name="uni1EBD" unicode="&#x1ebd;" horiz-adv-x="552" d="M242 -8 Q158 -8 107 41.5 Q56 91 56 173 L56 316 Q56 402 107 454.5 Q158 507 242 507 L324 507 Q404 507 453 456 Q502 405 502 321 L502 233 L128 233 L128 173 Q128 121 159.5 88.5 Q191 56 242 56 L318 56 Q368 56 399 83.5 Q430 111 430 157 L500 157 Q500 83 450 37.5 Q400 -8 318 -8 L242 -8 Z M430 295 L430 321 Q430 376 401 409.5 Q372 443 324 443 L242 443 Q191 443 159.5 408 Q128 373 128 316 L128 295 L430 295 Z M341 572 Q318 572 301.5 582.5 Q285 593 267 612 Q251 627 243 633 Q235 639 224 639 L214 639 Q199 639 188 625 Q177 611 176 588 L120 588 Q121 633 147.5 661 Q174 689 214 689 L224 689 Q249 689 266.5 678 Q284 667 304 647 Q316 634 324 628 Q332 622 341 622 L351 622 Q365 622 375.5 636 Q386 650 387 673 L443 673 Q442 628 416 600 Q390 572 351 572 L341 572 Z " />
<glyph glyph-name="uni0259" unicode="&#x259;" horiz-adv-x="548" d="M226 -8 Q147 -8 98.5 43 Q50 94 50 178 L50 266 L420 266 L420 326 Q420 379 389 411 Q358 443 306 443 L232 443 Q182 443 152 415.5 Q122 388 122 342 L52 342 Q52 416 101.5 461.5 Q151 507 232 507 L306 507 Q390 507 441 457.5 Q492 408 492 326 L492 183 Q492 97 441 44.5 Q390 -8 306 -8 L226 -8 Z M306 56 Q358 56 389 91 Q420 126 420 183 L420 204 L122 204 L122 178 Q122 123 150 89.5 Q178 56 226 56 L306 56 Z " />
<glyph glyph-name="f" unicode="f" horiz-adv-x="359" d="M126 435 L40 435 L40 499 L126 499 L126 538 Q126 620 168 662 Q210 704 291 704 L329 704 L329 642 L291 642 Q243 642 220.5 616.5 Q198 591 198 538 L198 499 L318 499 L318 435 L198 435 L198 0 L126 0 L126 435 Z " />
<glyph glyph-name="g" unicode="g" horiz-adv-x="578" d="M238 -203 Q172 -203 129 -167.5 Q86 -132 81 -74 L153 -74 Q157 -104 180.5 -122.5 Q204 -141 238 -141 L321 -141 Q373 -141 401.5 -106.5 Q430 -72 430 -10 L430 67 Q408 37 372.5 18.5 Q337 0 304 0 L231 0 Q180 0 140 24 Q100 48 78 91 Q56 134 56 191 L56 308 Q56 397 107.5 452 Q159 507 243 507 L313 507 Q345 507 379 489 Q413 471 432 443 L432 499 L502 499 L502 -10 Q502 -101 454 -152 Q406 -203 321 -203 L238 -203 Z M304 64 Q354 64 389.5 103.5 Q425 143 430 204 L430 327 Q426 378 392.5 410.5 Q359 443 313 443 L245 443 Q192 443 160 406 Q128 369 128 308 L128 191 Q128 135 157.5 99.5 Q187 64 233 64 L304 64 Z " />
<glyph glyph-name="gbreve" unicode="&#x11f;" horiz-adv-x="578" d="M238 -203 Q172 -203 129 -167.5 Q86 -132 81 -74 L153 -74 Q157 -104 180.5 -122.5 Q204 -141 238 -141 L321 -141 Q373 -141 401.5 -106.5 Q430 -72 430 -10 L430 67 Q408 37 372.5 18.5 Q337 0 304 0 L231 0 Q180 0 140 24 Q100 48 78 91 Q56 134 56 191 L56 308 Q56 397 107.5 452 Q159 507 243 507 L313 507 Q345 507 379 489 Q413 471 432 443 L432 499 L502 499 L502 -10 Q502 -101 454 -152 Q406 -203 321 -203 L238 -203 Z M304 64 Q354 64 389.5 103.5 Q425 143 430 204 L430 327 Q426 378 392.5 410.5 Q359 443 313 443 L245 443 Q192 443 160 406 Q128 369 128 308 L128 191 Q128 135 157.5 99.5 Q187 64 233 64 L304 64 Z M272 572 Q210 572 171.5 608 Q133 644 133 703 L133 711 L191 711 L191 703 Q191 666 213 644 Q235 622 272 622 L284 622 Q321 622 343.5 644 Q366 666 366 703 L366 711 L423 711 L423 703 Q423 644 384.5 608 Q346 572 284 572 L272 572 Z " />
<glyph glyph-name="gcaron" unicode="&#x1e7;" horiz-adv-x="578" d="M238 -203 Q172 -203 129 -167.5 Q86 -132 81 -74 L153 -74 Q157 -104 180.5 -122.5 Q204 -141 238 -141 L321 -141 Q373 -141 401.5 -106.5 Q430 -72 430 -10 L430 67 Q408 37 372.5 18.5 Q337 0 304 0 L231 0 Q180 0 140 24 Q100 48 78 91 Q56 134 56 191 L56 308 Q56 397 107.5 452 Q159 507 243 507 L313 507 Q345 507 379 489 Q413 471 432 443 L432 499 L502 499 L502 -10 Q502 -101 454 -152 Q406 -203 321 -203 L238 -203 Z M304 64 Q354 64 389.5 103.5 Q425 143 430 204 L430 327 Q426 378 392.5 410.5 Q359 443 313 443 L245 443 Q192 443 160 406 Q128 369 128 308 L128 191 Q128 135 157.5 99.5 Q187 64 233 64 L304 64 Z M126 742 L194 742 L278 630 L362 742 L430 742 L305 580 L250 580 L126 742 Z " />
<glyph glyph-name="gcircumflex" unicode="&#x11d;" horiz-adv-x="578" d="M238 -203 Q172 -203 129 -167.5 Q86 -132 81 -74 L153 -74 Q157 -104 180.5 -122.5 Q204 -141 238 -141 L321 -141 Q373 -141 401.5 -106.5 Q430 -72 430 -10 L430 67 Q408 37 372.5 18.5 Q337 0 304 0 L231 0 Q180 0 140 24 Q100 48 78 91 Q56 134 56 191 L56 308 Q56 397 107.5 452 Q159 507 243 507 L313 507 Q345 507 379 489 Q413 471 432 443 L432 499 L502 499 L502 -10 Q502 -101 454 -152 Q406 -203 321 -203 L238 -203 Z M304 64 Q354 64 389.5 103.5 Q425 143 430 204 L430 327 Q426 378 392.5 410.5 Q359 443 313 443 L245 443 Q192 443 160 406 Q128 369 128 308 L128 191 Q128 135 157.5 99.5 Q187 64 233 64 L304 64 Z M250 742 L305 742 L430 580 L362 580 L278 692 L194 580 L126 580 L250 742 Z " />
<glyph glyph-name="uni0123" unicode="&#x123;" horiz-adv-x="578" d="M238 -203 Q172 -203 129 -167.5 Q86 -132 81 -74 L153 -74 Q157 -104 180.5 -122.5 Q204 -141 238 -141 L321 -141 Q373 -141 401.5 -106.5 Q430 -72 430 -10 L430 67 Q408 37 372.5 18.5 Q337 0 304 0 L231 0 Q180 0 140 24 Q100 48 78 91 Q56 134 56 191 L56 308 Q56 397 107.5 452 Q159 507 243 507 L313 507 Q345 507 379 489 Q413 471 432 443 L432 499 L502 499 L502 -10 Q502 -101 454 -152 Q406 -203 321 -203 L238 -203 Z M304 64 Q354 64 389.5 103.5 Q425 143 430 204 L430 327 Q426 378 392.5 410.5 Q359 443 313 443 L245 443 Q192 443 160 406 Q128 369 128 308 L128 191 Q128 135 157.5 99.5 Q187 64 233 64 L304 64 Z M236 594 Q236 650 257 689 Q278 728 322 756 L341 768 L382 712 L367 702 Q337 682 322.5 655.5 Q308 629 308 594 L308 563 L236 563 L236 594 Z " />
<glyph glyph-name="gdotaccent" unicode="&#x121;" horiz-adv-x="578" d="M238 -203 Q172 -203 129 -167.5 Q86 -132 81 -74 L153 -74 Q157 -104 180.5 -122.5 Q204 -141 238 -141 L321 -141 Q373 -141 401.5 -106.5 Q430 -72 430 -10 L430 67 Q408 37 372.5 18.5 Q337 0 304 0 L231 0 Q180 0 140 24 Q100 48 78 91 Q56 134 56 191 L56 308 Q56 397 107.5 452 Q159 507 243 507 L313 507 Q345 507 379 489 Q413 471 432 443 L432 499 L502 499 L502 -10 Q502 -101 454 -152 Q406 -203 321 -203 L238 -203 Z M304 64 Q354 64 389.5 103.5 Q425 143 430 204 L430 327 Q426 378 392.5 410.5 Q359 443 313 443 L245 443 Q192 443 160 406 Q128 369 128 308 L128 191 Q128 135 157.5 99.5 Q187 64 233 64 L304 64 Z M278 580 Q254 580 239 595 Q224 610 224 634 Q224 658 239 673 Q254 688 278 688 Q302 688 317 673 Q332 658 332 634 Q332 610 317 595 Q302 580 278 580 Z " />
<glyph glyph-name="uni1E21" unicode="&#x1e21;" horiz-adv-x="578" d="M238 -203 Q172 -203 129 -167.5 Q86 -132 81 -74 L153 -74 Q157 -104 180.5 -122.5 Q204 -141 238 -141 L321 -141 Q373 -141 401.5 -106.5 Q430 -72 430 -10 L430 67 Q408 37 372.5 18.5 Q337 0 304 0 L231 0 Q180 0 140 24 Q100 48 78 91 Q56 134 56 191 L56 308 Q56 397 107.5 452 Q159 507 243 507 L313 507 Q345 507 379 489 Q413 471 432 443 L432 499 L502 499 L502 -10 Q502 -101 454 -152 Q406 -203 321 -203 L238 -203 Z M304 64 Q354 64 389.5 103.5 Q425 143 430 204 L430 327 Q426 378 392.5 410.5 Q359 443 313 443 L245 443 Q192 443 160 406 Q128 369 128 308 L128 191 Q128 135 157.5 99.5 Q187 64 233 64 L304 64 Z M151 642 L406 642 L406 590 L151 590 L151 642 Z " />
<glyph glyph-name="h" unicode="h" horiz-adv-x="574" d="M76 700 L148 700 L148 430 Q171 465 207 486 Q243 507 280 507 L350 507 Q419 507 461.5 460 Q504 413 504 337 L504 0 L432 0 L432 339 Q432 385 409 414 Q386 443 348 443 L282 443 Q235 443 196.5 406.5 Q158 370 148 313 L148 0 L76 0 L76 700 Z " />
<glyph glyph-name="hbar" unicode="&#x127;" horiz-adv-x="614" d="M390 507 Q459 507 501.5 460 Q544 413 544 337 L544 0 L472 0 L472 339 Q472 385 449 414 Q426 443 388 443 L322 443 Q275 443 236.5 406.5 Q198 370 188 313 L188 0 L116 0 L116 568 L26 568 L26 626 L116 626 L116 700 L188 700 L188 626 L316 626 L316 568 L188 568 L188 430 Q211 465 247 486 Q283 507 320 507 L390 507 Z " />
<glyph glyph-name="uni1E2B" unicode="&#x1e2b;" horiz-adv-x="574" d="M76 700 L148 700 L148 430 Q171 465 207 486 Q243 507 280 507 L350 507 Q419 507 461.5 460 Q504 413 504 337 L504 0 L432 0 L432 339 Q432 385 409 414 Q386 443 348 443 L282 443 Q235 443 196.5 406.5 Q158 370 148 313 L148 0 L76 0 L76 700 Z M287 -202 Q225 -202 186.5 -166 Q148 -130 148 -71 L148 -63 L206 -63 L206 -71 Q206 -108 228 -130 Q250 -152 287 -152 L299 -152 Q336 -152 358.5 -130 Q381 -108 381 -71 L381 -63 L438 -63 L438 -71 Q438 -130 399.5 -166 Q361 -202 299 -202 L287 -202 Z " />
<glyph glyph-name="hcircumflex" unicode="&#x125;" horiz-adv-x="574" d="M76 700 L148 700 L148 430 Q171 465 207 486 Q243 507 280 507 L350 507 Q419 507 461.5 460 Q504 413 504 337 L504 0 L432 0 L432 339 Q432 385 409 414 Q386 443 348 443 L282 443 Q235 443 196.5 406.5 Q158 370 148 313 L148 0 L76 0 L76 700 Z M261 943 L316 943 L441 781 L373 781 L289 893 L205 781 L137 781 L261 943 Z " />
<glyph glyph-name="uni1E25" unicode="&#x1e25;" horiz-adv-x="574" d="M76 700 L148 700 L148 430 Q171 465 207 486 Q243 507 280 507 L350 507 Q419 507 461.5 460 Q504 413 504 337 L504 0 L432 0 L432 339 Q432 385 409 414 Q386 443 348 443 L282 443 Q235 443 196.5 406.5 Q158 370 148 313 L148 0 L76 0 L76 700 Z M293 -179 Q269 -179 254 -164 Q239 -149 239 -125 Q239 -101 254 -86 Q269 -71 293 -71 Q317 -71 332 -86 Q347 -101 347 -125 Q347 -149 332 -164 Q317 -179 293 -179 Z " />
<glyph glyph-name="i" unicode="i" horiz-adv-x="260" d="M130 574 Q106 574 91 589 Q76 604 76 628 Q76 652 91 667 Q106 682 130 682 Q154 682 169 667 Q184 652 184 628 Q184 604 169 589 Q154 574 130 574 Z M94 499 L166 499 L166 0 L94 0 L94 499 Z " />
<glyph glyph-name="dotlessi" unicode="&#x131;" horiz-adv-x="236" d="M82 499 L154 499 L154 0 L82 0 L82 499 Z " />
<glyph glyph-name="iacute" unicode="&#xed;" horiz-adv-x="236" d="M82 499 L154 499 L154 0 L82 0 L82 499 Z M164 761 L246 761 L147 609 L81 609 L164 761 Z " />
<glyph glyph-name="ibreve" unicode="&#x12d;" horiz-adv-x="236" d="M82 499 L154 499 L154 0 L82 0 L82 499 Z M112 572 Q50 572 11.5 608 Q-27 644 -27 703 L-27 711 L31 711 L31 703 Q31 666 53 644 Q75 622 112 622 L124 622 Q161 622 183.5 644 Q206 666 206 703 L206 711 L263 711 L263 703 Q263 644 224.5 608 Q186 572 124 572 L112 572 Z " />
<glyph glyph-name="uni01D0" unicode="&#x1d0;" horiz-adv-x="236" d="M82 499 L154 499 L154 0 L82 0 L82 499 Z M-34 742 L34 742 L118 630 L202 742 L270 742 L145 580 L90 580 L-34 742 Z " />
<glyph glyph-name="icircumflex" unicode="&#xee;" horiz-adv-x="236" d="M82 499 L154 499 L154 0 L82 0 L82 499 Z M90 742 L145 742 L270 580 L202 580 L118 692 L34 580 L-34 580 L90 742 Z " />
<glyph glyph-name="idieresis" unicode="&#xef;" horiz-adv-x="236" d="M82 499 L154 499 L154 0 L82 0 L82 499 Z M18 580 Q-4 580 -17.5 593.5 Q-31 607 -31 629 Q-31 651 -17.5 664.5 Q-4 678 18 678 Q40 678 53.5 664.5 Q67 651 67 629 Q67 607 53.5 593.5 Q40 580 18 580 Z M217 580 Q195 580 181.5 593.5 Q168 607 168 629 Q168 651 181.5 664.5 Q195 678 217 678 Q239 678 252.5 664.5 Q266 651 266 629 Q266 607 252.5 593.5 Q239 580 217 580 Z " />
<glyph glyph-name="uni1ECB" unicode="&#x1ecb;" horiz-adv-x="260" d="M130 574 Q106 574 91 589 Q76 604 76 628 Q76 652 91 667 Q106 682 130 682 Q154 682 169 667 Q184 652 184 628 Q184 604 169 589 Q154 574 130 574 Z M94 499 L166 499 L166 0 L94 0 L94 499 Z M130 -179 Q106 -179 91 -164 Q76 -149 76 -125 Q76 -101 91 -86 Q106 -71 130 -71 Q154 -71 169 -86 Q184 -101 184 -125 Q184 -149 169 -164 Q154 -179 130 -179 Z " />
<glyph glyph-name="igrave" unicode="&#xec;" horiz-adv-x="236" d="M82 499 L154 499 L154 0 L82 0 L82 499 Z M-5 761 L77 761 L160 609 L94 609 L-5 761 Z " />
<glyph glyph-name="uni1EC9" unicode="&#x1ec9;" horiz-adv-x="236" d="M82 499 L154 499 L154 0 L82 0 L82 499 Z M87 582 Q87 603 99.5 617 Q112 631 135 646 Q152 658 160.5 666 Q169 674 169 685 L169 696 Q169 729 133 729 L113 729 Q71 729 71 687 L13 687 Q13 781 113 781 L133 781 Q180 781 204.5 759.5 Q229 738 229 696 L229 685 Q229 662 216 647 Q203 632 179 615 Q164 605 156.5 597.5 Q149 590 149 582 L149 566 L87 566 L87 582 Z " />
<glyph glyph-name="ij" unicode="&#x133;" horiz-adv-x="502" d="M130 574 Q106 574 91 589 Q76 604 76 628 Q76 652 91 667 Q106 682 130 682 Q154 682 169 667 Q184 652 184 628 Q184 604 169 589 Q154 574 130 574 Z M94 499 L166 499 L166 0 L94 0 L94 499 Z M372 574 Q348 574 333 589 Q318 604 318 628 Q318 652 333 667 Q348 682 372 682 Q396 682 411 667 Q426 652 426 628 Q426 604 411 589 Q396 574 372 574 Z M204 -135 L239 -135 Q291 -135 313.5 -107 Q336 -79 336 -15 L336 499 L408 499 L408 -10 Q408 -111 369 -155 Q330 -199 239 -199 L204 -199 L204 -135 Z " />
<glyph glyph-name="imacron" unicode="&#x12b;" horiz-adv-x="236" d="M82 499 L154 499 L154 0 L82 0 L82 499 Z M-9 642 L246 642 L246 590 L-9 590 L-9 642 Z " />
<glyph glyph-name="iogonek" unicode="&#x12f;" horiz-adv-x="260" d="M130 574 Q106 574 91 589 Q76 604 76 628 Q76 652 91 667 Q106 682 130 682 Q154 682 169 667 Q184 652 184 628 Q184 604 169 589 Q154 574 130 574 Z M94 499 L166 499 L166 0 L94 0 L94 499 Z M142 -209 Q94 -209 65.5 -183 Q37 -157 37 -113 L37 -103 Q37 -72 53.5 -43.5 Q70 -15 98 0 L166 0 Q135 -16 117 -42.5 Q99 -69 99 -99 L99 -109 Q99 -129 111.5 -142 Q124 -155 147 -155 L157 -155 Q170 -155 185.5 -149.5 Q201 -144 213 -135 L213 -191 Q203 -199 185.5 -204 Q168 -209 152 -209 L142 -209 Z " />
<glyph glyph-name="itilde" unicode="&#x129;" horiz-adv-x="236" d="M82 499 L154 499 L154 0 L82 0 L82 499 Z M178 572 Q155 572 138.5 582.5 Q122 593 104 612 Q88 627 80 633 Q72 639 61 639 L51 639 Q36 639 25 625 Q14 611 13 588 L-43 588 Q-42 633 -15.5 661 Q11 689 51 689 L61 689 Q86 689 103.5 678 Q121 667 141 647 Q153 634 161 628 Q169 622 178 622 L188 622 Q202 622 212.5 636 Q223 650 224 673 L280 673 Q279 628 253 600 Q227 572 188 572 L178 572 Z " />
<glyph glyph-name="j" unicode="j" horiz-adv-x="266" d="M136 574 Q112 574 97 589 Q82 604 82 628 Q82 652 97 667 Q112 682 136 682 Q160 682 175 667 Q190 652 190 628 Q190 604 175 589 Q160 574 136 574 Z M-32 -135 L3 -135 Q55 -135 77.5 -107 Q100 -79 100 -15 L100 499 L172 499 L172 -10 Q172 -111 133 -155 Q94 -199 3 -199 L-32 -199 L-32 -135 Z " />
<glyph glyph-name="uni0237" unicode="&#x237;" horiz-adv-x="254" d="M-32 -135 L3 -135 Q55 -135 77.5 -107 Q100 -79 100 -15 L100 499 L172 499 L172 -10 Q172 -111 133 -155 Q94 -199 3 -199 L-32 -199 L-32 -135 Z " />
<glyph glyph-name="jcircumflex" unicode="&#x135;" horiz-adv-x="254" d="M-32 -135 L3 -135 Q55 -135 77.5 -107 Q100 -79 100 -15 L100 499 L172 499 L172 -10 Q172 -111 133 -155 Q94 -199 3 -199 L-32 -199 L-32 -135 Z M108 742 L163 742 L288 580 L220 580 L136 692 L52 580 L-16 580 L108 742 Z " />
<glyph glyph-name="k" unicode="k" horiz-adv-x="511" d="M413 0 L217 236 L148 167 L148 0 L76 0 L76 700 L148 700 L148 255 L395 499 L483 499 L267 285 L499 0 L413 0 Z " />
<glyph glyph-name="uni0137" unicode="&#x137;" horiz-adv-x="511" d="M413 0 L217 236 L148 167 L148 0 L76 0 L76 700 L148 700 L148 255 L395 499 L483 499 L267 285 L499 0 L413 0 Z M164 -224 L179 -214 Q209 -194 223.5 -167.5 Q238 -141 238 -106 L238 -75 L310 -75 L310 -106 Q310 -162 289 -201 Q268 -240 224 -268 L205 -280 L164 -224 Z " />
<glyph glyph-name="kgreenlandic" unicode="&#x138;" horiz-adv-x="523" d="M425 0 L226 229 L148 151 L148 0 L76 0 L76 499 L148 499 L148 239 L405 499 L493 499 L273 277 L511 0 L425 0 Z " />
<glyph glyph-name="l" unicode="l" horiz-adv-x="268" d="M214 0 Q140 0 108 31.5 Q76 63 76 136 L76 700 L148 700 L148 136 Q148 98 163.5 81 Q179 64 214 64 L248 64 L248 0 L214 0 Z " />
<glyph glyph-name="lacute" unicode="&#x13a;" horiz-adv-x="268" d="M214 0 Q140 0 108 31.5 Q76 63 76 136 L76 700 L148 700 L148 136 Q148 98 163.5 81 Q179 64 214 64 L248 64 L248 0 L214 0 Z M164 933 L246 933 L147 781 L81 781 L164 933 Z " />
<glyph glyph-name="lcaron" unicode="&#x13e;" horiz-adv-x="398" d="M214 0 Q140 0 108 31.5 Q76 63 76 136 L76 700 L148 700 L148 136 Q148 98 163.5 81 Q179 64 214 64 L248 64 L248 0 L214 0 Z M236 551 L251 561 Q281 581 295.5 607.5 Q310 634 310 669 L310 700 L382 700 L382 669 Q382 613 361 574 Q340 535 296 507 L277 495 L236 551 Z " />
<glyph glyph-name="uni013C" unicode="&#x13c;" horiz-adv-x="268" d="M214 0 Q140 0 108 31.5 Q76 63 76 136 L76 700 L148 700 L148 136 Q148 98 163.5 81 Q179 64 214 64 L248 64 L248 0 L214 0 Z M52 -224 L67 -214 Q97 -194 111.5 -167.5 Q126 -141 126 -106 L126 -75 L198 -75 L198 -106 Q198 -162 177 -201 Q156 -240 112 -268 L93 -280 L52 -224 Z " />
<glyph glyph-name="ldot" unicode="&#x140;" horiz-adv-x="384" d="M214 0 Q140 0 108 31.5 Q76 63 76 136 L76 700 L148 700 L148 136 Q148 98 163.5 81 Q179 64 214 64 L248 64 L248 0 L214 0 Z M318 203 Q294 203 279 218 Q264 233 264 257 Q264 281 279 296 Q294 311 318 311 Q342 311 357 296 Q372 281 372 257 Q372 233 357 218 Q342 203 318 203 Z " />
<glyph glyph-name="uni1E37" unicode="&#x1e37;" horiz-adv-x="268" d="M214 0 Q140 0 108 31.5 Q76 63 76 136 L76 700 L148 700 L148 136 Q148 98 163.5 81 Q179 64 214 64 L248 64 L248 0 L214 0 Z M162 -179 Q138 -179 123 -164 Q108 -149 108 -125 Q108 -101 123 -86 Q138 -71 162 -71 Q186 -71 201 -86 Q216 -101 216 -125 Q216 -149 201 -164 Q186 -179 162 -179 Z " />
<glyph glyph-name="uni1E39" unicode="&#x1e39;" horiz-adv-x="268" d="M214 0 Q140 0 108 31.5 Q76 63 76 136 L76 700 L148 700 L148 136 Q148 98 163.5 81 Q179 64 214 64 L248 64 L248 0 L214 0 Z M162 -179 Q138 -179 123 -164 Q108 -149 108 -125 Q108 -101 123 -86 Q138 -71 162 -71 Q186 -71 201 -86 Q216 -101 216 -125 Q216 -149 201 -164 Q186 -179 162 -179 Z M-15 843 L240 843 L240 791 L-15 791 L-15 843 Z " />
<glyph glyph-name="uni1E3B" unicode="&#x1e3b;" horiz-adv-x="268" d="M214 0 Q140 0 108 31.5 Q76 63 76 136 L76 700 L148 700 L148 136 Q148 98 163.5 81 Q179 64 214 64 L248 64 L248 0 L214 0 Z M35 -74 L290 -74 L290 -126 L35 -126 L35 -74 Z " />
<glyph glyph-name="lslash" unicode="&#x142;" horiz-adv-x="301" d="M281 64 L281 0 L247 0 Q173 0 141 31.5 Q109 63 109 136 L109 279 L22 228 L22 297 L109 348 L109 700 L181 700 L181 390 L266 439 L266 370 L181 321 L181 136 Q181 98 196.5 81 Q212 64 247 64 L281 64 Z " />
<glyph glyph-name="m" unicode="m" horiz-adv-x="836" d="M623 507 Q689 507 727.5 464.5 Q766 422 766 347 L766 0 L694 0 L694 349 Q694 393 674 418 Q654 443 621 443 L564 443 Q521 443 493 414 Q465 385 457 332 L457 0 L385 0 L385 343 Q385 390 366.5 416.5 Q348 443 316 443 L259 443 Q218 443 187 407 Q156 371 148 313 L148 0 L76 0 L76 499 L146 499 L146 427 Q166 465 196 486 Q226 507 259 507 L318 507 Q360 507 390.5 486.5 Q421 466 437 427 Q460 467 492 487 Q524 507 562 507 L623 507 Z " />
<glyph glyph-name="uni1E43" unicode="&#x1e43;" horiz-adv-x="836" d="M623 507 Q689 507 727.5 464.5 Q766 422 766 347 L766 0 L694 0 L694 349 Q694 393 674 418 Q654 443 621 443 L564 443 Q521 443 493 414 Q465 385 457 332 L457 0 L385 0 L385 343 Q385 390 366.5 416.5 Q348 443 316 443 L259 443 Q218 443 187 407 Q156 371 148 313 L148 0 L76 0 L76 499 L146 499 L146 427 Q166 465 196 486 Q226 507 259 507 L318 507 Q360 507 390.5 486.5 Q421 466 437 427 Q460 467 492 487 Q524 507 562 507 L623 507 Z M421 -179 Q397 -179 382 -164 Q367 -149 367 -125 Q367 -101 382 -86 Q397 -71 421 -71 Q445 -71 460 -86 Q475 -101 475 -125 Q475 -149 460 -164 Q445 -179 421 -179 Z " />
<glyph glyph-name="n" unicode="n" horiz-adv-x="572" d="M76 499 L146 499 L146 425 Q169 461 206 484 Q243 507 280 507 L348 507 Q417 507 459.5 460 Q502 413 502 337 L502 0 L430 0 L430 339 Q430 385 407 414 Q384 443 346 443 L282 443 Q235 443 196.5 406 Q158 369 148 311 L148 0 L76 0 L76 499 Z " />
<glyph glyph-name="nacute" unicode="&#x144;" horiz-adv-x="572" d="M76 499 L146 499 L146 425 Q169 461 206 484 Q243 507 280 507 L348 507 Q417 507 459.5 460 Q502 413 502 337 L502 0 L430 0 L430 339 Q430 385 407 414 Q384 443 346 443 L282 443 Q235 443 196.5 406 Q158 369 148 311 L148 0 L76 0 L76 499 Z M346 732 L428 732 L329 580 L263 580 L346 732 Z " />
<glyph glyph-name="napostrophe" unicode="&#x149;" horiz-adv-x="691" d="M195 499 L265 499 L265 425 Q288 461 325 484 Q362 507 399 507 L467 507 Q536 507 578.5 460 Q621 413 621 337 L621 0 L549 0 L549 339 Q549 385 526 414 Q503 443 465 443 L401 443 Q354 443 315.5 406 Q277 369 267 311 L267 0 L195 0 L195 499 Z M16 551 L31 561 Q61 581 75.5 607.5 Q90 634 90 669 L90 700 L162 700 L162 669 Q162 613 141 574 Q120 535 76 507 L57 495 L16 551 Z " />
<glyph glyph-name="ncaron" unicode="&#x148;" horiz-adv-x="572" d="M76 499 L146 499 L146 425 Q169 461 206 484 Q243 507 280 507 L348 507 Q417 507 459.5 460 Q502 413 502 337 L502 0 L430 0 L430 339 Q430 385 407 414 Q384 443 346 443 L282 443 Q235 443 196.5 406 Q158 369 148 311 L148 0 L76 0 L76 499 Z M142 742 L210 742 L294 630 L378 742 L446 742 L321 580 L266 580 L142 742 Z " />
<glyph glyph-name="uni0146" unicode="&#x146;" horiz-adv-x="572" d="M76 499 L146 499 L146 425 Q169 461 206 484 Q243 507 280 507 L348 507 Q417 507 459.5 460 Q502 413 502 337 L502 0 L430 0 L430 339 Q430 385 407 414 Q384 443 346 443 L282 443 Q235 443 196.5 406 Q158 369 148 311 L148 0 L76 0 L76 499 Z M176 -224 L191 -214 Q221 -194 235.5 -167.5 Q250 -141 250 -106 L250 -75 L322 -75 L322 -106 Q322 -162 301 -201 Q280 -240 236 -268 L217 -280 L176 -224 Z " />
<glyph glyph-name="uni1E45" unicode="&#x1e45;" horiz-adv-x="572" d="M76 499 L146 499 L146 425 Q169 461 206 484 Q243 507 280 507 L348 507 Q417 507 459.5 460 Q502 413 502 337 L502 0 L430 0 L430 339 Q430 385 407 414 Q384 443 346 443 L282 443 Q235 443 196.5 406 Q158 369 148 311 L148 0 L76 0 L76 499 Z M294 580 Q270 580 255 595 Q240 610 240 634 Q240 658 255 673 Q270 688 294 688 Q318 688 333 673 Q348 658 348 634 Q348 610 333 595 Q318 580 294 580 Z " />
<glyph glyph-name="uni1E47" unicode="&#x1e47;" horiz-adv-x="572" d="M76 499 L146 499 L146 425 Q169 461 206 484 Q243 507 280 507 L348 507 Q417 507 459.5 460 Q502 413 502 337 L502 0 L430 0 L430 339 Q430 385 407 414 Q384 443 346 443 L282 443 Q235 443 196.5 406 Q158 369 148 311 L148 0 L76 0 L76 499 Z M286 -179 Q262 -179 247 -164 Q232 -149 232 -125 Q232 -101 247 -86 Q262 -71 286 -71 Q310 -71 325 -86 Q340 -101 340 -125 Q340 -149 325 -164 Q310 -179 286 -179 Z " />
<glyph glyph-name="eng" unicode="&#x14b;" horiz-adv-x="572" d="M298 -135 L333 -135 Q385 -135 407.5 -107 Q430 -79 430 -15 L430 339 Q430 385 407 414 Q384 443 346 443 L282 443 Q235 443 196.5 406 Q158 369 148 311 L148 0 L76 0 L76 499 L146 499 L146 425 Q169 461 206 484 Q243 507 280 507 L348 507 Q417 507 459.5 460 Q502 413 502 337 L502 -10 Q502 -111 463 -155 Q424 -199 333 -199 L298 -199 L298 -135 Z " />
<glyph glyph-name="uni1E49" unicode="&#x1e49;" horiz-adv-x="572" d="M76 499 L146 499 L146 425 Q169 461 206 484 Q243 507 280 507 L348 507 Q417 507 459.5 460 Q502 413 502 337 L502 0 L430 0 L430 339 Q430 385 407 414 Q384 443 346 443 L282 443 Q235 443 196.5 406 Q158 369 148 311 L148 0 L76 0 L76 499 Z M159 -74 L414 -74 L414 -126 L159 -126 L159 -74 Z " />
<glyph glyph-name="ntilde" unicode="&#xf1;" horiz-adv-x="572" d="M76 499 L146 499 L146 425 Q169 461 206 484 Q243 507 280 507 L348 507 Q417 507 459.5 460 Q502 413 502 337 L502 0 L430 0 L430 339 Q430 385 407 414 Q384 443 346 443 L282 443 Q235 443 196.5 406 Q158 369 148 311 L148 0 L76 0 L76 499 Z M354 572 Q331 572 314.5 582.5 Q298 593 280 612 Q264 627 256 633 Q248 639 237 639 L227 639 Q212 639 201 625 Q190 611 189 588 L133 588 Q134 633 160.5 661 Q187 689 227 689 L237 689 Q262 689 279.5 678 Q297 667 317 647 Q329 634 337 628 Q345 622 354 622 L364 622 Q378 622 388.5 636 Q399 650 400 673 L456 673 Q455 628 429 600 Q403 572 364 572 L354 572 Z " />
<glyph glyph-name="o" unicode="o" horiz-adv-x="570" d="M242 -8 Q158 -8 107 44 Q56 96 56 181 L56 318 Q56 403 107.5 455 Q159 507 244 507 L326 507 Q411 507 462.5 455 Q514 403 514 318 L514 181 Q514 96 462 44 Q410 -8 324 -8 L242 -8 Z M324 56 Q378 56 410 90.5 Q442 125 442 181 L442 318 Q442 374 410 408.5 Q378 443 326 443 L244 443 Q192 443 160 408.5 Q128 374 128 318 L128 181 Q128 124 159 90 Q190 56 242 56 L324 56 Z " />
<glyph glyph-name="oacute" unicode="&#xf3;" horiz-adv-x="570" d="M242 -8 Q158 -8 107 44 Q56 96 56 181 L56 318 Q56 403 107.5 455 Q159 507 244 507 L326 507 Q411 507 462.5 455 Q514 403 514 318 L514 181 Q514 96 462 44 Q410 -8 324 -8 L242 -8 Z M324 56 Q378 56 410 90.5 Q442 125 442 181 L442 318 Q442 374 410 408.5 Q378 443 326 443 L244 443 Q192 443 160 408.5 Q128 374 128 318 L128 181 Q128 124 159 90 Q190 56 242 56 L324 56 Z M337 732 L419 732 L320 580 L254 580 L337 732 Z " />
<glyph glyph-name="obreve" unicode="&#x14f;" horiz-adv-x="570" d="M242 -8 Q158 -8 107 44 Q56 96 56 181 L56 318 Q56 403 107.5 455 Q159 507 244 507 L326 507 Q411 507 462.5 455 Q514 403 514 318 L514 181 Q514 96 462 44 Q410 -8 324 -8 L242 -8 Z M324 56 Q378 56 410 90.5 Q442 125 442 181 L442 318 Q442 374 410 408.5 Q378 443 326 443 L244 443 Q192 443 160 408.5 Q128 374 128 318 L128 181 Q128 124 159 90 Q190 56 242 56 L324 56 Z M279 572 Q217 572 178.5 608 Q140 644 140 703 L140 711 L198 711 L198 703 Q198 666 220 644 Q242 622 279 622 L291 622 Q328 622 350.5 644 Q373 666 373 703 L373 711 L430 711 L430 703 Q430 644 391.5 608 Q353 572 291 572 L279 572 Z " />
<glyph glyph-name="uni01D2" unicode="&#x1d2;" horiz-adv-x="570" d="M242 -8 Q158 -8 107 44 Q56 96 56 181 L56 318 Q56 403 107.5 455 Q159 507 244 507 L326 507 Q411 507 462.5 455 Q514 403 514 318 L514 181 Q514 96 462 44 Q410 -8 324 -8 L242 -8 Z M324 56 Q378 56 410 90.5 Q442 125 442 181 L442 318 Q442 374 410 408.5 Q378 443 326 443 L244 443 Q192 443 160 408.5 Q128 374 128 318 L128 181 Q128 124 159 90 Q190 56 242 56 L324 56 Z M133 742 L201 742 L285 630 L369 742 L437 742 L312 580 L257 580 L133 742 Z " />
<glyph glyph-name="ocircumflex" unicode="&#xf4;" horiz-adv-x="570" d="M242 -8 Q158 -8 107 44 Q56 96 56 181 L56 318 Q56 403 107.5 455 Q159 507 244 507 L326 507 Q411 507 462.5 455 Q514 403 514 318 L514 181 Q514 96 462 44 Q410 -8 324 -8 L242 -8 Z M324 56 Q378 56 410 90.5 Q442 125 442 181 L442 318 Q442 374 410 408.5 Q378 443 326 443 L244 443 Q192 443 160 408.5 Q128 374 128 318 L128 181 Q128 124 159 90 Q190 56 242 56 L324 56 Z M257 742 L312 742 L437 580 L369 580 L285 692 L201 580 L133 580 L257 742 Z " />
<glyph glyph-name="uni1ED1" unicode="&#x1ed1;" horiz-adv-x="570" d="M242 -8 Q158 -8 107 44 Q56 96 56 181 L56 318 Q56 403 107.5 455 Q159 507 244 507 L326 507 Q411 507 462.5 455 Q514 403 514 318 L514 181 Q514 96 462 44 Q410 -8 324 -8 L242 -8 Z M324 56 Q378 56 410 90.5 Q442 125 442 181 L442 318 Q442 374 410 408.5 Q378 443 326 443 L244 443 Q192 443 160 408.5 Q128 374 128 318 L128 181 Q128 124 159 90 Q190 56 242 56 L324 56 Z M457 848 L527 848 L451 732 L393 732 L457 848 Z M257 742 L312 742 L437 580 L369 580 L285 692 L201 580 L133 580 L257 742 Z " />
<glyph glyph-name="uni1ED9" unicode="&#x1ed9;" horiz-adv-x="570" d="M242 -8 Q158 -8 107 44 Q56 96 56 181 L56 318 Q56 403 107.5 455 Q159 507 244 507 L326 507 Q411 507 462.5 455 Q514 403 514 318 L514 181 Q514 96 462 44 Q410 -8 324 -8 L242 -8 Z M324 56 Q378 56 410 90.5 Q442 125 442 181 L442 318 Q442 374 410 408.5 Q378 443 326 443 L244 443 Q192 443 160 408.5 Q128 374 128 318 L128 181 Q128 124 159 90 Q190 56 242 56 L324 56 Z M285 -179 Q261 -179 246 -164 Q231 -149 231 -125 Q231 -101 246 -86 Q261 -71 285 -71 Q309 -71 324 -86 Q339 -101 339 -125 Q339 -149 324 -164 Q309 -179 285 -179 Z M257 742 L312 742 L437 580 L369 580 L285 692 L201 580 L133 580 L257 742 Z " />
<glyph glyph-name="uni1ED3" unicode="&#x1ed3;" horiz-adv-x="570" d="M242 -8 Q158 -8 107 44 Q56 96 56 181 L56 318 Q56 403 107.5 455 Q159 507 244 507 L326 507 Q411 507 462.5 455 Q514 403 514 318 L514 181 Q514 96 462 44 Q410 -8 324 -8 L242 -8 Z M324 56 Q378 56 410 90.5 Q442 125 442 181 L442 318 Q442 374 410 408.5 Q378 443 326 443 L244 443 Q192 443 160 408.5 Q128 374 128 318 L128 181 Q128 124 159 90 Q190 56 242 56 L324 56 Z M343 848 L413 848 L477 732 L419 732 L343 848 Z M257 742 L312 742 L437 580 L369 580 L285 692 L201 580 L133 580 L257 742 Z " />
<glyph glyph-name="uni1ED5" unicode="&#x1ed5;" horiz-adv-x="570" d="M242 -8 Q158 -8 107 44 Q56 96 56 181 L56 318 Q56 403 107.5 455 Q159 507 244 507 L326 507 Q411 507 462.5 455 Q514 403 514 318 L514 181 Q514 96 462 44 Q410 -8 324 -8 L242 -8 Z M324 56 Q378 56 410 90.5 Q442 125 442 181 L442 318 Q442 374 410 408.5 Q378 443 326 443 L244 443 Q192 443 160 408.5 Q128 374 128 318 L128 181 Q128 124 159 90 Q190 56 242 56 L324 56 Z M396 730 Q396 747 406.5 758.5 Q417 770 436 782 Q450 792 457 798.5 Q464 805 464 814 L464 823 Q464 836 456 843 Q448 850 434 850 L418 850 Q383 850 383 816 L335 816 Q335 894 418 894 L434 894 Q514 894 514 823 L514 814 Q514 795 502.5 782 Q491 769 472 757 Q460 749 454 743 Q448 737 448 730 L448 722 L396 722 L396 730 Z M257 742 L312 742 L437 580 L369 580 L285 692 L201 580 L133 580 L257 742 Z " />
<glyph glyph-name="uni1ED7" unicode="&#x1ed7;" horiz-adv-x="570" d="M242 -8 Q158 -8 107 44 Q56 96 56 181 L56 318 Q56 403 107.5 455 Q159 507 244 507 L326 507 Q411 507 462.5 455 Q514 403 514 318 L514 181 Q514 96 462 44 Q410 -8 324 -8 L242 -8 Z M324 56 Q378 56 410 90.5 Q442 125 442 181 L442 318 Q442 374 410 408.5 Q378 443 326 443 L244 443 Q192 443 160 408.5 Q128 374 128 318 L128 181 Q128 124 159 90 Q190 56 242 56 L324 56 Z M340 777 Q320 777 306 786 Q292 795 275 812 Q262 825 254 830.5 Q246 836 237 836 L228 836 Q215 836 206 823.5 Q197 811 196 791 L147 791 Q148 831 170.5 855.5 Q193 880 228 880 L237 880 Q260 880 275.5 870 Q291 860 307 843 Q319 831 325.5 826 Q332 821 340 821 L349 821 Q361 821 369.5 833.5 Q378 846 379 866 L428 866 Q427 826 405 801.5 Q383 777 349 777 L340 777 Z M257 742 L312 742 L437 580 L369 580 L285 692 L201 580 L133 580 L257 742 Z " />
<glyph glyph-name="odieresis" unicode="&#xf6;" horiz-adv-x="570" d="M242 -8 Q158 -8 107 44 Q56 96 56 181 L56 318 Q56 403 107.5 455 Q159 507 244 507 L326 507 Q411 507 462.5 455 Q514 403 514 318 L514 181 Q514 96 462 44 Q410 -8 324 -8 L242 -8 Z M324 56 Q378 56 410 90.5 Q442 125 442 181 L442 318 Q442 374 410 408.5 Q378 443 326 443 L244 443 Q192 443 160 408.5 Q128 374 128 318 L128 181 Q128 124 159 90 Q190 56 242 56 L324 56 Z M185 580 Q163 580 149.5 593.5 Q136 607 136 629 Q136 651 149.5 664.5 Q163 678 185 678 Q207 678 220.5 664.5 Q234 651 234 629 Q234 607 220.5 593.5 Q207 580 185 580 Z M384 580 Q362 580 348.5 593.5 Q335 607 335 629 Q335 651 348.5 664.5 Q362 678 384 678 Q406 678 419.5 664.5 Q433 651 433 629 Q433 607 419.5 593.5 Q406 580 384 580 Z " />
<glyph glyph-name="uni1ECD" unicode="&#x1ecd;" horiz-adv-x="570" d="M242 -8 Q158 -8 107 44 Q56 96 56 181 L56 318 Q56 403 107.5 455 Q159 507 244 507 L326 507 Q411 507 462.5 455 Q514 403 514 318 L514 181 Q514 96 462 44 Q410 -8 324 -8 L242 -8 Z M324 56 Q378 56 410 90.5 Q442 125 442 181 L442 318 Q442 374 410 408.5 Q378 443 326 443 L244 443 Q192 443 160 408.5 Q128 374 128 318 L128 181 Q128 124 159 90 Q190 56 242 56 L324 56 Z M285 -179 Q261 -179 246 -164 Q231 -149 231 -125 Q231 -101 246 -86 Q261 -71 285 -71 Q309 -71 324 -86 Q339 -101 339 -125 Q339 -149 324 -164 Q309 -179 285 -179 Z " />
<glyph glyph-name="ograve" unicode="&#xf2;" horiz-adv-x="570" d="M242 -8 Q158 -8 107 44 Q56 96 56 181 L56 318 Q56 403 107.5 455 Q159 507 244 507 L326 507 Q411 507 462.5 455 Q514 403 514 318 L514 181 Q514 96 462 44 Q410 -8 324 -8 L242 -8 Z M324 56 Q378 56 410 90.5 Q442 125 442 181 L442 318 Q442 374 410 408.5 Q378 443 326 443 L244 443 Q192 443 160 408.5 Q128 374 128 318 L128 181 Q128 124 159 90 Q190 56 242 56 L324 56 Z M154 732 L236 732 L319 580 L253 580 L154 732 Z " />
<glyph glyph-name="uni1ECF" unicode="&#x1ecf;" horiz-adv-x="570" d="M242 -8 Q158 -8 107 44 Q56 96 56 181 L56 318 Q56 403 107.5 455 Q159 507 244 507 L326 507 Q411 507 462.5 455 Q514 403 514 318 L514 181 Q514 96 462 44 Q410 -8 324 -8 L242 -8 Z M324 56 Q378 56 410 90.5 Q442 125 442 181 L442 318 Q442 374 410 408.5 Q378 443 326 443 L244 443 Q192 443 160 408.5 Q128 374 128 318 L128 181 Q128 124 159 90 Q190 56 242 56 L324 56 Z M250 582 Q250 603 262.5 617 Q275 631 298 646 Q315 658 323.5 666 Q332 674 332 685 L332 696 Q332 729 296 729 L276 729 Q234 729 234 687 L176 687 Q176 781 276 781 L296 781 Q343 781 367.5 759.5 Q392 738 392 696 L392 685 Q392 662 379 647 Q366 632 342 615 Q327 605 319.5 597.5 Q312 590 312 582 L312 566 L250 566 L250 582 Z " />
<glyph glyph-name="ohorn" unicode="&#x1a1;" horiz-adv-x="634" d="M645 497 L645 485 Q645 409 610.5 364 Q576 319 514 313 L514 181 Q514 96 462 44 Q410 -8 324 -8 L242 -8 Q158 -8 107 44 Q56 96 56 181 L56 318 Q56 403 107.5 455 Q159 507 244 507 L326 507 Q396 507 444 471 Q492 435 508 373 Q542 377 559.5 405.5 Q577 434 577 485 L577 497 L645 497 Z M442 318 Q442 374 410 408.5 Q378 443 326 443 L244 443 Q192 443 160 408.5 Q128 374 128 318 L128 181 Q128 124 159 90 Q190 56 242 56 L324 56 Q378 56 410 90.5 Q442 125 442 181 L442 318 Z " />
<glyph glyph-name="uni1EDB" unicode="&#x1edb;" horiz-adv-x="634" d="M645 497 L645 485 Q645 409 610.5 364 Q576 319 514 313 L514 181 Q514 96 462 44 Q410 -8 324 -8 L242 -8 Q158 -8 107 44 Q56 96 56 181 L56 318 Q56 403 107.5 455 Q159 507 244 507 L326 507 Q396 507 444 471 Q492 435 508 373 Q542 377 559.5 405.5 Q577 434 577 485 L577 497 L645 497 Z M442 318 Q442 374 410 408.5 Q378 443 326 443 L244 443 Q192 443 160 408.5 Q128 374 128 318 L128 181 Q128 124 159 90 Q190 56 242 56 L324 56 Q378 56 410 90.5 Q442 125 442 181 L442 318 Z M337 732 L419 732 L320 580 L254 580 L337 732 Z " />
<glyph glyph-name="uni1EE3" unicode="&#x1ee3;" horiz-adv-x="634" d="M645 497 L645 485 Q645 409 610.5 364 Q576 319 514 313 L514 181 Q514 96 462 44 Q410 -8 324 -8 L242 -8 Q158 -8 107 44 Q56 96 56 181 L56 318 Q56 403 107.5 455 Q159 507 244 507 L326 507 Q396 507 444 471 Q492 435 508 373 Q542 377 559.5 405.5 Q577 434 577 485 L577 497 L645 497 Z M442 318 Q442 374 410 408.5 Q378 443 326 443 L244 443 Q192 443 160 408.5 Q128 374 128 318 L128 181 Q128 124 159 90 Q190 56 242 56 L324 56 Q378 56 410 90.5 Q442 125 442 181 L442 318 Z M285 -179 Q261 -179 246 -164 Q231 -149 231 -125 Q231 -101 246 -86 Q261 -71 285 -71 Q309 -71 324 -86 Q339 -101 339 -125 Q339 -149 324 -164 Q309 -179 285 -179 Z " />
<glyph glyph-name="uni1EDD" unicode="&#x1edd;" horiz-adv-x="634" d="M645 497 L645 485 Q645 409 610.5 364 Q576 319 514 313 L514 181 Q514 96 462 44 Q410 -8 324 -8 L242 -8 Q158 -8 107 44 Q56 96 56 181 L56 318 Q56 403 107.5 455 Q159 507 244 507 L326 507 Q396 507 444 471 Q492 435 508 373 Q542 377 559.5 405.5 Q577 434 577 485 L577 497 L645 497 Z M442 318 Q442 374 410 408.5 Q378 443 326 443 L244 443 Q192 443 160 408.5 Q128 374 128 318 L128 181 Q128 124 159 90 Q190 56 242 56 L324 56 Q378 56 410 90.5 Q442 125 442 181 L442 318 Z M154 732 L236 732 L319 580 L253 580 L154 732 Z " />
<glyph glyph-name="uni1EDF" unicode="&#x1edf;" horiz-adv-x="634" d="M645 497 L645 485 Q645 409 610.5 364 Q576 319 514 313 L514 181 Q514 96 462 44 Q410 -8 324 -8 L242 -8 Q158 -8 107 44 Q56 96 56 181 L56 318 Q56 403 107.5 455 Q159 507 244 507 L326 507 Q396 507 444 471 Q492 435 508 373 Q542 377 559.5 405.5 Q577 434 577 485 L577 497 L645 497 Z M442 318 Q442 374 410 408.5 Q378 443 326 443 L244 443 Q192 443 160 408.5 Q128 374 128 318 L128 181 Q128 124 159 90 Q190 56 242 56 L324 56 Q378 56 410 90.5 Q442 125 442 181 L442 318 Z M250 582 Q250 603 262.5 617 Q275 631 298 646 Q315 658 323.5 666 Q332 674 332 685 L332 696 Q332 729 296 729 L276 729 Q234 729 234 687 L176 687 Q176 781 276 781 L296 781 Q343 781 367.5 759.5 Q392 738 392 696 L392 685 Q392 662 379 647 Q366 632 342 615 Q327 605 319.5 597.5 Q312 590 312 582 L312 566 L250 566 L250 582 Z " />
<glyph glyph-name="uni1EE1" unicode="&#x1ee1;" horiz-adv-x="634" d="M645 497 L645 485 Q645 409 610.5 364 Q576 319 514 313 L514 181 Q514 96 462 44 Q410 -8 324 -8 L242 -8 Q158 -8 107 44 Q56 96 56 181 L56 318 Q56 403 107.5 455 Q159 507 244 507 L326 507 Q396 507 444 471 Q492 435 508 373 Q542 377 559.5 405.5 Q577 434 577 485 L577 497 L645 497 Z M442 318 Q442 374 410 408.5 Q378 443 326 443 L244 443 Q192 443 160 408.5 Q128 374 128 318 L128 181 Q128 124 159 90 Q190 56 242 56 L324 56 Q378 56 410 90.5 Q442 125 442 181 L442 318 Z M345 572 Q322 572 305.5 582.5 Q289 593 271 612 Q255 627 247 633 Q239 639 228 639 L218 639 Q203 639 192 625 Q181 611 180 588 L124 588 Q125 633 151.5 661 Q178 689 218 689 L228 689 Q253 689 270.5 678 Q288 667 308 647 Q320 634 328 628 Q336 622 345 622 L355 622 Q369 622 379.5 636 Q390 650 391 673 L447 673 Q446 628 420 600 Q394 572 355 572 L345 572 Z " />
<glyph glyph-name="ohungarumlaut" unicode="&#x151;" horiz-adv-x="570" d="M242 -8 Q158 -8 107 44 Q56 96 56 181 L56 318 Q56 403 107.5 455 Q159 507 244 507 L326 507 Q411 507 462.5 455 Q514 403 514 318 L514 181 Q514 96 462 44 Q410 -8 324 -8 L242 -8 Z M324 56 Q378 56 410 90.5 Q442 125 442 181 L442 318 Q442 374 410 408.5 Q378 443 326 443 L244 443 Q192 443 160 408.5 Q128 374 128 318 L128 181 Q128 124 159 90 Q190 56 242 56 L324 56 Z M259 732 L337 732 L242 580 L180 580 L259 732 Z M388 732 L466 732 L371 580 L309 580 L388 732 Z " />
<glyph glyph-name="omacron" unicode="&#x14d;" horiz-adv-x="570" d="M242 -8 Q158 -8 107 44 Q56 96 56 181 L56 318 Q56 403 107.5 455 Q159 507 244 507 L326 507 Q411 507 462.5 455 Q514 403 514 318 L514 181 Q514 96 462 44 Q410 -8 324 -8 L242 -8 Z M324 56 Q378 56 410 90.5 Q442 125 442 181 L442 318 Q442 374 410 408.5 Q378 443 326 443 L244 443 Q192 443 160 408.5 Q128 374 128 318 L128 181 Q128 124 159 90 Q190 56 242 56 L324 56 Z M158 642 L413 642 L413 590 L158 590 L158 642 Z " />
<glyph glyph-name="oslash" unicode="&#xf8;" horiz-adv-x="570" d="M463 454 Q487 429 500.5 394 Q514 359 514 318 L514 181 Q514 96 462 44 Q410 -8 324 -8 L242 -8 Q194 -8 153 11 L121 -35 L51 -35 L106 44 Q82 69 69 104 Q56 139 56 181 L56 318 Q56 403 107.5 455 Q159 507 244 507 L326 507 Q375 507 416 488 L449 535 L519 535 L463 454 Z M128 181 Q128 136 148 104 L377 432 Q353 443 326 443 L244 443 Q192 443 160 408.5 Q128 374 128 318 L128 181 Z M442 318 Q442 364 421 395 L192 66 Q215 56 242 56 L324 56 Q378 56 410 90.5 Q442 125 442 181 L442 318 Z " />
<glyph glyph-name="oslashacute" unicode="&#x1ff;" horiz-adv-x="570" d="M463 454 Q487 429 500.5 394 Q514 359 514 318 L514 181 Q514 96 462 44 Q410 -8 324 -8 L242 -8 Q194 -8 153 11 L121 -35 L51 -35 L106 44 Q82 69 69 104 Q56 139 56 181 L56 318 Q56 403 107.5 455 Q159 507 244 507 L326 507 Q375 507 416 488 L449 535 L519 535 L463 454 Z M128 181 Q128 136 148 104 L377 432 Q353 443 326 443 L244 443 Q192 443 160 408.5 Q128 374 128 318 L128 181 Z M442 318 Q442 364 421 395 L192 66 Q215 56 242 56 L324 56 Q378 56 410 90.5 Q442 125 442 181 L442 318 Z M333 732 L415 732 L316 580 L250 580 L333 732 Z " />
<glyph glyph-name="otilde" unicode="&#xf5;" horiz-adv-x="570" d="M242 -8 Q158 -8 107 44 Q56 96 56 181 L56 318 Q56 403 107.5 455 Q159 507 244 507 L326 507 Q411 507 462.5 455 Q514 403 514 318 L514 181 Q514 96 462 44 Q410 -8 324 -8 L242 -8 Z M324 56 Q378 56 410 90.5 Q442 125 442 181 L442 318 Q442 374 410 408.5 Q378 443 326 443 L244 443 Q192 443 160 408.5 Q128 374 128 318 L128 181 Q128 124 159 90 Q190 56 242 56 L324 56 Z M345 572 Q322 572 305.5 582.5 Q289 593 271 612 Q255 627 247 633 Q239 639 228 639 L218 639 Q203 639 192 625 Q181 611 180 588 L124 588 Q125 633 151.5 661 Q178 689 218 689 L228 689 Q253 689 270.5 678 Q288 667 308 647 Q320 634 328 628 Q336 622 345 622 L355 622 Q369 622 379.5 636 Q390 650 391 673 L447 673 Q446 628 420 600 Q394 572 355 572 L345 572 Z " />
<glyph glyph-name="oe" unicode="&#x153;" horiz-adv-x="930" d="M510 233 L510 173 Q510 120 541 88 Q572 56 624 56 L698 56 Q748 56 778 83.5 Q808 111 808 157 L878 157 Q878 83 828.5 37.5 Q779 -8 698 -8 L624 -8 Q573 -8 533.5 11.5 Q494 31 471 68 Q423 -8 320 -8 L242 -8 Q158 -8 107 44 Q56 96 56 181 L56 318 Q56 403 107 455 Q158 507 242 507 L324 507 Q374 507 411.5 487 Q449 467 473 430 Q497 467 535.5 487 Q574 507 624 507 L704 507 Q783 507 831.5 456 Q880 405 880 321 L880 233 L510 233 Z M438 318 Q438 374 406.5 408.5 Q375 443 324 443 L242 443 Q191 443 159.5 408.5 Q128 374 128 318 L128 181 Q128 125 159.5 90.5 Q191 56 242 56 L320 56 Q373 56 405.5 90.5 Q438 125 438 181 L438 318 Z M510 295 L808 295 L808 321 Q808 376 780 409.5 Q752 443 704 443 L624 443 Q572 443 541 408 Q510 373 510 316 L510 295 Z " />
<glyph glyph-name="p" unicode="p" horiz-adv-x="578" d="M76 499 L146 499 L146 431 Q167 465 201.5 486 Q236 507 271 507 L343 507 Q423 507 472.5 456 Q522 405 522 321 L522 198 Q522 105 471.5 48.5 Q421 -8 338 -8 L266 -8 Q235 -8 201 9.5 Q167 27 148 55 L148 -199 L76 -199 L76 499 Z M336 56 Q388 56 419 95 Q450 134 450 198 L450 321 Q450 376 420 409.5 Q390 443 341 443 L271 443 Q229 443 195 410.5 Q161 378 148 327 L148 177 Q155 124 189 90 Q223 56 270 56 L336 56 Z " />
<glyph glyph-name="thorn" unicode="&#xfe;" horiz-adv-x="578" d="M76 700 L148 700 L148 434 Q169 467 202.5 487 Q236 507 271 507 L343 507 Q423 507 472.5 456 Q522 405 522 321 L522 196 Q522 103 471.5 46.5 Q421 -10 338 -10 L266 -10 Q235 -10 201 7.5 Q167 25 148 53 L148 -203 L76 -203 L76 700 Z M336 54 Q388 54 419 93 Q450 132 450 196 L450 321 Q450 376 420 409.5 Q390 443 341 443 L271 443 Q229 443 195 410.5 Q161 378 148 327 L148 175 Q155 122 189 88 Q223 54 270 54 L336 54 Z " />
<glyph glyph-name="q" unicode="q" horiz-adv-x="578" d="M430 59 Q409 29 373.5 10.5 Q338 -8 304 -8 L231 -8 Q152 -8 104 44.5 Q56 97 56 182 L56 307 Q56 397 107 452 Q158 507 241 507 L313 507 Q346 507 379.5 489.5 Q413 472 432 443 L432 499 L502 499 L502 -203 L430 -203 L430 59 Z M304 56 Q354 56 390 95 Q426 134 430 194 L430 327 Q426 378 392.5 410.5 Q359 443 313 443 L241 443 Q190 443 159 405.5 Q128 368 128 307 L128 182 Q128 125 157 90.5 Q186 56 233 56 L304 56 Z " />
<glyph glyph-name="r" unicode="r" horiz-adv-x="355" d="M76 499 L146 499 L146 422 Q166 457 206.5 479 Q247 501 291 501 L335 501 L335 436 L291 436 Q227 436 187.5 395.5 Q148 355 148 288 L148 0 L76 0 L76 499 Z " />
<glyph glyph-name="racute" unicode="&#x155;" horiz-adv-x="355" d="M76 499 L146 499 L146 422 Q166 457 206.5 479 Q247 501 291 501 L335 501 L335 436 L291 436 Q227 436 187.5 395.5 Q148 355 148 288 L148 0 L76 0 L76 499 Z M252 732 L334 732 L235 580 L169 580 L252 732 Z " />
<glyph glyph-name="rcaron" unicode="&#x159;" horiz-adv-x="355" d="M76 499 L146 499 L146 422 Q166 457 206.5 479 Q247 501 291 501 L335 501 L335 436 L291 436 Q227 436 187.5 395.5 Q148 355 148 288 L148 0 L76 0 L76 499 Z M48 742 L116 742 L200 630 L284 742 L352 742 L227 580 L172 580 L48 742 Z " />
<glyph glyph-name="uni0157" unicode="&#x157;" horiz-adv-x="355" d="M76 499 L146 499 L146 422 Q166 457 206.5 479 Q247 501 291 501 L335 501 L335 436 L291 436 Q227 436 187.5 395.5 Q148 355 148 288 L148 0 L76 0 L76 499 Z M2 -224 L17 -214 Q47 -194 61.5 -167.5 Q76 -141 76 -106 L76 -75 L148 -75 L148 -106 Q148 -162 127 -201 Q106 -240 62 -268 L43 -280 L2 -224 Z " />
<glyph glyph-name="uni1E5B" unicode="&#x1e5b;" horiz-adv-x="355" d="M76 499 L146 499 L146 422 Q166 457 206.5 479 Q247 501 291 501 L335 501 L335 436 L291 436 Q227 436 187.5 395.5 Q148 355 148 288 L148 0 L76 0 L76 499 Z M112 -179 Q88 -179 73 -164 Q58 -149 58 -125 Q58 -101 73 -86 Q88 -71 112 -71 Q136 -71 151 -86 Q166 -101 166 -125 Q166 -149 151 -164 Q136 -179 112 -179 Z " />
<glyph glyph-name="uni1E5D" unicode="&#x1e5d;" horiz-adv-x="355" d="M76 499 L146 499 L146 422 Q166 457 206.5 479 Q247 501 291 501 L335 501 L335 436 L291 436 Q227 436 187.5 395.5 Q148 355 148 288 L148 0 L76 0 L76 499 Z M112 -179 Q88 -179 73 -164 Q58 -149 58 -125 Q58 -101 73 -86 Q88 -71 112 -71 Q136 -71 151 -86 Q166 -101 166 -125 Q166 -149 151 -164 Q136 -179 112 -179 Z M73 642 L328 642 L328 590 L73 590 L73 642 Z " />
<glyph glyph-name="uni1E5F" unicode="&#x1e5f;" horiz-adv-x="355" d="M76 499 L146 499 L146 422 Q166 457 206.5 479 Q247 501 291 501 L335 501 L335 436 L291 436 Q227 436 187.5 395.5 Q148 355 148 288 L148 0 L76 0 L76 499 Z M-15 -74 L240 -74 L240 -126 L-15 -126 L-15 -74 Z " />
<glyph glyph-name="s" unicode="s" horiz-adv-x="520" d="M218 -8 Q142 -8 96 35 Q50 78 50 148 L120 148 Q120 106 147 80 Q174 54 218 54 L305 54 Q348 54 375 71.5 Q402 89 402 117 L402 151 Q402 170 387 184.5 Q372 199 348 204 L175 234 Q123 243 91.5 273.5 Q60 304 60 345 L60 378 Q60 436 104 471.5 Q148 507 220 507 L306 507 Q376 507 419 467.5 Q462 428 462 363 L392 363 Q391 400 367.5 422.5 Q344 445 306 445 L220 445 Q180 445 156 426.5 Q132 408 132 378 L132 349 Q132 330 148.5 315 Q165 300 191 296 L363 266 Q413 257 443.5 227 Q474 197 474 155 L474 115 Q474 60 427.5 26 Q381 -8 305 -8 L218 -8 Z " />
<glyph glyph-name="sacute" unicode="&#x15b;" horiz-adv-x="520" d="M218 -8 Q142 -8 96 35 Q50 78 50 148 L120 148 Q120 106 147 80 Q174 54 218 54 L305 54 Q348 54 375 71.5 Q402 89 402 117 L402 151 Q402 170 387 184.5 Q372 199 348 204 L175 234 Q123 243 91.5 273.5 Q60 304 60 345 L60 378 Q60 436 104 471.5 Q148 507 220 507 L306 507 Q376 507 419 467.5 Q462 428 462 363 L392 363 Q391 400 367.5 422.5 Q344 445 306 445 L220 445 Q180 445 156 426.5 Q132 408 132 378 L132 349 Q132 330 148.5 315 Q165 300 191 296 L363 266 Q413 257 443.5 227 Q474 197 474 155 L474 115 Q474 60 427.5 26 Q381 -8 305 -8 L218 -8 Z M313 732 L395 732 L296 580 L230 580 L313 732 Z " />
<glyph glyph-name="scaron" unicode="&#x161;" horiz-adv-x="520" d="M218 -8 Q142 -8 96 35 Q50 78 50 148 L120 148 Q120 106 147 80 Q174 54 218 54 L305 54 Q348 54 375 71.5 Q402 89 402 117 L402 151 Q402 170 387 184.5 Q372 199 348 204 L175 234 Q123 243 91.5 273.5 Q60 304 60 345 L60 378 Q60 436 104 471.5 Q148 507 220 507 L306 507 Q376 507 419 467.5 Q462 428 462 363 L392 363 Q391 400 367.5 422.5 Q344 445 306 445 L220 445 Q180 445 156 426.5 Q132 408 132 378 L132 349 Q132 330 148.5 315 Q165 300 191 296 L363 266 Q413 257 443.5 227 Q474 197 474 155 L474 115 Q474 60 427.5 26 Q381 -8 305 -8 L218 -8 Z M109 742 L177 742 L261 630 L345 742 L413 742 L288 580 L233 580 L109 742 Z " />
<glyph glyph-name="scedilla" unicode="&#x15f;" horiz-adv-x="520" d="M363 266 Q413 257 443.5 227 Q474 197 474 155 L474 115 Q474 60 427.5 26 Q381 -8 305 -8 L293 -8 L272 -54 L279 -54 Q318 -54 341.5 -75 Q365 -96 365 -130 L365 -141 Q365 -178 336 -200.5 Q307 -223 260 -223 L205 -223 L205 -175 L258 -175 Q280 -175 294 -165.5 Q308 -156 308 -141 L308 -130 Q308 -115 295.5 -105.5 Q283 -96 263 -96 L216 -96 L216 -52 L235 -8 L218 -8 Q142 -8 96 35 Q50 78 50 148 L120 148 Q120 106 147 80 Q174 54 218 54 L305 54 Q348 54 375 71.5 Q402 89 402 117 L402 151 Q402 170 387 184.5 Q372 199 348 204 L175 234 Q123 243 91.5 273.5 Q60 304 60 345 L60 378 Q60 436 104 471.5 Q148 507 220 507 L306 507 Q376 507 419 467.5 Q462 428 462 363 L392 363 Q391 400 367.5 422.5 Q344 445 306 445 L220 445 Q180 445 156 426.5 Q132 408 132 378 L132 349 Q132 330 148.5 315 Q165 300 191 296 L363 266 Z " />
<glyph glyph-name="scircumflex" unicode="&#x15d;" horiz-adv-x="520" d="M218 -8 Q142 -8 96 35 Q50 78 50 148 L120 148 Q120 106 147 80 Q174 54 218 54 L305 54 Q348 54 375 71.5 Q402 89 402 117 L402 151 Q402 170 387 184.5 Q372 199 348 204 L175 234 Q123 243 91.5 273.5 Q60 304 60 345 L60 378 Q60 436 104 471.5 Q148 507 220 507 L306 507 Q376 507 419 467.5 Q462 428 462 363 L392 363 Q391 400 367.5 422.5 Q344 445 306 445 L220 445 Q180 445 156 426.5 Q132 408 132 378 L132 349 Q132 330 148.5 315 Q165 300 191 296 L363 266 Q413 257 443.5 227 Q474 197 474 155 L474 115 Q474 60 427.5 26 Q381 -8 305 -8 L218 -8 Z M233 742 L288 742 L413 580 L345 580 L261 692 L177 580 L109 580 L233 742 Z " />
<glyph glyph-name="uni0219" unicode="&#x219;" horiz-adv-x="520" d="M218 -8 Q142 -8 96 35 Q50 78 50 148 L120 148 Q120 106 147 80 Q174 54 218 54 L305 54 Q348 54 375 71.5 Q402 89 402 117 L402 151 Q402 170 387 184.5 Q372 199 348 204 L175 234 Q123 243 91.5 273.5 Q60 304 60 345 L60 378 Q60 436 104 471.5 Q148 507 220 507 L306 507 Q376 507 419 467.5 Q462 428 462 363 L392 363 Q391 400 367.5 422.5 Q344 445 306 445 L220 445 Q180 445 156 426.5 Q132 408 132 378 L132 349 Q132 330 148.5 315 Q165 300 191 296 L363 266 Q413 257 443.5 227 Q474 197 474 155 L474 115 Q474 60 427.5 26 Q381 -8 305 -8 L218 -8 Z M161 -224 L176 -214 Q206 -194 220.5 -167.5 Q235 -141 235 -106 L235 -75 L307 -75 L307 -106 Q307 -162 286 -201 Q265 -240 221 -268 L202 -280 L161 -224 Z " />
<glyph glyph-name="uni1E61" unicode="&#x1e61;" horiz-adv-x="520" d="M218 -8 Q142 -8 96 35 Q50 78 50 148 L120 148 Q120 106 147 80 Q174 54 218 54 L305 54 Q348 54 375 71.5 Q402 89 402 117 L402 151 Q402 170 387 184.5 Q372 199 348 204 L175 234 Q123 243 91.5 273.5 Q60 304 60 345 L60 378 Q60 436 104 471.5 Q148 507 220 507 L306 507 Q376 507 419 467.5 Q462 428 462 363 L392 363 Q391 400 367.5 422.5 Q344 445 306 445 L220 445 Q180 445 156 426.5 Q132 408 132 378 L132 349 Q132 330 148.5 315 Q165 300 191 296 L363 266 Q413 257 443.5 227 Q474 197 474 155 L474 115 Q474 60 427.5 26 Q381 -8 305 -8 L218 -8 Z M261 580 Q237 580 222 595 Q207 610 207 634 Q207 658 222 673 Q237 688 261 688 Q285 688 300 673 Q315 658 315 634 Q315 610 300 595 Q285 580 261 580 Z " />
<glyph glyph-name="uni1E63" unicode="&#x1e63;" horiz-adv-x="520" d="M218 -8 Q142 -8 96 35 Q50 78 50 148 L120 148 Q120 106 147 80 Q174 54 218 54 L305 54 Q348 54 375 71.5 Q402 89 402 117 L402 151 Q402 170 387 184.5 Q372 199 348 204 L175 234 Q123 243 91.5 273.5 Q60 304 60 345 L60 378 Q60 436 104 471.5 Q148 507 220 507 L306 507 Q376 507 419 467.5 Q462 428 462 363 L392 363 Q391 400 367.5 422.5 Q344 445 306 445 L220 445 Q180 445 156 426.5 Q132 408 132 378 L132 349 Q132 330 148.5 315 Q165 300 191 296 L363 266 Q413 257 443.5 227 Q474 197 474 155 L474 115 Q474 60 427.5 26 Q381 -8 305 -8 L218 -8 Z M271 -179 Q247 -179 232 -164 Q217 -149 217 -125 Q217 -101 232 -86 Q247 -71 271 -71 Q295 -71 310 -86 Q325 -101 325 -125 Q325 -149 310 -164 Q295 -179 271 -179 Z " />
<glyph glyph-name="germandbls" unicode="&#xdf;" horiz-adv-x="673" d="M425 -8 Q354 -8 310.5 33 Q267 74 267 141 L337 141 Q337 103 361 79.5 Q385 56 425 56 L476 56 Q516 56 540.5 76.5 Q565 97 565 130 L565 160 Q565 188 545 209 Q525 230 484 258 Q451 282 432 298 Q413 314 399.5 337 Q386 360 386 388 L386 408 Q386 458 418 488.5 Q450 519 508 523 Q508 578 475.5 609 Q443 640 384 640 L304 640 Q244 640 207 603.5 Q170 567 170 508 L170 0 L98 0 L98 406 L12 406 L12 470 L98 470 L98 508 Q98 596 154.5 650 Q211 704 304 704 L384 704 Q471 704 524.5 653.5 Q578 603 578 521 L578 467 L542 467 Q458 467 458 408 L458 388 Q458 366 475 349 Q492 332 531 303 Q582 267 609.5 236 Q637 205 637 160 L637 130 Q637 68 593 30 Q549 -8 476 -8 L425 -8 Z " />
<glyph glyph-name="t" unicode="t" horiz-adv-x="382" d="M272 0 Q193 0 158.5 34 Q124 68 124 146 L124 435 L36 435 L36 499 L124 499 L124 650 L196 650 L196 499 L326 499 L326 435 L196 435 L196 146 Q196 102 213.5 83 Q231 64 272 64 L326 64 L326 0 L272 0 Z " />
<glyph glyph-name="tbar" unicode="&#x167;" horiz-adv-x="372" d="M200 435 L200 299 L326 299 L326 237 L200 237 L200 146 Q200 102 217.5 83 Q235 64 276 64 L330 64 L330 0 L276 0 Q197 0 162.5 34 Q128 68 128 146 L128 237 L36 237 L36 299 L128 299 L128 435 L40 435 L40 499 L128 499 L128 650 L200 650 L200 499 L330 499 L330 435 L200 435 Z " />
<glyph glyph-name="tcaron" unicode="&#x165;" horiz-adv-x="532" d="M272 0 Q193 0 158.5 34 Q124 68 124 146 L124 435 L36 435 L36 499 L124 499 L124 650 L196 650 L196 499 L326 499 L326 435 L196 435 L196 146 Q196 102 213.5 83 Q231 64 272 64 L326 64 L326 0 L272 0 Z M370 551 L385 561 Q415 581 429.5 607.5 Q444 634 444 669 L444 700 L516 700 L516 669 Q516 613 495 574 Q474 535 430 507 L411 495 L370 551 Z " />
<glyph glyph-name="uni0163" unicode="&#x163;" horiz-adv-x="382" d="M244 -54 Q283 -54 306.5 -75 Q330 -96 330 -130 L330 -141 Q330 -178 301 -200.5 Q272 -223 225 -223 L170 -223 L170 -175 L223 -175 Q245 -175 259 -165.5 Q273 -156 273 -141 L273 -130 Q273 -115 260.5 -105.5 Q248 -96 228 -96 L181 -96 L181 -52 L206 8 Q163 20 143.5 53 Q124 86 124 146 L124 435 L36 435 L36 499 L124 499 L124 650 L196 650 L196 499 L326 499 L326 435 L196 435 L196 146 Q196 102 213.5 83 Q231 64 272 64 L326 64 L326 0 L272 0 L262 0 L237 -54 L244 -54 Z " />
<glyph glyph-name="uni021B" unicode="&#x21b;" horiz-adv-x="382" d="M272 0 Q193 0 158.5 34 Q124 68 124 146 L124 435 L36 435 L36 499 L124 499 L124 650 L196 650 L196 499 L326 499 L326 435 L196 435 L196 146 Q196 102 213.5 83 Q231 64 272 64 L326 64 L326 0 L272 0 Z M126 -224 L141 -214 Q171 -194 185.5 -167.5 Q200 -141 200 -106 L200 -75 L272 -75 L272 -106 Q272 -162 251 -201 Q230 -240 186 -268 L167 -280 L126 -224 Z " />
<glyph glyph-name="uni1E97" unicode="&#x1e97;" horiz-adv-x="382" d="M272 0 Q193 0 158.5 34 Q124 68 124 146 L124 435 L36 435 L36 499 L124 499 L124 650 L196 650 L196 499 L326 499 L326 435 L196 435 L196 146 Q196 102 213.5 83 Q231 64 272 64 L326 64 L326 0 L272 0 Z M71 731 Q49 731 35.5 744.5 Q22 758 22 780 Q22 802 35.5 815.5 Q49 829 71 829 Q93 829 106.5 815.5 Q120 802 120 780 Q120 758 106.5 744.5 Q93 731 71 731 Z M270 731 Q248 731 234.5 744.5 Q221 758 221 780 Q221 802 234.5 815.5 Q248 829 270 829 Q292 829 305.5 815.5 Q319 802 319 780 Q319 758 305.5 744.5 Q292 731 270 731 Z " />
<glyph glyph-name="uni1E6D" unicode="&#x1e6d;" horiz-adv-x="382" d="M272 0 Q193 0 158.5 34 Q124 68 124 146 L124 435 L36 435 L36 499 L124 499 L124 650 L196 650 L196 499 L326 499 L326 435 L196 435 L196 146 Q196 102 213.5 83 Q231 64 272 64 L326 64 L326 0 L272 0 Z M236 -179 Q212 -179 197 -164 Q182 -149 182 -125 Q182 -101 197 -86 Q212 -71 236 -71 Q260 -71 275 -86 Q290 -101 290 -125 Q290 -149 275 -164 Q260 -179 236 -179 Z " />
<glyph glyph-name="uni1E6F" unicode="&#x1e6f;" horiz-adv-x="382" d="M272 0 Q193 0 158.5 34 Q124 68 124 146 L124 435 L36 435 L36 499 L124 499 L124 650 L196 650 L196 499 L326 499 L326 435 L196 435 L196 146 Q196 102 213.5 83 Q231 64 272 64 L326 64 L326 0 L272 0 Z M109 -74 L364 -74 L364 -126 L109 -126 L109 -74 Z " />
<glyph glyph-name="u" unicode="u" horiz-adv-x="570" d="M225 -8 Q156 -8 113 39 Q70 86 70 162 L70 499 L142 499 L142 160 Q142 113 165 84.5 Q188 56 225 56 L287 56 Q333 56 372 93 Q411 130 422 186 L422 499 L494 499 L494 0 L424 0 L424 76 Q401 40 363 16 Q325 -8 289 -8 L225 -8 Z " />
<glyph glyph-name="uacute" unicode="&#xfa;" horiz-adv-x="570" d="M225 -8 Q156 -8 113 39 Q70 86 70 162 L70 499 L142 499 L142 160 Q142 113 165 84.5 Q188 56 225 56 L287 56 Q333 56 372 93 Q411 130 422 186 L422 499 L494 499 L494 0 L424 0 L424 76 Q401 40 363 16 Q325 -8 289 -8 L225 -8 Z M337 732 L419 732 L320 580 L254 580 L337 732 Z " />
<glyph glyph-name="ubreve" unicode="&#x16d;" horiz-adv-x="570" d="M225 -8 Q156 -8 113 39 Q70 86 70 162 L70 499 L142 499 L142 160 Q142 113 165 84.5 Q188 56 225 56 L287 56 Q333 56 372 93 Q411 130 422 186 L422 499 L494 499 L494 0 L424 0 L424 76 Q401 40 363 16 Q325 -8 289 -8 L225 -8 Z M279 572 Q217 572 178.5 608 Q140 644 140 703 L140 711 L198 711 L198 703 Q198 666 220 644 Q242 622 279 622 L291 622 Q328 622 350.5 644 Q373 666 373 703 L373 711 L430 711 L430 703 Q430 644 391.5 608 Q353 572 291 572 L279 572 Z " />
<glyph glyph-name="uni01D4" unicode="&#x1d4;" horiz-adv-x="570" d="M225 -8 Q156 -8 113 39 Q70 86 70 162 L70 499 L142 499 L142 160 Q142 113 165 84.5 Q188 56 225 56 L287 56 Q333 56 372 93 Q411 130 422 186 L422 499 L494 499 L494 0 L424 0 L424 76 Q401 40 363 16 Q325 -8 289 -8 L225 -8 Z M133 742 L201 742 L285 630 L369 742 L437 742 L312 580 L257 580 L133 742 Z " />
<glyph glyph-name="ucircumflex" unicode="&#xfb;" horiz-adv-x="570" d="M225 -8 Q156 -8 113 39 Q70 86 70 162 L70 499 L142 499 L142 160 Q142 113 165 84.5 Q188 56 225 56 L287 56 Q333 56 372 93 Q411 130 422 186 L422 499 L494 499 L494 0 L424 0 L424 76 Q401 40 363 16 Q325 -8 289 -8 L225 -8 Z M257 742 L312 742 L437 580 L369 580 L285 692 L201 580 L133 580 L257 742 Z " />
<glyph glyph-name="udieresis" unicode="&#xfc;" horiz-adv-x="570" d="M225 -8 Q156 -8 113 39 Q70 86 70 162 L70 499 L142 499 L142 160 Q142 113 165 84.5 Q188 56 225 56 L287 56 Q333 56 372 93 Q411 130 422 186 L422 499 L494 499 L494 0 L424 0 L424 76 Q401 40 363 16 Q325 -8 289 -8 L225 -8 Z M185 580 Q163 580 149.5 593.5 Q136 607 136 629 Q136 651 149.5 664.5 Q163 678 185 678 Q207 678 220.5 664.5 Q234 651 234 629 Q234 607 220.5 593.5 Q207 580 185 580 Z M384 580 Q362 580 348.5 593.5 Q335 607 335 629 Q335 651 348.5 664.5 Q362 678 384 678 Q406 678 419.5 664.5 Q433 651 433 629 Q433 607 419.5 593.5 Q406 580 384 580 Z " />
<glyph glyph-name="uni01D8" unicode="&#x1d8;" horiz-adv-x="570" d="M225 -8 Q156 -8 113 39 Q70 86 70 162 L70 499 L142 499 L142 160 Q142 113 165 84.5 Q188 56 225 56 L287 56 Q333 56 372 93 Q411 130 422 186 L422 499 L494 499 L494 0 L424 0 L424 76 Q401 40 363 16 Q325 -8 289 -8 L225 -8 Z M318 840 L388 840 L312 724 L254 724 L318 840 Z M185 580 Q163 580 149.5 593.5 Q136 607 136 629 Q136 651 149.5 664.5 Q163 678 185 678 Q207 678 220.5 664.5 Q234 651 234 629 Q234 607 220.5 593.5 Q207 580 185 580 Z M384 580 Q362 580 348.5 593.5 Q335 607 335 629 Q335 651 348.5 664.5 Q362 678 384 678 Q406 678 419.5 664.5 Q433 651 433 629 Q433 607 419.5 593.5 Q406 580 384 580 Z " />
<glyph glyph-name="uni01DA" unicode="&#x1da;" horiz-adv-x="570" d="M225 -8 Q156 -8 113 39 Q70 86 70 162 L70 499 L142 499 L142 160 Q142 113 165 84.5 Q188 56 225 56 L287 56 Q333 56 372 93 Q411 130 422 186 L422 499 L494 499 L494 0 L424 0 L424 76 Q401 40 363 16 Q325 -8 289 -8 L225 -8 Z M156 859 L217 859 L285 768 L353 859 L414 859 L310 724 L260 724 L156 859 Z M185 580 Q163 580 149.5 593.5 Q136 607 136 629 Q136 651 149.5 664.5 Q163 678 185 678 Q207 678 220.5 664.5 Q234 651 234 629 Q234 607 220.5 593.5 Q207 580 185 580 Z M384 580 Q362 580 348.5 593.5 Q335 607 335 629 Q335 651 348.5 664.5 Q362 678 384 678 Q406 678 419.5 664.5 Q433 651 433 629 Q433 607 419.5 593.5 Q406 580 384 580 Z " />
<glyph glyph-name="uni01DC" unicode="&#x1dc;" horiz-adv-x="570" d="M225 -8 Q156 -8 113 39 Q70 86 70 162 L70 499 L142 499 L142 160 Q142 113 165 84.5 Q188 56 225 56 L287 56 Q333 56 372 93 Q411 130 422 186 L422 499 L494 499 L494 0 L424 0 L424 76 Q401 40 363 16 Q325 -8 289 -8 L225 -8 Z M176 840 L246 840 L310 724 L252 724 L176 840 Z M185 580 Q163 580 149.5 593.5 Q136 607 136 629 Q136 651 149.5 664.5 Q163 678 185 678 Q207 678 220.5 664.5 Q234 651 234 629 Q234 607 220.5 593.5 Q207 580 185 580 Z M384 580 Q362 580 348.5 593.5 Q335 607 335 629 Q335 651 348.5 664.5 Q362 678 384 678 Q406 678 419.5 664.5 Q433 651 433 629 Q433 607 419.5 593.5 Q406 580 384 580 Z " />
<glyph glyph-name="uni01D6" unicode="&#x1d6;" horiz-adv-x="570" d="M225 -8 Q156 -8 113 39 Q70 86 70 162 L70 499 L142 499 L142 160 Q142 113 165 84.5 Q188 56 225 56 L287 56 Q333 56 372 93 Q411 130 422 186 L422 499 L494 499 L494 0 L424 0 L424 76 Q401 40 363 16 Q325 -8 289 -8 L225 -8 Z M158 786 L413 786 L413 734 L158 734 L158 786 Z M185 580 Q163 580 149.5 593.5 Q136 607 136 629 Q136 651 149.5 664.5 Q163 678 185 678 Q207 678 220.5 664.5 Q234 651 234 629 Q234 607 220.5 593.5 Q207 580 185 580 Z M384 580 Q362 580 348.5 593.5 Q335 607 335 629 Q335 651 348.5 664.5 Q362 678 384 678 Q406 678 419.5 664.5 Q433 651 433 629 Q433 607 419.5 593.5 Q406 580 384 580 Z " />
<glyph glyph-name="uni1EE5" unicode="&#x1ee5;" horiz-adv-x="570" d="M225 -8 Q156 -8 113 39 Q70 86 70 162 L70 499 L142 499 L142 160 Q142 113 165 84.5 Q188 56 225 56 L287 56 Q333 56 372 93 Q411 130 422 186 L422 499 L494 499 L494 0 L424 0 L424 76 Q401 40 363 16 Q325 -8 289 -8 L225 -8 Z M285 -179 Q261 -179 246 -164 Q231 -149 231 -125 Q231 -101 246 -86 Q261 -71 285 -71 Q309 -71 324 -86 Q339 -101 339 -125 Q339 -149 324 -164 Q309 -179 285 -179 Z " />
<glyph glyph-name="ugrave" unicode="&#xf9;" horiz-adv-x="570" d="M225 -8 Q156 -8 113 39 Q70 86 70 162 L70 499 L142 499 L142 160 Q142 113 165 84.5 Q188 56 225 56 L287 56 Q333 56 372 93 Q411 130 422 186 L422 499 L494 499 L494 0 L424 0 L424 76 Q401 40 363 16 Q325 -8 289 -8 L225 -8 Z M154 732 L236 732 L319 580 L253 580 L154 732 Z " />
<glyph glyph-name="uni1EE7" unicode="&#x1ee7;" horiz-adv-x="570" d="M225 -8 Q156 -8 113 39 Q70 86 70 162 L70 499 L142 499 L142 160 Q142 113 165 84.5 Q188 56 225 56 L287 56 Q333 56 372 93 Q411 130 422 186 L422 499 L494 499 L494 0 L424 0 L424 76 Q401 40 363 16 Q325 -8 289 -8 L225 -8 Z M250 582 Q250 603 262.5 617 Q275 631 298 646 Q315 658 323.5 666 Q332 674 332 685 L332 696 Q332 729 296 729 L276 729 Q234 729 234 687 L176 687 Q176 781 276 781 L296 781 Q343 781 367.5 759.5 Q392 738 392 696 L392 685 Q392 662 379 647 Q366 632 342 615 Q327 605 319.5 597.5 Q312 590 312 582 L312 566 L250 566 L250 582 Z " />
<glyph glyph-name="uhorn" unicode="&#x1b0;" horiz-adv-x="642" d="M626 499 L626 487 Q626 411 591.5 366 Q557 321 494 315 L494 0 L424 0 L424 76 Q401 40 363 16 Q325 -8 289 -8 L225 -8 Q156 -8 113 39 Q70 86 70 162 L70 499 L142 499 L142 160 Q142 113 165 84.5 Q188 56 225 56 L287 56 Q333 56 372 93 Q411 130 422 186 L422 499 L494 499 L494 375 Q558 387 558 487 L558 499 L626 499 Z " />
<glyph glyph-name="uni1EE9" unicode="&#x1ee9;" horiz-adv-x="642" d="M626 499 L626 487 Q626 411 591.5 366 Q557 321 494 315 L494 0 L424 0 L424 76 Q401 40 363 16 Q325 -8 289 -8 L225 -8 Q156 -8 113 39 Q70 86 70 162 L70 499 L142 499 L142 160 Q142 113 165 84.5 Q188 56 225 56 L287 56 Q333 56 372 93 Q411 130 422 186 L422 499 L494 499 L494 375 Q558 387 558 487 L558 499 L626 499 Z M334 732 L416 732 L317 580 L251 580 L334 732 Z " />
<glyph glyph-name="uni1EF1" unicode="&#x1ef1;" horiz-adv-x="642" d="M626 499 L626 487 Q626 411 591.5 366 Q557 321 494 315 L494 0 L424 0 L424 76 Q401 40 363 16 Q325 -8 289 -8 L225 -8 Q156 -8 113 39 Q70 86 70 162 L70 499 L142 499 L142 160 Q142 113 165 84.5 Q188 56 225 56 L287 56 Q333 56 372 93 Q411 130 422 186 L422 499 L494 499 L494 375 Q558 387 558 487 L558 499 L626 499 Z M282 -179 Q258 -179 243 -164 Q228 -149 228 -125 Q228 -101 243 -86 Q258 -71 282 -71 Q306 -71 321 -86 Q336 -101 336 -125 Q336 -149 321 -164 Q306 -179 282 -179 Z " />
<glyph glyph-name="uni1EEB" unicode="&#x1eeb;" horiz-adv-x="642" d="M626 499 L626 487 Q626 411 591.5 366 Q557 321 494 315 L494 0 L424 0 L424 76 Q401 40 363 16 Q325 -8 289 -8 L225 -8 Q156 -8 113 39 Q70 86 70 162 L70 499 L142 499 L142 160 Q142 113 165 84.5 Q188 56 225 56 L287 56 Q333 56 372 93 Q411 130 422 186 L422 499 L494 499 L494 375 Q558 387 558 487 L558 499 L626 499 Z M151 732 L233 732 L316 580 L250 580 L151 732 Z " />
<glyph glyph-name="uni1EED" unicode="&#x1eed;" horiz-adv-x="642" d="M626 499 L626 487 Q626 411 591.5 366 Q557 321 494 315 L494 0 L424 0 L424 76 Q401 40 363 16 Q325 -8 289 -8 L225 -8 Q156 -8 113 39 Q70 86 70 162 L70 499 L142 499 L142 160 Q142 113 165 84.5 Q188 56 225 56 L287 56 Q333 56 372 93 Q411 130 422 186 L422 499 L494 499 L494 375 Q558 387 558 487 L558 499 L626 499 Z M247 582 Q247 603 259.5 617 Q272 631 295 646 Q312 658 320.5 666 Q329 674 329 685 L329 696 Q329 729 293 729 L273 729 Q231 729 231 687 L173 687 Q173 781 273 781 L293 781 Q340 781 364.5 759.5 Q389 738 389 696 L389 685 Q389 662 376 647 Q363 632 339 615 Q324 605 316.5 597.5 Q309 590 309 582 L309 566 L247 566 L247 582 Z " />
<glyph glyph-name="uni1EEF" unicode="&#x1eef;" horiz-adv-x="642" d="M626 499 L626 487 Q626 411 591.5 366 Q557 321 494 315 L494 0 L424 0 L424 76 Q401 40 363 16 Q325 -8 289 -8 L225 -8 Q156 -8 113 39 Q70 86 70 162 L70 499 L142 499 L142 160 Q142 113 165 84.5 Q188 56 225 56 L287 56 Q333 56 372 93 Q411 130 422 186 L422 499 L494 499 L494 375 Q558 387 558 487 L558 499 L626 499 Z M342 572 Q319 572 302.5 582.5 Q286 593 268 612 Q252 627 244 633 Q236 639 225 639 L215 639 Q200 639 189 625 Q178 611 177 588 L121 588 Q122 633 148.5 661 Q175 689 215 689 L225 689 Q250 689 267.5 678 Q285 667 305 647 Q317 634 325 628 Q333 622 342 622 L352 622 Q366 622 376.5 636 Q387 650 388 673 L444 673 Q443 628 417 600 Q391 572 352 572 L342 572 Z " />
<glyph glyph-name="uhungarumlaut" unicode="&#x171;" horiz-adv-x="570" d="M225 -8 Q156 -8 113 39 Q70 86 70 162 L70 499 L142 499 L142 160 Q142 113 165 84.5 Q188 56 225 56 L287 56 Q333 56 372 93 Q411 130 422 186 L422 499 L494 499 L494 0 L424 0 L424 76 Q401 40 363 16 Q325 -8 289 -8 L225 -8 Z M259 732 L337 732 L242 580 L180 580 L259 732 Z M388 732 L466 732 L371 580 L309 580 L388 732 Z " />
<glyph glyph-name="umacron" unicode="&#x16b;" horiz-adv-x="570" d="M225 -8 Q156 -8 113 39 Q70 86 70 162 L70 499 L142 499 L142 160 Q142 113 165 84.5 Q188 56 225 56 L287 56 Q333 56 372 93 Q411 130 422 186 L422 499 L494 499 L494 0 L424 0 L424 76 Q401 40 363 16 Q325 -8 289 -8 L225 -8 Z M158 642 L413 642 L413 590 L158 590 L158 642 Z " />
<glyph glyph-name="uogonek" unicode="&#x173;" horiz-adv-x="570" d="M485 -155 Q498 -155 513.5 -149.5 Q529 -144 541 -135 L541 -191 Q531 -199 513.5 -204 Q496 -209 480 -209 L470 -209 Q422 -209 393.5 -183 Q365 -157 365 -113 L365 -103 Q365 -72 381.5 -43.5 Q398 -15 426 0 L424 0 L424 76 Q401 40 363 16 Q325 -8 289 -8 L225 -8 Q156 -8 113 39 Q70 86 70 162 L70 499 L142 499 L142 160 Q142 113 165 84.5 Q188 56 225 56 L287 56 Q333 56 372 93 Q411 130 422 186 L422 499 L494 499 L494 0 Q463 -16 445 -42.5 Q427 -69 427 -99 L427 -109 Q427 -129 439.5 -142 Q452 -155 475 -155 L485 -155 Z " />
</font>
</svg>
